%
M48
M72
T01C0.0138
T02C0.0157
T03C0.0200
T04C0.0217
T05C0.0236
T06C0.0276
T07C0.0394
T08C0.0400
T09C0.0591
%
T01
X5087Y1430
X5387Y4830
X7787Y5930
X8987Y6930
X9587Y6730
X10687Y6730
X11287Y7530
X11687Y8030
X12556Y7521
X13305Y7740
X14387Y7730
X14583Y8258
X15687Y7230
X15887Y7630
X15887Y8430
X15887Y9330
X14387Y9830
X13587Y10630
X14387Y11430
X15087Y12130
X14887Y13130
X14187Y13230
X13987Y14830
X13887Y15530
X16087Y13530
X15987Y11230
X17987Y9430
X17978Y8640
X17583Y8415
X18087Y7730
X18387Y8430
X17987Y6630
X17387Y5730
X17068Y5430
X16687Y5030
X17487Y4646
X18006Y4030
X17787Y3330
X16787Y2430
X16287Y2430
X15687Y2830
X15273Y4130
X15125Y4630
X14487Y4530
X12587Y5584
X9987Y4721
X9861Y5159
X10587Y2949
X8987Y1430
X13087Y2630
X17387Y1430
X18587Y2130
X19170Y4047
X19595Y4053
X20387Y10130
X19587Y12530
X12787Y11430
X12187Y12230
X11887Y12630
X11487Y13430
X10787Y12830
X10687Y12130
X10621Y11130
X11787Y10130
X12787Y9830
X12787Y8930
X8887Y9030
X8787Y9930
X9287Y13830
X10987Y15130
X10987Y15730
X11087Y16330
T02
X9042Y4884
X8687Y4530
X8333Y4176
X8333Y4884
X9042Y4176
T03
X17387Y11086
T04
X20287Y9130
X18187Y15930
X17887Y16230
X5787Y7630
X5087Y8830
X8587Y2430
X9087Y2430
X12487Y4730
X12784Y4433
X5087Y17330
T05
X11770Y2082
X14605Y2082
T06
X13955Y2830
X14486Y3184
X12419Y2830
X11888Y3184
T07
X7644Y7221
X7644Y8008
X7644Y8795
X6857Y8795
X6857Y8008
X6857Y7221
X6857Y9583
X6857Y10370
X7644Y10370
X7644Y9583
X7644Y11158
X7644Y11945
X7644Y12732
X6857Y12732
X6857Y11945
X6857Y11158
X6857Y13520
X7644Y13520
X7644Y14307
X7644Y15095
X7644Y15882
X7644Y16669
X6857Y16669
X6857Y15882
X6857Y15095
X6857Y14307
X6857Y17457
X6857Y18244
X7644Y18244
X7644Y17457
T08
X10333Y17854
X11333Y17854
X12333Y17854
X13333Y17854
X14333Y17854
X15333Y17854
X16333Y17854
X17333Y17854
X18333Y17854
X19333Y17854
X20333Y17854
X21333Y17854
X21333Y18854
X20333Y18854
X19333Y18854
X18333Y18854
X17333Y18854
X16333Y18854
X15333Y18854
X14333Y18854
X13333Y18854
X12333Y18854
X11333Y18854
X10333Y18854
X21087Y12530
X21087Y11530
X21294Y6906
X20294Y6906
X20294Y5906
X21294Y5906
X21294Y4906
X20294Y4906
X20294Y3906
X21294Y3906
X21294Y2906
X20294Y2906
X20294Y1906
X21294Y1906
X16779Y1906
X15779Y1906
T09
X5636Y18717
M30
