G75*
%MOIN*%
%OFA0B0*%
%FSLAX25Y25*%
%IPPOS*%
%LPD*%
%AMOC8*
5,1,8,0,0,1.08239X$1,22.5*
%
%ADD10C,0.00300*%
%ADD11C,0.00200*%
%ADD12R,0.03500X0.00750*%
%ADD13C,0.00600*%
%ADD14C,0.00800*%
%ADD15C,0.00500*%
%ADD16C,0.01600*%
D10*
X0053202Y0043394D02*
X0053202Y0045006D01*
X0053204Y0045057D01*
X0053210Y0045107D01*
X0053220Y0045156D01*
X0053234Y0045205D01*
X0053251Y0045252D01*
X0053272Y0045298D01*
X0053297Y0045342D01*
X0053325Y0045385D01*
X0053356Y0045424D01*
X0053391Y0045461D01*
X0053428Y0045496D01*
X0053467Y0045527D01*
X0053510Y0045555D01*
X0053554Y0045580D01*
X0053600Y0045601D01*
X0053647Y0045618D01*
X0053696Y0045632D01*
X0053745Y0045642D01*
X0053795Y0045648D01*
X0053846Y0045650D01*
X0054491Y0045650D01*
X0055611Y0045650D02*
X0055611Y0044361D01*
X0056578Y0044361D01*
X0056626Y0044359D01*
X0056674Y0044354D01*
X0056721Y0044345D01*
X0056768Y0044332D01*
X0056813Y0044316D01*
X0056857Y0044297D01*
X0056900Y0044275D01*
X0056941Y0044249D01*
X0056980Y0044220D01*
X0057016Y0044189D01*
X0057050Y0044155D01*
X0057081Y0044119D01*
X0057110Y0044080D01*
X0057136Y0044039D01*
X0057158Y0043996D01*
X0057177Y0043952D01*
X0057193Y0043907D01*
X0057206Y0043860D01*
X0057215Y0043813D01*
X0057220Y0043765D01*
X0057222Y0043717D01*
X0057222Y0043394D01*
X0057220Y0043346D01*
X0057215Y0043298D01*
X0057206Y0043251D01*
X0057193Y0043204D01*
X0057177Y0043159D01*
X0057158Y0043115D01*
X0057136Y0043072D01*
X0057110Y0043031D01*
X0057081Y0042992D01*
X0057050Y0042956D01*
X0057016Y0042922D01*
X0056980Y0042891D01*
X0056941Y0042862D01*
X0056900Y0042836D01*
X0056857Y0042814D01*
X0056813Y0042795D01*
X0056768Y0042779D01*
X0056721Y0042766D01*
X0056674Y0042757D01*
X0056626Y0042752D01*
X0056578Y0042750D01*
X0055611Y0042750D01*
X0054491Y0042750D02*
X0053846Y0042750D01*
X0053798Y0042752D01*
X0053750Y0042757D01*
X0053703Y0042766D01*
X0053656Y0042779D01*
X0053611Y0042795D01*
X0053567Y0042814D01*
X0053524Y0042836D01*
X0053483Y0042862D01*
X0053444Y0042891D01*
X0053408Y0042922D01*
X0053374Y0042956D01*
X0053343Y0042992D01*
X0053314Y0043031D01*
X0053288Y0043072D01*
X0053266Y0043115D01*
X0053247Y0043159D01*
X0053231Y0043204D01*
X0053218Y0043251D01*
X0053209Y0043298D01*
X0053204Y0043346D01*
X0053202Y0043394D01*
X0055611Y0045650D02*
X0057222Y0045650D01*
X0086751Y0031650D02*
X0086751Y0028750D01*
X0086751Y0030039D02*
X0087557Y0030039D01*
X0087718Y0030039D02*
X0088362Y0028750D01*
X0089611Y0028750D02*
X0090578Y0028750D01*
X0090626Y0028752D01*
X0090674Y0028757D01*
X0090721Y0028766D01*
X0090768Y0028779D01*
X0090813Y0028795D01*
X0090857Y0028814D01*
X0090900Y0028836D01*
X0090941Y0028862D01*
X0090980Y0028891D01*
X0091016Y0028922D01*
X0091050Y0028956D01*
X0091081Y0028992D01*
X0091110Y0029031D01*
X0091136Y0029072D01*
X0091158Y0029115D01*
X0091177Y0029159D01*
X0091193Y0029204D01*
X0091206Y0029251D01*
X0091215Y0029298D01*
X0091220Y0029346D01*
X0091222Y0029394D01*
X0091222Y0029717D01*
X0091220Y0029765D01*
X0091215Y0029813D01*
X0091206Y0029860D01*
X0091193Y0029907D01*
X0091177Y0029952D01*
X0091158Y0029996D01*
X0091136Y0030039D01*
X0091110Y0030080D01*
X0091081Y0030119D01*
X0091050Y0030155D01*
X0091016Y0030189D01*
X0090980Y0030220D01*
X0090941Y0030249D01*
X0090900Y0030275D01*
X0090857Y0030297D01*
X0090813Y0030316D01*
X0090768Y0030332D01*
X0090721Y0030345D01*
X0090674Y0030354D01*
X0090626Y0030359D01*
X0090578Y0030361D01*
X0089611Y0030361D01*
X0089611Y0031650D01*
X0091222Y0031650D01*
X0087557Y0031650D02*
X0086751Y0031650D01*
X0087557Y0031650D02*
X0087612Y0031648D01*
X0087667Y0031642D01*
X0087721Y0031633D01*
X0087774Y0031620D01*
X0087827Y0031603D01*
X0087878Y0031583D01*
X0087928Y0031560D01*
X0087976Y0031533D01*
X0088022Y0031502D01*
X0088066Y0031469D01*
X0088107Y0031433D01*
X0088146Y0031394D01*
X0088182Y0031353D01*
X0088215Y0031309D01*
X0088246Y0031263D01*
X0088273Y0031215D01*
X0088296Y0031165D01*
X0088316Y0031114D01*
X0088333Y0031061D01*
X0088346Y0031008D01*
X0088355Y0030954D01*
X0088361Y0030899D01*
X0088363Y0030844D01*
X0088361Y0030789D01*
X0088355Y0030734D01*
X0088346Y0030680D01*
X0088333Y0030627D01*
X0088316Y0030574D01*
X0088296Y0030523D01*
X0088273Y0030473D01*
X0088246Y0030425D01*
X0088215Y0030379D01*
X0088182Y0030335D01*
X0088146Y0030294D01*
X0088107Y0030255D01*
X0088066Y0030219D01*
X0088022Y0030186D01*
X0087976Y0030155D01*
X0087928Y0030128D01*
X0087878Y0030105D01*
X0087827Y0030085D01*
X0087774Y0030068D01*
X0087721Y0030055D01*
X0087667Y0030046D01*
X0087612Y0030040D01*
X0087557Y0030038D01*
X0100751Y0041750D02*
X0100751Y0044650D01*
X0101557Y0044650D01*
X0101612Y0044648D01*
X0101667Y0044642D01*
X0101721Y0044633D01*
X0101774Y0044620D01*
X0101827Y0044603D01*
X0101878Y0044583D01*
X0101928Y0044560D01*
X0101976Y0044533D01*
X0102022Y0044502D01*
X0102066Y0044469D01*
X0102107Y0044433D01*
X0102146Y0044394D01*
X0102182Y0044353D01*
X0102215Y0044309D01*
X0102246Y0044263D01*
X0102273Y0044215D01*
X0102296Y0044165D01*
X0102316Y0044114D01*
X0102333Y0044061D01*
X0102346Y0044008D01*
X0102355Y0043954D01*
X0102361Y0043899D01*
X0102363Y0043844D01*
X0102361Y0043789D01*
X0102355Y0043734D01*
X0102346Y0043680D01*
X0102333Y0043627D01*
X0102316Y0043574D01*
X0102296Y0043523D01*
X0102273Y0043473D01*
X0102246Y0043425D01*
X0102215Y0043379D01*
X0102182Y0043335D01*
X0102146Y0043294D01*
X0102107Y0043255D01*
X0102066Y0043219D01*
X0102022Y0043186D01*
X0101976Y0043155D01*
X0101928Y0043128D01*
X0101878Y0043105D01*
X0101827Y0043085D01*
X0101774Y0043068D01*
X0101721Y0043055D01*
X0101667Y0043046D01*
X0101612Y0043040D01*
X0101557Y0043038D01*
X0101557Y0043039D02*
X0100751Y0043039D01*
X0101718Y0043039D02*
X0102362Y0041750D01*
X0103611Y0041750D02*
X0105222Y0041750D01*
X0103611Y0041750D02*
X0104980Y0043361D01*
X0104497Y0044650D02*
X0104438Y0044648D01*
X0104380Y0044643D01*
X0104322Y0044633D01*
X0104265Y0044621D01*
X0104209Y0044604D01*
X0104154Y0044585D01*
X0104100Y0044561D01*
X0104048Y0044535D01*
X0103998Y0044505D01*
X0103949Y0044472D01*
X0103903Y0044436D01*
X0103859Y0044397D01*
X0103818Y0044356D01*
X0103779Y0044312D01*
X0103743Y0044266D01*
X0103711Y0044217D01*
X0103681Y0044167D01*
X0103654Y0044115D01*
X0103631Y0044061D01*
X0103611Y0044006D01*
X0104980Y0043361D02*
X0105017Y0043398D01*
X0105051Y0043438D01*
X0105083Y0043480D01*
X0105111Y0043525D01*
X0105137Y0043571D01*
X0105159Y0043618D01*
X0105178Y0043667D01*
X0105194Y0043717D01*
X0105206Y0043768D01*
X0105215Y0043820D01*
X0105220Y0043872D01*
X0105222Y0043925D01*
X0105220Y0043977D01*
X0105215Y0044028D01*
X0105205Y0044079D01*
X0105193Y0044129D01*
X0105176Y0044178D01*
X0105156Y0044226D01*
X0105133Y0044272D01*
X0105107Y0044317D01*
X0105077Y0044359D01*
X0105045Y0044400D01*
X0105010Y0044438D01*
X0104972Y0044473D01*
X0104931Y0044505D01*
X0104889Y0044535D01*
X0104844Y0044561D01*
X0104798Y0044584D01*
X0104750Y0044604D01*
X0104701Y0044621D01*
X0104651Y0044633D01*
X0104600Y0044643D01*
X0104549Y0044648D01*
X0104497Y0044650D01*
X0105522Y0051299D02*
X0105522Y0052105D01*
X0105524Y0052160D01*
X0105530Y0052215D01*
X0105539Y0052269D01*
X0105552Y0052322D01*
X0105569Y0052375D01*
X0105589Y0052426D01*
X0105612Y0052476D01*
X0105639Y0052524D01*
X0105670Y0052570D01*
X0105703Y0052614D01*
X0105739Y0052655D01*
X0105778Y0052694D01*
X0105819Y0052730D01*
X0105863Y0052763D01*
X0105909Y0052794D01*
X0105957Y0052821D01*
X0106007Y0052844D01*
X0106058Y0052864D01*
X0106111Y0052881D01*
X0106164Y0052894D01*
X0106218Y0052903D01*
X0106273Y0052909D01*
X0106328Y0052911D01*
X0106383Y0052909D01*
X0106438Y0052903D01*
X0106492Y0052894D01*
X0106545Y0052881D01*
X0106598Y0052864D01*
X0106649Y0052844D01*
X0106699Y0052821D01*
X0106747Y0052794D01*
X0106793Y0052763D01*
X0106837Y0052730D01*
X0106878Y0052694D01*
X0106917Y0052655D01*
X0106953Y0052614D01*
X0106986Y0052570D01*
X0107017Y0052524D01*
X0107044Y0052476D01*
X0107067Y0052426D01*
X0107087Y0052375D01*
X0107104Y0052322D01*
X0107117Y0052269D01*
X0107126Y0052215D01*
X0107132Y0052160D01*
X0107134Y0052105D01*
X0107133Y0052105D02*
X0107133Y0051299D01*
X0107133Y0052266D02*
X0108422Y0052910D01*
X0108422Y0054159D02*
X0108422Y0055770D01*
X0108422Y0054964D02*
X0105522Y0054964D01*
X0106167Y0054159D01*
X0106328Y0057039D02*
X0106489Y0057039D01*
X0106537Y0057041D01*
X0106585Y0057046D01*
X0106632Y0057055D01*
X0106679Y0057068D01*
X0106724Y0057084D01*
X0106768Y0057103D01*
X0106811Y0057125D01*
X0106852Y0057151D01*
X0106891Y0057180D01*
X0106927Y0057211D01*
X0106961Y0057245D01*
X0106992Y0057281D01*
X0107021Y0057320D01*
X0107047Y0057361D01*
X0107069Y0057404D01*
X0107088Y0057448D01*
X0107104Y0057493D01*
X0107117Y0057540D01*
X0107126Y0057587D01*
X0107131Y0057635D01*
X0107133Y0057683D01*
X0107133Y0058650D01*
X0106328Y0058650D01*
X0106273Y0058648D01*
X0106218Y0058642D01*
X0106164Y0058633D01*
X0106111Y0058620D01*
X0106058Y0058603D01*
X0106007Y0058583D01*
X0105957Y0058560D01*
X0105909Y0058533D01*
X0105863Y0058502D01*
X0105819Y0058469D01*
X0105778Y0058433D01*
X0105739Y0058394D01*
X0105703Y0058353D01*
X0105670Y0058309D01*
X0105639Y0058263D01*
X0105612Y0058215D01*
X0105589Y0058165D01*
X0105569Y0058114D01*
X0105552Y0058061D01*
X0105539Y0058008D01*
X0105530Y0057954D01*
X0105524Y0057899D01*
X0105522Y0057844D01*
X0105524Y0057789D01*
X0105530Y0057734D01*
X0105539Y0057680D01*
X0105552Y0057627D01*
X0105569Y0057574D01*
X0105589Y0057523D01*
X0105612Y0057473D01*
X0105639Y0057425D01*
X0105670Y0057379D01*
X0105703Y0057335D01*
X0105739Y0057294D01*
X0105778Y0057255D01*
X0105819Y0057219D01*
X0105863Y0057186D01*
X0105909Y0057155D01*
X0105957Y0057128D01*
X0106007Y0057105D01*
X0106058Y0057085D01*
X0106111Y0057068D01*
X0106164Y0057055D01*
X0106218Y0057046D01*
X0106273Y0057040D01*
X0106328Y0057038D01*
X0107133Y0058650D02*
X0107203Y0058648D01*
X0107272Y0058642D01*
X0107342Y0058633D01*
X0107410Y0058620D01*
X0107478Y0058603D01*
X0107545Y0058583D01*
X0107610Y0058558D01*
X0107674Y0058531D01*
X0107737Y0058500D01*
X0107798Y0058465D01*
X0107856Y0058428D01*
X0107913Y0058387D01*
X0107967Y0058343D01*
X0108019Y0058297D01*
X0108069Y0058247D01*
X0108115Y0058195D01*
X0108159Y0058141D01*
X0108200Y0058084D01*
X0108237Y0058026D01*
X0108272Y0057965D01*
X0108303Y0057902D01*
X0108330Y0057838D01*
X0108355Y0057773D01*
X0108375Y0057706D01*
X0108392Y0057638D01*
X0108405Y0057570D01*
X0108414Y0057500D01*
X0108420Y0057431D01*
X0108422Y0057361D01*
X0108422Y0051299D02*
X0105522Y0051299D01*
X0113522Y0039850D02*
X0114328Y0039850D01*
X0114383Y0039848D01*
X0114438Y0039842D01*
X0114492Y0039833D01*
X0114545Y0039820D01*
X0114598Y0039803D01*
X0114649Y0039783D01*
X0114699Y0039760D01*
X0114747Y0039733D01*
X0114793Y0039702D01*
X0114837Y0039669D01*
X0114878Y0039633D01*
X0114917Y0039594D01*
X0114953Y0039553D01*
X0114986Y0039509D01*
X0115017Y0039463D01*
X0115044Y0039415D01*
X0115067Y0039365D01*
X0115087Y0039314D01*
X0115104Y0039261D01*
X0115117Y0039208D01*
X0115126Y0039154D01*
X0115132Y0039099D01*
X0115134Y0039044D01*
X0115132Y0038989D01*
X0115126Y0038934D01*
X0115117Y0038880D01*
X0115104Y0038827D01*
X0115087Y0038774D01*
X0115067Y0038723D01*
X0115044Y0038673D01*
X0115017Y0038625D01*
X0114986Y0038579D01*
X0114953Y0038535D01*
X0114917Y0038494D01*
X0114878Y0038455D01*
X0114837Y0038419D01*
X0114793Y0038386D01*
X0114747Y0038355D01*
X0114699Y0038328D01*
X0114649Y0038305D01*
X0114598Y0038285D01*
X0114545Y0038268D01*
X0114492Y0038255D01*
X0114438Y0038246D01*
X0114383Y0038240D01*
X0114328Y0038238D01*
X0114328Y0038239D02*
X0113522Y0038239D01*
X0114489Y0038239D02*
X0115133Y0036950D01*
X0113522Y0036950D02*
X0113522Y0039850D01*
X0116382Y0039850D02*
X0117993Y0039850D01*
X0117188Y0036950D01*
X0116382Y0039528D02*
X0116382Y0039850D01*
X0089362Y0065750D02*
X0088718Y0067039D01*
X0088557Y0067039D02*
X0087751Y0067039D01*
X0088557Y0067038D02*
X0088612Y0067040D01*
X0088667Y0067046D01*
X0088721Y0067055D01*
X0088774Y0067068D01*
X0088827Y0067085D01*
X0088878Y0067105D01*
X0088928Y0067128D01*
X0088976Y0067155D01*
X0089022Y0067186D01*
X0089066Y0067219D01*
X0089107Y0067255D01*
X0089146Y0067294D01*
X0089182Y0067335D01*
X0089215Y0067379D01*
X0089246Y0067425D01*
X0089273Y0067473D01*
X0089296Y0067523D01*
X0089316Y0067574D01*
X0089333Y0067627D01*
X0089346Y0067680D01*
X0089355Y0067734D01*
X0089361Y0067789D01*
X0089363Y0067844D01*
X0089361Y0067899D01*
X0089355Y0067954D01*
X0089346Y0068008D01*
X0089333Y0068061D01*
X0089316Y0068114D01*
X0089296Y0068165D01*
X0089273Y0068215D01*
X0089246Y0068263D01*
X0089215Y0068309D01*
X0089182Y0068353D01*
X0089146Y0068394D01*
X0089107Y0068433D01*
X0089066Y0068469D01*
X0089022Y0068502D01*
X0088976Y0068533D01*
X0088928Y0068560D01*
X0088878Y0068583D01*
X0088827Y0068603D01*
X0088774Y0068620D01*
X0088721Y0068633D01*
X0088667Y0068642D01*
X0088612Y0068648D01*
X0088557Y0068650D01*
X0087751Y0068650D01*
X0087751Y0065750D01*
X0090611Y0066556D02*
X0090611Y0067361D01*
X0091578Y0067361D01*
X0090611Y0067361D02*
X0090613Y0067431D01*
X0090619Y0067500D01*
X0090628Y0067570D01*
X0090641Y0067638D01*
X0090658Y0067706D01*
X0090678Y0067773D01*
X0090703Y0067838D01*
X0090730Y0067902D01*
X0090761Y0067965D01*
X0090796Y0068026D01*
X0090833Y0068084D01*
X0090874Y0068141D01*
X0090918Y0068195D01*
X0090964Y0068247D01*
X0091014Y0068297D01*
X0091066Y0068343D01*
X0091120Y0068387D01*
X0091177Y0068428D01*
X0091235Y0068465D01*
X0091296Y0068500D01*
X0091359Y0068531D01*
X0091423Y0068558D01*
X0091488Y0068583D01*
X0091555Y0068603D01*
X0091623Y0068620D01*
X0091691Y0068633D01*
X0091761Y0068642D01*
X0091830Y0068648D01*
X0091900Y0068650D01*
X0092222Y0066717D02*
X0092222Y0066556D01*
X0092222Y0066717D02*
X0092220Y0066765D01*
X0092215Y0066813D01*
X0092206Y0066860D01*
X0092193Y0066907D01*
X0092177Y0066952D01*
X0092158Y0066996D01*
X0092136Y0067039D01*
X0092110Y0067080D01*
X0092081Y0067119D01*
X0092050Y0067155D01*
X0092016Y0067189D01*
X0091980Y0067220D01*
X0091941Y0067249D01*
X0091900Y0067275D01*
X0091857Y0067297D01*
X0091813Y0067316D01*
X0091768Y0067332D01*
X0091721Y0067345D01*
X0091674Y0067354D01*
X0091626Y0067359D01*
X0091578Y0067361D01*
X0092223Y0066556D02*
X0092221Y0066501D01*
X0092215Y0066446D01*
X0092206Y0066392D01*
X0092193Y0066339D01*
X0092176Y0066286D01*
X0092156Y0066235D01*
X0092133Y0066185D01*
X0092106Y0066137D01*
X0092075Y0066091D01*
X0092042Y0066047D01*
X0092006Y0066006D01*
X0091967Y0065967D01*
X0091926Y0065931D01*
X0091882Y0065898D01*
X0091836Y0065867D01*
X0091788Y0065840D01*
X0091738Y0065817D01*
X0091687Y0065797D01*
X0091634Y0065780D01*
X0091581Y0065767D01*
X0091527Y0065758D01*
X0091472Y0065752D01*
X0091417Y0065750D01*
X0091362Y0065752D01*
X0091307Y0065758D01*
X0091253Y0065767D01*
X0091200Y0065780D01*
X0091147Y0065797D01*
X0091096Y0065817D01*
X0091046Y0065840D01*
X0090998Y0065867D01*
X0090952Y0065898D01*
X0090908Y0065931D01*
X0090867Y0065967D01*
X0090828Y0066006D01*
X0090792Y0066047D01*
X0090759Y0066091D01*
X0090728Y0066137D01*
X0090701Y0066185D01*
X0090678Y0066235D01*
X0090658Y0066286D01*
X0090641Y0066339D01*
X0090628Y0066392D01*
X0090619Y0066446D01*
X0090613Y0066501D01*
X0090611Y0066556D01*
X0152335Y0024806D02*
X0152383Y0024808D01*
X0152431Y0024813D01*
X0152478Y0024822D01*
X0152525Y0024835D01*
X0152570Y0024851D01*
X0152614Y0024870D01*
X0152657Y0024892D01*
X0152698Y0024918D01*
X0152737Y0024947D01*
X0152773Y0024978D01*
X0152807Y0025012D01*
X0152838Y0025048D01*
X0152867Y0025087D01*
X0152893Y0025128D01*
X0152915Y0025171D01*
X0152934Y0025215D01*
X0152950Y0025260D01*
X0152963Y0025307D01*
X0152972Y0025354D01*
X0152977Y0025402D01*
X0152979Y0025450D01*
X0152979Y0027706D01*
X0154331Y0027706D02*
X0155943Y0027706D01*
X0155298Y0026417D02*
X0154331Y0026417D01*
X0154331Y0027706D01*
X0155298Y0026417D02*
X0155346Y0026415D01*
X0155394Y0026410D01*
X0155441Y0026401D01*
X0155488Y0026388D01*
X0155533Y0026372D01*
X0155577Y0026353D01*
X0155620Y0026331D01*
X0155661Y0026305D01*
X0155700Y0026276D01*
X0155736Y0026245D01*
X0155770Y0026211D01*
X0155801Y0026175D01*
X0155830Y0026136D01*
X0155856Y0026095D01*
X0155878Y0026052D01*
X0155897Y0026008D01*
X0155913Y0025963D01*
X0155926Y0025916D01*
X0155935Y0025869D01*
X0155940Y0025821D01*
X0155942Y0025773D01*
X0155943Y0025773D02*
X0155943Y0025450D01*
X0155942Y0025450D02*
X0155940Y0025402D01*
X0155935Y0025354D01*
X0155926Y0025307D01*
X0155913Y0025260D01*
X0155897Y0025215D01*
X0155878Y0025171D01*
X0155856Y0025128D01*
X0155830Y0025087D01*
X0155801Y0025048D01*
X0155770Y0025012D01*
X0155736Y0024978D01*
X0155700Y0024947D01*
X0155661Y0024918D01*
X0155620Y0024892D01*
X0155577Y0024870D01*
X0155533Y0024851D01*
X0155488Y0024835D01*
X0155441Y0024822D01*
X0155394Y0024813D01*
X0155346Y0024808D01*
X0155298Y0024806D01*
X0154331Y0024806D01*
X0152335Y0024806D02*
X0152013Y0024806D01*
X0179022Y0031789D02*
X0179022Y0032756D01*
X0179023Y0032756D02*
X0179025Y0032805D01*
X0179031Y0032854D01*
X0179040Y0032903D01*
X0179053Y0032950D01*
X0179070Y0032997D01*
X0179090Y0033042D01*
X0179113Y0033085D01*
X0179140Y0033127D01*
X0179170Y0033166D01*
X0179203Y0033203D01*
X0179239Y0033237D01*
X0179277Y0033268D01*
X0179317Y0033297D01*
X0179359Y0033322D01*
X0179404Y0033344D01*
X0179449Y0033362D01*
X0179496Y0033377D01*
X0179544Y0033388D01*
X0179593Y0033396D01*
X0179642Y0033400D01*
X0179692Y0033400D01*
X0179741Y0033396D01*
X0179790Y0033388D01*
X0179838Y0033377D01*
X0179885Y0033362D01*
X0179930Y0033344D01*
X0179975Y0033322D01*
X0180017Y0033297D01*
X0180057Y0033268D01*
X0180095Y0033237D01*
X0180131Y0033203D01*
X0180164Y0033166D01*
X0180194Y0033127D01*
X0180221Y0033085D01*
X0180244Y0033042D01*
X0180264Y0032997D01*
X0180281Y0032950D01*
X0180294Y0032903D01*
X0180303Y0032854D01*
X0180309Y0032805D01*
X0180311Y0032756D01*
X0180311Y0032111D01*
X0180311Y0032594D02*
X0180313Y0032649D01*
X0180319Y0032704D01*
X0180328Y0032758D01*
X0180341Y0032811D01*
X0180358Y0032864D01*
X0180378Y0032915D01*
X0180401Y0032965D01*
X0180428Y0033013D01*
X0180459Y0033059D01*
X0180492Y0033103D01*
X0180528Y0033144D01*
X0180567Y0033183D01*
X0180608Y0033219D01*
X0180652Y0033252D01*
X0180698Y0033283D01*
X0180746Y0033310D01*
X0180796Y0033333D01*
X0180847Y0033353D01*
X0180900Y0033370D01*
X0180953Y0033383D01*
X0181007Y0033392D01*
X0181062Y0033398D01*
X0181117Y0033400D01*
X0181172Y0033398D01*
X0181227Y0033392D01*
X0181281Y0033383D01*
X0181334Y0033370D01*
X0181387Y0033353D01*
X0181438Y0033333D01*
X0181488Y0033310D01*
X0181536Y0033283D01*
X0181582Y0033252D01*
X0181626Y0033219D01*
X0181667Y0033183D01*
X0181706Y0033144D01*
X0181742Y0033103D01*
X0181775Y0033059D01*
X0181806Y0033013D01*
X0181833Y0032965D01*
X0181856Y0032915D01*
X0181876Y0032864D01*
X0181893Y0032811D01*
X0181906Y0032758D01*
X0181915Y0032704D01*
X0181921Y0032649D01*
X0181923Y0032594D01*
X0181922Y0032594D02*
X0181922Y0031789D01*
X0181922Y0030929D02*
X0181278Y0030284D01*
X0181117Y0030607D02*
X0179828Y0030607D01*
X0179773Y0030605D01*
X0179718Y0030599D01*
X0179664Y0030590D01*
X0179611Y0030577D01*
X0179558Y0030560D01*
X0179507Y0030540D01*
X0179457Y0030517D01*
X0179409Y0030490D01*
X0179363Y0030459D01*
X0179319Y0030426D01*
X0179278Y0030390D01*
X0179239Y0030351D01*
X0179203Y0030310D01*
X0179170Y0030266D01*
X0179139Y0030220D01*
X0179112Y0030172D01*
X0179089Y0030122D01*
X0179069Y0030071D01*
X0179052Y0030018D01*
X0179039Y0029965D01*
X0179030Y0029911D01*
X0179024Y0029856D01*
X0179022Y0029801D01*
X0179024Y0029746D01*
X0179030Y0029691D01*
X0179039Y0029637D01*
X0179052Y0029584D01*
X0179069Y0029531D01*
X0179089Y0029480D01*
X0179112Y0029430D01*
X0179139Y0029382D01*
X0179170Y0029336D01*
X0179203Y0029292D01*
X0179239Y0029251D01*
X0179278Y0029212D01*
X0179319Y0029176D01*
X0179363Y0029143D01*
X0179409Y0029112D01*
X0179457Y0029085D01*
X0179507Y0029062D01*
X0179558Y0029042D01*
X0179611Y0029025D01*
X0179664Y0029012D01*
X0179718Y0029003D01*
X0179773Y0028997D01*
X0179828Y0028995D01*
X0181117Y0028995D01*
X0181172Y0028997D01*
X0181227Y0029003D01*
X0181281Y0029012D01*
X0181334Y0029025D01*
X0181387Y0029042D01*
X0181438Y0029062D01*
X0181488Y0029085D01*
X0181536Y0029112D01*
X0181582Y0029143D01*
X0181626Y0029176D01*
X0181667Y0029212D01*
X0181706Y0029251D01*
X0181742Y0029292D01*
X0181775Y0029336D01*
X0181806Y0029382D01*
X0181833Y0029430D01*
X0181856Y0029480D01*
X0181876Y0029531D01*
X0181893Y0029584D01*
X0181906Y0029637D01*
X0181915Y0029691D01*
X0181921Y0029746D01*
X0181923Y0029801D01*
X0181921Y0029856D01*
X0181915Y0029911D01*
X0181906Y0029965D01*
X0181893Y0030018D01*
X0181876Y0030071D01*
X0181856Y0030122D01*
X0181833Y0030172D01*
X0181806Y0030220D01*
X0181775Y0030266D01*
X0181742Y0030310D01*
X0181706Y0030351D01*
X0181667Y0030390D01*
X0181626Y0030426D01*
X0181582Y0030459D01*
X0181536Y0030490D01*
X0181488Y0030517D01*
X0181438Y0030540D01*
X0181387Y0030560D01*
X0181334Y0030577D01*
X0181281Y0030590D01*
X0181227Y0030599D01*
X0181172Y0030605D01*
X0181117Y0030607D01*
X0181778Y0044750D02*
X0180167Y0044750D01*
X0180116Y0044752D01*
X0180066Y0044758D01*
X0180017Y0044768D01*
X0179968Y0044782D01*
X0179921Y0044799D01*
X0179875Y0044820D01*
X0179831Y0044845D01*
X0179788Y0044873D01*
X0179749Y0044904D01*
X0179712Y0044939D01*
X0179677Y0044976D01*
X0179646Y0045015D01*
X0179618Y0045057D01*
X0179593Y0045102D01*
X0179572Y0045148D01*
X0179555Y0045195D01*
X0179541Y0045244D01*
X0179531Y0045293D01*
X0179525Y0045343D01*
X0179523Y0045394D01*
X0179522Y0045394D02*
X0179522Y0046039D01*
X0180167Y0047159D02*
X0179522Y0047964D01*
X0182422Y0047964D01*
X0182422Y0047159D02*
X0182422Y0048770D01*
X0182422Y0050039D02*
X0182422Y0050844D01*
X0182423Y0050844D02*
X0182421Y0050899D01*
X0182415Y0050954D01*
X0182406Y0051008D01*
X0182393Y0051061D01*
X0182376Y0051114D01*
X0182356Y0051165D01*
X0182333Y0051215D01*
X0182306Y0051263D01*
X0182275Y0051309D01*
X0182242Y0051353D01*
X0182206Y0051394D01*
X0182167Y0051433D01*
X0182126Y0051469D01*
X0182082Y0051502D01*
X0182036Y0051533D01*
X0181988Y0051560D01*
X0181938Y0051583D01*
X0181887Y0051603D01*
X0181834Y0051620D01*
X0181781Y0051633D01*
X0181727Y0051642D01*
X0181672Y0051648D01*
X0181617Y0051650D01*
X0181562Y0051648D01*
X0181507Y0051642D01*
X0181453Y0051633D01*
X0181400Y0051620D01*
X0181347Y0051603D01*
X0181296Y0051583D01*
X0181246Y0051560D01*
X0181198Y0051533D01*
X0181152Y0051502D01*
X0181108Y0051469D01*
X0181067Y0051433D01*
X0181028Y0051394D01*
X0180992Y0051353D01*
X0180959Y0051309D01*
X0180928Y0051263D01*
X0180901Y0051215D01*
X0180878Y0051165D01*
X0180858Y0051114D01*
X0180841Y0051061D01*
X0180828Y0051008D01*
X0180819Y0050954D01*
X0180813Y0050899D01*
X0180811Y0050844D01*
X0180811Y0051006D02*
X0180811Y0050361D01*
X0180811Y0051006D02*
X0180809Y0051055D01*
X0180803Y0051104D01*
X0180794Y0051153D01*
X0180781Y0051200D01*
X0180764Y0051247D01*
X0180744Y0051292D01*
X0180721Y0051335D01*
X0180694Y0051377D01*
X0180664Y0051416D01*
X0180631Y0051453D01*
X0180595Y0051487D01*
X0180557Y0051518D01*
X0180517Y0051547D01*
X0180475Y0051572D01*
X0180430Y0051594D01*
X0180385Y0051612D01*
X0180338Y0051627D01*
X0180290Y0051638D01*
X0180241Y0051646D01*
X0180192Y0051650D01*
X0180142Y0051650D01*
X0180093Y0051646D01*
X0180044Y0051638D01*
X0179996Y0051627D01*
X0179949Y0051612D01*
X0179904Y0051594D01*
X0179859Y0051572D01*
X0179817Y0051547D01*
X0179777Y0051518D01*
X0179739Y0051487D01*
X0179703Y0051453D01*
X0179670Y0051416D01*
X0179640Y0051377D01*
X0179613Y0051335D01*
X0179590Y0051292D01*
X0179570Y0051247D01*
X0179553Y0051200D01*
X0179540Y0051153D01*
X0179531Y0051104D01*
X0179525Y0051055D01*
X0179523Y0051006D01*
X0179522Y0051006D02*
X0179522Y0050039D01*
X0182422Y0046039D02*
X0182422Y0045394D01*
X0182420Y0045346D01*
X0182415Y0045298D01*
X0182406Y0045251D01*
X0182393Y0045204D01*
X0182377Y0045159D01*
X0182358Y0045115D01*
X0182336Y0045072D01*
X0182310Y0045031D01*
X0182281Y0044992D01*
X0182250Y0044956D01*
X0182216Y0044922D01*
X0182180Y0044891D01*
X0182141Y0044862D01*
X0182100Y0044836D01*
X0182057Y0044814D01*
X0182013Y0044795D01*
X0181968Y0044779D01*
X0181921Y0044766D01*
X0181874Y0044757D01*
X0181826Y0044752D01*
X0181778Y0044750D01*
X0186871Y0062750D02*
X0186871Y0065650D01*
X0187677Y0065650D01*
X0187732Y0065648D01*
X0187787Y0065642D01*
X0187841Y0065633D01*
X0187894Y0065620D01*
X0187947Y0065603D01*
X0187998Y0065583D01*
X0188048Y0065560D01*
X0188096Y0065533D01*
X0188142Y0065502D01*
X0188186Y0065469D01*
X0188227Y0065433D01*
X0188266Y0065394D01*
X0188302Y0065353D01*
X0188335Y0065309D01*
X0188366Y0065263D01*
X0188393Y0065215D01*
X0188416Y0065165D01*
X0188436Y0065114D01*
X0188453Y0065061D01*
X0188466Y0065008D01*
X0188475Y0064954D01*
X0188481Y0064899D01*
X0188483Y0064844D01*
X0188481Y0064789D01*
X0188475Y0064734D01*
X0188466Y0064680D01*
X0188453Y0064627D01*
X0188436Y0064574D01*
X0188416Y0064523D01*
X0188393Y0064473D01*
X0188366Y0064425D01*
X0188335Y0064379D01*
X0188302Y0064335D01*
X0188266Y0064294D01*
X0188227Y0064255D01*
X0188186Y0064219D01*
X0188142Y0064186D01*
X0188096Y0064155D01*
X0188048Y0064128D01*
X0187998Y0064105D01*
X0187947Y0064085D01*
X0187894Y0064068D01*
X0187841Y0064055D01*
X0187787Y0064046D01*
X0187732Y0064040D01*
X0187677Y0064038D01*
X0187677Y0064039D02*
X0186871Y0064039D01*
X0187838Y0064039D02*
X0188482Y0062750D01*
X0189731Y0062750D02*
X0191342Y0062750D01*
X0192611Y0062750D02*
X0194222Y0062750D01*
X0193417Y0062750D02*
X0193417Y0065650D01*
X0192611Y0065006D01*
X0191100Y0064361D02*
X0189731Y0062750D01*
X0189731Y0065006D02*
X0189751Y0065061D01*
X0189774Y0065115D01*
X0189801Y0065167D01*
X0189831Y0065217D01*
X0189863Y0065266D01*
X0189899Y0065312D01*
X0189938Y0065356D01*
X0189979Y0065397D01*
X0190023Y0065436D01*
X0190069Y0065472D01*
X0190118Y0065505D01*
X0190168Y0065535D01*
X0190220Y0065561D01*
X0190274Y0065585D01*
X0190329Y0065604D01*
X0190385Y0065621D01*
X0190442Y0065633D01*
X0190500Y0065643D01*
X0190558Y0065648D01*
X0190617Y0065650D01*
X0190669Y0065648D01*
X0190720Y0065643D01*
X0190771Y0065633D01*
X0190821Y0065621D01*
X0190870Y0065604D01*
X0190918Y0065584D01*
X0190964Y0065561D01*
X0191009Y0065535D01*
X0191051Y0065505D01*
X0191092Y0065473D01*
X0191130Y0065438D01*
X0191165Y0065400D01*
X0191197Y0065359D01*
X0191227Y0065317D01*
X0191253Y0065272D01*
X0191276Y0065226D01*
X0191296Y0065178D01*
X0191313Y0065129D01*
X0191325Y0065079D01*
X0191335Y0065028D01*
X0191340Y0064977D01*
X0191342Y0064925D01*
X0191340Y0064872D01*
X0191335Y0064820D01*
X0191326Y0064768D01*
X0191314Y0064717D01*
X0191298Y0064667D01*
X0191279Y0064618D01*
X0191257Y0064571D01*
X0191231Y0064525D01*
X0191203Y0064480D01*
X0191171Y0064438D01*
X0191137Y0064398D01*
X0191100Y0064361D01*
X0191342Y0076750D02*
X0189731Y0076750D01*
X0190537Y0076750D02*
X0190537Y0079650D01*
X0189731Y0079006D01*
X0188611Y0079650D02*
X0187966Y0079650D01*
X0187915Y0079648D01*
X0187865Y0079642D01*
X0187816Y0079632D01*
X0187767Y0079618D01*
X0187720Y0079601D01*
X0187674Y0079580D01*
X0187630Y0079555D01*
X0187587Y0079527D01*
X0187548Y0079496D01*
X0187511Y0079461D01*
X0187476Y0079424D01*
X0187445Y0079385D01*
X0187417Y0079342D01*
X0187392Y0079298D01*
X0187371Y0079252D01*
X0187354Y0079205D01*
X0187340Y0079156D01*
X0187330Y0079107D01*
X0187324Y0079057D01*
X0187322Y0079006D01*
X0187322Y0077394D01*
X0187324Y0077346D01*
X0187329Y0077298D01*
X0187338Y0077251D01*
X0187351Y0077204D01*
X0187367Y0077159D01*
X0187386Y0077115D01*
X0187408Y0077072D01*
X0187434Y0077031D01*
X0187463Y0076992D01*
X0187494Y0076956D01*
X0187528Y0076922D01*
X0187564Y0076891D01*
X0187603Y0076862D01*
X0187644Y0076836D01*
X0187687Y0076814D01*
X0187731Y0076795D01*
X0187776Y0076779D01*
X0187823Y0076766D01*
X0187870Y0076757D01*
X0187918Y0076752D01*
X0187966Y0076750D01*
X0188611Y0076750D01*
X0192611Y0076750D02*
X0194222Y0076750D01*
X0192611Y0076750D02*
X0193980Y0078361D01*
X0193497Y0079650D02*
X0193438Y0079648D01*
X0193380Y0079643D01*
X0193322Y0079633D01*
X0193265Y0079621D01*
X0193209Y0079604D01*
X0193154Y0079585D01*
X0193100Y0079561D01*
X0193048Y0079535D01*
X0192998Y0079505D01*
X0192949Y0079472D01*
X0192903Y0079436D01*
X0192859Y0079397D01*
X0192818Y0079356D01*
X0192779Y0079312D01*
X0192743Y0079266D01*
X0192711Y0079217D01*
X0192681Y0079167D01*
X0192654Y0079115D01*
X0192631Y0079061D01*
X0192611Y0079006D01*
X0193980Y0078361D02*
X0194017Y0078398D01*
X0194051Y0078438D01*
X0194083Y0078480D01*
X0194111Y0078525D01*
X0194137Y0078571D01*
X0194159Y0078618D01*
X0194178Y0078667D01*
X0194194Y0078717D01*
X0194206Y0078768D01*
X0194215Y0078820D01*
X0194220Y0078872D01*
X0194222Y0078925D01*
X0194220Y0078977D01*
X0194215Y0079028D01*
X0194205Y0079079D01*
X0194193Y0079129D01*
X0194176Y0079178D01*
X0194156Y0079226D01*
X0194133Y0079272D01*
X0194107Y0079317D01*
X0194077Y0079359D01*
X0194045Y0079400D01*
X0194010Y0079438D01*
X0193972Y0079473D01*
X0193931Y0079505D01*
X0193889Y0079535D01*
X0193844Y0079561D01*
X0193798Y0079584D01*
X0193750Y0079604D01*
X0193701Y0079621D01*
X0193651Y0079633D01*
X0193600Y0079643D01*
X0193549Y0079648D01*
X0193497Y0079650D01*
X0192993Y0085950D02*
X0191382Y0085950D01*
X0192751Y0087561D01*
X0192268Y0088850D02*
X0192209Y0088848D01*
X0192151Y0088843D01*
X0192093Y0088833D01*
X0192036Y0088821D01*
X0191980Y0088804D01*
X0191925Y0088785D01*
X0191871Y0088761D01*
X0191819Y0088735D01*
X0191769Y0088705D01*
X0191720Y0088672D01*
X0191674Y0088636D01*
X0191630Y0088597D01*
X0191589Y0088556D01*
X0191550Y0088512D01*
X0191514Y0088466D01*
X0191482Y0088417D01*
X0191452Y0088367D01*
X0191425Y0088315D01*
X0191402Y0088261D01*
X0191382Y0088206D01*
X0192751Y0087561D02*
X0192788Y0087598D01*
X0192822Y0087638D01*
X0192854Y0087680D01*
X0192882Y0087725D01*
X0192908Y0087771D01*
X0192930Y0087818D01*
X0192949Y0087867D01*
X0192965Y0087917D01*
X0192977Y0087968D01*
X0192986Y0088020D01*
X0192991Y0088072D01*
X0192993Y0088125D01*
X0192991Y0088177D01*
X0192986Y0088228D01*
X0192976Y0088279D01*
X0192964Y0088329D01*
X0192947Y0088378D01*
X0192927Y0088426D01*
X0192904Y0088472D01*
X0192878Y0088517D01*
X0192848Y0088559D01*
X0192816Y0088600D01*
X0192781Y0088638D01*
X0192743Y0088673D01*
X0192702Y0088705D01*
X0192660Y0088735D01*
X0192615Y0088761D01*
X0192569Y0088784D01*
X0192521Y0088804D01*
X0192472Y0088821D01*
X0192422Y0088833D01*
X0192371Y0088843D01*
X0192320Y0088848D01*
X0192268Y0088850D01*
X0195873Y0087400D02*
X0195871Y0087310D01*
X0195866Y0087219D01*
X0195858Y0087130D01*
X0195846Y0087040D01*
X0195830Y0086951D01*
X0195812Y0086863D01*
X0195790Y0086775D01*
X0195765Y0086688D01*
X0195736Y0086603D01*
X0195704Y0086518D01*
X0195669Y0086435D01*
X0195631Y0086353D01*
X0195632Y0086353D02*
X0195615Y0086310D01*
X0195595Y0086268D01*
X0195572Y0086228D01*
X0195546Y0086190D01*
X0195517Y0086154D01*
X0195485Y0086120D01*
X0195451Y0086089D01*
X0195414Y0086061D01*
X0195376Y0086036D01*
X0195335Y0086013D01*
X0195293Y0085994D01*
X0195250Y0085978D01*
X0195205Y0085966D01*
X0195160Y0085957D01*
X0195114Y0085952D01*
X0195068Y0085950D01*
X0195022Y0085952D01*
X0194976Y0085957D01*
X0194931Y0085966D01*
X0194886Y0085978D01*
X0194843Y0085994D01*
X0194801Y0086013D01*
X0194760Y0086036D01*
X0194722Y0086061D01*
X0194685Y0086089D01*
X0194651Y0086120D01*
X0194619Y0086154D01*
X0194590Y0086190D01*
X0194564Y0086228D01*
X0194541Y0086268D01*
X0194521Y0086310D01*
X0194504Y0086353D01*
X0194423Y0086594D02*
X0195712Y0088206D01*
X0195632Y0088447D02*
X0195615Y0088490D01*
X0195595Y0088532D01*
X0195572Y0088572D01*
X0195546Y0088610D01*
X0195517Y0088646D01*
X0195485Y0088680D01*
X0195451Y0088711D01*
X0195414Y0088739D01*
X0195376Y0088764D01*
X0195335Y0088787D01*
X0195293Y0088806D01*
X0195250Y0088822D01*
X0195205Y0088834D01*
X0195160Y0088843D01*
X0195114Y0088848D01*
X0195068Y0088850D01*
X0195022Y0088848D01*
X0194976Y0088843D01*
X0194931Y0088834D01*
X0194886Y0088822D01*
X0194843Y0088806D01*
X0194801Y0088787D01*
X0194760Y0088764D01*
X0194722Y0088739D01*
X0194685Y0088711D01*
X0194651Y0088680D01*
X0194619Y0088646D01*
X0194590Y0088610D01*
X0194564Y0088572D01*
X0194541Y0088532D01*
X0194521Y0088490D01*
X0194504Y0088447D01*
X0195631Y0088447D02*
X0195669Y0088365D01*
X0195704Y0088282D01*
X0195736Y0088197D01*
X0195765Y0088112D01*
X0195790Y0088025D01*
X0195812Y0087937D01*
X0195830Y0087849D01*
X0195846Y0087760D01*
X0195858Y0087670D01*
X0195866Y0087581D01*
X0195871Y0087490D01*
X0195873Y0087400D01*
X0194262Y0087400D02*
X0194264Y0087490D01*
X0194269Y0087581D01*
X0194277Y0087670D01*
X0194289Y0087760D01*
X0194305Y0087849D01*
X0194323Y0087937D01*
X0194345Y0088025D01*
X0194370Y0088112D01*
X0194399Y0088197D01*
X0194431Y0088282D01*
X0194466Y0088365D01*
X0194504Y0088447D01*
X0194262Y0087400D02*
X0194264Y0087310D01*
X0194269Y0087219D01*
X0194277Y0087130D01*
X0194289Y0087040D01*
X0194305Y0086951D01*
X0194323Y0086863D01*
X0194345Y0086775D01*
X0194370Y0086688D01*
X0194399Y0086603D01*
X0194431Y0086518D01*
X0194466Y0086435D01*
X0194504Y0086353D01*
X0190133Y0085950D02*
X0189489Y0087239D01*
X0189328Y0087239D02*
X0188522Y0087239D01*
X0189328Y0087238D02*
X0189383Y0087240D01*
X0189438Y0087246D01*
X0189492Y0087255D01*
X0189545Y0087268D01*
X0189598Y0087285D01*
X0189649Y0087305D01*
X0189699Y0087328D01*
X0189747Y0087355D01*
X0189793Y0087386D01*
X0189837Y0087419D01*
X0189878Y0087455D01*
X0189917Y0087494D01*
X0189953Y0087535D01*
X0189986Y0087579D01*
X0190017Y0087625D01*
X0190044Y0087673D01*
X0190067Y0087723D01*
X0190087Y0087774D01*
X0190104Y0087827D01*
X0190117Y0087880D01*
X0190126Y0087934D01*
X0190132Y0087989D01*
X0190134Y0088044D01*
X0190132Y0088099D01*
X0190126Y0088154D01*
X0190117Y0088208D01*
X0190104Y0088261D01*
X0190087Y0088314D01*
X0190067Y0088365D01*
X0190044Y0088415D01*
X0190017Y0088463D01*
X0189986Y0088509D01*
X0189953Y0088553D01*
X0189917Y0088594D01*
X0189878Y0088633D01*
X0189837Y0088669D01*
X0189793Y0088702D01*
X0189747Y0088733D01*
X0189699Y0088760D01*
X0189649Y0088783D01*
X0189598Y0088803D01*
X0189545Y0088820D01*
X0189492Y0088833D01*
X0189438Y0088842D01*
X0189383Y0088848D01*
X0189328Y0088850D01*
X0188522Y0088850D01*
X0188522Y0085950D01*
X0204822Y0096094D02*
X0204822Y0096739D01*
X0204823Y0096094D02*
X0204825Y0096043D01*
X0204831Y0095993D01*
X0204841Y0095944D01*
X0204855Y0095895D01*
X0204872Y0095848D01*
X0204893Y0095802D01*
X0204918Y0095757D01*
X0204946Y0095715D01*
X0204977Y0095676D01*
X0205012Y0095639D01*
X0205049Y0095604D01*
X0205088Y0095573D01*
X0205131Y0095545D01*
X0205175Y0095520D01*
X0205221Y0095499D01*
X0205268Y0095482D01*
X0205317Y0095468D01*
X0205366Y0095458D01*
X0205416Y0095452D01*
X0205467Y0095450D01*
X0207078Y0095450D01*
X0207126Y0095452D01*
X0207174Y0095457D01*
X0207221Y0095466D01*
X0207268Y0095479D01*
X0207313Y0095495D01*
X0207357Y0095514D01*
X0207400Y0095536D01*
X0207441Y0095562D01*
X0207480Y0095591D01*
X0207516Y0095622D01*
X0207550Y0095656D01*
X0207581Y0095692D01*
X0207610Y0095731D01*
X0207636Y0095772D01*
X0207658Y0095815D01*
X0207677Y0095859D01*
X0207693Y0095904D01*
X0207706Y0095951D01*
X0207715Y0095998D01*
X0207720Y0096046D01*
X0207722Y0096094D01*
X0207722Y0096739D01*
X0207722Y0097859D02*
X0207722Y0099470D01*
X0207722Y0098665D02*
X0204822Y0098665D01*
X0205467Y0097859D01*
X0207078Y0100739D02*
X0204822Y0101384D01*
X0206433Y0101867D02*
X0207722Y0101867D01*
X0207078Y0102350D02*
X0207078Y0100739D01*
X0205122Y0125520D02*
X0205122Y0125842D01*
X0205120Y0125890D01*
X0205115Y0125938D01*
X0205106Y0125985D01*
X0205093Y0126032D01*
X0205077Y0126077D01*
X0205058Y0126121D01*
X0205036Y0126164D01*
X0205010Y0126205D01*
X0204981Y0126244D01*
X0204950Y0126280D01*
X0204916Y0126314D01*
X0204880Y0126345D01*
X0204841Y0126374D01*
X0204800Y0126400D01*
X0204757Y0126422D01*
X0204713Y0126441D01*
X0204668Y0126457D01*
X0204621Y0126470D01*
X0204574Y0126479D01*
X0204526Y0126484D01*
X0204478Y0126486D01*
X0204478Y0126487D02*
X0202222Y0126487D01*
X0202867Y0127839D02*
X0202222Y0128644D01*
X0205122Y0128644D01*
X0205122Y0127839D02*
X0205122Y0129450D01*
X0204417Y0130750D02*
X0203611Y0130750D01*
X0204417Y0130750D02*
X0204472Y0130752D01*
X0204527Y0130758D01*
X0204581Y0130767D01*
X0204634Y0130780D01*
X0204687Y0130797D01*
X0204738Y0130817D01*
X0204788Y0130840D01*
X0204836Y0130867D01*
X0204882Y0130898D01*
X0204926Y0130931D01*
X0204967Y0130967D01*
X0205006Y0131006D01*
X0205042Y0131047D01*
X0205075Y0131091D01*
X0205106Y0131137D01*
X0205133Y0131185D01*
X0205156Y0131235D01*
X0205176Y0131286D01*
X0205193Y0131339D01*
X0205206Y0131392D01*
X0205215Y0131446D01*
X0205221Y0131501D01*
X0205223Y0131556D01*
X0205221Y0131611D01*
X0205215Y0131666D01*
X0205206Y0131720D01*
X0205193Y0131773D01*
X0205176Y0131826D01*
X0205156Y0131877D01*
X0205133Y0131927D01*
X0205106Y0131975D01*
X0205075Y0132021D01*
X0205042Y0132065D01*
X0205006Y0132106D01*
X0204967Y0132145D01*
X0204926Y0132181D01*
X0204882Y0132214D01*
X0204836Y0132245D01*
X0204788Y0132272D01*
X0204738Y0132295D01*
X0204687Y0132315D01*
X0204634Y0132332D01*
X0204581Y0132345D01*
X0204527Y0132354D01*
X0204472Y0132360D01*
X0204417Y0132362D01*
X0204578Y0132361D02*
X0203933Y0132361D01*
X0204578Y0132362D02*
X0204627Y0132364D01*
X0204676Y0132370D01*
X0204725Y0132379D01*
X0204772Y0132392D01*
X0204819Y0132409D01*
X0204864Y0132429D01*
X0204907Y0132452D01*
X0204949Y0132479D01*
X0204988Y0132509D01*
X0205025Y0132542D01*
X0205059Y0132578D01*
X0205090Y0132616D01*
X0205119Y0132656D01*
X0205144Y0132698D01*
X0205166Y0132743D01*
X0205184Y0132788D01*
X0205199Y0132835D01*
X0205210Y0132883D01*
X0205218Y0132932D01*
X0205222Y0132981D01*
X0205222Y0133031D01*
X0205218Y0133080D01*
X0205210Y0133129D01*
X0205199Y0133177D01*
X0205184Y0133224D01*
X0205166Y0133269D01*
X0205144Y0133314D01*
X0205119Y0133356D01*
X0205090Y0133396D01*
X0205059Y0133434D01*
X0205025Y0133470D01*
X0204988Y0133503D01*
X0204949Y0133533D01*
X0204907Y0133560D01*
X0204864Y0133583D01*
X0204819Y0133603D01*
X0204772Y0133620D01*
X0204725Y0133633D01*
X0204676Y0133642D01*
X0204627Y0133648D01*
X0204578Y0133650D01*
X0203611Y0133650D01*
X0201537Y0133650D02*
X0201537Y0130750D01*
X0202342Y0130750D02*
X0200731Y0130750D01*
X0199482Y0130750D02*
X0198838Y0132039D01*
X0198677Y0132039D02*
X0197871Y0132039D01*
X0198677Y0132038D02*
X0198732Y0132040D01*
X0198787Y0132046D01*
X0198841Y0132055D01*
X0198894Y0132068D01*
X0198947Y0132085D01*
X0198998Y0132105D01*
X0199048Y0132128D01*
X0199096Y0132155D01*
X0199142Y0132186D01*
X0199186Y0132219D01*
X0199227Y0132255D01*
X0199266Y0132294D01*
X0199302Y0132335D01*
X0199335Y0132379D01*
X0199366Y0132425D01*
X0199393Y0132473D01*
X0199416Y0132523D01*
X0199436Y0132574D01*
X0199453Y0132627D01*
X0199466Y0132680D01*
X0199475Y0132734D01*
X0199481Y0132789D01*
X0199483Y0132844D01*
X0199481Y0132899D01*
X0199475Y0132954D01*
X0199466Y0133008D01*
X0199453Y0133061D01*
X0199436Y0133114D01*
X0199416Y0133165D01*
X0199393Y0133215D01*
X0199366Y0133263D01*
X0199335Y0133309D01*
X0199302Y0133353D01*
X0199266Y0133394D01*
X0199227Y0133433D01*
X0199186Y0133469D01*
X0199142Y0133502D01*
X0199096Y0133533D01*
X0199048Y0133560D01*
X0198998Y0133583D01*
X0198947Y0133603D01*
X0198894Y0133620D01*
X0198841Y0133633D01*
X0198787Y0133642D01*
X0198732Y0133648D01*
X0198677Y0133650D01*
X0197871Y0133650D01*
X0197871Y0130750D01*
X0200731Y0133006D02*
X0201537Y0133650D01*
X0175222Y0133810D02*
X0175222Y0135421D01*
X0175222Y0134615D02*
X0172322Y0134615D01*
X0172967Y0133810D01*
X0172322Y0131756D02*
X0172324Y0131811D01*
X0172330Y0131866D01*
X0172339Y0131920D01*
X0172352Y0131973D01*
X0172369Y0132026D01*
X0172389Y0132077D01*
X0172412Y0132127D01*
X0172439Y0132175D01*
X0172470Y0132221D01*
X0172503Y0132265D01*
X0172539Y0132306D01*
X0172578Y0132345D01*
X0172619Y0132381D01*
X0172663Y0132414D01*
X0172709Y0132445D01*
X0172757Y0132472D01*
X0172807Y0132495D01*
X0172858Y0132515D01*
X0172911Y0132532D01*
X0172964Y0132545D01*
X0173018Y0132554D01*
X0173073Y0132560D01*
X0173128Y0132562D01*
X0173183Y0132560D01*
X0173238Y0132554D01*
X0173292Y0132545D01*
X0173345Y0132532D01*
X0173398Y0132515D01*
X0173449Y0132495D01*
X0173499Y0132472D01*
X0173547Y0132445D01*
X0173593Y0132414D01*
X0173637Y0132381D01*
X0173678Y0132345D01*
X0173717Y0132306D01*
X0173753Y0132265D01*
X0173786Y0132221D01*
X0173817Y0132175D01*
X0173844Y0132127D01*
X0173867Y0132077D01*
X0173887Y0132026D01*
X0173904Y0131973D01*
X0173917Y0131920D01*
X0173926Y0131866D01*
X0173932Y0131811D01*
X0173934Y0131756D01*
X0173933Y0131756D02*
X0173933Y0130950D01*
X0173933Y0131917D02*
X0175222Y0132561D01*
X0175222Y0130950D02*
X0172322Y0130950D01*
X0172322Y0131756D01*
X0172967Y0136851D02*
X0173016Y0136853D01*
X0173065Y0136859D01*
X0173114Y0136868D01*
X0173161Y0136881D01*
X0173208Y0136898D01*
X0173253Y0136918D01*
X0173296Y0136941D01*
X0173338Y0136968D01*
X0173377Y0136998D01*
X0173414Y0137031D01*
X0173448Y0137067D01*
X0173479Y0137105D01*
X0173508Y0137145D01*
X0173533Y0137187D01*
X0173555Y0137232D01*
X0173573Y0137277D01*
X0173588Y0137324D01*
X0173599Y0137372D01*
X0173607Y0137421D01*
X0173611Y0137470D01*
X0173611Y0137520D01*
X0173607Y0137569D01*
X0173599Y0137618D01*
X0173588Y0137666D01*
X0173573Y0137713D01*
X0173555Y0137758D01*
X0173533Y0137803D01*
X0173508Y0137845D01*
X0173479Y0137885D01*
X0173448Y0137923D01*
X0173414Y0137959D01*
X0173377Y0137992D01*
X0173338Y0138022D01*
X0173296Y0138049D01*
X0173253Y0138072D01*
X0173208Y0138092D01*
X0173161Y0138109D01*
X0173114Y0138122D01*
X0173065Y0138131D01*
X0173016Y0138137D01*
X0172967Y0138139D01*
X0172918Y0138137D01*
X0172869Y0138131D01*
X0172820Y0138122D01*
X0172773Y0138109D01*
X0172726Y0138092D01*
X0172681Y0138072D01*
X0172638Y0138049D01*
X0172596Y0138022D01*
X0172557Y0137992D01*
X0172520Y0137959D01*
X0172486Y0137923D01*
X0172455Y0137885D01*
X0172426Y0137845D01*
X0172401Y0137803D01*
X0172379Y0137758D01*
X0172361Y0137713D01*
X0172346Y0137666D01*
X0172335Y0137618D01*
X0172327Y0137569D01*
X0172323Y0137520D01*
X0172323Y0137470D01*
X0172327Y0137421D01*
X0172335Y0137372D01*
X0172346Y0137324D01*
X0172361Y0137277D01*
X0172379Y0137232D01*
X0172401Y0137187D01*
X0172426Y0137145D01*
X0172455Y0137105D01*
X0172486Y0137067D01*
X0172520Y0137031D01*
X0172557Y0136998D01*
X0172596Y0136968D01*
X0172638Y0136941D01*
X0172681Y0136918D01*
X0172726Y0136898D01*
X0172773Y0136881D01*
X0172820Y0136868D01*
X0172869Y0136859D01*
X0172918Y0136853D01*
X0172967Y0136851D01*
X0174417Y0136689D02*
X0174472Y0136691D01*
X0174527Y0136697D01*
X0174581Y0136706D01*
X0174634Y0136719D01*
X0174687Y0136736D01*
X0174738Y0136756D01*
X0174788Y0136779D01*
X0174836Y0136806D01*
X0174882Y0136837D01*
X0174926Y0136870D01*
X0174967Y0136906D01*
X0175006Y0136945D01*
X0175042Y0136986D01*
X0175075Y0137030D01*
X0175106Y0137076D01*
X0175133Y0137124D01*
X0175156Y0137174D01*
X0175176Y0137225D01*
X0175193Y0137278D01*
X0175206Y0137331D01*
X0175215Y0137385D01*
X0175221Y0137440D01*
X0175223Y0137495D01*
X0175221Y0137550D01*
X0175215Y0137605D01*
X0175206Y0137659D01*
X0175193Y0137712D01*
X0175176Y0137765D01*
X0175156Y0137816D01*
X0175133Y0137866D01*
X0175106Y0137914D01*
X0175075Y0137960D01*
X0175042Y0138004D01*
X0175006Y0138045D01*
X0174967Y0138084D01*
X0174926Y0138120D01*
X0174882Y0138153D01*
X0174836Y0138184D01*
X0174788Y0138211D01*
X0174738Y0138234D01*
X0174687Y0138254D01*
X0174634Y0138271D01*
X0174581Y0138284D01*
X0174527Y0138293D01*
X0174472Y0138299D01*
X0174417Y0138301D01*
X0174362Y0138299D01*
X0174307Y0138293D01*
X0174253Y0138284D01*
X0174200Y0138271D01*
X0174147Y0138254D01*
X0174096Y0138234D01*
X0174046Y0138211D01*
X0173998Y0138184D01*
X0173952Y0138153D01*
X0173908Y0138120D01*
X0173867Y0138084D01*
X0173828Y0138045D01*
X0173792Y0138004D01*
X0173759Y0137960D01*
X0173728Y0137914D01*
X0173701Y0137866D01*
X0173678Y0137816D01*
X0173658Y0137765D01*
X0173641Y0137712D01*
X0173628Y0137659D01*
X0173619Y0137605D01*
X0173613Y0137550D01*
X0173611Y0137495D01*
X0173613Y0137440D01*
X0173619Y0137385D01*
X0173628Y0137331D01*
X0173641Y0137278D01*
X0173658Y0137225D01*
X0173678Y0137174D01*
X0173701Y0137124D01*
X0173728Y0137076D01*
X0173759Y0137030D01*
X0173792Y0136986D01*
X0173828Y0136945D01*
X0173867Y0136906D01*
X0173908Y0136870D01*
X0173952Y0136837D01*
X0173998Y0136806D01*
X0174046Y0136779D01*
X0174096Y0136756D01*
X0174147Y0136736D01*
X0174200Y0136719D01*
X0174253Y0136706D01*
X0174307Y0136697D01*
X0174362Y0136691D01*
X0174417Y0136689D01*
X0173778Y0105650D02*
X0173455Y0105650D01*
X0173404Y0105648D01*
X0173354Y0105642D01*
X0173305Y0105632D01*
X0173256Y0105618D01*
X0173209Y0105601D01*
X0173163Y0105580D01*
X0173119Y0105555D01*
X0173076Y0105527D01*
X0173037Y0105496D01*
X0173000Y0105461D01*
X0172965Y0105424D01*
X0172934Y0105385D01*
X0172906Y0105342D01*
X0172881Y0105298D01*
X0172860Y0105252D01*
X0172843Y0105205D01*
X0172829Y0105156D01*
X0172819Y0105107D01*
X0172813Y0105057D01*
X0172811Y0105006D01*
X0172811Y0104039D01*
X0171522Y0104039D01*
X0171522Y0105650D01*
X0173778Y0105650D02*
X0173826Y0105648D01*
X0173874Y0105643D01*
X0173921Y0105634D01*
X0173968Y0105621D01*
X0174013Y0105605D01*
X0174057Y0105586D01*
X0174100Y0105564D01*
X0174141Y0105538D01*
X0174180Y0105509D01*
X0174216Y0105478D01*
X0174250Y0105444D01*
X0174281Y0105408D01*
X0174310Y0105369D01*
X0174336Y0105328D01*
X0174358Y0105285D01*
X0174377Y0105241D01*
X0174393Y0105196D01*
X0174406Y0105149D01*
X0174415Y0105102D01*
X0174420Y0105054D01*
X0174422Y0105006D01*
X0174422Y0104039D01*
X0174422Y0102770D02*
X0174422Y0101159D01*
X0174422Y0101964D02*
X0171522Y0101964D01*
X0172167Y0101159D01*
X0171522Y0100039D02*
X0171522Y0099394D01*
X0171523Y0099394D02*
X0171525Y0099343D01*
X0171531Y0099293D01*
X0171541Y0099244D01*
X0171555Y0099195D01*
X0171572Y0099148D01*
X0171593Y0099102D01*
X0171618Y0099057D01*
X0171646Y0099015D01*
X0171677Y0098976D01*
X0171712Y0098939D01*
X0171749Y0098904D01*
X0171788Y0098873D01*
X0171831Y0098845D01*
X0171875Y0098820D01*
X0171921Y0098799D01*
X0171968Y0098782D01*
X0172017Y0098768D01*
X0172066Y0098758D01*
X0172116Y0098752D01*
X0172167Y0098750D01*
X0173778Y0098750D01*
X0173826Y0098752D01*
X0173874Y0098757D01*
X0173921Y0098766D01*
X0173968Y0098779D01*
X0174013Y0098795D01*
X0174057Y0098814D01*
X0174100Y0098836D01*
X0174141Y0098862D01*
X0174180Y0098891D01*
X0174216Y0098922D01*
X0174250Y0098956D01*
X0174281Y0098992D01*
X0174310Y0099031D01*
X0174336Y0099072D01*
X0174358Y0099115D01*
X0174377Y0099159D01*
X0174393Y0099204D01*
X0174406Y0099251D01*
X0174415Y0099298D01*
X0174420Y0099346D01*
X0174422Y0099394D01*
X0174422Y0100039D01*
X0171335Y0171223D02*
X0171259Y0171255D01*
X0171181Y0171284D01*
X0171102Y0171309D01*
X0171021Y0171331D01*
X0170940Y0171349D01*
X0170858Y0171363D01*
X0170776Y0171374D01*
X0170693Y0171381D01*
X0170610Y0171384D01*
X0170570Y0171383D01*
X0170530Y0171377D01*
X0170491Y0171369D01*
X0170453Y0171356D01*
X0170417Y0171340D01*
X0170382Y0171320D01*
X0170349Y0171297D01*
X0170319Y0171271D01*
X0170291Y0171243D01*
X0170266Y0171212D01*
X0170244Y0171178D01*
X0170225Y0171143D01*
X0170210Y0171106D01*
X0170199Y0171067D01*
X0170191Y0171028D01*
X0170187Y0170988D01*
X0170186Y0170949D01*
X0170190Y0170909D01*
X0170197Y0170869D01*
X0170208Y0170831D01*
X0170223Y0170794D01*
X0170241Y0170758D01*
X0170263Y0170724D01*
X0170287Y0170693D01*
X0170315Y0170664D01*
X0170345Y0170638D01*
X0170378Y0170615D01*
X0170412Y0170595D01*
X0170449Y0170578D01*
X0171254Y0170256D01*
X0171291Y0170239D01*
X0171325Y0170219D01*
X0171358Y0170196D01*
X0171388Y0170170D01*
X0171416Y0170141D01*
X0171440Y0170110D01*
X0171462Y0170076D01*
X0171480Y0170040D01*
X0171495Y0170003D01*
X0171506Y0169965D01*
X0171513Y0169925D01*
X0171517Y0169885D01*
X0171516Y0169846D01*
X0171512Y0169806D01*
X0171504Y0169767D01*
X0171493Y0169728D01*
X0171478Y0169691D01*
X0171459Y0169656D01*
X0171437Y0169622D01*
X0171412Y0169591D01*
X0171384Y0169563D01*
X0171354Y0169537D01*
X0171321Y0169514D01*
X0171286Y0169494D01*
X0171250Y0169478D01*
X0171212Y0169465D01*
X0171173Y0169457D01*
X0171133Y0169451D01*
X0171093Y0169450D01*
X0168969Y0169450D02*
X0167358Y0169450D01*
X0168164Y0169450D02*
X0168164Y0172350D01*
X0167358Y0171706D01*
X0165284Y0172350D02*
X0165284Y0169450D01*
X0166089Y0169450D02*
X0164478Y0169450D01*
X0161840Y0169853D02*
X0161802Y0169935D01*
X0161767Y0170018D01*
X0161735Y0170103D01*
X0161706Y0170188D01*
X0161681Y0170275D01*
X0161659Y0170363D01*
X0161641Y0170451D01*
X0161625Y0170540D01*
X0161613Y0170630D01*
X0161605Y0170719D01*
X0161600Y0170810D01*
X0161598Y0170900D01*
X0163209Y0170900D02*
X0163207Y0170990D01*
X0163202Y0171081D01*
X0163194Y0171170D01*
X0163182Y0171260D01*
X0163166Y0171349D01*
X0163148Y0171437D01*
X0163126Y0171525D01*
X0163101Y0171612D01*
X0163072Y0171697D01*
X0163040Y0171782D01*
X0163005Y0171865D01*
X0162967Y0171947D01*
X0163048Y0171706D02*
X0161759Y0170094D01*
X0162404Y0169450D02*
X0162450Y0169452D01*
X0162496Y0169457D01*
X0162541Y0169466D01*
X0162586Y0169478D01*
X0162629Y0169494D01*
X0162671Y0169513D01*
X0162712Y0169536D01*
X0162750Y0169561D01*
X0162787Y0169589D01*
X0162821Y0169620D01*
X0162853Y0169654D01*
X0162882Y0169690D01*
X0162908Y0169728D01*
X0162931Y0169768D01*
X0162951Y0169810D01*
X0162968Y0169853D01*
X0162404Y0169450D02*
X0162358Y0169452D01*
X0162312Y0169457D01*
X0162267Y0169466D01*
X0162222Y0169478D01*
X0162179Y0169494D01*
X0162137Y0169513D01*
X0162096Y0169536D01*
X0162058Y0169561D01*
X0162021Y0169589D01*
X0161987Y0169620D01*
X0161955Y0169654D01*
X0161926Y0169690D01*
X0161900Y0169728D01*
X0161877Y0169768D01*
X0161857Y0169810D01*
X0161840Y0169853D01*
X0162967Y0169853D02*
X0163005Y0169935D01*
X0163040Y0170018D01*
X0163072Y0170103D01*
X0163101Y0170188D01*
X0163126Y0170275D01*
X0163148Y0170363D01*
X0163166Y0170451D01*
X0163182Y0170540D01*
X0163194Y0170630D01*
X0163202Y0170719D01*
X0163207Y0170810D01*
X0163209Y0170900D01*
X0161598Y0170900D02*
X0161600Y0170990D01*
X0161605Y0171081D01*
X0161613Y0171170D01*
X0161625Y0171260D01*
X0161641Y0171349D01*
X0161659Y0171437D01*
X0161681Y0171525D01*
X0161706Y0171612D01*
X0161735Y0171697D01*
X0161767Y0171782D01*
X0161802Y0171865D01*
X0161840Y0171947D01*
X0162404Y0172350D02*
X0162450Y0172348D01*
X0162496Y0172343D01*
X0162541Y0172334D01*
X0162586Y0172322D01*
X0162629Y0172306D01*
X0162671Y0172287D01*
X0162712Y0172264D01*
X0162750Y0172239D01*
X0162787Y0172211D01*
X0162821Y0172180D01*
X0162853Y0172146D01*
X0162882Y0172110D01*
X0162908Y0172072D01*
X0162931Y0172032D01*
X0162951Y0171990D01*
X0162968Y0171947D01*
X0162404Y0172350D02*
X0162358Y0172348D01*
X0162312Y0172343D01*
X0162267Y0172334D01*
X0162222Y0172322D01*
X0162179Y0172306D01*
X0162137Y0172287D01*
X0162096Y0172264D01*
X0162058Y0172239D01*
X0162021Y0172211D01*
X0161987Y0172180D01*
X0161955Y0172146D01*
X0161926Y0172110D01*
X0161900Y0172072D01*
X0161877Y0172032D01*
X0161857Y0171990D01*
X0161840Y0171947D01*
X0159846Y0170739D02*
X0159846Y0169450D01*
X0160329Y0170094D02*
X0158718Y0170094D01*
X0159363Y0172350D01*
X0155687Y0170658D02*
X0154801Y0171142D01*
X0155123Y0172350D02*
X0155188Y0172348D01*
X0155252Y0172343D01*
X0155317Y0172334D01*
X0155380Y0172322D01*
X0155443Y0172307D01*
X0155505Y0172288D01*
X0155566Y0172266D01*
X0155625Y0172241D01*
X0155684Y0172212D01*
X0155740Y0172180D01*
X0155795Y0172146D01*
X0155848Y0172108D01*
X0154800Y0171142D02*
X0154760Y0171168D01*
X0154721Y0171197D01*
X0154684Y0171229D01*
X0154650Y0171264D01*
X0154619Y0171301D01*
X0154590Y0171340D01*
X0154564Y0171381D01*
X0154542Y0171424D01*
X0154523Y0171469D01*
X0154507Y0171515D01*
X0154494Y0171561D01*
X0154485Y0171609D01*
X0154480Y0171657D01*
X0154478Y0171706D01*
X0154479Y0171706D02*
X0154481Y0171754D01*
X0154486Y0171802D01*
X0154495Y0171849D01*
X0154508Y0171896D01*
X0154524Y0171941D01*
X0154543Y0171985D01*
X0154565Y0172028D01*
X0154591Y0172069D01*
X0154620Y0172108D01*
X0154651Y0172144D01*
X0154685Y0172178D01*
X0154721Y0172210D01*
X0154760Y0172238D01*
X0154801Y0172264D01*
X0154844Y0172286D01*
X0154888Y0172305D01*
X0154933Y0172321D01*
X0154980Y0172334D01*
X0155027Y0172343D01*
X0155075Y0172348D01*
X0155123Y0172350D01*
X0154399Y0169853D02*
X0154450Y0169803D01*
X0154505Y0169756D01*
X0154561Y0169713D01*
X0154620Y0169672D01*
X0154681Y0169634D01*
X0154744Y0169600D01*
X0154809Y0169569D01*
X0154875Y0169541D01*
X0154942Y0169517D01*
X0155011Y0169497D01*
X0155081Y0169480D01*
X0155151Y0169467D01*
X0155222Y0169458D01*
X0155293Y0169452D01*
X0155365Y0169450D01*
X0155413Y0169452D01*
X0155461Y0169457D01*
X0155508Y0169466D01*
X0155555Y0169479D01*
X0155600Y0169495D01*
X0155644Y0169514D01*
X0155687Y0169536D01*
X0155728Y0169562D01*
X0155767Y0169591D01*
X0155803Y0169622D01*
X0155837Y0169656D01*
X0155868Y0169692D01*
X0155897Y0169731D01*
X0155923Y0169772D01*
X0155945Y0169815D01*
X0155964Y0169859D01*
X0155980Y0169904D01*
X0155993Y0169951D01*
X0156002Y0169998D01*
X0156007Y0170046D01*
X0156009Y0170094D01*
X0156010Y0170094D02*
X0156008Y0170143D01*
X0156003Y0170191D01*
X0155994Y0170239D01*
X0155981Y0170285D01*
X0155965Y0170331D01*
X0155946Y0170376D01*
X0155924Y0170419D01*
X0155898Y0170460D01*
X0155869Y0170499D01*
X0155838Y0170536D01*
X0155804Y0170571D01*
X0155767Y0170603D01*
X0155728Y0170632D01*
X0155688Y0170658D01*
X0153389Y0171061D02*
X0152100Y0171061D01*
X0152100Y0172350D02*
X0152100Y0169450D01*
X0150633Y0169450D02*
X0150633Y0172350D01*
X0150633Y0171061D02*
X0149022Y0171061D01*
X0149022Y0172350D02*
X0149022Y0169450D01*
X0152100Y0172350D02*
X0153389Y0172350D01*
X0164478Y0171706D02*
X0165284Y0172350D01*
X0170207Y0169611D02*
X0170302Y0169579D01*
X0170398Y0169550D01*
X0170496Y0169525D01*
X0170594Y0169504D01*
X0170693Y0169486D01*
X0170792Y0169471D01*
X0170892Y0169461D01*
X0170993Y0169454D01*
X0171093Y0169450D01*
X0099409Y0171194D02*
X0097798Y0171194D01*
X0099167Y0172805D01*
X0098684Y0174094D02*
X0098625Y0174092D01*
X0098567Y0174087D01*
X0098509Y0174077D01*
X0098452Y0174065D01*
X0098396Y0174048D01*
X0098341Y0174029D01*
X0098287Y0174005D01*
X0098235Y0173979D01*
X0098185Y0173949D01*
X0098136Y0173916D01*
X0098090Y0173880D01*
X0098046Y0173841D01*
X0098005Y0173800D01*
X0097966Y0173756D01*
X0097930Y0173710D01*
X0097898Y0173661D01*
X0097868Y0173611D01*
X0097841Y0173559D01*
X0097818Y0173505D01*
X0097798Y0173450D01*
X0099167Y0172805D02*
X0099204Y0172842D01*
X0099238Y0172882D01*
X0099270Y0172924D01*
X0099298Y0172969D01*
X0099324Y0173015D01*
X0099346Y0173062D01*
X0099365Y0173111D01*
X0099381Y0173161D01*
X0099393Y0173212D01*
X0099402Y0173264D01*
X0099407Y0173316D01*
X0099409Y0173369D01*
X0099407Y0173421D01*
X0099402Y0173472D01*
X0099392Y0173523D01*
X0099380Y0173573D01*
X0099363Y0173622D01*
X0099343Y0173670D01*
X0099320Y0173716D01*
X0099294Y0173761D01*
X0099264Y0173803D01*
X0099232Y0173844D01*
X0099197Y0173882D01*
X0099159Y0173917D01*
X0099118Y0173949D01*
X0099076Y0173979D01*
X0099031Y0174005D01*
X0098985Y0174028D01*
X0098937Y0174048D01*
X0098888Y0174065D01*
X0098838Y0174077D01*
X0098787Y0174087D01*
X0098736Y0174092D01*
X0098684Y0174094D01*
X0096445Y0174094D02*
X0096445Y0171839D01*
X0096443Y0171791D01*
X0096438Y0171743D01*
X0096429Y0171696D01*
X0096416Y0171649D01*
X0096400Y0171604D01*
X0096381Y0171560D01*
X0096359Y0171517D01*
X0096333Y0171476D01*
X0096304Y0171437D01*
X0096273Y0171401D01*
X0096239Y0171367D01*
X0096203Y0171336D01*
X0096164Y0171307D01*
X0096123Y0171281D01*
X0096080Y0171259D01*
X0096036Y0171240D01*
X0095991Y0171224D01*
X0095944Y0171211D01*
X0095897Y0171202D01*
X0095849Y0171197D01*
X0095801Y0171195D01*
X0095801Y0171194D02*
X0095479Y0171194D01*
X0089544Y0187244D02*
X0089544Y0187566D01*
X0089542Y0187614D01*
X0089537Y0187662D01*
X0089528Y0187709D01*
X0089515Y0187756D01*
X0089499Y0187801D01*
X0089480Y0187845D01*
X0089458Y0187888D01*
X0089432Y0187929D01*
X0089403Y0187968D01*
X0089372Y0188004D01*
X0089338Y0188038D01*
X0089302Y0188069D01*
X0089263Y0188098D01*
X0089222Y0188124D01*
X0089179Y0188146D01*
X0089135Y0188165D01*
X0089090Y0188181D01*
X0089043Y0188194D01*
X0088996Y0188203D01*
X0088948Y0188208D01*
X0088900Y0188210D01*
X0086644Y0188210D01*
X0086644Y0189563D02*
X0086644Y0190529D01*
X0086645Y0190529D02*
X0086647Y0190578D01*
X0086653Y0190627D01*
X0086662Y0190676D01*
X0086675Y0190723D01*
X0086692Y0190770D01*
X0086712Y0190815D01*
X0086735Y0190858D01*
X0086762Y0190900D01*
X0086792Y0190939D01*
X0086825Y0190976D01*
X0086861Y0191010D01*
X0086899Y0191041D01*
X0086939Y0191070D01*
X0086981Y0191095D01*
X0087026Y0191117D01*
X0087071Y0191135D01*
X0087118Y0191150D01*
X0087166Y0191161D01*
X0087215Y0191169D01*
X0087264Y0191173D01*
X0087314Y0191173D01*
X0087363Y0191169D01*
X0087412Y0191161D01*
X0087460Y0191150D01*
X0087507Y0191135D01*
X0087552Y0191117D01*
X0087597Y0191095D01*
X0087639Y0191070D01*
X0087679Y0191041D01*
X0087717Y0191010D01*
X0087753Y0190976D01*
X0087786Y0190939D01*
X0087816Y0190900D01*
X0087843Y0190858D01*
X0087866Y0190815D01*
X0087886Y0190770D01*
X0087903Y0190723D01*
X0087916Y0190676D01*
X0087925Y0190627D01*
X0087931Y0190578D01*
X0087933Y0190529D01*
X0087933Y0189885D01*
X0087933Y0190368D02*
X0087935Y0190423D01*
X0087941Y0190478D01*
X0087950Y0190532D01*
X0087963Y0190585D01*
X0087980Y0190638D01*
X0088000Y0190689D01*
X0088023Y0190739D01*
X0088050Y0190787D01*
X0088081Y0190833D01*
X0088114Y0190877D01*
X0088150Y0190918D01*
X0088189Y0190957D01*
X0088230Y0190993D01*
X0088274Y0191026D01*
X0088320Y0191057D01*
X0088368Y0191084D01*
X0088418Y0191107D01*
X0088469Y0191127D01*
X0088522Y0191144D01*
X0088575Y0191157D01*
X0088629Y0191166D01*
X0088684Y0191172D01*
X0088739Y0191174D01*
X0088794Y0191172D01*
X0088849Y0191166D01*
X0088903Y0191157D01*
X0088956Y0191144D01*
X0089009Y0191127D01*
X0089060Y0191107D01*
X0089110Y0191084D01*
X0089158Y0191057D01*
X0089204Y0191026D01*
X0089248Y0190993D01*
X0089289Y0190957D01*
X0089328Y0190918D01*
X0089364Y0190877D01*
X0089397Y0190833D01*
X0089428Y0190787D01*
X0089455Y0190739D01*
X0089478Y0190689D01*
X0089498Y0190638D01*
X0089515Y0190585D01*
X0089528Y0190532D01*
X0089537Y0190478D01*
X0089543Y0190423D01*
X0089545Y0190368D01*
X0089544Y0190368D02*
X0089544Y0189563D01*
X0217745Y0014787D02*
X0217745Y0012531D01*
X0217744Y0012531D02*
X0217742Y0012483D01*
X0217737Y0012435D01*
X0217728Y0012388D01*
X0217715Y0012341D01*
X0217699Y0012296D01*
X0217680Y0012252D01*
X0217658Y0012209D01*
X0217632Y0012168D01*
X0217603Y0012129D01*
X0217572Y0012093D01*
X0217538Y0012059D01*
X0217502Y0012028D01*
X0217463Y0011999D01*
X0217422Y0011973D01*
X0217379Y0011951D01*
X0217335Y0011932D01*
X0217290Y0011916D01*
X0217243Y0011903D01*
X0217196Y0011894D01*
X0217148Y0011889D01*
X0217100Y0011887D01*
X0216778Y0011887D01*
X0219097Y0012531D02*
X0220708Y0012531D01*
X0220225Y0013176D02*
X0220225Y0011887D01*
X0219097Y0012531D02*
X0219741Y0014787D01*
D11*
X0156481Y0166400D02*
X0156521Y0166402D01*
X0156561Y0166407D01*
X0156600Y0166416D01*
X0156638Y0166428D01*
X0156675Y0166444D01*
X0156710Y0166462D01*
X0156744Y0166484D01*
X0156775Y0166509D01*
X0156804Y0166536D01*
X0156831Y0166566D01*
X0156855Y0166598D01*
X0156876Y0166632D01*
X0156894Y0166668D01*
X0156909Y0166705D01*
X0156481Y0166400D02*
X0156441Y0166402D01*
X0156401Y0166407D01*
X0156362Y0166416D01*
X0156324Y0166428D01*
X0156287Y0166444D01*
X0156252Y0166462D01*
X0156218Y0166484D01*
X0156187Y0166509D01*
X0156158Y0166536D01*
X0156131Y0166566D01*
X0156107Y0166598D01*
X0156086Y0166632D01*
X0156068Y0166668D01*
X0156053Y0166705D01*
X0155992Y0166889D02*
X0156970Y0168111D01*
X0156909Y0168295D02*
X0156894Y0168332D01*
X0156876Y0168368D01*
X0156855Y0168402D01*
X0156831Y0168434D01*
X0156804Y0168464D01*
X0156775Y0168491D01*
X0156744Y0168516D01*
X0156710Y0168538D01*
X0156675Y0168556D01*
X0156638Y0168572D01*
X0156600Y0168584D01*
X0156561Y0168593D01*
X0156521Y0168598D01*
X0156481Y0168600D01*
X0156441Y0168598D01*
X0156401Y0168593D01*
X0156362Y0168584D01*
X0156324Y0168572D01*
X0156287Y0168556D01*
X0156252Y0168538D01*
X0156218Y0168516D01*
X0156187Y0168491D01*
X0156158Y0168464D01*
X0156131Y0168434D01*
X0156107Y0168402D01*
X0156086Y0168368D01*
X0156068Y0168332D01*
X0156053Y0168295D01*
X0156909Y0168294D02*
X0156943Y0168220D01*
X0156974Y0168144D01*
X0157001Y0168066D01*
X0157025Y0167987D01*
X0157046Y0167908D01*
X0157062Y0167827D01*
X0157075Y0167746D01*
X0157085Y0167664D01*
X0157090Y0167582D01*
X0157092Y0167500D01*
X0155870Y0167500D02*
X0155872Y0167582D01*
X0155877Y0167664D01*
X0155887Y0167746D01*
X0155900Y0167827D01*
X0155916Y0167908D01*
X0155937Y0167987D01*
X0155961Y0168066D01*
X0155988Y0168144D01*
X0156019Y0168220D01*
X0156053Y0168294D01*
X0157092Y0167500D02*
X0157090Y0167418D01*
X0157085Y0167336D01*
X0157075Y0167254D01*
X0157062Y0167173D01*
X0157046Y0167092D01*
X0157025Y0167013D01*
X0157001Y0166934D01*
X0156974Y0166856D01*
X0156943Y0166780D01*
X0156909Y0166706D01*
X0156053Y0166706D02*
X0156019Y0166780D01*
X0155988Y0166856D01*
X0155961Y0166934D01*
X0155937Y0167013D01*
X0155916Y0167092D01*
X0155900Y0167173D01*
X0155887Y0167254D01*
X0155877Y0167336D01*
X0155872Y0167418D01*
X0155870Y0167500D01*
X0153874Y0167867D02*
X0153385Y0166400D01*
X0152896Y0167867D01*
X0152074Y0167378D02*
X0152074Y0167133D01*
X0151096Y0167133D01*
X0151096Y0167378D02*
X0151096Y0166767D01*
X0151098Y0166731D01*
X0151103Y0166695D01*
X0151112Y0166660D01*
X0151124Y0166627D01*
X0151139Y0166594D01*
X0151158Y0166563D01*
X0151179Y0166534D01*
X0151203Y0166507D01*
X0151230Y0166483D01*
X0151259Y0166462D01*
X0151290Y0166443D01*
X0151323Y0166428D01*
X0151356Y0166416D01*
X0151391Y0166407D01*
X0151427Y0166402D01*
X0151463Y0166400D01*
X0152074Y0166400D01*
X0152074Y0167378D02*
X0152072Y0167421D01*
X0152067Y0167463D01*
X0152057Y0167505D01*
X0152045Y0167545D01*
X0152028Y0167585D01*
X0152008Y0167623D01*
X0151986Y0167658D01*
X0151960Y0167692D01*
X0151931Y0167724D01*
X0151899Y0167753D01*
X0151865Y0167779D01*
X0151830Y0167801D01*
X0151792Y0167821D01*
X0151752Y0167838D01*
X0151712Y0167850D01*
X0151670Y0167860D01*
X0151628Y0167865D01*
X0151585Y0167867D01*
X0151542Y0167865D01*
X0151500Y0167860D01*
X0151458Y0167850D01*
X0151418Y0167838D01*
X0151378Y0167821D01*
X0151341Y0167801D01*
X0151305Y0167779D01*
X0151271Y0167753D01*
X0151239Y0167724D01*
X0151210Y0167692D01*
X0151184Y0167658D01*
X0151162Y0167623D01*
X0151142Y0167585D01*
X0151125Y0167545D01*
X0151113Y0167505D01*
X0151103Y0167463D01*
X0151098Y0167421D01*
X0151096Y0167378D01*
X0150194Y0166400D02*
X0149705Y0167378D01*
X0149583Y0167378D02*
X0148972Y0167378D01*
X0149583Y0167378D02*
X0149631Y0167380D01*
X0149679Y0167386D01*
X0149726Y0167395D01*
X0149772Y0167408D01*
X0149817Y0167425D01*
X0149860Y0167445D01*
X0149902Y0167468D01*
X0149942Y0167495D01*
X0149980Y0167524D01*
X0150015Y0167557D01*
X0150048Y0167592D01*
X0150077Y0167630D01*
X0150104Y0167670D01*
X0150127Y0167712D01*
X0150147Y0167755D01*
X0150164Y0167800D01*
X0150177Y0167846D01*
X0150186Y0167893D01*
X0150192Y0167941D01*
X0150194Y0167989D01*
X0150192Y0168037D01*
X0150186Y0168085D01*
X0150177Y0168132D01*
X0150164Y0168178D01*
X0150147Y0168223D01*
X0150127Y0168266D01*
X0150104Y0168308D01*
X0150077Y0168348D01*
X0150048Y0168386D01*
X0150015Y0168421D01*
X0149980Y0168454D01*
X0149942Y0168483D01*
X0149902Y0168510D01*
X0149860Y0168533D01*
X0149817Y0168553D01*
X0149772Y0168570D01*
X0149726Y0168583D01*
X0149679Y0168592D01*
X0149631Y0168598D01*
X0149583Y0168600D01*
X0148972Y0168600D01*
X0148972Y0166400D01*
D12*
X0177872Y0120228D03*
X0189872Y0120228D03*
X0119872Y0053372D03*
X0108872Y0020228D03*
X0099872Y0018372D03*
D13*
X0099872Y0018300D02*
X0098372Y0020300D01*
X0101372Y0020300D01*
X0099872Y0018300D01*
X0099736Y0018482D02*
X0100009Y0018482D01*
X0100458Y0019081D02*
X0099287Y0019081D01*
X0098838Y0019679D02*
X0100906Y0019679D01*
X0101355Y0020278D02*
X0098389Y0020278D01*
X0096772Y0019565D02*
X0096772Y0018843D01*
X0094172Y0018843D01*
X0094172Y0019565D01*
X0094174Y0019612D01*
X0094179Y0019658D01*
X0094189Y0019703D01*
X0094202Y0019748D01*
X0094218Y0019792D01*
X0094238Y0019834D01*
X0094261Y0019874D01*
X0094288Y0019912D01*
X0094317Y0019948D01*
X0094350Y0019982D01*
X0094384Y0020013D01*
X0094422Y0020041D01*
X0094461Y0020066D01*
X0094502Y0020087D01*
X0094545Y0020105D01*
X0094589Y0020120D01*
X0094634Y0020131D01*
X0094680Y0020139D01*
X0094727Y0020143D01*
X0094773Y0020143D01*
X0094820Y0020139D01*
X0094866Y0020131D01*
X0094911Y0020120D01*
X0094955Y0020105D01*
X0094998Y0020087D01*
X0095039Y0020066D01*
X0095078Y0020041D01*
X0095116Y0020013D01*
X0095150Y0019982D01*
X0095183Y0019948D01*
X0095212Y0019912D01*
X0095239Y0019874D01*
X0095262Y0019834D01*
X0095282Y0019792D01*
X0095298Y0019748D01*
X0095311Y0019703D01*
X0095321Y0019658D01*
X0095326Y0019612D01*
X0095328Y0019565D01*
X0095328Y0018843D01*
X0095328Y0019565D02*
X0095330Y0019618D01*
X0095336Y0019670D01*
X0095345Y0019722D01*
X0095359Y0019773D01*
X0095376Y0019823D01*
X0095396Y0019871D01*
X0095420Y0019918D01*
X0095448Y0019963D01*
X0095479Y0020006D01*
X0095512Y0020047D01*
X0095549Y0020085D01*
X0095588Y0020120D01*
X0095630Y0020152D01*
X0095674Y0020181D01*
X0095720Y0020207D01*
X0095768Y0020229D01*
X0095817Y0020248D01*
X0095867Y0020264D01*
X0095919Y0020275D01*
X0095971Y0020283D01*
X0096024Y0020287D01*
X0096076Y0020287D01*
X0096129Y0020283D01*
X0096181Y0020275D01*
X0096233Y0020264D01*
X0096283Y0020248D01*
X0096332Y0020229D01*
X0096380Y0020207D01*
X0096426Y0020181D01*
X0096470Y0020152D01*
X0096512Y0020120D01*
X0096551Y0020085D01*
X0096588Y0020047D01*
X0096621Y0020006D01*
X0096652Y0019963D01*
X0096680Y0019918D01*
X0096704Y0019871D01*
X0096724Y0019823D01*
X0096741Y0019773D01*
X0096755Y0019722D01*
X0096764Y0019670D01*
X0096770Y0019618D01*
X0096772Y0019565D01*
X0096050Y0021556D02*
X0094894Y0021556D01*
X0094841Y0021558D01*
X0094789Y0021564D01*
X0094737Y0021573D01*
X0094686Y0021587D01*
X0094636Y0021604D01*
X0094588Y0021624D01*
X0094541Y0021648D01*
X0094496Y0021676D01*
X0094453Y0021707D01*
X0094412Y0021740D01*
X0094374Y0021777D01*
X0094339Y0021816D01*
X0094307Y0021858D01*
X0094278Y0021902D01*
X0094252Y0021948D01*
X0094230Y0021996D01*
X0094211Y0022045D01*
X0094195Y0022095D01*
X0094184Y0022147D01*
X0094176Y0022199D01*
X0094172Y0022252D01*
X0094172Y0022304D01*
X0094176Y0022357D01*
X0094184Y0022409D01*
X0094195Y0022461D01*
X0094211Y0022511D01*
X0094230Y0022560D01*
X0094252Y0022608D01*
X0094278Y0022654D01*
X0094307Y0022698D01*
X0094339Y0022740D01*
X0094374Y0022779D01*
X0094412Y0022816D01*
X0094453Y0022849D01*
X0094496Y0022880D01*
X0094541Y0022908D01*
X0094588Y0022932D01*
X0094636Y0022952D01*
X0094686Y0022969D01*
X0094737Y0022983D01*
X0094789Y0022992D01*
X0094841Y0022998D01*
X0094894Y0023000D01*
X0096050Y0023000D01*
X0096103Y0022998D01*
X0096155Y0022992D01*
X0096207Y0022983D01*
X0096258Y0022969D01*
X0096308Y0022952D01*
X0096356Y0022932D01*
X0096403Y0022908D01*
X0096448Y0022880D01*
X0096491Y0022849D01*
X0096532Y0022816D01*
X0096570Y0022779D01*
X0096605Y0022740D01*
X0096637Y0022698D01*
X0096666Y0022654D01*
X0096692Y0022608D01*
X0096714Y0022560D01*
X0096733Y0022511D01*
X0096749Y0022461D01*
X0096760Y0022409D01*
X0096768Y0022357D01*
X0096772Y0022304D01*
X0096772Y0022252D01*
X0096768Y0022199D01*
X0096760Y0022147D01*
X0096749Y0022095D01*
X0096733Y0022045D01*
X0096714Y0021996D01*
X0096692Y0021948D01*
X0096666Y0021902D01*
X0096637Y0021858D01*
X0096605Y0021816D01*
X0096570Y0021777D01*
X0096532Y0021740D01*
X0096491Y0021707D01*
X0096448Y0021676D01*
X0096403Y0021648D01*
X0096356Y0021624D01*
X0096308Y0021604D01*
X0096258Y0021587D01*
X0096207Y0021573D01*
X0096155Y0021564D01*
X0096103Y0021558D01*
X0096050Y0021556D01*
X0096772Y0017441D02*
X0096772Y0016285D01*
X0094172Y0016285D01*
X0102972Y0016322D02*
X0102972Y0015600D01*
X0105572Y0015600D01*
X0104417Y0015600D02*
X0104417Y0016322D01*
X0104416Y0016322D02*
X0104414Y0016375D01*
X0104408Y0016427D01*
X0104399Y0016479D01*
X0104385Y0016530D01*
X0104368Y0016580D01*
X0104348Y0016628D01*
X0104324Y0016675D01*
X0104296Y0016720D01*
X0104265Y0016763D01*
X0104232Y0016804D01*
X0104195Y0016842D01*
X0104156Y0016877D01*
X0104114Y0016909D01*
X0104070Y0016938D01*
X0104024Y0016964D01*
X0103976Y0016986D01*
X0103927Y0017005D01*
X0103877Y0017021D01*
X0103825Y0017032D01*
X0103773Y0017040D01*
X0103720Y0017044D01*
X0103668Y0017044D01*
X0103615Y0017040D01*
X0103563Y0017032D01*
X0103511Y0017021D01*
X0103461Y0017005D01*
X0103412Y0016986D01*
X0103364Y0016964D01*
X0103318Y0016938D01*
X0103274Y0016909D01*
X0103232Y0016877D01*
X0103193Y0016842D01*
X0103156Y0016804D01*
X0103123Y0016763D01*
X0103092Y0016720D01*
X0103064Y0016675D01*
X0103040Y0016628D01*
X0103020Y0016580D01*
X0103003Y0016530D01*
X0102989Y0016479D01*
X0102980Y0016427D01*
X0102974Y0016375D01*
X0102972Y0016322D01*
X0102972Y0018263D02*
X0105572Y0018841D01*
X0103839Y0019419D01*
X0105572Y0019997D01*
X0102972Y0020574D01*
X0102972Y0022088D02*
X0102972Y0022810D01*
X0102974Y0022863D01*
X0102980Y0022915D01*
X0102989Y0022967D01*
X0103003Y0023018D01*
X0103020Y0023068D01*
X0103040Y0023116D01*
X0103064Y0023163D01*
X0103092Y0023208D01*
X0103123Y0023251D01*
X0103156Y0023292D01*
X0103193Y0023330D01*
X0103232Y0023365D01*
X0103274Y0023397D01*
X0103318Y0023426D01*
X0103364Y0023452D01*
X0103412Y0023474D01*
X0103461Y0023493D01*
X0103511Y0023509D01*
X0103563Y0023520D01*
X0103615Y0023528D01*
X0103668Y0023532D01*
X0103720Y0023532D01*
X0103773Y0023528D01*
X0103825Y0023520D01*
X0103877Y0023509D01*
X0103927Y0023493D01*
X0103976Y0023474D01*
X0104024Y0023452D01*
X0104070Y0023426D01*
X0104114Y0023397D01*
X0104156Y0023365D01*
X0104195Y0023330D01*
X0104232Y0023292D01*
X0104265Y0023251D01*
X0104296Y0023208D01*
X0104324Y0023163D01*
X0104348Y0023116D01*
X0104368Y0023068D01*
X0104385Y0023018D01*
X0104399Y0022967D01*
X0104408Y0022915D01*
X0104414Y0022863D01*
X0104416Y0022810D01*
X0104417Y0022810D02*
X0104417Y0022088D01*
X0104417Y0022954D02*
X0105572Y0023532D01*
X0105572Y0022088D02*
X0102972Y0022088D01*
X0107509Y0018482D02*
X0110236Y0018482D01*
X0110372Y0018300D02*
X0108872Y0020300D01*
X0107372Y0018300D01*
X0110372Y0018300D01*
X0109787Y0019081D02*
X0107958Y0019081D01*
X0108406Y0019679D02*
X0109338Y0019679D01*
X0108889Y0020278D02*
X0108855Y0020278D01*
X0121235Y0034561D02*
X0121524Y0034561D01*
X0121524Y0034560D02*
X0121569Y0034562D01*
X0121614Y0034567D01*
X0121659Y0034576D01*
X0121703Y0034588D01*
X0121745Y0034604D01*
X0121786Y0034623D01*
X0121826Y0034645D01*
X0121864Y0034670D01*
X0121899Y0034698D01*
X0121933Y0034729D01*
X0121964Y0034763D01*
X0121992Y0034798D01*
X0122017Y0034836D01*
X0122039Y0034876D01*
X0122058Y0034917D01*
X0122074Y0034959D01*
X0122086Y0035003D01*
X0122095Y0035048D01*
X0122100Y0035093D01*
X0122102Y0035138D01*
X0122102Y0037161D01*
X0123614Y0036005D02*
X0123614Y0035283D01*
X0123616Y0035230D01*
X0123622Y0035178D01*
X0123631Y0035126D01*
X0123645Y0035075D01*
X0123662Y0035025D01*
X0123682Y0034977D01*
X0123706Y0034930D01*
X0123734Y0034885D01*
X0123765Y0034842D01*
X0123798Y0034801D01*
X0123835Y0034763D01*
X0123874Y0034728D01*
X0123916Y0034696D01*
X0123960Y0034667D01*
X0124006Y0034641D01*
X0124054Y0034619D01*
X0124103Y0034600D01*
X0124153Y0034584D01*
X0124205Y0034573D01*
X0124257Y0034565D01*
X0124310Y0034561D01*
X0124362Y0034561D01*
X0124415Y0034565D01*
X0124467Y0034573D01*
X0124519Y0034584D01*
X0124569Y0034600D01*
X0124618Y0034619D01*
X0124666Y0034641D01*
X0124712Y0034667D01*
X0124756Y0034696D01*
X0124798Y0034728D01*
X0124837Y0034763D01*
X0124874Y0034801D01*
X0124907Y0034842D01*
X0124938Y0034885D01*
X0124966Y0034930D01*
X0124990Y0034977D01*
X0125010Y0035025D01*
X0125027Y0035075D01*
X0125041Y0035126D01*
X0125050Y0035178D01*
X0125056Y0035230D01*
X0125058Y0035283D01*
X0125058Y0035427D01*
X0125056Y0035472D01*
X0125051Y0035517D01*
X0125042Y0035562D01*
X0125030Y0035606D01*
X0125014Y0035648D01*
X0124995Y0035689D01*
X0124973Y0035729D01*
X0124948Y0035767D01*
X0124920Y0035802D01*
X0124889Y0035836D01*
X0124855Y0035867D01*
X0124820Y0035895D01*
X0124782Y0035920D01*
X0124742Y0035942D01*
X0124701Y0035961D01*
X0124659Y0035977D01*
X0124615Y0035989D01*
X0124570Y0035998D01*
X0124525Y0036003D01*
X0124480Y0036005D01*
X0123614Y0036005D01*
X0123613Y0036005D02*
X0123615Y0036072D01*
X0123621Y0036139D01*
X0123631Y0036206D01*
X0123644Y0036272D01*
X0123662Y0036337D01*
X0123683Y0036400D01*
X0123708Y0036463D01*
X0123736Y0036524D01*
X0123768Y0036583D01*
X0123803Y0036640D01*
X0123842Y0036695D01*
X0123883Y0036748D01*
X0123928Y0036798D01*
X0123976Y0036846D01*
X0124026Y0036891D01*
X0124079Y0036932D01*
X0124134Y0036971D01*
X0124191Y0037006D01*
X0124250Y0037038D01*
X0124311Y0037066D01*
X0124374Y0037091D01*
X0124437Y0037112D01*
X0124502Y0037130D01*
X0124568Y0037143D01*
X0124635Y0037153D01*
X0124702Y0037159D01*
X0124769Y0037161D01*
X0119872Y0053300D02*
X0118372Y0055300D01*
X0121372Y0055300D01*
X0119872Y0053300D01*
X0119501Y0053794D02*
X0120243Y0053794D01*
X0120692Y0054393D02*
X0119052Y0054393D01*
X0118604Y0054991D02*
X0121141Y0054991D01*
X0123172Y0058600D02*
X0123894Y0058600D01*
X0123172Y0058600D02*
X0123172Y0061200D01*
X0123894Y0061200D01*
X0123946Y0061198D01*
X0123997Y0061193D01*
X0124047Y0061184D01*
X0124097Y0061171D01*
X0124146Y0061154D01*
X0124194Y0061135D01*
X0124240Y0061112D01*
X0124284Y0061085D01*
X0124327Y0061056D01*
X0124367Y0061024D01*
X0124405Y0060989D01*
X0124440Y0060951D01*
X0124472Y0060911D01*
X0124501Y0060868D01*
X0124528Y0060824D01*
X0124551Y0060778D01*
X0124570Y0060730D01*
X0124587Y0060681D01*
X0124600Y0060631D01*
X0124609Y0060581D01*
X0124614Y0060530D01*
X0124616Y0060478D01*
X0124617Y0060478D02*
X0124617Y0059322D01*
X0124616Y0059322D02*
X0124614Y0059270D01*
X0124609Y0059219D01*
X0124600Y0059169D01*
X0124587Y0059119D01*
X0124570Y0059070D01*
X0124551Y0059022D01*
X0124528Y0058976D01*
X0124501Y0058932D01*
X0124472Y0058889D01*
X0124440Y0058849D01*
X0124405Y0058811D01*
X0124367Y0058776D01*
X0124327Y0058744D01*
X0124284Y0058715D01*
X0124240Y0058688D01*
X0124194Y0058665D01*
X0124146Y0058646D01*
X0124097Y0058629D01*
X0124047Y0058616D01*
X0123997Y0058607D01*
X0123946Y0058602D01*
X0123894Y0058600D01*
X0126148Y0058600D02*
X0127593Y0058600D01*
X0126148Y0058600D02*
X0127376Y0060044D01*
X0126943Y0061200D02*
X0126888Y0061198D01*
X0126833Y0061193D01*
X0126778Y0061184D01*
X0126725Y0061171D01*
X0126672Y0061155D01*
X0126620Y0061135D01*
X0126570Y0061112D01*
X0126521Y0061086D01*
X0126474Y0061056D01*
X0126430Y0061024D01*
X0126387Y0060988D01*
X0126347Y0060950D01*
X0126310Y0060909D01*
X0126275Y0060866D01*
X0126244Y0060821D01*
X0126215Y0060774D01*
X0126190Y0060725D01*
X0126167Y0060674D01*
X0126149Y0060622D01*
X0127375Y0060045D02*
X0127411Y0060081D01*
X0127444Y0060121D01*
X0127474Y0060162D01*
X0127501Y0060206D01*
X0127525Y0060252D01*
X0127545Y0060299D01*
X0127562Y0060347D01*
X0127575Y0060397D01*
X0127584Y0060448D01*
X0127590Y0060499D01*
X0127592Y0060550D01*
X0127593Y0060550D02*
X0127591Y0060599D01*
X0127586Y0060647D01*
X0127577Y0060695D01*
X0127564Y0060742D01*
X0127548Y0060787D01*
X0127529Y0060832D01*
X0127506Y0060875D01*
X0127480Y0060916D01*
X0127451Y0060955D01*
X0127419Y0060992D01*
X0127385Y0061026D01*
X0127348Y0061058D01*
X0127309Y0061087D01*
X0127268Y0061113D01*
X0127225Y0061136D01*
X0127180Y0061155D01*
X0127135Y0061171D01*
X0127088Y0061184D01*
X0127040Y0061193D01*
X0126992Y0061198D01*
X0126943Y0061200D01*
X0098407Y0056391D02*
X0097180Y0054946D01*
X0098624Y0054946D01*
X0097180Y0056968D02*
X0097198Y0057020D01*
X0097221Y0057071D01*
X0097246Y0057120D01*
X0097275Y0057167D01*
X0097306Y0057212D01*
X0097341Y0057255D01*
X0097378Y0057296D01*
X0097418Y0057334D01*
X0097461Y0057370D01*
X0097505Y0057402D01*
X0097552Y0057432D01*
X0097601Y0057458D01*
X0097651Y0057481D01*
X0097703Y0057501D01*
X0097756Y0057517D01*
X0097809Y0057530D01*
X0097864Y0057539D01*
X0097919Y0057544D01*
X0097974Y0057546D01*
X0098023Y0057544D01*
X0098071Y0057539D01*
X0098119Y0057530D01*
X0098166Y0057517D01*
X0098211Y0057501D01*
X0098256Y0057482D01*
X0098299Y0057459D01*
X0098340Y0057433D01*
X0098379Y0057404D01*
X0098416Y0057372D01*
X0098450Y0057338D01*
X0098482Y0057301D01*
X0098511Y0057262D01*
X0098537Y0057221D01*
X0098560Y0057178D01*
X0098579Y0057133D01*
X0098595Y0057088D01*
X0098608Y0057041D01*
X0098617Y0056993D01*
X0098622Y0056945D01*
X0098624Y0056896D01*
X0098622Y0056845D01*
X0098616Y0056794D01*
X0098607Y0056743D01*
X0098594Y0056693D01*
X0098577Y0056645D01*
X0098557Y0056598D01*
X0098533Y0056552D01*
X0098506Y0056508D01*
X0098476Y0056467D01*
X0098443Y0056427D01*
X0098407Y0056391D01*
X0095648Y0055669D02*
X0095648Y0057546D01*
X0094204Y0057546D02*
X0094204Y0055669D01*
X0094206Y0055616D01*
X0094212Y0055564D01*
X0094221Y0055512D01*
X0094235Y0055461D01*
X0094252Y0055411D01*
X0094272Y0055363D01*
X0094296Y0055316D01*
X0094324Y0055271D01*
X0094355Y0055228D01*
X0094388Y0055187D01*
X0094425Y0055149D01*
X0094464Y0055114D01*
X0094506Y0055082D01*
X0094550Y0055053D01*
X0094596Y0055027D01*
X0094644Y0055005D01*
X0094693Y0054986D01*
X0094743Y0054970D01*
X0094795Y0054959D01*
X0094847Y0054951D01*
X0094900Y0054947D01*
X0094952Y0054947D01*
X0095005Y0054951D01*
X0095057Y0054959D01*
X0095109Y0054970D01*
X0095159Y0054986D01*
X0095208Y0055005D01*
X0095256Y0055027D01*
X0095302Y0055053D01*
X0095346Y0055082D01*
X0095388Y0055114D01*
X0095427Y0055149D01*
X0095464Y0055187D01*
X0095497Y0055228D01*
X0095528Y0055271D01*
X0095556Y0055316D01*
X0095580Y0055363D01*
X0095600Y0055411D01*
X0095617Y0055461D01*
X0095631Y0055512D01*
X0095640Y0055564D01*
X0095646Y0055616D01*
X0095648Y0055669D01*
X0080353Y0062121D02*
X0080353Y0062266D01*
X0080354Y0062266D02*
X0080352Y0062311D01*
X0080347Y0062356D01*
X0080338Y0062401D01*
X0080326Y0062445D01*
X0080310Y0062487D01*
X0080291Y0062528D01*
X0080269Y0062568D01*
X0080244Y0062606D01*
X0080216Y0062641D01*
X0080185Y0062675D01*
X0080151Y0062706D01*
X0080116Y0062734D01*
X0080078Y0062759D01*
X0080038Y0062781D01*
X0079997Y0062800D01*
X0079955Y0062816D01*
X0079911Y0062828D01*
X0079866Y0062837D01*
X0079821Y0062842D01*
X0079776Y0062844D01*
X0078909Y0062844D01*
X0078909Y0062121D01*
X0078911Y0062068D01*
X0078917Y0062016D01*
X0078926Y0061964D01*
X0078940Y0061913D01*
X0078957Y0061863D01*
X0078977Y0061815D01*
X0079001Y0061768D01*
X0079029Y0061723D01*
X0079060Y0061680D01*
X0079093Y0061639D01*
X0079130Y0061601D01*
X0079169Y0061566D01*
X0079211Y0061534D01*
X0079255Y0061505D01*
X0079301Y0061479D01*
X0079349Y0061457D01*
X0079398Y0061438D01*
X0079448Y0061422D01*
X0079500Y0061411D01*
X0079552Y0061403D01*
X0079605Y0061399D01*
X0079657Y0061399D01*
X0079710Y0061403D01*
X0079762Y0061411D01*
X0079814Y0061422D01*
X0079864Y0061438D01*
X0079913Y0061457D01*
X0079961Y0061479D01*
X0080007Y0061505D01*
X0080051Y0061534D01*
X0080093Y0061566D01*
X0080132Y0061601D01*
X0080169Y0061639D01*
X0080202Y0061680D01*
X0080233Y0061723D01*
X0080261Y0061768D01*
X0080285Y0061815D01*
X0080305Y0061863D01*
X0080322Y0061913D01*
X0080336Y0061964D01*
X0080345Y0062016D01*
X0080351Y0062068D01*
X0080353Y0062121D01*
X0078908Y0062844D02*
X0078910Y0062911D01*
X0078916Y0062978D01*
X0078926Y0063045D01*
X0078939Y0063111D01*
X0078957Y0063176D01*
X0078978Y0063239D01*
X0079003Y0063302D01*
X0079031Y0063363D01*
X0079063Y0063422D01*
X0079098Y0063479D01*
X0079137Y0063534D01*
X0079178Y0063587D01*
X0079223Y0063637D01*
X0079271Y0063685D01*
X0079321Y0063730D01*
X0079374Y0063771D01*
X0079429Y0063810D01*
X0079486Y0063845D01*
X0079545Y0063877D01*
X0079606Y0063905D01*
X0079669Y0063930D01*
X0079732Y0063951D01*
X0079797Y0063969D01*
X0079863Y0063982D01*
X0079930Y0063992D01*
X0079997Y0063998D01*
X0080064Y0064000D01*
X0077650Y0063999D02*
X0077073Y0063999D01*
X0077025Y0063997D01*
X0076978Y0063991D01*
X0076931Y0063981D01*
X0076885Y0063968D01*
X0076841Y0063950D01*
X0076798Y0063929D01*
X0076757Y0063905D01*
X0076718Y0063877D01*
X0076682Y0063846D01*
X0076648Y0063812D01*
X0076617Y0063776D01*
X0076589Y0063737D01*
X0076565Y0063696D01*
X0076544Y0063653D01*
X0076526Y0063609D01*
X0076513Y0063563D01*
X0076503Y0063516D01*
X0076497Y0063469D01*
X0076495Y0063421D01*
X0076495Y0061977D01*
X0076497Y0061932D01*
X0076502Y0061887D01*
X0076511Y0061842D01*
X0076523Y0061798D01*
X0076539Y0061756D01*
X0076558Y0061715D01*
X0076580Y0061675D01*
X0076605Y0061637D01*
X0076633Y0061602D01*
X0076664Y0061568D01*
X0076698Y0061537D01*
X0076733Y0061509D01*
X0076771Y0061484D01*
X0076811Y0061462D01*
X0076852Y0061443D01*
X0076894Y0061427D01*
X0076938Y0061415D01*
X0076983Y0061406D01*
X0077028Y0061401D01*
X0077073Y0061399D01*
X0077650Y0061399D01*
X0076485Y0019220D02*
X0076485Y0016620D01*
X0077641Y0016620D01*
X0078876Y0016620D02*
X0080103Y0018065D01*
X0079670Y0019220D02*
X0079615Y0019218D01*
X0079560Y0019213D01*
X0079505Y0019204D01*
X0079452Y0019191D01*
X0079399Y0019175D01*
X0079347Y0019155D01*
X0079297Y0019132D01*
X0079248Y0019106D01*
X0079201Y0019076D01*
X0079157Y0019044D01*
X0079114Y0019008D01*
X0079074Y0018970D01*
X0079037Y0018929D01*
X0079002Y0018886D01*
X0078971Y0018841D01*
X0078942Y0018794D01*
X0078917Y0018745D01*
X0078894Y0018694D01*
X0078876Y0018642D01*
X0080103Y0018065D02*
X0080139Y0018101D01*
X0080172Y0018141D01*
X0080202Y0018182D01*
X0080229Y0018226D01*
X0080253Y0018272D01*
X0080273Y0018319D01*
X0080290Y0018367D01*
X0080303Y0018417D01*
X0080312Y0018468D01*
X0080318Y0018519D01*
X0080320Y0018570D01*
X0080318Y0018619D01*
X0080313Y0018667D01*
X0080304Y0018715D01*
X0080291Y0018762D01*
X0080275Y0018807D01*
X0080256Y0018852D01*
X0080233Y0018895D01*
X0080207Y0018936D01*
X0080178Y0018975D01*
X0080146Y0019012D01*
X0080112Y0019046D01*
X0080075Y0019078D01*
X0080036Y0019107D01*
X0079995Y0019133D01*
X0079952Y0019156D01*
X0079907Y0019175D01*
X0079862Y0019191D01*
X0079815Y0019204D01*
X0079767Y0019213D01*
X0079719Y0019218D01*
X0079670Y0019220D01*
X0080320Y0016620D02*
X0078876Y0016620D01*
X0152793Y0016556D02*
X0152793Y0021556D01*
X0155293Y0024056D01*
X0160293Y0024056D01*
X0162793Y0021556D01*
X0165293Y0024056D01*
X0170293Y0024056D01*
X0172793Y0021556D01*
X0172793Y0016556D01*
X0170293Y0014056D01*
X0165293Y0014056D01*
X0162793Y0016556D01*
X0160293Y0014056D01*
X0155293Y0014056D01*
X0152793Y0016556D01*
X0162793Y0016556D02*
X0162793Y0021556D01*
X0171057Y0026917D02*
X0171851Y0026483D01*
X0171562Y0025400D02*
X0171493Y0025402D01*
X0171425Y0025408D01*
X0171356Y0025417D01*
X0171289Y0025431D01*
X0171222Y0025448D01*
X0171157Y0025469D01*
X0171092Y0025494D01*
X0171030Y0025522D01*
X0170969Y0025554D01*
X0170909Y0025589D01*
X0170852Y0025628D01*
X0170797Y0025669D01*
X0170745Y0025714D01*
X0170695Y0025761D01*
X0171851Y0026484D02*
X0171890Y0026458D01*
X0171928Y0026430D01*
X0171963Y0026399D01*
X0171995Y0026365D01*
X0172024Y0026328D01*
X0172051Y0026289D01*
X0172074Y0026249D01*
X0172094Y0026206D01*
X0172110Y0026162D01*
X0172123Y0026117D01*
X0172133Y0026071D01*
X0172138Y0026025D01*
X0172140Y0025978D01*
X0172138Y0025933D01*
X0172133Y0025888D01*
X0172124Y0025843D01*
X0172112Y0025799D01*
X0172096Y0025757D01*
X0172077Y0025716D01*
X0172055Y0025676D01*
X0172030Y0025638D01*
X0172002Y0025603D01*
X0171971Y0025569D01*
X0171937Y0025538D01*
X0171902Y0025510D01*
X0171864Y0025485D01*
X0171824Y0025463D01*
X0171783Y0025444D01*
X0171741Y0025428D01*
X0171697Y0025416D01*
X0171652Y0025407D01*
X0171607Y0025402D01*
X0171562Y0025400D01*
X0171996Y0027783D02*
X0171944Y0027820D01*
X0171890Y0027853D01*
X0171835Y0027884D01*
X0171777Y0027910D01*
X0171718Y0027934D01*
X0171658Y0027954D01*
X0171597Y0027970D01*
X0171535Y0027983D01*
X0171472Y0027993D01*
X0171409Y0027998D01*
X0171346Y0028000D01*
X0171301Y0027998D01*
X0171256Y0027993D01*
X0171211Y0027984D01*
X0171167Y0027972D01*
X0171125Y0027956D01*
X0171084Y0027937D01*
X0171044Y0027915D01*
X0171006Y0027890D01*
X0170971Y0027862D01*
X0170937Y0027831D01*
X0170906Y0027797D01*
X0170878Y0027762D01*
X0170853Y0027724D01*
X0170831Y0027684D01*
X0170812Y0027643D01*
X0170796Y0027601D01*
X0170784Y0027557D01*
X0170775Y0027512D01*
X0170770Y0027467D01*
X0170768Y0027422D01*
X0170770Y0027375D01*
X0170775Y0027329D01*
X0170785Y0027283D01*
X0170798Y0027238D01*
X0170814Y0027194D01*
X0170834Y0027151D01*
X0170857Y0027111D01*
X0170884Y0027072D01*
X0170913Y0027035D01*
X0170945Y0027001D01*
X0170980Y0026970D01*
X0171018Y0026942D01*
X0171057Y0026916D01*
X0173430Y0028000D02*
X0174008Y0025400D01*
X0174586Y0027133D01*
X0175164Y0025400D01*
X0175741Y0028000D01*
X0177128Y0027422D02*
X0177850Y0028000D01*
X0177850Y0025400D01*
X0177128Y0025400D02*
X0178572Y0025400D01*
X0197935Y0026556D02*
X0197935Y0031556D01*
X0200435Y0034056D01*
X0215435Y0034056D01*
X0217935Y0036556D01*
X0217935Y0041556D01*
X0215435Y0044056D01*
X0217935Y0046556D01*
X0217935Y0051556D01*
X0215435Y0054056D01*
X0217935Y0056556D01*
X0217935Y0061556D01*
X0215435Y0064056D01*
X0217935Y0066556D01*
X0217935Y0071556D01*
X0215435Y0074056D01*
X0200435Y0074056D01*
X0197935Y0071556D01*
X0197935Y0066556D01*
X0200435Y0064056D01*
X0215435Y0064056D01*
X0215435Y0054056D02*
X0200435Y0054056D01*
X0197935Y0056556D01*
X0197935Y0061556D01*
X0200435Y0064056D01*
X0200435Y0054056D02*
X0197935Y0051556D01*
X0197935Y0046556D01*
X0200435Y0044056D01*
X0215435Y0044056D01*
X0215435Y0034056D02*
X0217935Y0031556D01*
X0217935Y0026556D01*
X0215435Y0024056D01*
X0200435Y0024056D01*
X0197935Y0026556D01*
X0200435Y0024056D02*
X0197935Y0021556D01*
X0197935Y0016556D01*
X0200435Y0014056D01*
X0215435Y0014056D01*
X0217935Y0016556D01*
X0217935Y0021556D01*
X0215435Y0024056D01*
X0200435Y0034056D02*
X0197935Y0036556D01*
X0197935Y0041556D01*
X0200435Y0044056D01*
X0161218Y0048376D02*
X0159773Y0048376D01*
X0160496Y0048376D02*
X0160496Y0050976D01*
X0159773Y0050399D01*
X0158515Y0050976D02*
X0157937Y0050976D01*
X0157937Y0050977D02*
X0157889Y0050975D01*
X0157842Y0050969D01*
X0157795Y0050959D01*
X0157749Y0050946D01*
X0157705Y0050928D01*
X0157662Y0050907D01*
X0157621Y0050883D01*
X0157582Y0050855D01*
X0157546Y0050824D01*
X0157512Y0050790D01*
X0157481Y0050754D01*
X0157453Y0050715D01*
X0157429Y0050674D01*
X0157408Y0050631D01*
X0157390Y0050587D01*
X0157377Y0050541D01*
X0157367Y0050494D01*
X0157361Y0050447D01*
X0157359Y0050399D01*
X0157359Y0048954D01*
X0157361Y0048909D01*
X0157366Y0048864D01*
X0157375Y0048819D01*
X0157387Y0048775D01*
X0157403Y0048733D01*
X0157422Y0048692D01*
X0157444Y0048652D01*
X0157469Y0048614D01*
X0157497Y0048579D01*
X0157528Y0048545D01*
X0157562Y0048514D01*
X0157597Y0048486D01*
X0157635Y0048461D01*
X0157675Y0048439D01*
X0157716Y0048420D01*
X0157758Y0048404D01*
X0157802Y0048392D01*
X0157847Y0048383D01*
X0157892Y0048378D01*
X0157937Y0048376D01*
X0158515Y0048376D01*
X0156080Y0048376D02*
X0155503Y0048376D01*
X0155792Y0048376D02*
X0155792Y0050976D01*
X0156080Y0050976D02*
X0155503Y0050976D01*
X0201351Y0110400D02*
X0201351Y0111556D01*
X0201785Y0110978D02*
X0200340Y0110978D01*
X0200918Y0113000D01*
X0198809Y0113000D02*
X0198809Y0111122D01*
X0198808Y0111122D02*
X0198806Y0111069D01*
X0198800Y0111017D01*
X0198791Y0110965D01*
X0198777Y0110914D01*
X0198760Y0110864D01*
X0198740Y0110816D01*
X0198716Y0110769D01*
X0198688Y0110724D01*
X0198657Y0110681D01*
X0198624Y0110640D01*
X0198587Y0110602D01*
X0198548Y0110567D01*
X0198506Y0110535D01*
X0198462Y0110506D01*
X0198416Y0110480D01*
X0198368Y0110458D01*
X0198319Y0110439D01*
X0198269Y0110423D01*
X0198217Y0110412D01*
X0198165Y0110404D01*
X0198112Y0110400D01*
X0198060Y0110400D01*
X0198007Y0110404D01*
X0197955Y0110412D01*
X0197903Y0110423D01*
X0197853Y0110439D01*
X0197804Y0110458D01*
X0197756Y0110480D01*
X0197710Y0110506D01*
X0197666Y0110535D01*
X0197624Y0110567D01*
X0197585Y0110602D01*
X0197548Y0110640D01*
X0197515Y0110681D01*
X0197484Y0110724D01*
X0197456Y0110769D01*
X0197432Y0110816D01*
X0197412Y0110864D01*
X0197395Y0110914D01*
X0197381Y0110965D01*
X0197372Y0111017D01*
X0197366Y0111069D01*
X0197364Y0111122D01*
X0197364Y0113000D01*
X0191372Y0118300D02*
X0189872Y0120300D01*
X0188372Y0118300D01*
X0191372Y0118300D01*
X0191272Y0118434D02*
X0188472Y0118434D01*
X0188921Y0119032D02*
X0190823Y0119032D01*
X0190374Y0119631D02*
X0189370Y0119631D01*
X0189819Y0120229D02*
X0189925Y0120229D01*
X0186572Y0120305D02*
X0186572Y0119582D01*
X0183972Y0119582D01*
X0183972Y0120305D01*
X0183974Y0120357D01*
X0183979Y0120408D01*
X0183989Y0120458D01*
X0184001Y0120508D01*
X0184018Y0120557D01*
X0184037Y0120605D01*
X0184060Y0120651D01*
X0184087Y0120695D01*
X0184116Y0120738D01*
X0184148Y0120778D01*
X0184183Y0120816D01*
X0184221Y0120851D01*
X0184261Y0120883D01*
X0184304Y0120912D01*
X0184348Y0120939D01*
X0184394Y0120962D01*
X0184442Y0120981D01*
X0184491Y0120998D01*
X0184541Y0121011D01*
X0184591Y0121020D01*
X0184643Y0121025D01*
X0184694Y0121027D01*
X0185850Y0121027D01*
X0185902Y0121025D01*
X0185953Y0121020D01*
X0186003Y0121011D01*
X0186053Y0120998D01*
X0186102Y0120981D01*
X0186150Y0120962D01*
X0186196Y0120939D01*
X0186240Y0120912D01*
X0186283Y0120883D01*
X0186323Y0120851D01*
X0186361Y0120816D01*
X0186396Y0120778D01*
X0186428Y0120738D01*
X0186457Y0120695D01*
X0186484Y0120651D01*
X0186507Y0120605D01*
X0186526Y0120557D01*
X0186543Y0120508D01*
X0186556Y0120458D01*
X0186565Y0120408D01*
X0186570Y0120357D01*
X0186572Y0120305D01*
X0186572Y0118252D02*
X0186572Y0117096D01*
X0183972Y0117096D01*
X0183972Y0118252D01*
X0185128Y0117963D02*
X0185128Y0117096D01*
X0186572Y0115756D02*
X0186572Y0114600D01*
X0183972Y0114600D01*
X0179372Y0118300D02*
X0177872Y0120300D01*
X0176372Y0118300D01*
X0179372Y0118300D01*
X0179272Y0118434D02*
X0176472Y0118434D01*
X0176921Y0119032D02*
X0178823Y0119032D01*
X0178374Y0119631D02*
X0177370Y0119631D01*
X0177819Y0120229D02*
X0177925Y0120229D01*
X0174572Y0120305D02*
X0174572Y0119582D01*
X0171972Y0119582D01*
X0171972Y0120305D01*
X0171974Y0120357D01*
X0171979Y0120408D01*
X0171989Y0120458D01*
X0172001Y0120508D01*
X0172018Y0120557D01*
X0172037Y0120605D01*
X0172060Y0120651D01*
X0172087Y0120695D01*
X0172116Y0120738D01*
X0172148Y0120778D01*
X0172183Y0120816D01*
X0172221Y0120851D01*
X0172261Y0120883D01*
X0172304Y0120912D01*
X0172348Y0120939D01*
X0172394Y0120962D01*
X0172442Y0120981D01*
X0172491Y0120998D01*
X0172541Y0121011D01*
X0172591Y0121020D01*
X0172643Y0121025D01*
X0172694Y0121027D01*
X0173850Y0121027D01*
X0173902Y0121025D01*
X0173953Y0121020D01*
X0174003Y0121011D01*
X0174053Y0120998D01*
X0174102Y0120981D01*
X0174150Y0120962D01*
X0174196Y0120939D01*
X0174240Y0120912D01*
X0174283Y0120883D01*
X0174323Y0120851D01*
X0174361Y0120816D01*
X0174396Y0120778D01*
X0174428Y0120738D01*
X0174457Y0120695D01*
X0174484Y0120651D01*
X0174507Y0120605D01*
X0174526Y0120557D01*
X0174543Y0120508D01*
X0174556Y0120458D01*
X0174565Y0120408D01*
X0174570Y0120357D01*
X0174572Y0120305D01*
X0174572Y0118252D02*
X0174572Y0117096D01*
X0171972Y0117096D01*
X0171972Y0118252D01*
X0173128Y0117963D02*
X0173128Y0117096D01*
X0174572Y0115756D02*
X0174572Y0114600D01*
X0171972Y0114600D01*
X0174572Y0122558D02*
X0174572Y0124003D01*
X0174572Y0122558D02*
X0173128Y0123786D01*
X0171972Y0123353D02*
X0171974Y0123298D01*
X0171979Y0123243D01*
X0171988Y0123188D01*
X0172001Y0123135D01*
X0172017Y0123082D01*
X0172037Y0123030D01*
X0172060Y0122980D01*
X0172086Y0122931D01*
X0172116Y0122884D01*
X0172148Y0122840D01*
X0172184Y0122797D01*
X0172222Y0122757D01*
X0172263Y0122720D01*
X0172306Y0122685D01*
X0172351Y0122654D01*
X0172398Y0122625D01*
X0172447Y0122600D01*
X0172498Y0122577D01*
X0172550Y0122559D01*
X0173127Y0123786D02*
X0173091Y0123822D01*
X0173051Y0123855D01*
X0173010Y0123885D01*
X0172966Y0123912D01*
X0172920Y0123936D01*
X0172873Y0123956D01*
X0172825Y0123973D01*
X0172775Y0123986D01*
X0172724Y0123995D01*
X0172673Y0124001D01*
X0172622Y0124003D01*
X0172573Y0124001D01*
X0172525Y0123996D01*
X0172477Y0123987D01*
X0172430Y0123974D01*
X0172385Y0123958D01*
X0172340Y0123939D01*
X0172297Y0123916D01*
X0172256Y0123890D01*
X0172217Y0123861D01*
X0172180Y0123829D01*
X0172146Y0123795D01*
X0172114Y0123758D01*
X0172085Y0123719D01*
X0172059Y0123678D01*
X0172036Y0123635D01*
X0172017Y0123590D01*
X0172001Y0123545D01*
X0171988Y0123498D01*
X0171979Y0123450D01*
X0171974Y0123402D01*
X0171972Y0123353D01*
X0183972Y0123281D02*
X0186572Y0123281D01*
X0186572Y0124003D02*
X0186572Y0122558D01*
X0184550Y0122558D02*
X0183972Y0123281D01*
X0205872Y0122800D02*
X0205872Y0127800D01*
X0208372Y0130300D01*
X0213372Y0130300D01*
X0215872Y0127800D01*
X0215872Y0122800D01*
X0213372Y0120300D01*
X0215872Y0117800D01*
X0215872Y0112800D01*
X0213372Y0110300D01*
X0208372Y0110300D01*
X0205872Y0112800D01*
X0205872Y0117800D01*
X0208372Y0120300D01*
X0205872Y0122800D01*
X0208372Y0120300D02*
X0213372Y0120300D01*
X0192579Y0168350D02*
X0191135Y0168350D01*
X0191857Y0168350D02*
X0191857Y0170950D01*
X0191135Y0170372D01*
X0189144Y0169794D02*
X0189191Y0169796D01*
X0189237Y0169801D01*
X0189282Y0169811D01*
X0189327Y0169824D01*
X0189371Y0169840D01*
X0189413Y0169860D01*
X0189453Y0169883D01*
X0189491Y0169910D01*
X0189527Y0169939D01*
X0189561Y0169972D01*
X0189592Y0170006D01*
X0189620Y0170044D01*
X0189645Y0170083D01*
X0189666Y0170124D01*
X0189684Y0170167D01*
X0189699Y0170211D01*
X0189710Y0170256D01*
X0189718Y0170302D01*
X0189722Y0170349D01*
X0189722Y0170395D01*
X0189718Y0170442D01*
X0189710Y0170488D01*
X0189699Y0170533D01*
X0189684Y0170577D01*
X0189666Y0170620D01*
X0189645Y0170661D01*
X0189620Y0170700D01*
X0189592Y0170738D01*
X0189561Y0170772D01*
X0189527Y0170805D01*
X0189491Y0170834D01*
X0189453Y0170861D01*
X0189413Y0170884D01*
X0189371Y0170904D01*
X0189327Y0170920D01*
X0189282Y0170933D01*
X0189237Y0170943D01*
X0189191Y0170948D01*
X0189144Y0170950D01*
X0188422Y0170950D01*
X0188422Y0168350D01*
X0189144Y0168350D01*
X0189197Y0168352D01*
X0189249Y0168358D01*
X0189301Y0168367D01*
X0189352Y0168381D01*
X0189402Y0168398D01*
X0189450Y0168418D01*
X0189497Y0168442D01*
X0189542Y0168470D01*
X0189585Y0168501D01*
X0189626Y0168534D01*
X0189664Y0168571D01*
X0189699Y0168610D01*
X0189731Y0168652D01*
X0189760Y0168696D01*
X0189786Y0168742D01*
X0189808Y0168790D01*
X0189827Y0168839D01*
X0189843Y0168889D01*
X0189854Y0168941D01*
X0189862Y0168993D01*
X0189866Y0169046D01*
X0189866Y0169098D01*
X0189862Y0169151D01*
X0189854Y0169203D01*
X0189843Y0169255D01*
X0189827Y0169305D01*
X0189808Y0169354D01*
X0189786Y0169402D01*
X0189760Y0169448D01*
X0189731Y0169492D01*
X0189699Y0169534D01*
X0189664Y0169573D01*
X0189626Y0169610D01*
X0189585Y0169643D01*
X0189542Y0169674D01*
X0189497Y0169702D01*
X0189450Y0169726D01*
X0189402Y0169746D01*
X0189352Y0169763D01*
X0189301Y0169777D01*
X0189249Y0169786D01*
X0189197Y0169792D01*
X0189144Y0169794D01*
X0188422Y0169794D01*
X0190829Y0173544D02*
X0195829Y0173544D01*
X0198329Y0176044D01*
X0200829Y0173544D01*
X0205829Y0173544D01*
X0208329Y0176044D01*
X0210829Y0173544D01*
X0215829Y0173544D01*
X0218329Y0176044D01*
X0218329Y0191044D01*
X0215829Y0193544D01*
X0210829Y0193544D01*
X0208329Y0191044D01*
X0208329Y0176044D01*
X0198329Y0176044D02*
X0198329Y0191044D01*
X0200829Y0193544D01*
X0205829Y0193544D01*
X0208329Y0191044D01*
X0198329Y0191044D02*
X0195829Y0193544D01*
X0190829Y0193544D01*
X0188329Y0191044D01*
X0188329Y0176044D01*
X0190829Y0173544D01*
X0188329Y0176044D02*
X0185829Y0173544D01*
X0180829Y0173544D01*
X0178329Y0176044D01*
X0178329Y0191044D01*
X0180829Y0193544D01*
X0185829Y0193544D01*
X0188329Y0191044D01*
X0178329Y0191044D02*
X0175829Y0193544D01*
X0170829Y0193544D01*
X0168329Y0191044D01*
X0168329Y0176044D01*
X0170829Y0173544D01*
X0175829Y0173544D01*
X0178329Y0176044D01*
X0168329Y0176044D02*
X0165829Y0173544D01*
X0160829Y0173544D01*
X0158329Y0176044D01*
X0158329Y0191044D01*
X0160829Y0193544D01*
X0165829Y0193544D01*
X0168329Y0191044D01*
X0158329Y0191044D02*
X0155829Y0193544D01*
X0150829Y0193544D01*
X0148329Y0191044D01*
X0148329Y0176044D01*
X0150829Y0173544D01*
X0155829Y0173544D01*
X0158329Y0176044D01*
X0148329Y0176044D02*
X0145829Y0173544D01*
X0140829Y0173544D01*
X0138329Y0176044D01*
X0138329Y0191044D01*
X0140829Y0193544D01*
X0145829Y0193544D01*
X0148329Y0191044D01*
X0138329Y0191044D02*
X0135829Y0193544D01*
X0130829Y0193544D01*
X0128329Y0191044D01*
X0128329Y0176044D01*
X0130829Y0173544D01*
X0135829Y0173544D01*
X0138329Y0176044D01*
X0128329Y0176044D02*
X0125829Y0173544D01*
X0120829Y0173544D01*
X0118329Y0176044D01*
X0118329Y0191044D01*
X0120829Y0193544D01*
X0125829Y0193544D01*
X0128329Y0191044D01*
X0118329Y0191044D02*
X0115829Y0193544D01*
X0110829Y0193544D01*
X0108329Y0191044D01*
X0108329Y0176044D01*
X0110829Y0173544D01*
X0115829Y0173544D01*
X0118329Y0176044D01*
X0108329Y0176044D02*
X0105829Y0173544D01*
X0100829Y0173544D01*
X0098329Y0176044D01*
X0098329Y0191044D01*
X0100829Y0193544D01*
X0105829Y0193544D01*
X0108329Y0191044D01*
D14*
X0074699Y0016080D02*
X0053045Y0016080D01*
X0053045Y0038520D01*
X0074699Y0038520D01*
X0074699Y0016080D01*
X0074565Y0051394D02*
X0053179Y0051394D01*
X0053179Y0063206D01*
X0074565Y0063206D01*
X0074565Y0051394D01*
X0064622Y0055550D02*
X0064622Y0059050D01*
X0063122Y0059050D02*
X0063122Y0055550D01*
X0064622Y0057300D01*
X0063122Y0059050D01*
X0156998Y0046174D02*
X0156998Y0044796D01*
X0156998Y0046174D02*
X0158376Y0046174D01*
X0171368Y0046174D02*
X0172746Y0046174D01*
X0172746Y0044796D01*
X0172746Y0031804D02*
X0171368Y0030426D01*
X0172572Y0030100D02*
X0172574Y0030144D01*
X0172580Y0030188D01*
X0172590Y0030231D01*
X0172603Y0030273D01*
X0172620Y0030314D01*
X0172641Y0030353D01*
X0172665Y0030390D01*
X0172692Y0030425D01*
X0172722Y0030457D01*
X0172755Y0030487D01*
X0172791Y0030513D01*
X0172828Y0030537D01*
X0172868Y0030556D01*
X0172909Y0030573D01*
X0172952Y0030585D01*
X0172995Y0030594D01*
X0173039Y0030599D01*
X0173083Y0030600D01*
X0173127Y0030597D01*
X0173171Y0030590D01*
X0173214Y0030579D01*
X0173256Y0030565D01*
X0173296Y0030547D01*
X0173335Y0030525D01*
X0173371Y0030501D01*
X0173405Y0030473D01*
X0173437Y0030442D01*
X0173466Y0030408D01*
X0173492Y0030372D01*
X0173514Y0030334D01*
X0173533Y0030294D01*
X0173548Y0030252D01*
X0173560Y0030210D01*
X0173568Y0030166D01*
X0173572Y0030122D01*
X0173572Y0030078D01*
X0173568Y0030034D01*
X0173560Y0029990D01*
X0173548Y0029948D01*
X0173533Y0029906D01*
X0173514Y0029866D01*
X0173492Y0029828D01*
X0173466Y0029792D01*
X0173437Y0029758D01*
X0173405Y0029727D01*
X0173371Y0029699D01*
X0173335Y0029675D01*
X0173296Y0029653D01*
X0173256Y0029635D01*
X0173214Y0029621D01*
X0173171Y0029610D01*
X0173127Y0029603D01*
X0173083Y0029600D01*
X0173039Y0029601D01*
X0172995Y0029606D01*
X0172952Y0029615D01*
X0172909Y0029627D01*
X0172868Y0029644D01*
X0172828Y0029663D01*
X0172791Y0029687D01*
X0172755Y0029713D01*
X0172722Y0029743D01*
X0172692Y0029775D01*
X0172665Y0029810D01*
X0172641Y0029847D01*
X0172620Y0029886D01*
X0172603Y0029927D01*
X0172590Y0029969D01*
X0172580Y0030012D01*
X0172574Y0030056D01*
X0172572Y0030100D01*
X0177604Y0024306D02*
X0194140Y0024306D01*
X0194384Y0028544D02*
X0192022Y0028544D01*
X0194384Y0028544D02*
X0194384Y0031694D01*
X0185723Y0028544D02*
X0183360Y0028544D01*
X0183360Y0031694D01*
X0177604Y0012294D02*
X0194140Y0012294D01*
X0158376Y0030426D02*
X0156998Y0030426D01*
X0156998Y0031804D01*
X0188723Y0097804D02*
X0195022Y0097804D01*
X0187738Y0102725D02*
X0187738Y0105875D01*
X0188723Y0110796D02*
X0195022Y0110796D01*
X0189156Y0135552D02*
X0189156Y0138898D01*
X0198998Y0138898D01*
X0198998Y0144410D01*
X0204904Y0135552D02*
X0189156Y0135552D01*
X0198998Y0158190D02*
X0198998Y0163702D01*
X0189156Y0163702D01*
X0189156Y0167048D01*
X0204904Y0167048D01*
X0218683Y0160158D02*
X0218683Y0142442D01*
D15*
X0141715Y0032631D02*
X0138565Y0032631D01*
X0125179Y0032631D02*
X0122030Y0032631D01*
X0116911Y0014914D02*
X0116911Y0011371D01*
X0146833Y0011371D01*
X0146833Y0014914D01*
X0095140Y0037032D02*
X0092384Y0037032D01*
X0095140Y0037032D02*
X0095140Y0039788D01*
X0095140Y0050812D02*
X0095140Y0053568D01*
X0092384Y0053568D01*
X0081360Y0053568D02*
X0078604Y0053568D01*
X0078604Y0050812D01*
X0078604Y0039788D02*
X0078604Y0037032D01*
X0081360Y0037032D01*
X0084707Y0066300D02*
X0052423Y0066300D01*
X0052423Y0192284D01*
X0084707Y0192284D01*
X0084707Y0066300D01*
D16*
X0075455Y0052387D02*
X0075457Y0052443D01*
X0075463Y0052498D01*
X0075473Y0052552D01*
X0075486Y0052606D01*
X0075504Y0052659D01*
X0075525Y0052710D01*
X0075549Y0052760D01*
X0075577Y0052808D01*
X0075609Y0052854D01*
X0075643Y0052898D01*
X0075681Y0052939D01*
X0075721Y0052977D01*
X0075764Y0053012D01*
X0075809Y0053044D01*
X0075857Y0053073D01*
X0075906Y0053099D01*
X0075957Y0053121D01*
X0076009Y0053139D01*
X0076063Y0053153D01*
X0076118Y0053164D01*
X0076173Y0053171D01*
X0076228Y0053174D01*
X0076284Y0053173D01*
X0076339Y0053168D01*
X0076394Y0053159D01*
X0076448Y0053147D01*
X0076501Y0053130D01*
X0076553Y0053110D01*
X0076603Y0053086D01*
X0076651Y0053059D01*
X0076698Y0053029D01*
X0076742Y0052995D01*
X0076784Y0052958D01*
X0076822Y0052918D01*
X0076859Y0052876D01*
X0076892Y0052831D01*
X0076921Y0052785D01*
X0076948Y0052736D01*
X0076970Y0052685D01*
X0076990Y0052633D01*
X0077005Y0052579D01*
X0077017Y0052525D01*
X0077025Y0052470D01*
X0077029Y0052415D01*
X0077029Y0052359D01*
X0077025Y0052304D01*
X0077017Y0052249D01*
X0077005Y0052195D01*
X0076990Y0052141D01*
X0076970Y0052089D01*
X0076948Y0052038D01*
X0076921Y0051989D01*
X0076892Y0051943D01*
X0076859Y0051898D01*
X0076822Y0051856D01*
X0076784Y0051816D01*
X0076742Y0051779D01*
X0076698Y0051745D01*
X0076651Y0051715D01*
X0076603Y0051688D01*
X0076553Y0051664D01*
X0076501Y0051644D01*
X0076448Y0051627D01*
X0076394Y0051615D01*
X0076339Y0051606D01*
X0076284Y0051601D01*
X0076228Y0051600D01*
X0076173Y0051603D01*
X0076118Y0051610D01*
X0076063Y0051621D01*
X0076009Y0051635D01*
X0075957Y0051653D01*
X0075906Y0051675D01*
X0075857Y0051701D01*
X0075809Y0051730D01*
X0075764Y0051762D01*
X0075721Y0051797D01*
X0075681Y0051835D01*
X0075643Y0051876D01*
X0075609Y0051920D01*
X0075577Y0051966D01*
X0075549Y0052014D01*
X0075525Y0052064D01*
X0075504Y0052115D01*
X0075486Y0052168D01*
X0075473Y0052222D01*
X0075463Y0052276D01*
X0075457Y0052331D01*
X0075455Y0052387D01*
M02*
