G75*
%MOIN*%
%OFA0B0*%
%FSLAX25Y25*%
%IPPOS*%
%LPD*%
%AMOC8*
5,1,8,0,0,1.08239X$1,22.5*
%
%ADD10R,0.03937X0.04331*%
%ADD11R,0.04331X0.03937*%
%ADD12R,0.04724X0.04724*%
%ADD13C,0.00551*%
%ADD14R,0.09843X0.09843*%
%ADD15R,0.03150X0.03543*%
%ADD16R,0.03543X0.03543*%
%ADD17R,0.04724X0.03543*%
%ADD18R,0.03543X0.04724*%
%ADD19R,0.23622X0.23622*%
%ADD20OC8,0.06600*%
%ADD21R,0.04724X0.02165*%
%ADD22R,0.10630X0.10630*%
%ADD23C,0.01378*%
%ADD24C,0.02375*%
%ADD25R,0.19685X0.07874*%
%ADD26R,0.18110X0.03937*%
%ADD27R,0.13386X0.06299*%
%ADD28R,0.07677X0.09843*%
%ADD29C,0.06000*%
%ADD30C,0.05906*%
%ADD31R,0.07087X0.06299*%
%ADD32C,0.04134*%
%ADD33R,0.01575X0.05315*%
%ADD34R,0.03937X0.07874*%
%ADD35C,0.01000*%
%ADD36C,0.03248*%
%ADD37C,0.02178*%
%ADD38C,0.04000*%
%ADD39C,0.02000*%
%ADD40C,0.00600*%
%ADD41C,0.01200*%
%ADD42C,0.01600*%
%ADD43C,0.03000*%
%ADD44C,0.00800*%
D10*
X0086526Y0062300D03*
X0093219Y0062300D03*
X0112526Y0043300D03*
X0119219Y0043300D03*
X0106219Y0038300D03*
X0099526Y0038300D03*
X0101219Y0030300D03*
X0094526Y0030300D03*
X0177872Y0099954D03*
X0177872Y0106646D03*
X0188526Y0092300D03*
X0195219Y0092300D03*
X0193219Y0059300D03*
X0186526Y0059300D03*
X0185872Y0047646D03*
X0185872Y0040954D03*
X0188526Y0131300D03*
X0195219Y0131300D03*
D11*
X0177872Y0129954D03*
X0177872Y0136646D03*
X0186526Y0073300D03*
X0193219Y0073300D03*
X0111872Y0058646D03*
X0111872Y0051954D03*
X0067219Y0045300D03*
X0060526Y0045300D03*
D12*
X0099872Y0023434D03*
X0099872Y0015166D03*
X0108872Y0015166D03*
X0108872Y0023434D03*
X0119872Y0050166D03*
X0119872Y0058434D03*
X0177872Y0115166D03*
X0177872Y0123434D03*
X0189872Y0123434D03*
X0189872Y0115166D03*
D13*
X0169517Y0047474D02*
X0169517Y0044874D01*
X0169517Y0047474D02*
X0170069Y0047474D01*
X0170069Y0044874D01*
X0169517Y0044874D01*
X0169517Y0045424D02*
X0170069Y0045424D01*
X0170069Y0045974D02*
X0169517Y0045974D01*
X0169517Y0046524D02*
X0170069Y0046524D01*
X0170069Y0047074D02*
X0169517Y0047074D01*
X0167549Y0047474D02*
X0167549Y0044874D01*
X0167549Y0047474D02*
X0168101Y0047474D01*
X0168101Y0044874D01*
X0167549Y0044874D01*
X0167549Y0045424D02*
X0168101Y0045424D01*
X0168101Y0045974D02*
X0167549Y0045974D01*
X0167549Y0046524D02*
X0168101Y0046524D01*
X0168101Y0047074D02*
X0167549Y0047074D01*
X0165580Y0047474D02*
X0165580Y0044874D01*
X0165580Y0047474D02*
X0166132Y0047474D01*
X0166132Y0044874D01*
X0165580Y0044874D01*
X0165580Y0045424D02*
X0166132Y0045424D01*
X0166132Y0045974D02*
X0165580Y0045974D01*
X0165580Y0046524D02*
X0166132Y0046524D01*
X0166132Y0047074D02*
X0165580Y0047074D01*
X0163612Y0047474D02*
X0163612Y0044874D01*
X0163612Y0047474D02*
X0164164Y0047474D01*
X0164164Y0044874D01*
X0163612Y0044874D01*
X0163612Y0045424D02*
X0164164Y0045424D01*
X0164164Y0045974D02*
X0163612Y0045974D01*
X0163612Y0046524D02*
X0164164Y0046524D01*
X0164164Y0047074D02*
X0163612Y0047074D01*
X0161643Y0047474D02*
X0161643Y0044874D01*
X0161643Y0047474D02*
X0162195Y0047474D01*
X0162195Y0044874D01*
X0161643Y0044874D01*
X0161643Y0045424D02*
X0162195Y0045424D01*
X0162195Y0045974D02*
X0161643Y0045974D01*
X0161643Y0046524D02*
X0162195Y0046524D01*
X0162195Y0047074D02*
X0161643Y0047074D01*
X0159675Y0047474D02*
X0159675Y0044874D01*
X0159675Y0047474D02*
X0160227Y0047474D01*
X0160227Y0044874D01*
X0159675Y0044874D01*
X0159675Y0045424D02*
X0160227Y0045424D01*
X0160227Y0045974D02*
X0159675Y0045974D01*
X0159675Y0046524D02*
X0160227Y0046524D01*
X0160227Y0047074D02*
X0159675Y0047074D01*
X0158298Y0043497D02*
X0155698Y0043497D01*
X0158298Y0043497D02*
X0158298Y0042945D01*
X0155698Y0042945D01*
X0155698Y0043497D01*
X0155698Y0043495D02*
X0158298Y0043495D01*
X0158298Y0041529D02*
X0155698Y0041529D01*
X0158298Y0041529D02*
X0158298Y0040977D01*
X0155698Y0040977D01*
X0155698Y0041529D01*
X0155698Y0041527D02*
X0158298Y0041527D01*
X0158298Y0039560D02*
X0155698Y0039560D01*
X0158298Y0039560D02*
X0158298Y0039008D01*
X0155698Y0039008D01*
X0155698Y0039560D01*
X0155698Y0039558D02*
X0158298Y0039558D01*
X0158298Y0037592D02*
X0155698Y0037592D01*
X0158298Y0037592D02*
X0158298Y0037040D01*
X0155698Y0037040D01*
X0155698Y0037592D01*
X0155698Y0037590D02*
X0158298Y0037590D01*
X0158298Y0035623D02*
X0155698Y0035623D01*
X0158298Y0035623D02*
X0158298Y0035071D01*
X0155698Y0035071D01*
X0155698Y0035623D01*
X0155698Y0035621D02*
X0158298Y0035621D01*
X0158298Y0033655D02*
X0155698Y0033655D01*
X0158298Y0033655D02*
X0158298Y0033103D01*
X0155698Y0033103D01*
X0155698Y0033655D01*
X0155698Y0033653D02*
X0158298Y0033653D01*
X0160227Y0031726D02*
X0160227Y0029126D01*
X0159675Y0029126D01*
X0159675Y0031726D01*
X0160227Y0031726D01*
X0160227Y0029676D02*
X0159675Y0029676D01*
X0159675Y0030226D02*
X0160227Y0030226D01*
X0160227Y0030776D02*
X0159675Y0030776D01*
X0159675Y0031326D02*
X0160227Y0031326D01*
X0162195Y0031726D02*
X0162195Y0029126D01*
X0161643Y0029126D01*
X0161643Y0031726D01*
X0162195Y0031726D01*
X0162195Y0029676D02*
X0161643Y0029676D01*
X0161643Y0030226D02*
X0162195Y0030226D01*
X0162195Y0030776D02*
X0161643Y0030776D01*
X0161643Y0031326D02*
X0162195Y0031326D01*
X0164164Y0031726D02*
X0164164Y0029126D01*
X0163612Y0029126D01*
X0163612Y0031726D01*
X0164164Y0031726D01*
X0164164Y0029676D02*
X0163612Y0029676D01*
X0163612Y0030226D02*
X0164164Y0030226D01*
X0164164Y0030776D02*
X0163612Y0030776D01*
X0163612Y0031326D02*
X0164164Y0031326D01*
X0166132Y0031726D02*
X0166132Y0029126D01*
X0165580Y0029126D01*
X0165580Y0031726D01*
X0166132Y0031726D01*
X0166132Y0029676D02*
X0165580Y0029676D01*
X0165580Y0030226D02*
X0166132Y0030226D01*
X0166132Y0030776D02*
X0165580Y0030776D01*
X0165580Y0031326D02*
X0166132Y0031326D01*
X0168101Y0031726D02*
X0168101Y0029126D01*
X0167549Y0029126D01*
X0167549Y0031726D01*
X0168101Y0031726D01*
X0168101Y0029676D02*
X0167549Y0029676D01*
X0167549Y0030226D02*
X0168101Y0030226D01*
X0168101Y0030776D02*
X0167549Y0030776D01*
X0167549Y0031326D02*
X0168101Y0031326D01*
X0170069Y0031726D02*
X0170069Y0029126D01*
X0169517Y0029126D01*
X0169517Y0031726D01*
X0170069Y0031726D01*
X0170069Y0029676D02*
X0169517Y0029676D01*
X0169517Y0030226D02*
X0170069Y0030226D01*
X0170069Y0030776D02*
X0169517Y0030776D01*
X0169517Y0031326D02*
X0170069Y0031326D01*
X0171446Y0033103D02*
X0174046Y0033103D01*
X0171446Y0033103D02*
X0171446Y0033655D01*
X0174046Y0033655D01*
X0174046Y0033103D01*
X0174046Y0033653D02*
X0171446Y0033653D01*
X0171446Y0035071D02*
X0174046Y0035071D01*
X0171446Y0035071D02*
X0171446Y0035623D01*
X0174046Y0035623D01*
X0174046Y0035071D01*
X0174046Y0035621D02*
X0171446Y0035621D01*
X0171446Y0037040D02*
X0174046Y0037040D01*
X0171446Y0037040D02*
X0171446Y0037592D01*
X0174046Y0037592D01*
X0174046Y0037040D01*
X0174046Y0037590D02*
X0171446Y0037590D01*
X0171446Y0039008D02*
X0174046Y0039008D01*
X0171446Y0039008D02*
X0171446Y0039560D01*
X0174046Y0039560D01*
X0174046Y0039008D01*
X0174046Y0039558D02*
X0171446Y0039558D01*
X0171446Y0040977D02*
X0174046Y0040977D01*
X0171446Y0040977D02*
X0171446Y0041529D01*
X0174046Y0041529D01*
X0174046Y0040977D01*
X0174046Y0041527D02*
X0171446Y0041527D01*
X0171446Y0042945D02*
X0174046Y0042945D01*
X0171446Y0042945D02*
X0171446Y0043497D01*
X0174046Y0043497D01*
X0174046Y0042945D01*
X0174046Y0043495D02*
X0171446Y0043495D01*
D14*
X0164872Y0038300D03*
X0146045Y0020820D03*
X0117699Y0020820D03*
D15*
X0185132Y0035237D03*
X0192612Y0035237D03*
X0188872Y0026969D03*
D16*
X0193943Y0021450D03*
X0193943Y0015150D03*
X0177801Y0015150D03*
X0177801Y0021450D03*
D17*
X0167837Y0070985D03*
X0167837Y0075985D03*
X0167837Y0080985D03*
X0167837Y0085985D03*
X0167837Y0090985D03*
X0167837Y0095985D03*
X0167837Y0100985D03*
X0167837Y0105985D03*
X0167837Y0110985D03*
X0167837Y0115985D03*
X0167837Y0120985D03*
X0167837Y0125985D03*
X0167837Y0130985D03*
X0167837Y0135985D03*
X0100908Y0135985D03*
X0100908Y0130985D03*
X0100908Y0125985D03*
X0100908Y0120985D03*
X0100908Y0115985D03*
X0100908Y0110985D03*
X0100908Y0105985D03*
X0100908Y0100985D03*
X0100908Y0095985D03*
X0100908Y0090985D03*
X0100908Y0085985D03*
X0100908Y0080985D03*
X0100908Y0075985D03*
X0100908Y0070985D03*
D18*
X0111931Y0065513D03*
X0116931Y0065513D03*
X0121931Y0065513D03*
X0126931Y0065513D03*
X0131931Y0065513D03*
X0136931Y0065513D03*
X0141931Y0065513D03*
X0146931Y0065513D03*
X0151931Y0065513D03*
X0156931Y0065513D03*
D19*
X0135711Y0105670D03*
D20*
X0202935Y0069056D03*
X0212935Y0069056D03*
X0212935Y0059056D03*
X0202935Y0059056D03*
X0202935Y0049056D03*
X0212935Y0049056D03*
X0212935Y0039056D03*
X0202935Y0039056D03*
X0202935Y0029056D03*
X0212935Y0029056D03*
X0212935Y0019056D03*
X0202935Y0019056D03*
X0203329Y0178544D03*
X0213329Y0178544D03*
X0213329Y0188544D03*
X0203329Y0188544D03*
X0193329Y0188544D03*
X0193329Y0178544D03*
X0183329Y0178544D03*
X0173329Y0178544D03*
X0163329Y0178544D03*
X0153329Y0178544D03*
X0143329Y0178544D03*
X0143329Y0188544D03*
X0153329Y0188544D03*
X0163329Y0188544D03*
X0173329Y0188544D03*
X0183329Y0188544D03*
X0133329Y0188544D03*
X0123329Y0188544D03*
X0113329Y0188544D03*
X0103329Y0188544D03*
X0103329Y0178544D03*
X0113329Y0178544D03*
X0123329Y0178544D03*
X0133329Y0178544D03*
D21*
X0186754Y0108040D03*
X0186754Y0100560D03*
X0196991Y0100560D03*
X0196991Y0104300D03*
X0196991Y0108040D03*
D22*
X0086872Y0045300D03*
D23*
X0079982Y0044020D02*
X0077226Y0044020D01*
X0077226Y0041461D02*
X0079982Y0041461D01*
X0079982Y0046580D02*
X0077226Y0046580D01*
X0077226Y0049139D02*
X0079982Y0049139D01*
X0083034Y0052190D02*
X0083034Y0054946D01*
X0085593Y0054946D02*
X0085593Y0052190D01*
X0088152Y0052190D02*
X0088152Y0054946D01*
X0090711Y0054946D02*
X0090711Y0052190D01*
X0093762Y0049139D02*
X0096518Y0049139D01*
X0096518Y0046580D02*
X0093762Y0046580D01*
X0093762Y0044020D02*
X0096518Y0044020D01*
X0096518Y0041461D02*
X0093762Y0041461D01*
X0090711Y0038410D02*
X0090711Y0035654D01*
X0088152Y0035654D02*
X0088152Y0038410D01*
X0085593Y0038410D02*
X0085593Y0035654D01*
X0083034Y0035654D02*
X0083034Y0038410D01*
D24*
X0083329Y0041757D03*
X0086872Y0045300D03*
X0090415Y0048843D03*
X0083329Y0048843D03*
X0090415Y0041757D03*
D25*
X0063872Y0033599D03*
X0063872Y0021001D03*
D26*
X0192305Y0147363D03*
X0192305Y0155237D03*
D27*
X0212778Y0164686D03*
X0212778Y0137914D03*
D28*
X0069876Y0057300D03*
X0057868Y0057300D03*
D29*
X0157793Y0019056D03*
X0167793Y0019056D03*
X0210872Y0115300D03*
X0210872Y0125300D03*
D30*
X0076439Y0127324D03*
X0076439Y0119450D03*
X0068565Y0119450D03*
X0068565Y0127324D03*
X0068565Y0135198D03*
X0068565Y0143072D03*
X0068565Y0150946D03*
X0068565Y0158820D03*
X0068565Y0166694D03*
X0068565Y0174568D03*
X0068565Y0182442D03*
X0076439Y0182442D03*
X0076439Y0174568D03*
X0076439Y0166694D03*
X0076439Y0158820D03*
X0076439Y0150946D03*
X0076439Y0143072D03*
X0076439Y0135198D03*
X0076439Y0111576D03*
X0068565Y0111576D03*
X0068565Y0103702D03*
X0068565Y0095828D03*
X0076439Y0095828D03*
X0076439Y0103702D03*
X0076439Y0087954D03*
X0068565Y0087954D03*
X0068565Y0080080D03*
X0076439Y0080080D03*
X0076439Y0072206D03*
X0068565Y0072206D03*
D31*
X0211872Y0093788D03*
X0211872Y0104812D03*
D32*
X0148998Y0031843D02*
X0144864Y0031843D01*
X0118880Y0031843D02*
X0114746Y0031843D01*
D33*
X0126754Y0031351D03*
X0129313Y0031351D03*
X0131872Y0031351D03*
X0134431Y0031351D03*
X0136990Y0031351D03*
D34*
X0134825Y0020426D03*
X0128919Y0020426D03*
D35*
X0129313Y0031351D02*
X0129313Y0037913D01*
X0133286Y0041886D01*
X0146836Y0041886D01*
X0151250Y0046300D01*
X0152734Y0041300D02*
X0149356Y0037921D01*
X0133435Y0037921D01*
X0132144Y0036630D01*
X0132144Y0033623D01*
X0131872Y0031351D01*
X0126754Y0031351D02*
X0126872Y0033469D01*
X0126872Y0038300D01*
X0133872Y0045300D01*
X0144872Y0045300D01*
X0144864Y0031843D02*
X0137482Y0031843D01*
X0136990Y0031351D01*
X0144864Y0031843D02*
X0146045Y0030662D01*
X0146045Y0020820D01*
X0152848Y0014111D02*
X0157793Y0019056D01*
X0152848Y0014111D02*
X0108927Y0014111D01*
X0108872Y0015166D01*
X0108872Y0023434D02*
X0108872Y0034698D01*
X0109687Y0035513D01*
X0109687Y0040461D01*
X0112526Y0043300D01*
X0118880Y0042961D02*
X0119219Y0043300D01*
X0119872Y0043954D01*
X0119872Y0050166D01*
X0113392Y0051954D02*
X0119872Y0058434D01*
X0115203Y0062529D02*
X0111872Y0059198D01*
X0111872Y0058646D01*
X0115203Y0062529D02*
X0115203Y0063784D01*
X0116931Y0065513D01*
X0116872Y0071300D02*
X0150044Y0071300D01*
X0151633Y0069711D01*
X0161461Y0069711D01*
X0173872Y0057300D01*
X0173872Y0052790D01*
X0169793Y0048711D01*
X0169793Y0046174D01*
X0172746Y0043221D01*
X0169876Y0046091D01*
X0167825Y0046174D02*
X0167825Y0049347D01*
X0166872Y0050300D01*
X0170683Y0054298D02*
X0127414Y0054298D01*
X0125872Y0055839D01*
X0113392Y0051954D02*
X0111872Y0051954D01*
X0118880Y0042961D02*
X0118880Y0031843D01*
X0118880Y0026490D01*
X0117699Y0025308D01*
X0117699Y0020820D01*
X0105872Y0029485D02*
X0104687Y0028300D01*
X0104687Y0027513D01*
X0103808Y0026635D01*
X0103073Y0026635D01*
X0099872Y0023434D01*
X0095872Y0023282D02*
X0075215Y0023282D01*
X0075215Y0022284D02*
X0095872Y0022284D01*
X0095872Y0021285D02*
X0064372Y0021285D01*
X0064372Y0021501D02*
X0075215Y0021501D01*
X0075215Y0025135D01*
X0075112Y0025517D01*
X0074915Y0025859D01*
X0074636Y0026138D01*
X0074294Y0026336D01*
X0073912Y0026438D01*
X0064372Y0026438D01*
X0064372Y0021501D01*
X0063372Y0021501D01*
X0063372Y0026438D01*
X0053832Y0026438D01*
X0053451Y0026336D01*
X0053109Y0026138D01*
X0052829Y0025859D01*
X0052632Y0025517D01*
X0052530Y0025135D01*
X0052530Y0021501D01*
X0063372Y0021501D01*
X0063372Y0020501D01*
X0052530Y0020501D01*
X0052530Y0016866D01*
X0052632Y0016485D01*
X0052829Y0016143D01*
X0053109Y0015863D01*
X0053451Y0015666D01*
X0053832Y0015564D01*
X0063372Y0015564D01*
X0063372Y0020501D01*
X0064372Y0020501D01*
X0064372Y0021501D01*
X0064372Y0022284D02*
X0063372Y0022284D01*
X0063372Y0023282D02*
X0064372Y0023282D01*
X0064372Y0024281D02*
X0063372Y0024281D01*
X0063372Y0025279D02*
X0064372Y0025279D01*
X0064372Y0026278D02*
X0063372Y0026278D01*
X0063372Y0021285D02*
X0051872Y0021285D01*
X0051872Y0020287D02*
X0052530Y0020287D01*
X0052530Y0019288D02*
X0051872Y0019288D01*
X0051872Y0018290D02*
X0052530Y0018290D01*
X0052530Y0017291D02*
X0051872Y0017291D01*
X0051872Y0016688D02*
X0051872Y0027300D01*
X0089872Y0027300D01*
X0089872Y0033613D01*
X0090423Y0033465D01*
X0090711Y0033465D01*
X0090999Y0033465D01*
X0091556Y0033615D01*
X0091625Y0033655D01*
X0091357Y0033386D01*
X0091159Y0033044D01*
X0091057Y0032663D01*
X0091057Y0030784D01*
X0094041Y0030784D01*
X0094041Y0029816D01*
X0091057Y0029816D01*
X0091057Y0027937D01*
X0091159Y0027556D01*
X0091357Y0027214D01*
X0091636Y0026934D01*
X0091978Y0026737D01*
X0092360Y0026635D01*
X0094041Y0026635D01*
X0094041Y0029816D01*
X0095010Y0029816D01*
X0095010Y0026635D01*
X0095872Y0026635D01*
X0095872Y0016300D01*
X0091533Y0016300D01*
X0091339Y0016495D01*
X0090387Y0016889D01*
X0089357Y0016889D01*
X0088406Y0016495D01*
X0087677Y0015767D01*
X0087484Y0015300D01*
X0053260Y0015300D01*
X0053067Y0015767D01*
X0052339Y0016495D01*
X0051872Y0016688D01*
X0052541Y0016293D02*
X0052743Y0016293D01*
X0052530Y0022284D02*
X0051872Y0022284D01*
X0051872Y0023282D02*
X0052530Y0023282D01*
X0052530Y0024281D02*
X0051872Y0024281D01*
X0051872Y0025279D02*
X0052568Y0025279D01*
X0051872Y0026278D02*
X0053350Y0026278D01*
X0051872Y0027276D02*
X0091321Y0027276D01*
X0091057Y0028275D02*
X0089872Y0028275D01*
X0089872Y0029273D02*
X0091057Y0029273D01*
X0089872Y0030272D02*
X0094041Y0030272D01*
X0094041Y0030784D02*
X0094041Y0033965D01*
X0092360Y0033965D01*
X0091993Y0033867D01*
X0092055Y0033903D01*
X0092462Y0034310D01*
X0092750Y0034809D01*
X0092900Y0035366D01*
X0092900Y0037032D01*
X0090711Y0037032D01*
X0090711Y0037032D01*
X0090711Y0033465D01*
X0090711Y0037032D01*
X0090711Y0037032D01*
X0092900Y0037032D01*
X0092900Y0038300D01*
X0095473Y0038300D01*
X0095872Y0037901D01*
X0095872Y0033965D01*
X0095010Y0033965D01*
X0095010Y0030784D01*
X0094041Y0030784D01*
X0094041Y0031270D02*
X0095010Y0031270D01*
X0095010Y0032269D02*
X0094041Y0032269D01*
X0094041Y0033267D02*
X0095010Y0033267D01*
X0095872Y0034266D02*
X0092418Y0034266D01*
X0092872Y0035264D02*
X0095872Y0035264D01*
X0095872Y0036263D02*
X0092900Y0036263D01*
X0092900Y0037261D02*
X0095872Y0037261D01*
X0095513Y0038260D02*
X0092900Y0038260D01*
X0090711Y0036263D02*
X0090711Y0036263D01*
X0090711Y0035264D02*
X0090711Y0035264D01*
X0090711Y0034266D02*
X0090711Y0034266D01*
X0091288Y0033267D02*
X0089872Y0033267D01*
X0089872Y0032269D02*
X0091057Y0032269D01*
X0091057Y0031270D02*
X0089872Y0031270D01*
X0094041Y0029273D02*
X0095010Y0029273D01*
X0095010Y0028275D02*
X0094041Y0028275D01*
X0094041Y0027276D02*
X0095010Y0027276D01*
X0095872Y0026278D02*
X0074394Y0026278D01*
X0075176Y0025279D02*
X0095872Y0025279D01*
X0095872Y0024281D02*
X0075215Y0024281D01*
X0075215Y0020501D02*
X0064372Y0020501D01*
X0064372Y0015564D01*
X0073912Y0015564D01*
X0074294Y0015666D01*
X0074636Y0015863D01*
X0074915Y0016143D01*
X0075112Y0016485D01*
X0075215Y0016866D01*
X0075215Y0020501D01*
X0075215Y0020287D02*
X0095872Y0020287D01*
X0095872Y0019288D02*
X0075215Y0019288D01*
X0075215Y0018290D02*
X0095872Y0018290D01*
X0095872Y0017291D02*
X0075215Y0017291D01*
X0075001Y0016293D02*
X0088203Y0016293D01*
X0089872Y0014300D02*
X0099006Y0014300D01*
X0099872Y0015166D01*
X0101219Y0030300D02*
X0101219Y0035383D01*
X0100587Y0036015D01*
X0095140Y0041461D01*
X0095140Y0044020D02*
X0088152Y0044020D01*
X0086872Y0045300D01*
X0085593Y0044020D01*
X0085593Y0037032D01*
X0083034Y0037032D02*
X0083034Y0041461D01*
X0083329Y0041757D02*
X0086872Y0045300D01*
X0090415Y0041757D01*
X0083329Y0041757D01*
X0088152Y0044020D02*
X0088152Y0037032D01*
X0095140Y0044020D02*
X0100498Y0044020D01*
X0106219Y0038300D01*
X0099872Y0047209D02*
X0097684Y0047209D01*
X0097424Y0046950D01*
X0095510Y0046950D01*
X0095140Y0046580D01*
X0095140Y0049139D02*
X0096160Y0049139D01*
X0098609Y0051587D01*
X0090711Y0053568D02*
X0090711Y0049139D01*
X0090415Y0048843D01*
X0088152Y0053568D02*
X0088152Y0057233D01*
X0093219Y0062300D01*
X0093219Y0064646D01*
X0095872Y0067300D01*
X0091557Y0070985D02*
X0089872Y0069300D01*
X0091557Y0070985D02*
X0100908Y0070985D01*
X0100908Y0075985D02*
X0096282Y0075985D01*
X0076439Y0095828D01*
X0106215Y0104957D02*
X0127872Y0083300D01*
X0145117Y0083300D01*
X0145833Y0082584D01*
X0143872Y0077300D02*
X0140191Y0080981D01*
X0131347Y0080981D01*
X0130666Y0080300D01*
X0116872Y0080300D01*
X0112872Y0075300D02*
X0116872Y0071300D01*
X0086526Y0062300D02*
X0085593Y0061367D01*
X0064372Y0020287D02*
X0063372Y0020287D01*
X0063372Y0019288D02*
X0064372Y0019288D01*
X0064372Y0018290D02*
X0063372Y0018290D01*
X0063372Y0017291D02*
X0064372Y0017291D01*
X0064372Y0016293D02*
X0063372Y0016293D01*
X0149022Y0075150D02*
X0151872Y0072300D01*
X0156872Y0072300D01*
X0158872Y0076300D02*
X0151872Y0083300D01*
X0151872Y0087300D01*
X0154683Y0090111D01*
X0160193Y0090111D01*
X0161067Y0090985D01*
X0167837Y0090985D01*
X0167837Y0085985D02*
X0166152Y0084300D01*
X0158872Y0084300D01*
X0158872Y0093300D02*
X0161557Y0095985D01*
X0167837Y0095985D01*
X0177872Y0096300D02*
X0179872Y0094300D01*
X0177872Y0096300D02*
X0177872Y0099954D01*
X0186754Y0100560D02*
X0188526Y0098788D01*
X0188526Y0092300D01*
X0183872Y0082646D02*
X0193219Y0073300D01*
X0193219Y0074300D01*
X0193219Y0073300D02*
X0193219Y0059300D01*
X0198663Y0053856D01*
X0204923Y0053856D01*
X0207735Y0051044D01*
X0207735Y0046535D01*
X0210415Y0043856D01*
X0214923Y0043856D01*
X0217735Y0041044D01*
X0217735Y0037068D01*
X0214923Y0034256D01*
X0210415Y0034256D01*
X0207735Y0031576D01*
X0207735Y0027068D01*
X0204923Y0024256D01*
X0197749Y0024256D01*
X0193943Y0021450D01*
X0193093Y0021300D02*
X0185872Y0021300D01*
X0178652Y0021300D01*
X0181433Y0027351D02*
X0168923Y0027351D01*
X0168872Y0027300D01*
X0167825Y0028347D01*
X0167825Y0030426D01*
X0168872Y0027351D02*
X0168872Y0027300D01*
X0167872Y0024300D02*
X0163888Y0028284D01*
X0163888Y0030426D01*
X0161919Y0030426D02*
X0161919Y0025253D01*
X0162872Y0024300D01*
X0159951Y0030426D02*
X0158998Y0030426D01*
X0156872Y0028300D01*
X0164872Y0038300D02*
X0167825Y0035347D01*
X0172746Y0035347D01*
X0175825Y0035347D01*
X0177872Y0033300D01*
X0179872Y0033300D01*
X0180872Y0034300D01*
X0180872Y0036300D01*
X0182057Y0037485D01*
X0182057Y0037630D01*
X0185381Y0040954D01*
X0185872Y0040954D01*
X0188534Y0037308D02*
X0191699Y0040473D01*
X0194888Y0039471D02*
X0195946Y0040529D01*
X0194888Y0039471D02*
X0194888Y0039152D01*
X0192612Y0036876D01*
X0192612Y0035237D01*
X0194809Y0035237D01*
X0197099Y0034256D02*
X0194808Y0031965D01*
X0193868Y0031965D01*
X0188872Y0026969D01*
X0186061Y0031979D02*
X0181433Y0027351D01*
X0186061Y0031979D02*
X0186061Y0034166D01*
X0185132Y0035237D01*
X0187132Y0035237D01*
X0188534Y0036639D01*
X0188534Y0037308D01*
X0188872Y0036977D02*
X0188534Y0036639D01*
X0197099Y0034256D02*
X0204923Y0034256D01*
X0207735Y0037068D01*
X0207735Y0041044D01*
X0204923Y0043856D01*
X0204640Y0043856D01*
X0204534Y0043962D01*
X0204640Y0043856D01*
X0204534Y0043962D02*
X0204240Y0044256D01*
X0200947Y0044256D01*
X0193891Y0051312D01*
X0186860Y0051312D01*
X0167837Y0070335D01*
X0167837Y0070985D01*
X0167837Y0080985D02*
X0172669Y0080985D01*
X0175832Y0084149D01*
X0180872Y0077300D02*
X0184872Y0073300D01*
X0184872Y0066300D02*
X0179872Y0066300D01*
X0184872Y0066300D02*
X0186872Y0064300D01*
X0186872Y0060993D01*
X0186526Y0060646D01*
X0186526Y0059300D01*
X0180728Y0052790D02*
X0185872Y0047646D01*
X0184526Y0047646D01*
X0180728Y0052790D02*
X0173872Y0052790D01*
X0174872Y0046461D02*
X0174872Y0046300D01*
X0176872Y0044300D01*
X0176872Y0040300D01*
X0175856Y0039284D01*
X0172746Y0039284D01*
X0172746Y0037316D02*
X0177077Y0037316D01*
X0180061Y0040300D01*
X0172746Y0041253D02*
X0172746Y0043221D01*
X0149022Y0075150D02*
X0149022Y0112450D01*
X0157557Y0120985D01*
X0167837Y0120985D01*
X0167837Y0115985D02*
X0163557Y0115985D01*
X0159872Y0112300D01*
X0150872Y0121300D02*
X0125382Y0121300D01*
X0123193Y0119111D01*
X0120551Y0119111D01*
X0118362Y0121300D01*
X0106872Y0121300D01*
X0105557Y0125985D02*
X0100908Y0125985D01*
X0105557Y0125985D02*
X0107872Y0128300D01*
X0100908Y0135985D02*
X0095187Y0135985D01*
X0092872Y0138300D01*
X0076439Y0150946D02*
X0082872Y0157379D01*
X0082872Y0162300D01*
X0087872Y0167300D01*
X0102872Y0167300D01*
X0113329Y0177757D01*
X0113329Y0178544D01*
X0107872Y0183300D02*
X0077297Y0183300D01*
X0076439Y0182442D01*
X0070116Y0188544D02*
X0068872Y0187300D01*
X0068872Y0182749D01*
X0068565Y0182442D01*
X0070116Y0188544D02*
X0103329Y0188544D01*
X0107872Y0183300D02*
X0113116Y0188544D01*
X0117573Y0194300D02*
X0067872Y0194300D01*
X0062872Y0187300D01*
X0062872Y0171300D01*
X0067478Y0166694D01*
X0068565Y0166694D01*
X0109872Y0157300D02*
X0122872Y0157300D01*
X0148872Y0131300D01*
X0167522Y0131300D01*
X0167837Y0130985D01*
X0167522Y0126300D02*
X0167837Y0125985D01*
X0167522Y0126300D02*
X0147872Y0126300D01*
X0141872Y0132300D01*
X0122872Y0151300D01*
X0109872Y0151300D01*
X0139872Y0148300D02*
X0142872Y0148300D01*
X0147872Y0153300D01*
X0147872Y0164001D01*
X0133329Y0178544D01*
X0123329Y0188544D02*
X0117573Y0194300D01*
X0177872Y0136646D02*
X0183219Y0131300D01*
X0188526Y0131300D01*
X0189872Y0123434D02*
X0194006Y0123434D01*
X0195872Y0125300D01*
X0167837Y0135985D02*
X0161557Y0135985D01*
X0160872Y0135300D01*
X0106215Y0111300D02*
X0106215Y0104957D01*
D36*
X0057872Y0076300D03*
X0050872Y0088300D03*
X0085872Y0024300D03*
X0090872Y0024300D03*
X0124872Y0047300D03*
X0127839Y0044333D03*
X0202872Y0091300D03*
X0181872Y0159300D03*
X0178872Y0162300D03*
X0050872Y0173300D03*
D37*
X0050872Y0014300D03*
X0053872Y0048300D03*
X0077872Y0059300D03*
X0089872Y0069300D03*
X0095872Y0067300D03*
X0106872Y0067300D03*
X0112872Y0075300D03*
X0116872Y0080300D03*
X0125561Y0075206D03*
X0133053Y0077398D03*
X0143872Y0077300D03*
X0145833Y0082584D03*
X0156872Y0072300D03*
X0158872Y0076300D03*
X0158872Y0084300D03*
X0158872Y0093300D03*
X0143872Y0098300D03*
X0135872Y0106300D03*
X0143872Y0114300D03*
X0150872Y0121300D03*
X0148872Y0131300D03*
X0141872Y0132300D03*
X0139872Y0148300D03*
X0138872Y0155300D03*
X0160872Y0135300D03*
X0159872Y0112300D03*
X0179872Y0094300D03*
X0179776Y0086396D03*
X0175832Y0084149D03*
X0180872Y0077300D03*
X0183872Y0084300D03*
X0179872Y0066300D03*
X0173872Y0057300D03*
X0170683Y0054298D03*
X0166872Y0050300D03*
X0174872Y0046461D03*
X0180061Y0040300D03*
X0177872Y0033300D03*
X0167872Y0024300D03*
X0162872Y0024300D03*
X0156872Y0028300D03*
X0152734Y0041300D03*
X0151250Y0046300D03*
X0144872Y0045300D03*
X0125872Y0055839D03*
X0099872Y0047209D03*
X0098609Y0051587D03*
X0105872Y0029485D03*
X0089872Y0014300D03*
X0130872Y0026300D03*
X0173872Y0014300D03*
X0185872Y0021300D03*
X0191699Y0040473D03*
X0195946Y0040529D03*
X0203872Y0101300D03*
X0195872Y0125300D03*
X0127872Y0114300D03*
X0121872Y0122300D03*
X0118872Y0126300D03*
X0114872Y0134300D03*
X0107872Y0128300D03*
X0106872Y0121300D03*
X0106215Y0111300D03*
X0117872Y0101300D03*
X0127872Y0098300D03*
X0127872Y0089300D03*
X0088872Y0090300D03*
X0087872Y0099300D03*
X0092872Y0138300D03*
X0109872Y0151300D03*
X0109872Y0157300D03*
X0110872Y0163300D03*
D38*
X0178872Y0162300D02*
X0181872Y0159300D01*
X0185935Y0155237D01*
X0192305Y0155237D01*
X0192305Y0147363D02*
X0202585Y0137083D01*
X0202585Y0133315D01*
X0204635Y0131265D01*
X0204908Y0131265D01*
X0210872Y0125300D01*
D39*
X0211872Y0093788D02*
X0205360Y0093788D01*
X0202872Y0091300D01*
X0201872Y0092300D01*
X0195219Y0092300D01*
X0135872Y0106300D02*
X0135711Y0106139D01*
X0135711Y0105670D01*
X0106344Y0131989D02*
X0105340Y0130985D01*
X0100908Y0130985D01*
X0091557Y0130985D01*
X0087872Y0127300D01*
X0087872Y0099300D01*
X0068565Y0087954D02*
X0068219Y0088300D01*
X0050872Y0088300D01*
X0050872Y0126300D01*
X0050872Y0157300D01*
X0050872Y0173300D01*
X0052872Y0159300D02*
X0068085Y0159300D01*
X0068565Y0158820D01*
X0052872Y0159300D02*
X0050872Y0157300D01*
X0051872Y0127300D02*
X0068541Y0127300D01*
X0068565Y0127324D01*
X0051872Y0127300D02*
X0050872Y0126300D01*
X0098557Y0130985D02*
X0100908Y0130985D01*
X0106344Y0131989D02*
X0112561Y0131989D01*
X0114872Y0134300D01*
X0178872Y0162300D02*
X0178872Y0174087D01*
X0183329Y0178544D01*
X0106872Y0067300D02*
X0108660Y0065513D01*
X0111931Y0065513D01*
X0090415Y0048843D02*
X0086872Y0045300D01*
X0083329Y0041757D02*
X0083329Y0048843D01*
X0083329Y0041757D02*
X0083034Y0041461D01*
X0128919Y0024347D02*
X0128919Y0020426D01*
X0128919Y0019253D01*
X0128919Y0024347D02*
X0130872Y0026300D01*
X0134825Y0022347D01*
X0134825Y0020426D01*
X0134825Y0019253D01*
X0173872Y0014300D02*
X0174723Y0015150D01*
X0177801Y0015150D01*
X0193943Y0015150D01*
D40*
X0193093Y0021300D02*
X0193943Y0021450D01*
X0178652Y0021300D02*
X0177801Y0021450D01*
X0184872Y0073300D02*
X0186526Y0073300D01*
X0177872Y0106646D02*
X0178502Y0107670D01*
X0196872Y0108300D02*
X0196872Y0116982D01*
X0198190Y0118300D01*
X0207791Y0118300D01*
X0207592Y0118101D01*
X0207194Y0117554D01*
X0206887Y0116951D01*
X0206678Y0116307D01*
X0206572Y0115638D01*
X0206572Y0115600D01*
X0210572Y0115600D01*
X0210572Y0115000D01*
X0206572Y0115000D01*
X0206572Y0114962D01*
X0206678Y0114293D01*
X0206887Y0113649D01*
X0207194Y0113046D01*
X0207592Y0112499D01*
X0208071Y0112020D01*
X0208618Y0111622D01*
X0209221Y0111315D01*
X0209865Y0111106D01*
X0210534Y0111000D01*
X0210572Y0111000D01*
X0210572Y0115000D01*
X0211172Y0115000D01*
X0211172Y0111000D01*
X0211211Y0111000D01*
X0211879Y0111106D01*
X0212523Y0111315D01*
X0213126Y0111622D01*
X0213673Y0112020D01*
X0214152Y0112499D01*
X0214550Y0113046D01*
X0214857Y0113649D01*
X0215066Y0114293D01*
X0215172Y0114962D01*
X0215172Y0115000D01*
X0211172Y0115000D01*
X0211172Y0115600D01*
X0215172Y0115600D01*
X0215172Y0115638D01*
X0215066Y0116307D01*
X0214857Y0116951D01*
X0214550Y0117554D01*
X0214152Y0118101D01*
X0213953Y0118300D01*
X0217872Y0118300D01*
X0217872Y0106300D01*
X0216715Y0106300D01*
X0216715Y0108133D01*
X0216627Y0108463D01*
X0216456Y0108760D01*
X0216214Y0109002D01*
X0215917Y0109173D01*
X0215587Y0109261D01*
X0212172Y0109261D01*
X0212172Y0106300D01*
X0211572Y0106300D01*
X0211572Y0109261D01*
X0208158Y0109261D01*
X0207827Y0109173D01*
X0207531Y0109002D01*
X0207289Y0108760D01*
X0207117Y0108463D01*
X0207029Y0108133D01*
X0207029Y0106300D01*
X0203539Y0106300D01*
X0202741Y0107098D01*
X0201529Y0107600D01*
X0200954Y0107600D01*
X0200882Y0107672D01*
X0200653Y0107767D01*
X0200653Y0107799D01*
X0200575Y0107799D01*
X0199890Y0108083D01*
X0197232Y0108083D01*
X0197232Y0108281D01*
X0200653Y0108281D01*
X0200653Y0109294D01*
X0200564Y0109625D01*
X0200393Y0109921D01*
X0200151Y0110163D01*
X0199855Y0110334D01*
X0199524Y0110423D01*
X0197232Y0110423D01*
X0197232Y0108282D01*
X0196891Y0108282D01*
X0196872Y0108300D01*
X0197232Y0108259D02*
X0207063Y0108259D01*
X0207029Y0107660D02*
X0200894Y0107660D01*
X0200653Y0108857D02*
X0207386Y0108857D01*
X0207029Y0107062D02*
X0202777Y0107062D01*
X0203376Y0106463D02*
X0207029Y0106463D01*
X0211572Y0106463D02*
X0212172Y0106463D01*
X0212172Y0107062D02*
X0211572Y0107062D01*
X0211572Y0107660D02*
X0212172Y0107660D01*
X0212172Y0108259D02*
X0211572Y0108259D01*
X0211572Y0108857D02*
X0212172Y0108857D01*
X0212327Y0111251D02*
X0217872Y0111251D01*
X0217872Y0110653D02*
X0196872Y0110653D01*
X0196872Y0111251D02*
X0209417Y0111251D01*
X0210572Y0111251D02*
X0211172Y0111251D01*
X0211172Y0111850D02*
X0210572Y0111850D01*
X0210572Y0112448D02*
X0211172Y0112448D01*
X0211172Y0113047D02*
X0210572Y0113047D01*
X0210572Y0113645D02*
X0211172Y0113645D01*
X0211172Y0114244D02*
X0210572Y0114244D01*
X0210572Y0114842D02*
X0211172Y0114842D01*
X0211172Y0115441D02*
X0217872Y0115441D01*
X0217872Y0116039D02*
X0215109Y0116039D01*
X0214959Y0116638D02*
X0217872Y0116638D01*
X0217872Y0117237D02*
X0214711Y0117237D01*
X0214345Y0117835D02*
X0217872Y0117835D01*
X0217872Y0114842D02*
X0215153Y0114842D01*
X0215050Y0114244D02*
X0217872Y0114244D01*
X0217872Y0113645D02*
X0214855Y0113645D01*
X0214550Y0113047D02*
X0217872Y0113047D01*
X0217872Y0112448D02*
X0214102Y0112448D01*
X0213439Y0111850D02*
X0217872Y0111850D01*
X0217872Y0110054D02*
X0200260Y0110054D01*
X0200609Y0109456D02*
X0217872Y0109456D01*
X0217872Y0108857D02*
X0216358Y0108857D01*
X0216682Y0108259D02*
X0217872Y0108259D01*
X0217872Y0107660D02*
X0216715Y0107660D01*
X0216715Y0107062D02*
X0217872Y0107062D01*
X0217872Y0106463D02*
X0216715Y0106463D01*
X0208305Y0111850D02*
X0196872Y0111850D01*
X0196872Y0112448D02*
X0207643Y0112448D01*
X0207194Y0113047D02*
X0196872Y0113047D01*
X0196872Y0113645D02*
X0206889Y0113645D01*
X0206694Y0114244D02*
X0196872Y0114244D01*
X0196872Y0114842D02*
X0206591Y0114842D01*
X0206636Y0116039D02*
X0196872Y0116039D01*
X0196872Y0115441D02*
X0210572Y0115441D01*
X0207399Y0117835D02*
X0197725Y0117835D01*
X0197127Y0117237D02*
X0207033Y0117237D01*
X0206786Y0116638D02*
X0196872Y0116638D01*
X0196872Y0110054D02*
X0197232Y0110054D01*
X0197232Y0109456D02*
X0196872Y0109456D01*
X0196872Y0108857D02*
X0197232Y0108857D01*
X0188872Y0173300D02*
X0157872Y0173300D01*
X0157872Y0176582D01*
X0157929Y0176639D01*
X0157929Y0180449D01*
X0157872Y0180506D01*
X0157872Y0186582D01*
X0157929Y0186639D01*
X0157929Y0190449D01*
X0157872Y0190506D01*
X0157872Y0193300D01*
X0188872Y0193300D01*
X0188872Y0190593D01*
X0188729Y0190449D01*
X0188729Y0186639D01*
X0188872Y0186495D01*
X0188872Y0180593D01*
X0188729Y0180449D01*
X0188729Y0176639D01*
X0188872Y0176495D01*
X0188872Y0173300D01*
X0188872Y0173497D02*
X0157872Y0173497D01*
X0157872Y0174095D02*
X0161272Y0174095D01*
X0161423Y0173944D02*
X0163029Y0173944D01*
X0163029Y0178244D01*
X0163629Y0178244D01*
X0163629Y0178844D01*
X0167929Y0178844D01*
X0167929Y0180449D01*
X0165234Y0183144D01*
X0163629Y0183144D01*
X0163629Y0178844D01*
X0163029Y0178844D01*
X0163029Y0183144D01*
X0161423Y0183144D01*
X0158729Y0180449D01*
X0158729Y0178844D01*
X0163029Y0178844D01*
X0163029Y0178244D01*
X0158729Y0178244D01*
X0158729Y0176639D01*
X0161423Y0173944D01*
X0160674Y0174694D02*
X0157872Y0174694D01*
X0157872Y0175292D02*
X0160075Y0175292D01*
X0159477Y0175891D02*
X0157872Y0175891D01*
X0157872Y0176489D02*
X0158878Y0176489D01*
X0158729Y0177088D02*
X0157929Y0177088D01*
X0157929Y0177686D02*
X0158729Y0177686D01*
X0157929Y0178285D02*
X0163029Y0178285D01*
X0163029Y0178883D02*
X0163629Y0178883D01*
X0163629Y0178285D02*
X0173029Y0178285D01*
X0173029Y0178244D02*
X0168729Y0178244D01*
X0168729Y0176639D01*
X0171423Y0173944D01*
X0173029Y0173944D01*
X0173029Y0178244D01*
X0173629Y0178244D01*
X0173629Y0178844D01*
X0177929Y0178844D01*
X0177929Y0180449D01*
X0175234Y0183144D01*
X0173629Y0183144D01*
X0173629Y0178844D01*
X0173029Y0178844D01*
X0173029Y0183144D01*
X0171423Y0183144D01*
X0168729Y0180449D01*
X0168729Y0178844D01*
X0173029Y0178844D01*
X0173029Y0178244D01*
X0173029Y0177686D02*
X0173629Y0177686D01*
X0173629Y0178244D02*
X0173629Y0173944D01*
X0175234Y0173944D01*
X0177929Y0176639D01*
X0177929Y0178244D01*
X0173629Y0178244D01*
X0173629Y0178285D02*
X0183029Y0178285D01*
X0183029Y0178244D02*
X0178729Y0178244D01*
X0178729Y0176639D01*
X0181423Y0173944D01*
X0183029Y0173944D01*
X0183029Y0178244D01*
X0183629Y0178244D01*
X0183629Y0178844D01*
X0187929Y0178844D01*
X0187929Y0180449D01*
X0185234Y0183144D01*
X0183629Y0183144D01*
X0183629Y0178844D01*
X0183029Y0178844D01*
X0183029Y0183144D01*
X0181423Y0183144D01*
X0178729Y0180449D01*
X0178729Y0178844D01*
X0183029Y0178844D01*
X0183029Y0178244D01*
X0183029Y0177686D02*
X0183629Y0177686D01*
X0183629Y0178244D02*
X0183629Y0173944D01*
X0185234Y0173944D01*
X0187929Y0176639D01*
X0187929Y0178244D01*
X0183629Y0178244D01*
X0183629Y0178285D02*
X0188729Y0178285D01*
X0188729Y0178883D02*
X0187929Y0178883D01*
X0187929Y0179482D02*
X0188729Y0179482D01*
X0188729Y0180080D02*
X0187929Y0180080D01*
X0187700Y0180679D02*
X0188872Y0180679D01*
X0188872Y0181277D02*
X0187101Y0181277D01*
X0186503Y0181876D02*
X0188872Y0181876D01*
X0188872Y0182474D02*
X0185904Y0182474D01*
X0185306Y0183073D02*
X0188872Y0183073D01*
X0188872Y0183671D02*
X0157872Y0183671D01*
X0157872Y0183073D02*
X0161352Y0183073D01*
X0160754Y0182474D02*
X0157872Y0182474D01*
X0157872Y0181876D02*
X0160155Y0181876D01*
X0159557Y0181277D02*
X0157872Y0181277D01*
X0157872Y0180679D02*
X0158958Y0180679D01*
X0158729Y0180080D02*
X0157929Y0180080D01*
X0157929Y0179482D02*
X0158729Y0179482D01*
X0158729Y0178883D02*
X0157929Y0178883D01*
X0163029Y0179482D02*
X0163629Y0179482D01*
X0163629Y0180080D02*
X0163029Y0180080D01*
X0163029Y0180679D02*
X0163629Y0180679D01*
X0163629Y0181277D02*
X0163029Y0181277D01*
X0163029Y0181876D02*
X0163629Y0181876D01*
X0163629Y0182474D02*
X0163029Y0182474D01*
X0163029Y0183073D02*
X0163629Y0183073D01*
X0163629Y0183944D02*
X0165234Y0183944D01*
X0167929Y0186639D01*
X0167929Y0188244D01*
X0163629Y0188244D01*
X0163629Y0188844D01*
X0167929Y0188844D01*
X0167929Y0190449D01*
X0165234Y0193144D01*
X0163629Y0193144D01*
X0163629Y0188844D01*
X0163029Y0188844D01*
X0163029Y0193144D01*
X0161423Y0193144D01*
X0158729Y0190449D01*
X0158729Y0188844D01*
X0163029Y0188844D01*
X0163029Y0188244D01*
X0163629Y0188244D01*
X0163629Y0183944D01*
X0163629Y0184270D02*
X0163029Y0184270D01*
X0163029Y0183944D02*
X0163029Y0188244D01*
X0158729Y0188244D01*
X0158729Y0186639D01*
X0161423Y0183944D01*
X0163029Y0183944D01*
X0163029Y0184868D02*
X0163629Y0184868D01*
X0163629Y0185467D02*
X0163029Y0185467D01*
X0163029Y0186065D02*
X0163629Y0186065D01*
X0163629Y0186664D02*
X0163029Y0186664D01*
X0163029Y0187262D02*
X0163629Y0187262D01*
X0163629Y0187861D02*
X0163029Y0187861D01*
X0163029Y0188459D02*
X0157929Y0188459D01*
X0157929Y0187861D02*
X0158729Y0187861D01*
X0158729Y0187262D02*
X0157929Y0187262D01*
X0157929Y0186664D02*
X0158729Y0186664D01*
X0159302Y0186065D02*
X0157872Y0186065D01*
X0157872Y0185467D02*
X0159901Y0185467D01*
X0160499Y0184868D02*
X0157872Y0184868D01*
X0157872Y0184270D02*
X0161098Y0184270D01*
X0165306Y0183073D02*
X0171352Y0183073D01*
X0170754Y0182474D02*
X0165904Y0182474D01*
X0166503Y0181876D02*
X0170155Y0181876D01*
X0169557Y0181277D02*
X0167101Y0181277D01*
X0167700Y0180679D02*
X0168958Y0180679D01*
X0168729Y0180080D02*
X0167929Y0180080D01*
X0167929Y0179482D02*
X0168729Y0179482D01*
X0168729Y0178883D02*
X0167929Y0178883D01*
X0167929Y0178244D02*
X0163629Y0178244D01*
X0163629Y0173944D01*
X0165234Y0173944D01*
X0167929Y0176639D01*
X0167929Y0178244D01*
X0167929Y0177686D02*
X0168729Y0177686D01*
X0168729Y0177088D02*
X0167929Y0177088D01*
X0167779Y0176489D02*
X0168878Y0176489D01*
X0169477Y0175891D02*
X0167181Y0175891D01*
X0166582Y0175292D02*
X0170075Y0175292D01*
X0170674Y0174694D02*
X0165984Y0174694D01*
X0165385Y0174095D02*
X0171272Y0174095D01*
X0173029Y0174095D02*
X0173629Y0174095D01*
X0173629Y0174694D02*
X0173029Y0174694D01*
X0173029Y0175292D02*
X0173629Y0175292D01*
X0173629Y0175891D02*
X0173029Y0175891D01*
X0173029Y0176489D02*
X0173629Y0176489D01*
X0173629Y0177088D02*
X0173029Y0177088D01*
X0173029Y0178883D02*
X0173629Y0178883D01*
X0173629Y0179482D02*
X0173029Y0179482D01*
X0173029Y0180080D02*
X0173629Y0180080D01*
X0173629Y0180679D02*
X0173029Y0180679D01*
X0173029Y0181277D02*
X0173629Y0181277D01*
X0173629Y0181876D02*
X0173029Y0181876D01*
X0173029Y0182474D02*
X0173629Y0182474D01*
X0173629Y0183073D02*
X0173029Y0183073D01*
X0173029Y0183944D02*
X0173029Y0188244D01*
X0173629Y0188244D01*
X0173629Y0188844D01*
X0177929Y0188844D01*
X0177929Y0190449D01*
X0175234Y0193144D01*
X0173629Y0193144D01*
X0173629Y0188844D01*
X0173029Y0188844D01*
X0173029Y0193144D01*
X0171423Y0193144D01*
X0168729Y0190449D01*
X0168729Y0188844D01*
X0173029Y0188844D01*
X0173029Y0188244D01*
X0168729Y0188244D01*
X0168729Y0186639D01*
X0171423Y0183944D01*
X0173029Y0183944D01*
X0173029Y0184270D02*
X0173629Y0184270D01*
X0173629Y0183944D02*
X0175234Y0183944D01*
X0177929Y0186639D01*
X0177929Y0188244D01*
X0173629Y0188244D01*
X0173629Y0183944D01*
X0173629Y0184868D02*
X0173029Y0184868D01*
X0173029Y0185467D02*
X0173629Y0185467D01*
X0173629Y0186065D02*
X0173029Y0186065D01*
X0173029Y0186664D02*
X0173629Y0186664D01*
X0173629Y0187262D02*
X0173029Y0187262D01*
X0173029Y0187861D02*
X0173629Y0187861D01*
X0173629Y0188459D02*
X0183029Y0188459D01*
X0183029Y0188244D02*
X0178729Y0188244D01*
X0178729Y0186639D01*
X0181423Y0183944D01*
X0183029Y0183944D01*
X0183029Y0188244D01*
X0183629Y0188244D01*
X0183629Y0188844D01*
X0187929Y0188844D01*
X0187929Y0190449D01*
X0185234Y0193144D01*
X0183629Y0193144D01*
X0183629Y0188844D01*
X0183029Y0188844D01*
X0183029Y0193144D01*
X0181423Y0193144D01*
X0178729Y0190449D01*
X0178729Y0188844D01*
X0183029Y0188844D01*
X0183029Y0188244D01*
X0183029Y0187861D02*
X0183629Y0187861D01*
X0183629Y0188244D02*
X0183629Y0183944D01*
X0185234Y0183944D01*
X0187929Y0186639D01*
X0187929Y0188244D01*
X0183629Y0188244D01*
X0183629Y0188459D02*
X0188729Y0188459D01*
X0188729Y0187861D02*
X0187929Y0187861D01*
X0187929Y0187262D02*
X0188729Y0187262D01*
X0188729Y0186664D02*
X0187929Y0186664D01*
X0187355Y0186065D02*
X0188872Y0186065D01*
X0188872Y0185467D02*
X0186757Y0185467D01*
X0186158Y0184868D02*
X0188872Y0184868D01*
X0188872Y0184270D02*
X0185560Y0184270D01*
X0183629Y0184270D02*
X0183029Y0184270D01*
X0183029Y0184868D02*
X0183629Y0184868D01*
X0183629Y0185467D02*
X0183029Y0185467D01*
X0183029Y0186065D02*
X0183629Y0186065D01*
X0183629Y0186664D02*
X0183029Y0186664D01*
X0183029Y0187262D02*
X0183629Y0187262D01*
X0183629Y0189058D02*
X0183029Y0189058D01*
X0183029Y0189656D02*
X0183629Y0189656D01*
X0183629Y0190255D02*
X0183029Y0190255D01*
X0183029Y0190853D02*
X0183629Y0190853D01*
X0183629Y0191452D02*
X0183029Y0191452D01*
X0183029Y0192050D02*
X0183629Y0192050D01*
X0183629Y0192649D02*
X0183029Y0192649D01*
X0180928Y0192649D02*
X0175729Y0192649D01*
X0176328Y0192050D02*
X0180330Y0192050D01*
X0179731Y0191452D02*
X0176926Y0191452D01*
X0177525Y0190853D02*
X0179133Y0190853D01*
X0178729Y0190255D02*
X0177929Y0190255D01*
X0177929Y0189656D02*
X0178729Y0189656D01*
X0178729Y0189058D02*
X0177929Y0189058D01*
X0177929Y0187861D02*
X0178729Y0187861D01*
X0178729Y0187262D02*
X0177929Y0187262D01*
X0177929Y0186664D02*
X0178729Y0186664D01*
X0179302Y0186065D02*
X0177355Y0186065D01*
X0176757Y0185467D02*
X0179901Y0185467D01*
X0180499Y0184868D02*
X0176158Y0184868D01*
X0175560Y0184270D02*
X0181098Y0184270D01*
X0181352Y0183073D02*
X0175306Y0183073D01*
X0175904Y0182474D02*
X0180754Y0182474D01*
X0180155Y0181876D02*
X0176503Y0181876D01*
X0177101Y0181277D02*
X0179557Y0181277D01*
X0178958Y0180679D02*
X0177700Y0180679D01*
X0177929Y0180080D02*
X0178729Y0180080D01*
X0178729Y0179482D02*
X0177929Y0179482D01*
X0177929Y0178883D02*
X0178729Y0178883D01*
X0178729Y0177686D02*
X0177929Y0177686D01*
X0177929Y0177088D02*
X0178729Y0177088D01*
X0178878Y0176489D02*
X0177779Y0176489D01*
X0177181Y0175891D02*
X0179477Y0175891D01*
X0180075Y0175292D02*
X0176582Y0175292D01*
X0175984Y0174694D02*
X0180674Y0174694D01*
X0181272Y0174095D02*
X0175385Y0174095D01*
X0183029Y0174095D02*
X0183629Y0174095D01*
X0183629Y0174694D02*
X0183029Y0174694D01*
X0183029Y0175292D02*
X0183629Y0175292D01*
X0183629Y0175891D02*
X0183029Y0175891D01*
X0183029Y0176489D02*
X0183629Y0176489D01*
X0183629Y0177088D02*
X0183029Y0177088D01*
X0183029Y0178883D02*
X0183629Y0178883D01*
X0183629Y0179482D02*
X0183029Y0179482D01*
X0183029Y0180080D02*
X0183629Y0180080D01*
X0183629Y0180679D02*
X0183029Y0180679D01*
X0183029Y0181277D02*
X0183629Y0181277D01*
X0183629Y0181876D02*
X0183029Y0181876D01*
X0183029Y0182474D02*
X0183629Y0182474D01*
X0183629Y0183073D02*
X0183029Y0183073D01*
X0187929Y0189058D02*
X0188729Y0189058D01*
X0188729Y0189656D02*
X0187929Y0189656D01*
X0187929Y0190255D02*
X0188729Y0190255D01*
X0188872Y0190853D02*
X0187525Y0190853D01*
X0186926Y0191452D02*
X0188872Y0191452D01*
X0188872Y0192050D02*
X0186328Y0192050D01*
X0185729Y0192649D02*
X0188872Y0192649D01*
X0188872Y0193247D02*
X0157872Y0193247D01*
X0157872Y0192649D02*
X0160928Y0192649D01*
X0160330Y0192050D02*
X0157872Y0192050D01*
X0157872Y0191452D02*
X0159731Y0191452D01*
X0159133Y0190853D02*
X0157872Y0190853D01*
X0157929Y0190255D02*
X0158729Y0190255D01*
X0158729Y0189656D02*
X0157929Y0189656D01*
X0157929Y0189058D02*
X0158729Y0189058D01*
X0163029Y0189058D02*
X0163629Y0189058D01*
X0163629Y0189656D02*
X0163029Y0189656D01*
X0163029Y0190255D02*
X0163629Y0190255D01*
X0163629Y0190853D02*
X0163029Y0190853D01*
X0163029Y0191452D02*
X0163629Y0191452D01*
X0163629Y0192050D02*
X0163029Y0192050D01*
X0163029Y0192649D02*
X0163629Y0192649D01*
X0165729Y0192649D02*
X0170928Y0192649D01*
X0170330Y0192050D02*
X0166328Y0192050D01*
X0166926Y0191452D02*
X0169731Y0191452D01*
X0169133Y0190853D02*
X0167525Y0190853D01*
X0167929Y0190255D02*
X0168729Y0190255D01*
X0168729Y0189656D02*
X0167929Y0189656D01*
X0167929Y0189058D02*
X0168729Y0189058D01*
X0168729Y0187861D02*
X0167929Y0187861D01*
X0167929Y0187262D02*
X0168729Y0187262D01*
X0168729Y0186664D02*
X0167929Y0186664D01*
X0167355Y0186065D02*
X0169302Y0186065D01*
X0169901Y0185467D02*
X0166757Y0185467D01*
X0166158Y0184868D02*
X0170499Y0184868D01*
X0171098Y0184270D02*
X0165560Y0184270D01*
X0163629Y0188459D02*
X0173029Y0188459D01*
X0173029Y0189058D02*
X0173629Y0189058D01*
X0173629Y0189656D02*
X0173029Y0189656D01*
X0173029Y0190255D02*
X0173629Y0190255D01*
X0173629Y0190853D02*
X0173029Y0190853D01*
X0173029Y0191452D02*
X0173629Y0191452D01*
X0173629Y0192050D02*
X0173029Y0192050D01*
X0173029Y0192649D02*
X0173629Y0192649D01*
X0163629Y0177686D02*
X0163029Y0177686D01*
X0163029Y0177088D02*
X0163629Y0177088D01*
X0163629Y0176489D02*
X0163029Y0176489D01*
X0163029Y0175891D02*
X0163629Y0175891D01*
X0163629Y0175292D02*
X0163029Y0175292D01*
X0163029Y0174694D02*
X0163629Y0174694D01*
X0163629Y0174095D02*
X0163029Y0174095D01*
X0185385Y0174095D02*
X0188872Y0174095D01*
X0188872Y0174694D02*
X0185984Y0174694D01*
X0186582Y0175292D02*
X0188872Y0175292D01*
X0188872Y0175891D02*
X0187181Y0175891D01*
X0187779Y0176489D02*
X0188872Y0176489D01*
X0188729Y0177088D02*
X0187929Y0177088D01*
X0187929Y0177686D02*
X0188729Y0177686D01*
X0083553Y0065300D02*
X0065872Y0065300D01*
X0065872Y0063521D01*
X0069576Y0063521D01*
X0069576Y0057600D01*
X0070176Y0057600D01*
X0070176Y0063521D01*
X0073886Y0063521D01*
X0074216Y0063433D01*
X0074513Y0063262D01*
X0074755Y0063019D01*
X0074926Y0062723D01*
X0075015Y0062392D01*
X0075015Y0057600D01*
X0070176Y0057600D01*
X0070176Y0057000D01*
X0070176Y0051079D01*
X0073886Y0051079D01*
X0074216Y0051167D01*
X0074513Y0051338D01*
X0074755Y0051581D01*
X0074926Y0051877D01*
X0075015Y0052208D01*
X0075015Y0057000D01*
X0070176Y0057000D01*
X0069576Y0057000D01*
X0069576Y0051079D01*
X0065872Y0051079D01*
X0065872Y0048568D01*
X0066919Y0048568D01*
X0066919Y0045600D01*
X0067519Y0045600D01*
X0070684Y0045600D01*
X0070684Y0047440D01*
X0070595Y0047770D01*
X0070424Y0048067D01*
X0070182Y0048309D01*
X0069886Y0048480D01*
X0069555Y0048568D01*
X0067519Y0048568D01*
X0067519Y0045600D01*
X0067519Y0045000D01*
X0070684Y0045000D01*
X0070684Y0043300D01*
X0070872Y0043300D01*
X0070872Y0048300D01*
X0075414Y0048300D01*
X0075373Y0048371D01*
X0075237Y0048877D01*
X0075237Y0049094D01*
X0078560Y0049094D01*
X0078560Y0049183D01*
X0078560Y0051128D01*
X0076965Y0051128D01*
X0076459Y0050992D01*
X0076005Y0050730D01*
X0075635Y0050360D01*
X0075373Y0049906D01*
X0075237Y0049400D01*
X0075237Y0049183D01*
X0078560Y0049183D01*
X0078649Y0049183D01*
X0078649Y0051128D01*
X0078872Y0051128D01*
X0078872Y0052300D01*
X0081045Y0052300D01*
X0081045Y0053523D01*
X0082989Y0053523D01*
X0082989Y0053612D01*
X0081045Y0053612D01*
X0081045Y0055208D01*
X0081180Y0055713D01*
X0081442Y0056167D01*
X0081812Y0056537D01*
X0082266Y0056799D01*
X0082772Y0056935D01*
X0082989Y0056935D01*
X0082989Y0053612D01*
X0083078Y0053612D01*
X0085022Y0053612D01*
X0085548Y0053612D01*
X0085548Y0053523D01*
X0083078Y0053523D01*
X0083078Y0053612D01*
X0083078Y0056935D01*
X0083295Y0056935D01*
X0083801Y0056799D01*
X0084255Y0056537D01*
X0084313Y0056479D01*
X0084371Y0056537D01*
X0084825Y0056799D01*
X0085331Y0056935D01*
X0085548Y0056935D01*
X0085548Y0053612D01*
X0085637Y0053612D01*
X0085637Y0056935D01*
X0085854Y0056935D01*
X0086352Y0056801D01*
X0086352Y0057979D01*
X0086872Y0058499D01*
X0086872Y0058835D01*
X0086826Y0058835D01*
X0086826Y0062000D01*
X0086226Y0062000D01*
X0086226Y0058835D01*
X0084386Y0058835D01*
X0084055Y0058923D01*
X0083759Y0059094D01*
X0083517Y0059336D01*
X0083346Y0059633D01*
X0083257Y0059963D01*
X0083257Y0062000D01*
X0086226Y0062000D01*
X0086226Y0062600D01*
X0083257Y0062600D01*
X0083257Y0064637D01*
X0083346Y0064967D01*
X0083517Y0065264D01*
X0083553Y0065300D01*
X0083461Y0065166D02*
X0065872Y0065166D01*
X0065872Y0064568D02*
X0083257Y0064568D01*
X0083257Y0063969D02*
X0065872Y0063969D01*
X0062872Y0063969D02*
X0051872Y0063969D01*
X0051872Y0064300D02*
X0062872Y0064300D01*
X0062872Y0062803D01*
X0062747Y0063019D01*
X0062505Y0063262D01*
X0062209Y0063433D01*
X0061878Y0063521D01*
X0058168Y0063521D01*
X0058168Y0057600D01*
X0057568Y0057600D01*
X0057568Y0057000D01*
X0052730Y0057000D01*
X0052730Y0052208D01*
X0052818Y0051877D01*
X0052989Y0051581D01*
X0053231Y0051338D01*
X0053528Y0051167D01*
X0053858Y0051079D01*
X0057568Y0051079D01*
X0057568Y0057000D01*
X0058168Y0057000D01*
X0058168Y0051079D01*
X0061878Y0051079D01*
X0062209Y0051167D01*
X0062505Y0051338D01*
X0062747Y0051581D01*
X0062872Y0051797D01*
X0062872Y0048566D01*
X0062862Y0048568D01*
X0060826Y0048568D01*
X0060826Y0045600D01*
X0060226Y0045600D01*
X0060226Y0048568D01*
X0058189Y0048568D01*
X0057859Y0048480D01*
X0057562Y0048309D01*
X0057320Y0048067D01*
X0057149Y0047770D01*
X0057060Y0047440D01*
X0057060Y0045600D01*
X0060226Y0045600D01*
X0060226Y0045000D01*
X0060826Y0045000D01*
X0060826Y0042031D01*
X0062862Y0042031D01*
X0062872Y0042034D01*
X0062872Y0041300D01*
X0051872Y0041300D01*
X0051872Y0064300D01*
X0051872Y0063370D02*
X0053420Y0063370D01*
X0053528Y0063433D02*
X0053231Y0063262D01*
X0052989Y0063019D01*
X0052818Y0062723D01*
X0052730Y0062392D01*
X0052730Y0057600D01*
X0057568Y0057600D01*
X0057568Y0063521D01*
X0053858Y0063521D01*
X0053528Y0063433D01*
X0052846Y0062772D02*
X0051872Y0062772D01*
X0051872Y0062173D02*
X0052730Y0062173D01*
X0052730Y0061575D02*
X0051872Y0061575D01*
X0051872Y0060976D02*
X0052730Y0060976D01*
X0052730Y0060378D02*
X0051872Y0060378D01*
X0051872Y0059779D02*
X0052730Y0059779D01*
X0052730Y0059181D02*
X0051872Y0059181D01*
X0051872Y0058582D02*
X0052730Y0058582D01*
X0052730Y0057984D02*
X0051872Y0057984D01*
X0051872Y0057385D02*
X0057568Y0057385D01*
X0057568Y0056787D02*
X0058168Y0056787D01*
X0058168Y0056188D02*
X0057568Y0056188D01*
X0057568Y0055590D02*
X0058168Y0055590D01*
X0058168Y0054991D02*
X0057568Y0054991D01*
X0057568Y0054393D02*
X0058168Y0054393D01*
X0058168Y0053794D02*
X0057568Y0053794D01*
X0057568Y0053196D02*
X0058168Y0053196D01*
X0058168Y0052597D02*
X0057568Y0052597D01*
X0057568Y0051999D02*
X0058168Y0051999D01*
X0058168Y0051400D02*
X0057568Y0051400D01*
X0057733Y0048408D02*
X0051872Y0048408D01*
X0051872Y0049006D02*
X0062872Y0049006D01*
X0062872Y0049605D02*
X0051872Y0049605D01*
X0051872Y0050203D02*
X0062872Y0050203D01*
X0062872Y0050802D02*
X0051872Y0050802D01*
X0051872Y0051400D02*
X0053170Y0051400D01*
X0052786Y0051999D02*
X0051872Y0051999D01*
X0051872Y0052597D02*
X0052730Y0052597D01*
X0052730Y0053196D02*
X0051872Y0053196D01*
X0051872Y0053794D02*
X0052730Y0053794D01*
X0052730Y0054393D02*
X0051872Y0054393D01*
X0051872Y0054991D02*
X0052730Y0054991D01*
X0052730Y0055590D02*
X0051872Y0055590D01*
X0051872Y0056188D02*
X0052730Y0056188D01*
X0052730Y0056787D02*
X0051872Y0056787D01*
X0057568Y0057984D02*
X0058168Y0057984D01*
X0058168Y0058582D02*
X0057568Y0058582D01*
X0057568Y0059181D02*
X0058168Y0059181D01*
X0058168Y0059779D02*
X0057568Y0059779D01*
X0057568Y0060378D02*
X0058168Y0060378D01*
X0058168Y0060976D02*
X0057568Y0060976D01*
X0057568Y0061575D02*
X0058168Y0061575D01*
X0058168Y0062173D02*
X0057568Y0062173D01*
X0057568Y0062772D02*
X0058168Y0062772D01*
X0058168Y0063370D02*
X0057568Y0063370D01*
X0062316Y0063370D02*
X0062872Y0063370D01*
X0069576Y0063370D02*
X0070176Y0063370D01*
X0070176Y0062772D02*
X0069576Y0062772D01*
X0069576Y0062173D02*
X0070176Y0062173D01*
X0070176Y0061575D02*
X0069576Y0061575D01*
X0069576Y0060976D02*
X0070176Y0060976D01*
X0070176Y0060378D02*
X0069576Y0060378D01*
X0069576Y0059779D02*
X0070176Y0059779D01*
X0070176Y0059181D02*
X0069576Y0059181D01*
X0069576Y0058582D02*
X0070176Y0058582D01*
X0070176Y0057984D02*
X0069576Y0057984D01*
X0070176Y0057385D02*
X0086352Y0057385D01*
X0086357Y0057984D02*
X0075015Y0057984D01*
X0075015Y0058582D02*
X0086872Y0058582D01*
X0086826Y0059181D02*
X0086226Y0059181D01*
X0086226Y0059779D02*
X0086826Y0059779D01*
X0086826Y0060378D02*
X0086226Y0060378D01*
X0086226Y0060976D02*
X0086826Y0060976D01*
X0086826Y0061575D02*
X0086226Y0061575D01*
X0086226Y0062173D02*
X0075015Y0062173D01*
X0075015Y0061575D02*
X0083257Y0061575D01*
X0083257Y0060976D02*
X0075015Y0060976D01*
X0075015Y0060378D02*
X0083257Y0060378D01*
X0083306Y0059779D02*
X0075015Y0059779D01*
X0075015Y0059181D02*
X0083672Y0059181D01*
X0083822Y0056787D02*
X0084804Y0056787D01*
X0085548Y0056787D02*
X0085637Y0056787D01*
X0085637Y0056188D02*
X0085548Y0056188D01*
X0085548Y0055590D02*
X0085637Y0055590D01*
X0085637Y0054991D02*
X0085548Y0054991D01*
X0085548Y0054393D02*
X0085637Y0054393D01*
X0085637Y0053794D02*
X0085548Y0053794D01*
X0083078Y0053794D02*
X0082989Y0053794D01*
X0082989Y0054393D02*
X0083078Y0054393D01*
X0083078Y0054991D02*
X0082989Y0054991D01*
X0082989Y0055590D02*
X0083078Y0055590D01*
X0083078Y0056188D02*
X0082989Y0056188D01*
X0082989Y0056787D02*
X0083078Y0056787D01*
X0082245Y0056787D02*
X0075015Y0056787D01*
X0075015Y0056188D02*
X0081463Y0056188D01*
X0081147Y0055590D02*
X0075015Y0055590D01*
X0075015Y0054991D02*
X0081045Y0054991D01*
X0081045Y0054393D02*
X0075015Y0054393D01*
X0075015Y0053794D02*
X0081045Y0053794D01*
X0081045Y0053196D02*
X0075015Y0053196D01*
X0075015Y0052597D02*
X0081045Y0052597D01*
X0078872Y0051999D02*
X0074959Y0051999D01*
X0074575Y0051400D02*
X0078872Y0051400D01*
X0078649Y0050802D02*
X0078560Y0050802D01*
X0078560Y0050203D02*
X0078649Y0050203D01*
X0078649Y0049605D02*
X0078560Y0049605D01*
X0076129Y0050802D02*
X0065872Y0050802D01*
X0065872Y0050203D02*
X0075544Y0050203D01*
X0075292Y0049605D02*
X0065872Y0049605D01*
X0065872Y0049006D02*
X0075237Y0049006D01*
X0075363Y0048408D02*
X0070011Y0048408D01*
X0070573Y0047809D02*
X0070872Y0047809D01*
X0070872Y0047211D02*
X0070684Y0047211D01*
X0070684Y0046612D02*
X0070872Y0046612D01*
X0070872Y0046014D02*
X0070684Y0046014D01*
X0070872Y0045415D02*
X0067519Y0045415D01*
X0067519Y0046014D02*
X0066919Y0046014D01*
X0066919Y0046612D02*
X0067519Y0046612D01*
X0067519Y0047211D02*
X0066919Y0047211D01*
X0066919Y0047809D02*
X0067519Y0047809D01*
X0067519Y0048408D02*
X0066919Y0048408D01*
X0070684Y0044817D02*
X0070872Y0044817D01*
X0070872Y0044218D02*
X0070684Y0044218D01*
X0070684Y0043620D02*
X0070872Y0043620D01*
X0073872Y0043620D02*
X0075275Y0043620D01*
X0075237Y0043759D02*
X0075373Y0043253D01*
X0075635Y0042799D01*
X0075693Y0042741D01*
X0075635Y0042683D01*
X0075373Y0042229D01*
X0075237Y0041723D01*
X0075237Y0041506D01*
X0078560Y0041506D01*
X0078560Y0042031D01*
X0078560Y0043976D01*
X0078649Y0043976D01*
X0078649Y0041506D01*
X0078560Y0041506D01*
X0078560Y0041417D01*
X0078649Y0041417D01*
X0078649Y0039472D01*
X0079872Y0039472D01*
X0079872Y0029300D01*
X0074963Y0029300D01*
X0075015Y0029491D01*
X0075015Y0033299D01*
X0064172Y0033299D01*
X0064172Y0033899D01*
X0075015Y0033899D01*
X0075015Y0037707D01*
X0074926Y0038038D01*
X0074755Y0038334D01*
X0074513Y0038576D01*
X0074216Y0038748D01*
X0073886Y0038836D01*
X0064172Y0038836D01*
X0064172Y0033899D01*
X0063572Y0033899D01*
X0063572Y0033299D01*
X0052730Y0033299D01*
X0052730Y0029491D01*
X0052781Y0029300D01*
X0051872Y0029300D01*
X0051872Y0039300D01*
X0073872Y0039300D01*
X0073872Y0044300D01*
X0075242Y0044300D01*
X0075237Y0044282D01*
X0075237Y0044065D01*
X0078560Y0044065D01*
X0078560Y0043976D01*
X0075237Y0043976D01*
X0075237Y0043759D01*
X0075237Y0044218D02*
X0073872Y0044218D01*
X0073872Y0043021D02*
X0075507Y0043021D01*
X0075485Y0042423D02*
X0073872Y0042423D01*
X0073872Y0041824D02*
X0075264Y0041824D01*
X0075237Y0041417D02*
X0075237Y0041200D01*
X0075373Y0040694D01*
X0075635Y0040240D01*
X0076005Y0039870D01*
X0076459Y0039608D01*
X0076965Y0039472D01*
X0078560Y0039472D01*
X0078560Y0041417D01*
X0075237Y0041417D01*
X0075237Y0041226D02*
X0073872Y0041226D01*
X0073872Y0040627D02*
X0075411Y0040627D01*
X0075846Y0040029D02*
X0073872Y0040029D01*
X0073872Y0039430D02*
X0079872Y0039430D01*
X0079872Y0038832D02*
X0073903Y0038832D01*
X0074813Y0038233D02*
X0079872Y0038233D01*
X0079872Y0037634D02*
X0075015Y0037634D01*
X0075015Y0037036D02*
X0079872Y0037036D01*
X0079872Y0036437D02*
X0075015Y0036437D01*
X0075015Y0035839D02*
X0079872Y0035839D01*
X0079872Y0035240D02*
X0075015Y0035240D01*
X0075015Y0034642D02*
X0079872Y0034642D01*
X0079872Y0034043D02*
X0075015Y0034043D01*
X0075015Y0032846D02*
X0079872Y0032846D01*
X0079872Y0032248D02*
X0075015Y0032248D01*
X0075015Y0031649D02*
X0079872Y0031649D01*
X0079872Y0031051D02*
X0075015Y0031051D01*
X0075015Y0030452D02*
X0079872Y0030452D01*
X0079872Y0029854D02*
X0075015Y0029854D01*
X0079872Y0033445D02*
X0064172Y0033445D01*
X0064172Y0034043D02*
X0063572Y0034043D01*
X0063572Y0033899D02*
X0063572Y0038836D01*
X0053858Y0038836D01*
X0053528Y0038748D01*
X0053231Y0038576D01*
X0052989Y0038334D01*
X0052818Y0038038D01*
X0052730Y0037707D01*
X0052730Y0033899D01*
X0063572Y0033899D01*
X0063572Y0033445D02*
X0051872Y0033445D01*
X0051872Y0034043D02*
X0052730Y0034043D01*
X0052730Y0034642D02*
X0051872Y0034642D01*
X0051872Y0035240D02*
X0052730Y0035240D01*
X0052730Y0035839D02*
X0051872Y0035839D01*
X0051872Y0036437D02*
X0052730Y0036437D01*
X0052730Y0037036D02*
X0051872Y0037036D01*
X0051872Y0037634D02*
X0052730Y0037634D01*
X0052931Y0038233D02*
X0051872Y0038233D01*
X0051872Y0038832D02*
X0053841Y0038832D01*
X0051872Y0041824D02*
X0062872Y0041824D01*
X0060826Y0042423D02*
X0060226Y0042423D01*
X0060226Y0042031D02*
X0060226Y0045000D01*
X0057060Y0045000D01*
X0057060Y0043160D01*
X0057149Y0042830D01*
X0057320Y0042533D01*
X0057562Y0042291D01*
X0057859Y0042120D01*
X0058189Y0042031D01*
X0060226Y0042031D01*
X0060226Y0043021D02*
X0060826Y0043021D01*
X0060826Y0043620D02*
X0060226Y0043620D01*
X0060226Y0044218D02*
X0060826Y0044218D01*
X0060826Y0044817D02*
X0060226Y0044817D01*
X0060226Y0045415D02*
X0051872Y0045415D01*
X0051872Y0044817D02*
X0057060Y0044817D01*
X0057060Y0044218D02*
X0051872Y0044218D01*
X0051872Y0043620D02*
X0057060Y0043620D01*
X0057098Y0043021D02*
X0051872Y0043021D01*
X0051872Y0042423D02*
X0057431Y0042423D01*
X0057060Y0046014D02*
X0051872Y0046014D01*
X0051872Y0046612D02*
X0057060Y0046612D01*
X0057060Y0047211D02*
X0051872Y0047211D01*
X0051872Y0047809D02*
X0057171Y0047809D01*
X0060226Y0047809D02*
X0060826Y0047809D01*
X0060826Y0047211D02*
X0060226Y0047211D01*
X0060226Y0046612D02*
X0060826Y0046612D01*
X0060826Y0046014D02*
X0060226Y0046014D01*
X0060226Y0048408D02*
X0060826Y0048408D01*
X0062567Y0051400D02*
X0062872Y0051400D01*
X0069576Y0051400D02*
X0070176Y0051400D01*
X0070176Y0051999D02*
X0069576Y0051999D01*
X0069576Y0052597D02*
X0070176Y0052597D01*
X0070176Y0053196D02*
X0069576Y0053196D01*
X0069576Y0053794D02*
X0070176Y0053794D01*
X0070176Y0054393D02*
X0069576Y0054393D01*
X0069576Y0054991D02*
X0070176Y0054991D01*
X0070176Y0055590D02*
X0069576Y0055590D01*
X0069576Y0056188D02*
X0070176Y0056188D01*
X0070176Y0056787D02*
X0069576Y0056787D01*
X0074898Y0062772D02*
X0083257Y0062772D01*
X0083257Y0063370D02*
X0074324Y0063370D01*
X0078560Y0043620D02*
X0078649Y0043620D01*
X0078649Y0043021D02*
X0078560Y0043021D01*
X0078560Y0042423D02*
X0078649Y0042423D01*
X0078649Y0041824D02*
X0078560Y0041824D01*
X0078560Y0041226D02*
X0078649Y0041226D01*
X0078649Y0040627D02*
X0078560Y0040627D01*
X0078560Y0040029D02*
X0078649Y0040029D01*
X0064172Y0038832D02*
X0063572Y0038832D01*
X0063572Y0038233D02*
X0064172Y0038233D01*
X0064172Y0037634D02*
X0063572Y0037634D01*
X0063572Y0037036D02*
X0064172Y0037036D01*
X0064172Y0036437D02*
X0063572Y0036437D01*
X0063572Y0035839D02*
X0064172Y0035839D01*
X0064172Y0035240D02*
X0063572Y0035240D01*
X0063572Y0034642D02*
X0064172Y0034642D01*
X0052730Y0032846D02*
X0051872Y0032846D01*
X0051872Y0032248D02*
X0052730Y0032248D01*
X0052730Y0031649D02*
X0051872Y0031649D01*
X0051872Y0031051D02*
X0052730Y0031051D01*
X0052730Y0030452D02*
X0051872Y0030452D01*
X0051872Y0029854D02*
X0052730Y0029854D01*
X0099526Y0037076D02*
X0100587Y0036015D01*
X0099526Y0037076D02*
X0099526Y0038300D01*
D41*
X0177872Y0106646D02*
X0177872Y0115166D01*
X0177872Y0114860D01*
X0173872Y0110860D01*
X0178872Y0108040D02*
X0186754Y0108040D01*
X0187328Y0110723D02*
X0185910Y0112141D01*
X0185910Y0128459D01*
X0188132Y0130681D01*
X0188526Y0131300D01*
X0195219Y0131300D02*
X0195219Y0130605D01*
X0199161Y0126662D01*
X0199161Y0123938D01*
X0191554Y0116330D01*
X0191036Y0116330D01*
X0189872Y0115166D01*
X0189779Y0110723D02*
X0187328Y0110723D01*
X0189779Y0110723D02*
X0193028Y0107473D01*
X0193028Y0102555D01*
X0193966Y0101617D01*
X0195933Y0101617D01*
X0196991Y0100560D01*
X0196991Y0104300D02*
X0200872Y0104300D01*
X0203872Y0101300D01*
X0177872Y0123434D02*
X0177872Y0129954D01*
D42*
X0178872Y0108040D02*
X0178502Y0107670D01*
D43*
X0173872Y0110860D03*
D44*
X0183872Y0084300D02*
X0183872Y0082646D01*
X0113329Y0188544D02*
X0113116Y0188544D01*
M02*
