G75*
%MOIN*%
%OFA0B0*%
%FSLAX25Y25*%
%IPPOS*%
%LPD*%
%AMOC8*
5,1,8,0,0,1.08239X$1,22.5*
%
%ADD10R,0.03937X0.04331*%
%ADD11R,0.04331X0.03937*%
%ADD12R,0.04724X0.04724*%
%ADD13C,0.00551*%
%ADD14R,0.02362X0.02362*%
%ADD15R,0.03150X0.03543*%
%ADD16R,0.03543X0.03543*%
%ADD17R,0.04724X0.03543*%
%ADD18R,0.03543X0.04724*%
%ADD19R,0.07000X0.07000*%
%ADD20R,0.04724X0.02165*%
%ADD21C,0.01378*%
%ADD22R,0.02362X0.02756*%
%ADD23R,0.02756X0.02362*%
%ADD24R,0.19685X0.07874*%
%ADD25R,0.18110X0.03937*%
%ADD26R,0.13386X0.06299*%
%ADD27R,0.07677X0.09843*%
%ADD28R,0.07087X0.06299*%
%ADD29R,0.01575X0.05315*%
%ADD30R,0.03937X0.07874*%
%ADD31R,0.09843X0.09843*%
%ADD32C,0.00500*%
D10*
X0086526Y0062300D03*
X0093219Y0062300D03*
X0112526Y0043300D03*
X0119219Y0043300D03*
X0106219Y0038300D03*
X0099526Y0038300D03*
X0101219Y0030300D03*
X0094526Y0030300D03*
X0177872Y0099954D03*
X0177872Y0106646D03*
X0188526Y0092300D03*
X0195219Y0092300D03*
X0193219Y0059300D03*
X0186526Y0059300D03*
X0185872Y0047646D03*
X0185872Y0040954D03*
X0188526Y0131300D03*
X0195219Y0131300D03*
D11*
X0060526Y0045300D03*
X0067219Y0045300D03*
X0111872Y0051954D03*
X0111872Y0058646D03*
X0186526Y0073300D03*
X0193219Y0073300D03*
X0177872Y0129954D03*
X0177872Y0136646D03*
D12*
X0177872Y0123434D03*
X0177872Y0115166D03*
X0189872Y0115166D03*
X0189872Y0123434D03*
X0119872Y0058434D03*
X0119872Y0050166D03*
X0108872Y0023434D03*
X0108872Y0015166D03*
X0099872Y0015166D03*
X0099872Y0023434D03*
D13*
X0155698Y0033655D02*
X0158298Y0033655D01*
X0158298Y0033103D01*
X0155698Y0033103D01*
X0155698Y0033655D01*
X0155698Y0033653D02*
X0158298Y0033653D01*
X0158298Y0035623D02*
X0155698Y0035623D01*
X0158298Y0035623D02*
X0158298Y0035071D01*
X0155698Y0035071D01*
X0155698Y0035623D01*
X0155698Y0035621D02*
X0158298Y0035621D01*
X0158298Y0037592D02*
X0155698Y0037592D01*
X0158298Y0037592D02*
X0158298Y0037040D01*
X0155698Y0037040D01*
X0155698Y0037592D01*
X0155698Y0037590D02*
X0158298Y0037590D01*
X0158298Y0039560D02*
X0155698Y0039560D01*
X0158298Y0039560D02*
X0158298Y0039008D01*
X0155698Y0039008D01*
X0155698Y0039560D01*
X0155698Y0039558D02*
X0158298Y0039558D01*
X0158298Y0041529D02*
X0155698Y0041529D01*
X0158298Y0041529D02*
X0158298Y0040977D01*
X0155698Y0040977D01*
X0155698Y0041529D01*
X0155698Y0041527D02*
X0158298Y0041527D01*
X0158298Y0043497D02*
X0155698Y0043497D01*
X0158298Y0043497D02*
X0158298Y0042945D01*
X0155698Y0042945D01*
X0155698Y0043497D01*
X0155698Y0043495D02*
X0158298Y0043495D01*
X0159675Y0044874D02*
X0159675Y0047474D01*
X0160227Y0047474D01*
X0160227Y0044874D01*
X0159675Y0044874D01*
X0159675Y0045424D02*
X0160227Y0045424D01*
X0160227Y0045974D02*
X0159675Y0045974D01*
X0159675Y0046524D02*
X0160227Y0046524D01*
X0160227Y0047074D02*
X0159675Y0047074D01*
X0161643Y0047474D02*
X0161643Y0044874D01*
X0161643Y0047474D02*
X0162195Y0047474D01*
X0162195Y0044874D01*
X0161643Y0044874D01*
X0161643Y0045424D02*
X0162195Y0045424D01*
X0162195Y0045974D02*
X0161643Y0045974D01*
X0161643Y0046524D02*
X0162195Y0046524D01*
X0162195Y0047074D02*
X0161643Y0047074D01*
X0163612Y0047474D02*
X0163612Y0044874D01*
X0163612Y0047474D02*
X0164164Y0047474D01*
X0164164Y0044874D01*
X0163612Y0044874D01*
X0163612Y0045424D02*
X0164164Y0045424D01*
X0164164Y0045974D02*
X0163612Y0045974D01*
X0163612Y0046524D02*
X0164164Y0046524D01*
X0164164Y0047074D02*
X0163612Y0047074D01*
X0165580Y0047474D02*
X0165580Y0044874D01*
X0165580Y0047474D02*
X0166132Y0047474D01*
X0166132Y0044874D01*
X0165580Y0044874D01*
X0165580Y0045424D02*
X0166132Y0045424D01*
X0166132Y0045974D02*
X0165580Y0045974D01*
X0165580Y0046524D02*
X0166132Y0046524D01*
X0166132Y0047074D02*
X0165580Y0047074D01*
X0167549Y0047474D02*
X0167549Y0044874D01*
X0167549Y0047474D02*
X0168101Y0047474D01*
X0168101Y0044874D01*
X0167549Y0044874D01*
X0167549Y0045424D02*
X0168101Y0045424D01*
X0168101Y0045974D02*
X0167549Y0045974D01*
X0167549Y0046524D02*
X0168101Y0046524D01*
X0168101Y0047074D02*
X0167549Y0047074D01*
X0169517Y0047474D02*
X0169517Y0044874D01*
X0169517Y0047474D02*
X0170069Y0047474D01*
X0170069Y0044874D01*
X0169517Y0044874D01*
X0169517Y0045424D02*
X0170069Y0045424D01*
X0170069Y0045974D02*
X0169517Y0045974D01*
X0169517Y0046524D02*
X0170069Y0046524D01*
X0170069Y0047074D02*
X0169517Y0047074D01*
X0171446Y0042945D02*
X0174046Y0042945D01*
X0171446Y0042945D02*
X0171446Y0043497D01*
X0174046Y0043497D01*
X0174046Y0042945D01*
X0174046Y0043495D02*
X0171446Y0043495D01*
X0171446Y0040977D02*
X0174046Y0040977D01*
X0171446Y0040977D02*
X0171446Y0041529D01*
X0174046Y0041529D01*
X0174046Y0040977D01*
X0174046Y0041527D02*
X0171446Y0041527D01*
X0171446Y0039008D02*
X0174046Y0039008D01*
X0171446Y0039008D02*
X0171446Y0039560D01*
X0174046Y0039560D01*
X0174046Y0039008D01*
X0174046Y0039558D02*
X0171446Y0039558D01*
X0171446Y0037040D02*
X0174046Y0037040D01*
X0171446Y0037040D02*
X0171446Y0037592D01*
X0174046Y0037592D01*
X0174046Y0037040D01*
X0174046Y0037590D02*
X0171446Y0037590D01*
X0171446Y0035071D02*
X0174046Y0035071D01*
X0171446Y0035071D02*
X0171446Y0035623D01*
X0174046Y0035623D01*
X0174046Y0035071D01*
X0174046Y0035621D02*
X0171446Y0035621D01*
X0171446Y0033103D02*
X0174046Y0033103D01*
X0171446Y0033103D02*
X0171446Y0033655D01*
X0174046Y0033655D01*
X0174046Y0033103D01*
X0174046Y0033653D02*
X0171446Y0033653D01*
X0170069Y0031726D02*
X0170069Y0029126D01*
X0169517Y0029126D01*
X0169517Y0031726D01*
X0170069Y0031726D01*
X0170069Y0029676D02*
X0169517Y0029676D01*
X0169517Y0030226D02*
X0170069Y0030226D01*
X0170069Y0030776D02*
X0169517Y0030776D01*
X0169517Y0031326D02*
X0170069Y0031326D01*
X0168101Y0031726D02*
X0168101Y0029126D01*
X0167549Y0029126D01*
X0167549Y0031726D01*
X0168101Y0031726D01*
X0168101Y0029676D02*
X0167549Y0029676D01*
X0167549Y0030226D02*
X0168101Y0030226D01*
X0168101Y0030776D02*
X0167549Y0030776D01*
X0167549Y0031326D02*
X0168101Y0031326D01*
X0166132Y0031726D02*
X0166132Y0029126D01*
X0165580Y0029126D01*
X0165580Y0031726D01*
X0166132Y0031726D01*
X0166132Y0029676D02*
X0165580Y0029676D01*
X0165580Y0030226D02*
X0166132Y0030226D01*
X0166132Y0030776D02*
X0165580Y0030776D01*
X0165580Y0031326D02*
X0166132Y0031326D01*
X0164164Y0031726D02*
X0164164Y0029126D01*
X0163612Y0029126D01*
X0163612Y0031726D01*
X0164164Y0031726D01*
X0164164Y0029676D02*
X0163612Y0029676D01*
X0163612Y0030226D02*
X0164164Y0030226D01*
X0164164Y0030776D02*
X0163612Y0030776D01*
X0163612Y0031326D02*
X0164164Y0031326D01*
X0162195Y0031726D02*
X0162195Y0029126D01*
X0161643Y0029126D01*
X0161643Y0031726D01*
X0162195Y0031726D01*
X0162195Y0029676D02*
X0161643Y0029676D01*
X0161643Y0030226D02*
X0162195Y0030226D01*
X0162195Y0030776D02*
X0161643Y0030776D01*
X0161643Y0031326D02*
X0162195Y0031326D01*
X0160227Y0031726D02*
X0160227Y0029126D01*
X0159675Y0029126D01*
X0159675Y0031726D01*
X0160227Y0031726D01*
X0160227Y0029676D02*
X0159675Y0029676D01*
X0159675Y0030226D02*
X0160227Y0030226D01*
X0160227Y0030776D02*
X0159675Y0030776D01*
X0159675Y0031326D02*
X0160227Y0031326D01*
D14*
X0161329Y0034757D03*
X0161329Y0038300D03*
X0161329Y0041843D03*
X0164872Y0041843D03*
X0164872Y0038300D03*
X0168415Y0038300D03*
X0168415Y0041843D03*
X0168415Y0034757D03*
X0164872Y0034757D03*
D15*
X0185132Y0035237D03*
X0192612Y0035237D03*
X0188872Y0026969D03*
D16*
X0193943Y0021450D03*
X0193943Y0015150D03*
X0177801Y0015150D03*
X0177801Y0021450D03*
D17*
X0167837Y0070985D03*
X0167837Y0075985D03*
X0167837Y0080985D03*
X0167837Y0085985D03*
X0167837Y0090985D03*
X0167837Y0095985D03*
X0167837Y0100985D03*
X0167837Y0105985D03*
X0167837Y0110985D03*
X0167837Y0115985D03*
X0167837Y0120985D03*
X0167837Y0125985D03*
X0167837Y0130985D03*
X0167837Y0135985D03*
X0100908Y0135985D03*
X0100908Y0130985D03*
X0100908Y0125985D03*
X0100908Y0120985D03*
X0100908Y0115985D03*
X0100908Y0110985D03*
X0100908Y0105985D03*
X0100908Y0100985D03*
X0100908Y0095985D03*
X0100908Y0090985D03*
X0100908Y0085985D03*
X0100908Y0080985D03*
X0100908Y0075985D03*
X0100908Y0070985D03*
D18*
X0111931Y0065513D03*
X0116931Y0065513D03*
X0121931Y0065513D03*
X0126931Y0065513D03*
X0131931Y0065513D03*
X0136931Y0065513D03*
X0141931Y0065513D03*
X0146931Y0065513D03*
X0151931Y0065513D03*
X0156931Y0065513D03*
D19*
X0141872Y0099800D03*
X0129872Y0099800D03*
X0129872Y0111800D03*
X0141872Y0111800D03*
D20*
X0186754Y0108040D03*
X0186754Y0100560D03*
X0196991Y0100560D03*
X0196991Y0104300D03*
X0196991Y0108040D03*
D21*
X0096518Y0049139D02*
X0093762Y0049139D01*
X0093762Y0046580D02*
X0096518Y0046580D01*
X0096518Y0044020D02*
X0093762Y0044020D01*
X0093762Y0041461D02*
X0096518Y0041461D01*
X0090711Y0038410D02*
X0090711Y0035654D01*
X0088152Y0035654D02*
X0088152Y0038410D01*
X0085593Y0038410D02*
X0085593Y0035654D01*
X0083034Y0035654D02*
X0083034Y0038410D01*
X0079982Y0041461D02*
X0077226Y0041461D01*
X0077226Y0044020D02*
X0079982Y0044020D01*
X0079982Y0046580D02*
X0077226Y0046580D01*
X0077226Y0049139D02*
X0079982Y0049139D01*
X0083034Y0052190D02*
X0083034Y0054946D01*
X0085593Y0054946D02*
X0085593Y0052190D01*
X0088152Y0052190D02*
X0088152Y0054946D01*
X0090711Y0054946D02*
X0090711Y0052190D01*
D22*
X0086872Y0049040D03*
X0086872Y0041560D03*
D23*
X0083132Y0045300D03*
X0090612Y0045300D03*
D24*
X0063872Y0033599D03*
X0063872Y0021001D03*
D25*
X0192305Y0147363D03*
X0192305Y0155237D03*
D26*
X0212778Y0164686D03*
X0212778Y0137914D03*
D27*
X0069876Y0057300D03*
X0057868Y0057300D03*
D28*
X0211872Y0093788D03*
X0211872Y0104812D03*
D29*
X0136990Y0031351D03*
X0134431Y0031351D03*
X0131872Y0031351D03*
X0129313Y0031351D03*
X0126754Y0031351D03*
D30*
X0128919Y0020426D03*
X0134825Y0020426D03*
D31*
X0146045Y0020820D03*
X0117699Y0020820D03*
D32*
X0118683Y0029678D02*
X0114352Y0029678D01*
X0113909Y0029702D01*
X0113479Y0029813D01*
X0113078Y0030005D01*
X0112723Y0030271D01*
X0112426Y0030602D01*
X0112200Y0030984D01*
X0112053Y0031404D01*
X0111990Y0031843D01*
X0112053Y0032283D01*
X0112200Y0032702D01*
X0112426Y0033084D01*
X0112723Y0033415D01*
X0113078Y0033682D01*
X0113479Y0033874D01*
X0113909Y0033984D01*
X0114352Y0034009D01*
X0118683Y0034009D01*
X0119189Y0033974D01*
X0119675Y0033827D01*
X0120116Y0033576D01*
X0120490Y0033233D01*
X0120778Y0032816D01*
X0120967Y0032345D01*
X0121045Y0031843D01*
X0120983Y0031404D01*
X0120835Y0030984D01*
X0120609Y0030602D01*
X0120313Y0030271D01*
X0119957Y0030005D01*
X0119557Y0029813D01*
X0119127Y0029702D01*
X0118683Y0029678D01*
X0119293Y0029745D02*
X0113743Y0029745D01*
X0112760Y0030243D02*
X0120275Y0030243D01*
X0120692Y0030742D02*
X0112344Y0030742D01*
X0112110Y0031240D02*
X0120925Y0031240D01*
X0121030Y0031739D02*
X0112005Y0031739D01*
X0112046Y0032237D02*
X0120983Y0032237D01*
X0120810Y0032736D02*
X0112220Y0032736D01*
X0112561Y0033234D02*
X0120489Y0033234D01*
X0119841Y0033733D02*
X0113185Y0033733D01*
X0142699Y0031843D02*
X0142762Y0032283D01*
X0142909Y0032702D01*
X0143135Y0033084D01*
X0143432Y0033415D01*
X0143787Y0033682D01*
X0144187Y0033874D01*
X0144618Y0033984D01*
X0145061Y0034009D01*
X0149392Y0034009D01*
X0149898Y0033974D01*
X0150384Y0033827D01*
X0150825Y0033576D01*
X0151199Y0033233D01*
X0151487Y0032816D01*
X0151675Y0032345D01*
X0151754Y0031843D01*
X0151691Y0031404D01*
X0151544Y0030984D01*
X0151318Y0030602D01*
X0151021Y0030271D01*
X0150666Y0030005D01*
X0150266Y0029813D01*
X0149835Y0029702D01*
X0149392Y0029678D01*
X0145061Y0029678D01*
X0144618Y0029702D01*
X0144187Y0029813D01*
X0143787Y0030005D01*
X0143432Y0030271D01*
X0143135Y0030602D01*
X0142909Y0030984D01*
X0142762Y0031404D01*
X0142699Y0031843D01*
X0142714Y0031739D02*
X0151739Y0031739D01*
X0151692Y0032237D02*
X0142755Y0032237D01*
X0142929Y0032736D02*
X0151519Y0032736D01*
X0151197Y0033234D02*
X0143270Y0033234D01*
X0143893Y0033733D02*
X0150549Y0033733D01*
X0151634Y0031240D02*
X0142819Y0031240D01*
X0143052Y0030742D02*
X0151400Y0030742D01*
X0150984Y0030243D02*
X0143469Y0030243D01*
X0144451Y0029745D02*
X0150002Y0029745D01*
M02*
