G75*
%MOIN*%
%OFA0B0*%
%FSLAX25Y25*%
%IPPOS*%
%LPD*%
%AMOC8*
5,1,8,0,0,1.08239X$1,22.5*
%
%ADD10C,0.06000*%
%ADD11C,0.02375*%
%ADD12C,0.05906*%
%ADD13C,0.03543*%
%ADD14C,0.04134*%
%ADD15C,0.03248*%
%ADD16C,0.02178*%
%ADD17C,0.00600*%
%ADD18C,0.03000*%
D10*
X0157793Y0019056D03*
X0167793Y0019056D03*
X0202935Y0019056D03*
X0212935Y0019056D03*
X0212935Y0029056D03*
X0202935Y0029056D03*
X0202935Y0039056D03*
X0212935Y0039056D03*
X0212935Y0049056D03*
X0212935Y0059056D03*
X0202935Y0059056D03*
X0202935Y0049056D03*
X0202935Y0069056D03*
X0212935Y0069056D03*
X0210872Y0115300D03*
X0210872Y0125300D03*
X0213329Y0178544D03*
X0203329Y0178544D03*
X0193329Y0178544D03*
X0193329Y0188544D03*
X0203329Y0188544D03*
X0213329Y0188544D03*
X0183329Y0188544D03*
X0173329Y0188544D03*
X0163329Y0188544D03*
X0153329Y0188544D03*
X0143329Y0188544D03*
X0143329Y0178544D03*
X0153329Y0178544D03*
X0163329Y0178544D03*
X0173329Y0178544D03*
X0183329Y0178544D03*
X0133329Y0178544D03*
X0123329Y0178544D03*
X0113329Y0178544D03*
X0103329Y0178544D03*
X0103329Y0188544D03*
X0113329Y0188544D03*
X0123329Y0188544D03*
X0133329Y0188544D03*
D11*
X0090415Y0048843D03*
X0086872Y0045300D03*
X0083329Y0041757D03*
X0083329Y0048843D03*
X0090415Y0041757D03*
D12*
X0076439Y0072206D03*
X0076439Y0080080D03*
X0076439Y0087954D03*
X0076439Y0095828D03*
X0076439Y0103702D03*
X0076439Y0111576D03*
X0076439Y0119450D03*
X0076439Y0127324D03*
X0076439Y0135198D03*
X0076439Y0143072D03*
X0076439Y0150946D03*
X0076439Y0158820D03*
X0076439Y0166694D03*
X0076439Y0174568D03*
X0076439Y0182442D03*
X0068565Y0182442D03*
X0068565Y0174568D03*
X0068565Y0166694D03*
X0068565Y0158820D03*
X0068565Y0150946D03*
X0068565Y0143072D03*
X0068565Y0135198D03*
X0068565Y0127324D03*
X0068565Y0119450D03*
X0068565Y0111576D03*
X0068565Y0103702D03*
X0068565Y0095828D03*
X0068565Y0087954D03*
X0068565Y0080080D03*
X0068565Y0072206D03*
D13*
X0117699Y0020820D03*
X0146045Y0020820D03*
D14*
X0144864Y0031843D03*
X0118880Y0031843D03*
D15*
X0127839Y0044333D03*
X0124872Y0047300D03*
X0090872Y0024300D03*
X0085872Y0024300D03*
X0057872Y0076300D03*
X0050872Y0088300D03*
X0050872Y0173300D03*
X0178872Y0162300D03*
X0181872Y0159300D03*
X0202872Y0091300D03*
D16*
X0203872Y0101300D03*
X0183872Y0084300D03*
X0179776Y0086396D03*
X0175832Y0084149D03*
X0180872Y0077300D03*
X0179872Y0066300D03*
X0173872Y0057300D03*
X0170683Y0054298D03*
X0166872Y0050300D03*
X0174872Y0046461D03*
X0180061Y0040300D03*
X0177872Y0033300D03*
X0167872Y0024300D03*
X0162872Y0024300D03*
X0156872Y0028300D03*
X0152734Y0041300D03*
X0151250Y0046300D03*
X0144872Y0045300D03*
X0125872Y0055839D03*
X0106872Y0067300D03*
X0112872Y0075300D03*
X0116872Y0080300D03*
X0125561Y0075206D03*
X0133053Y0077398D03*
X0143872Y0077300D03*
X0145833Y0082584D03*
X0156872Y0072300D03*
X0158872Y0076300D03*
X0158872Y0084300D03*
X0158872Y0093300D03*
X0143872Y0098300D03*
X0135872Y0106300D03*
X0143872Y0114300D03*
X0150872Y0121300D03*
X0148872Y0131300D03*
X0141872Y0132300D03*
X0139872Y0148300D03*
X0138872Y0155300D03*
X0160872Y0135300D03*
X0159872Y0112300D03*
X0179872Y0094300D03*
X0195872Y0125300D03*
X0127872Y0114300D03*
X0121872Y0122300D03*
X0118872Y0126300D03*
X0114872Y0134300D03*
X0107872Y0128300D03*
X0106872Y0121300D03*
X0106215Y0111300D03*
X0117872Y0101300D03*
X0127872Y0098300D03*
X0127872Y0089300D03*
X0095872Y0067300D03*
X0089872Y0069300D03*
X0077872Y0059300D03*
X0098609Y0051587D03*
X0099872Y0047209D03*
X0105872Y0029485D03*
X0089872Y0014300D03*
X0050872Y0014300D03*
X0053872Y0048300D03*
X0088872Y0090300D03*
X0087872Y0099300D03*
X0092872Y0138300D03*
X0109872Y0151300D03*
X0109872Y0157300D03*
X0110872Y0163300D03*
X0191699Y0040473D03*
X0195946Y0040529D03*
X0185872Y0021300D03*
X0173872Y0014300D03*
X0130872Y0026300D03*
D17*
X0048672Y0013100D02*
X0048672Y0086365D01*
X0049216Y0085821D01*
X0050290Y0085376D01*
X0051454Y0085376D01*
X0052528Y0085821D01*
X0053351Y0086644D01*
X0053796Y0087718D01*
X0053796Y0088882D01*
X0053351Y0089956D01*
X0052528Y0090779D01*
X0051454Y0091224D01*
X0050290Y0091224D01*
X0049216Y0090779D01*
X0048672Y0090235D01*
X0048672Y0171365D01*
X0049216Y0170821D01*
X0050290Y0170376D01*
X0051454Y0170376D01*
X0052528Y0170821D01*
X0053351Y0171644D01*
X0053796Y0172718D01*
X0053796Y0173882D01*
X0053351Y0174956D01*
X0052528Y0175779D01*
X0051454Y0176224D01*
X0050290Y0176224D01*
X0049216Y0175779D01*
X0048672Y0175235D01*
X0048672Y0194500D01*
X0220072Y0194500D01*
X0220072Y0013100D01*
X0048672Y0013100D01*
X0048672Y0013694D02*
X0220072Y0013694D01*
X0220072Y0014293D02*
X0048672Y0014293D01*
X0048672Y0014891D02*
X0156611Y0014891D01*
X0156937Y0014756D02*
X0155357Y0015411D01*
X0154147Y0016620D01*
X0153493Y0018201D01*
X0153493Y0019911D01*
X0154147Y0021492D01*
X0155357Y0022701D01*
X0156937Y0023356D01*
X0158648Y0023356D01*
X0160228Y0022701D01*
X0161438Y0021492D01*
X0162093Y0019911D01*
X0162093Y0018201D01*
X0161438Y0016620D01*
X0160228Y0015411D01*
X0158648Y0014756D01*
X0156937Y0014756D01*
X0155278Y0015490D02*
X0048672Y0015490D01*
X0048672Y0016088D02*
X0154679Y0016088D01*
X0154120Y0016687D02*
X0048672Y0016687D01*
X0048672Y0017285D02*
X0116024Y0017285D01*
X0115687Y0017441D02*
X0116793Y0016930D01*
X0116793Y0016929D01*
X0116794Y0016929D01*
X0117091Y0016792D01*
X0117699Y0016847D01*
X0118306Y0016792D01*
X0118306Y0016792D01*
X0118604Y0016929D01*
X0118604Y0016929D01*
X0118605Y0016930D01*
X0119711Y0017441D01*
X0120603Y0018705D01*
X0120603Y0018705D01*
X0120614Y0018827D01*
X0120680Y0018893D01*
X0120680Y0019557D01*
X0120740Y0020218D01*
X0120717Y0020246D01*
X0120771Y0020517D01*
X0120771Y0020529D01*
X0120680Y0020529D01*
X0120680Y0021110D01*
X0120771Y0021110D01*
X0120771Y0021122D01*
X0120717Y0021393D01*
X0120740Y0021421D01*
X0120680Y0022082D01*
X0120680Y0022746D01*
X0120614Y0022813D01*
X0120603Y0022934D01*
X0119711Y0024199D01*
X0118605Y0024710D01*
X0118604Y0024710D01*
X0118306Y0024848D01*
X0117699Y0024792D01*
X0117091Y0024848D01*
X0116794Y0024710D01*
X0116793Y0024710D01*
X0115687Y0024199D01*
X0114795Y0022934D01*
X0114784Y0022813D01*
X0114718Y0022746D01*
X0114718Y0022082D01*
X0114658Y0021421D01*
X0114681Y0021393D01*
X0114627Y0021122D01*
X0114627Y0021110D01*
X0114718Y0021110D01*
X0114718Y0020529D01*
X0114627Y0020529D01*
X0114627Y0020517D01*
X0114681Y0020246D01*
X0114658Y0020218D01*
X0114718Y0019557D01*
X0114718Y0018893D01*
X0114784Y0018827D01*
X0114795Y0018705D01*
X0115687Y0017441D01*
X0115687Y0017441D01*
X0115687Y0017441D01*
X0115375Y0017884D02*
X0048672Y0017884D01*
X0048672Y0018482D02*
X0114953Y0018482D01*
X0114795Y0018705D02*
X0114795Y0018705D01*
X0114718Y0019081D02*
X0048672Y0019081D01*
X0048672Y0019679D02*
X0114707Y0019679D01*
X0114675Y0020278D02*
X0048672Y0020278D01*
X0048672Y0020876D02*
X0114718Y0020876D01*
X0114663Y0021475D02*
X0091692Y0021475D01*
X0091454Y0021376D02*
X0092528Y0021821D01*
X0093351Y0022644D01*
X0093796Y0023718D01*
X0093796Y0024882D01*
X0093351Y0025956D01*
X0092528Y0026779D01*
X0091454Y0027224D01*
X0090290Y0027224D01*
X0089216Y0026779D01*
X0088393Y0025956D01*
X0088372Y0025905D01*
X0088351Y0025956D01*
X0087528Y0026779D01*
X0086454Y0027224D01*
X0085290Y0027224D01*
X0084216Y0026779D01*
X0083393Y0025956D01*
X0082948Y0024882D01*
X0082948Y0023718D01*
X0083393Y0022644D01*
X0084216Y0021821D01*
X0085290Y0021376D01*
X0086454Y0021376D01*
X0087528Y0021821D01*
X0088351Y0022644D01*
X0088372Y0022695D01*
X0088393Y0022644D01*
X0089216Y0021821D01*
X0090290Y0021376D01*
X0091454Y0021376D01*
X0090052Y0021475D02*
X0086692Y0021475D01*
X0087780Y0022073D02*
X0088964Y0022073D01*
X0088382Y0022672D02*
X0088363Y0022672D01*
X0092780Y0022073D02*
X0114717Y0022073D01*
X0114718Y0022672D02*
X0093363Y0022672D01*
X0093610Y0023270D02*
X0115032Y0023270D01*
X0114795Y0022934D02*
X0114795Y0022934D01*
X0115454Y0023869D02*
X0093796Y0023869D01*
X0093796Y0024467D02*
X0116268Y0024467D01*
X0116793Y0024710D02*
X0116793Y0024710D01*
X0117091Y0024848D02*
X0117091Y0024848D01*
X0118306Y0024848D02*
X0118306Y0024848D01*
X0118604Y0024710D02*
X0118604Y0024710D01*
X0119129Y0024467D02*
X0144615Y0024467D01*
X0145140Y0024710D02*
X0144033Y0024199D01*
X0144033Y0024199D01*
X0144033Y0024199D01*
X0143142Y0022934D01*
X0143131Y0022813D01*
X0143064Y0022746D01*
X0143064Y0022082D01*
X0143004Y0021421D01*
X0143028Y0021393D01*
X0142974Y0021122D01*
X0142974Y0021110D01*
X0143064Y0021110D01*
X0143064Y0020529D01*
X0142974Y0020529D01*
X0142974Y0020517D01*
X0143028Y0020246D01*
X0143004Y0020218D01*
X0143064Y0019557D01*
X0143064Y0018893D01*
X0143131Y0018827D01*
X0143142Y0018705D01*
X0144033Y0017441D01*
X0144033Y0017441D01*
X0144033Y0017441D01*
X0145140Y0016930D01*
X0145140Y0016929D01*
X0145140Y0016929D01*
X0145438Y0016792D01*
X0146045Y0016847D01*
X0146653Y0016792D01*
X0146950Y0016929D01*
X0146951Y0016929D01*
X0146951Y0016930D01*
X0148057Y0017441D01*
X0148057Y0017441D01*
X0148949Y0018705D01*
X0148949Y0018705D01*
X0148960Y0018827D01*
X0149026Y0018893D01*
X0149026Y0019557D01*
X0149087Y0020218D01*
X0149063Y0020246D01*
X0149117Y0020517D01*
X0149117Y0020529D01*
X0149026Y0020529D01*
X0149026Y0021110D01*
X0149117Y0021110D01*
X0149117Y0021122D01*
X0149063Y0021393D01*
X0149087Y0021421D01*
X0149026Y0022082D01*
X0149026Y0022746D01*
X0148960Y0022813D01*
X0148949Y0022934D01*
X0148949Y0022934D01*
X0148057Y0024199D01*
X0146951Y0024710D01*
X0146951Y0024710D01*
X0146950Y0024710D01*
X0146653Y0024848D01*
X0146653Y0024848D01*
X0146045Y0024792D01*
X0145438Y0024848D01*
X0145140Y0024710D01*
X0145140Y0024710D01*
X0145140Y0024710D01*
X0145438Y0024848D02*
X0145438Y0024848D01*
X0143801Y0023869D02*
X0119943Y0023869D01*
X0119711Y0024199D02*
X0119711Y0024199D01*
X0119711Y0024199D01*
X0120366Y0023270D02*
X0143379Y0023270D01*
X0143142Y0022934D02*
X0143142Y0022934D01*
X0143064Y0022672D02*
X0120680Y0022672D01*
X0120603Y0022934D02*
X0120603Y0022934D01*
X0120681Y0022073D02*
X0143063Y0022073D01*
X0143009Y0021475D02*
X0120735Y0021475D01*
X0120680Y0020876D02*
X0143064Y0020876D01*
X0143021Y0020278D02*
X0120723Y0020278D01*
X0120691Y0019679D02*
X0143053Y0019679D01*
X0143064Y0019081D02*
X0120680Y0019081D01*
X0120445Y0018482D02*
X0143299Y0018482D01*
X0143142Y0018705D02*
X0143142Y0018705D01*
X0143721Y0017884D02*
X0120023Y0017884D01*
X0119711Y0017441D02*
X0119711Y0017441D01*
X0119711Y0017441D01*
X0119374Y0017285D02*
X0144370Y0017285D01*
X0145438Y0016792D02*
X0145438Y0016792D01*
X0147720Y0017285D02*
X0153872Y0017285D01*
X0153624Y0017884D02*
X0148370Y0017884D01*
X0148792Y0018482D02*
X0153493Y0018482D01*
X0153493Y0019081D02*
X0149026Y0019081D01*
X0149038Y0019679D02*
X0153493Y0019679D01*
X0153644Y0020278D02*
X0149069Y0020278D01*
X0149026Y0020876D02*
X0153892Y0020876D01*
X0154140Y0021475D02*
X0149082Y0021475D01*
X0149027Y0022073D02*
X0154729Y0022073D01*
X0155327Y0022672D02*
X0149026Y0022672D01*
X0148712Y0023270D02*
X0156730Y0023270D01*
X0158855Y0023270D02*
X0160523Y0023270D01*
X0160483Y0023310D02*
X0161883Y0021911D01*
X0163862Y0021911D01*
X0165261Y0023310D01*
X0165261Y0025290D01*
X0163862Y0026689D01*
X0161883Y0026689D01*
X0160483Y0025290D01*
X0160483Y0023310D01*
X0160483Y0023869D02*
X0148290Y0023869D01*
X0148057Y0024199D02*
X0148057Y0024199D01*
X0148057Y0024199D01*
X0147476Y0024467D02*
X0160483Y0024467D01*
X0160483Y0025066D02*
X0093720Y0025066D01*
X0093472Y0025664D02*
X0122336Y0025664D01*
X0122395Y0025606D02*
X0123563Y0025122D01*
X0124827Y0025122D01*
X0125995Y0025606D01*
X0126889Y0026500D01*
X0127373Y0027668D01*
X0127373Y0028932D01*
X0126889Y0030100D01*
X0125995Y0030994D01*
X0124827Y0031478D01*
X0123563Y0031478D01*
X0122395Y0030994D01*
X0122015Y0030615D01*
X0122118Y0030861D01*
X0122247Y0031512D01*
X0122247Y0031543D01*
X0119180Y0031543D01*
X0119180Y0028476D01*
X0119212Y0028476D01*
X0119862Y0028606D01*
X0120475Y0028860D01*
X0121026Y0029228D01*
X0121220Y0029421D01*
X0121017Y0028932D01*
X0121017Y0027668D01*
X0121501Y0026500D01*
X0122395Y0025606D01*
X0121738Y0026263D02*
X0093044Y0026263D01*
X0092329Y0026861D02*
X0121351Y0026861D01*
X0121103Y0027460D02*
X0107225Y0027460D01*
X0106862Y0027096D02*
X0108261Y0028495D01*
X0108261Y0030475D01*
X0106862Y0031874D01*
X0104883Y0031874D01*
X0103483Y0030475D01*
X0103483Y0028495D01*
X0104883Y0027096D01*
X0106862Y0027096D01*
X0107824Y0028058D02*
X0121017Y0028058D01*
X0121017Y0028657D02*
X0119985Y0028657D01*
X0119180Y0028657D02*
X0118580Y0028657D01*
X0118580Y0028476D02*
X0118580Y0031543D01*
X0119180Y0031543D01*
X0119180Y0032143D01*
X0122247Y0032143D01*
X0122247Y0032175D01*
X0122118Y0032825D01*
X0121864Y0033438D01*
X0121495Y0033990D01*
X0121026Y0034459D01*
X0120475Y0034827D01*
X0119862Y0035081D01*
X0119212Y0035210D01*
X0119180Y0035210D01*
X0119180Y0032143D01*
X0118580Y0032143D01*
X0118580Y0031543D01*
X0115513Y0031543D01*
X0115513Y0031512D01*
X0115642Y0030861D01*
X0115896Y0030248D01*
X0116265Y0029697D01*
X0116734Y0029228D01*
X0117285Y0028860D01*
X0117898Y0028606D01*
X0118548Y0028476D01*
X0118580Y0028476D01*
X0118580Y0029255D02*
X0119180Y0029255D01*
X0119180Y0029854D02*
X0118580Y0029854D01*
X0118580Y0030452D02*
X0119180Y0030452D01*
X0119180Y0031051D02*
X0118580Y0031051D01*
X0118580Y0031649D02*
X0107086Y0031649D01*
X0107685Y0031051D02*
X0115605Y0031051D01*
X0115812Y0030452D02*
X0108261Y0030452D01*
X0108261Y0029854D02*
X0116160Y0029854D01*
X0116706Y0029255D02*
X0108261Y0029255D01*
X0108261Y0028657D02*
X0117775Y0028657D01*
X0119180Y0031649D02*
X0144564Y0031649D01*
X0144564Y0031543D02*
X0141497Y0031543D01*
X0141497Y0031512D01*
X0141627Y0030861D01*
X0141729Y0030615D01*
X0141349Y0030994D01*
X0140181Y0031478D01*
X0138917Y0031478D01*
X0137749Y0030994D01*
X0136855Y0030100D01*
X0136371Y0028932D01*
X0136371Y0027668D01*
X0136855Y0026500D01*
X0137749Y0025606D01*
X0138917Y0025122D01*
X0140181Y0025122D01*
X0141349Y0025606D01*
X0142243Y0026500D01*
X0142727Y0027668D01*
X0142727Y0028932D01*
X0142525Y0029421D01*
X0142718Y0029228D01*
X0143269Y0028860D01*
X0143882Y0028606D01*
X0144533Y0028476D01*
X0144564Y0028476D01*
X0144564Y0031543D01*
X0145164Y0031543D01*
X0145164Y0028476D01*
X0145196Y0028476D01*
X0145846Y0028606D01*
X0146459Y0028860D01*
X0147011Y0029228D01*
X0147479Y0029697D01*
X0147848Y0030248D01*
X0148102Y0030861D01*
X0148231Y0031512D01*
X0148231Y0031543D01*
X0145164Y0031543D01*
X0145164Y0032143D01*
X0148231Y0032143D01*
X0148231Y0032175D01*
X0148102Y0032825D01*
X0147848Y0033438D01*
X0147479Y0033990D01*
X0147011Y0034459D01*
X0146459Y0034827D01*
X0145846Y0035081D01*
X0145196Y0035210D01*
X0145164Y0035210D01*
X0145164Y0032143D01*
X0144564Y0032143D01*
X0144564Y0031543D01*
X0144564Y0031051D02*
X0145164Y0031051D01*
X0145164Y0031649D02*
X0199447Y0031649D01*
X0199290Y0031492D02*
X0198635Y0029911D01*
X0198635Y0028201D01*
X0199290Y0026620D01*
X0200499Y0025411D01*
X0202080Y0024756D01*
X0203790Y0024756D01*
X0205371Y0025411D01*
X0206580Y0026620D01*
X0207235Y0028201D01*
X0207235Y0029911D01*
X0206580Y0031492D01*
X0205371Y0032701D01*
X0203790Y0033356D01*
X0202080Y0033356D01*
X0200499Y0032701D01*
X0199290Y0031492D01*
X0199107Y0031051D02*
X0148139Y0031051D01*
X0147932Y0030452D02*
X0155646Y0030452D01*
X0155883Y0030689D02*
X0154483Y0029290D01*
X0154483Y0027310D01*
X0155883Y0025911D01*
X0157862Y0025911D01*
X0159261Y0027310D01*
X0159261Y0029290D01*
X0157862Y0030689D01*
X0155883Y0030689D01*
X0155047Y0029854D02*
X0147584Y0029854D01*
X0147038Y0029255D02*
X0154483Y0029255D01*
X0154483Y0028657D02*
X0145970Y0028657D01*
X0145164Y0028657D02*
X0144564Y0028657D01*
X0144564Y0029255D02*
X0145164Y0029255D01*
X0145164Y0029854D02*
X0144564Y0029854D01*
X0144564Y0030452D02*
X0145164Y0030452D01*
X0144564Y0032143D02*
X0141497Y0032143D01*
X0141497Y0032175D01*
X0141627Y0032825D01*
X0141880Y0033438D01*
X0142249Y0033990D01*
X0142718Y0034459D01*
X0143269Y0034827D01*
X0143882Y0035081D01*
X0144533Y0035210D01*
X0144564Y0035210D01*
X0144564Y0032143D01*
X0144564Y0032248D02*
X0145164Y0032248D01*
X0145164Y0032846D02*
X0144564Y0032846D01*
X0144564Y0033445D02*
X0145164Y0033445D01*
X0145164Y0034043D02*
X0144564Y0034043D01*
X0144564Y0034642D02*
X0145164Y0034642D01*
X0146736Y0034642D02*
X0220072Y0034642D01*
X0220072Y0035240D02*
X0214960Y0035240D01*
X0215371Y0035411D02*
X0216580Y0036620D01*
X0217235Y0038201D01*
X0217235Y0039911D01*
X0216580Y0041492D01*
X0215371Y0042701D01*
X0213790Y0043356D01*
X0212080Y0043356D01*
X0210499Y0042701D01*
X0209290Y0041492D01*
X0208635Y0039911D01*
X0208635Y0038201D01*
X0209290Y0036620D01*
X0210499Y0035411D01*
X0212080Y0034756D01*
X0213790Y0034756D01*
X0215371Y0035411D01*
X0215799Y0035839D02*
X0220072Y0035839D01*
X0220072Y0036437D02*
X0216398Y0036437D01*
X0216753Y0037036D02*
X0220072Y0037036D01*
X0220072Y0037634D02*
X0217001Y0037634D01*
X0217235Y0038233D02*
X0220072Y0038233D01*
X0220072Y0038832D02*
X0217235Y0038832D01*
X0217235Y0039430D02*
X0220072Y0039430D01*
X0220072Y0040029D02*
X0217187Y0040029D01*
X0216939Y0040627D02*
X0220072Y0040627D01*
X0220072Y0041226D02*
X0216691Y0041226D01*
X0216248Y0041824D02*
X0220072Y0041824D01*
X0220072Y0042423D02*
X0215650Y0042423D01*
X0214599Y0043021D02*
X0220072Y0043021D01*
X0220072Y0043620D02*
X0153793Y0043620D01*
X0153724Y0043689D02*
X0151745Y0043689D01*
X0150345Y0042290D01*
X0150345Y0040310D01*
X0151745Y0038911D01*
X0153724Y0038911D01*
X0155123Y0040310D01*
X0155123Y0042290D01*
X0153724Y0043689D01*
X0154392Y0043021D02*
X0201272Y0043021D01*
X0200499Y0042701D02*
X0199290Y0041492D01*
X0198635Y0039911D01*
X0198635Y0038201D01*
X0199290Y0036620D01*
X0200499Y0035411D01*
X0202080Y0034756D01*
X0203790Y0034756D01*
X0205371Y0035411D01*
X0206580Y0036620D01*
X0207235Y0038201D01*
X0207235Y0039911D01*
X0206580Y0041492D01*
X0205371Y0042701D01*
X0203790Y0043356D01*
X0202080Y0043356D01*
X0200499Y0042701D01*
X0200221Y0042423D02*
X0197431Y0042423D01*
X0196936Y0042918D02*
X0194957Y0042918D01*
X0193795Y0041756D01*
X0192689Y0042862D01*
X0190710Y0042862D01*
X0189310Y0041463D01*
X0189310Y0039483D01*
X0190710Y0038084D01*
X0192689Y0038084D01*
X0193850Y0039246D01*
X0194957Y0038140D01*
X0196936Y0038140D01*
X0198335Y0039539D01*
X0198335Y0041518D01*
X0196936Y0042918D01*
X0198029Y0041824D02*
X0199622Y0041824D01*
X0199180Y0041226D02*
X0198335Y0041226D01*
X0198335Y0040627D02*
X0198932Y0040627D01*
X0198684Y0040029D02*
X0198335Y0040029D01*
X0198226Y0039430D02*
X0198635Y0039430D01*
X0198635Y0038832D02*
X0197627Y0038832D01*
X0197029Y0038233D02*
X0198635Y0038233D01*
X0198870Y0037634D02*
X0048672Y0037634D01*
X0048672Y0037036D02*
X0199117Y0037036D01*
X0199472Y0036437D02*
X0048672Y0036437D01*
X0048672Y0035839D02*
X0200071Y0035839D01*
X0200910Y0035240D02*
X0048672Y0035240D01*
X0048672Y0034642D02*
X0117008Y0034642D01*
X0116734Y0034459D02*
X0116265Y0033990D01*
X0115896Y0033438D01*
X0115642Y0032825D01*
X0115513Y0032175D01*
X0115513Y0032143D01*
X0118580Y0032143D01*
X0118580Y0035210D01*
X0118548Y0035210D01*
X0117898Y0035081D01*
X0117285Y0034827D01*
X0116734Y0034459D01*
X0116319Y0034043D02*
X0048672Y0034043D01*
X0048672Y0033445D02*
X0115901Y0033445D01*
X0115651Y0032846D02*
X0048672Y0032846D01*
X0048672Y0032248D02*
X0115528Y0032248D01*
X0118580Y0032248D02*
X0119180Y0032248D01*
X0119180Y0032846D02*
X0118580Y0032846D01*
X0118580Y0033445D02*
X0119180Y0033445D01*
X0119180Y0034043D02*
X0118580Y0034043D01*
X0118580Y0034642D02*
X0119180Y0034642D01*
X0120752Y0034642D02*
X0142992Y0034642D01*
X0142303Y0034043D02*
X0121441Y0034043D01*
X0121859Y0033445D02*
X0141885Y0033445D01*
X0141635Y0032846D02*
X0122109Y0032846D01*
X0122232Y0032248D02*
X0141512Y0032248D01*
X0141589Y0031051D02*
X0141212Y0031051D01*
X0142593Y0029255D02*
X0142691Y0029255D01*
X0142727Y0028657D02*
X0143759Y0028657D01*
X0142727Y0028058D02*
X0154483Y0028058D01*
X0154483Y0027460D02*
X0142641Y0027460D01*
X0142393Y0026861D02*
X0154932Y0026861D01*
X0155531Y0026263D02*
X0142006Y0026263D01*
X0141408Y0025664D02*
X0160858Y0025664D01*
X0161456Y0026263D02*
X0158213Y0026263D01*
X0158812Y0026861D02*
X0199190Y0026861D01*
X0198942Y0027460D02*
X0159261Y0027460D01*
X0159261Y0028058D02*
X0198694Y0028058D01*
X0198635Y0028657D02*
X0159261Y0028657D01*
X0159261Y0029255D02*
X0198635Y0029255D01*
X0198635Y0029854D02*
X0158697Y0029854D01*
X0158098Y0030452D02*
X0198859Y0030452D01*
X0200046Y0032248D02*
X0148217Y0032248D01*
X0148093Y0032846D02*
X0200850Y0032846D01*
X0205020Y0032846D02*
X0210850Y0032846D01*
X0210499Y0032701D02*
X0209290Y0031492D01*
X0208635Y0029911D01*
X0208635Y0028201D01*
X0209290Y0026620D01*
X0210499Y0025411D01*
X0212080Y0024756D01*
X0213790Y0024756D01*
X0215371Y0025411D01*
X0216580Y0026620D01*
X0217235Y0028201D01*
X0217235Y0029911D01*
X0216580Y0031492D01*
X0215371Y0032701D01*
X0213790Y0033356D01*
X0212080Y0033356D01*
X0210499Y0032701D01*
X0210046Y0032248D02*
X0205824Y0032248D01*
X0206423Y0031649D02*
X0209447Y0031649D01*
X0209107Y0031051D02*
X0206763Y0031051D01*
X0207011Y0030452D02*
X0208859Y0030452D01*
X0208635Y0029854D02*
X0207235Y0029854D01*
X0207235Y0029255D02*
X0208635Y0029255D01*
X0208635Y0028657D02*
X0207235Y0028657D01*
X0207176Y0028058D02*
X0208694Y0028058D01*
X0208942Y0027460D02*
X0206928Y0027460D01*
X0206680Y0026861D02*
X0209190Y0026861D01*
X0209647Y0026263D02*
X0206223Y0026263D01*
X0205625Y0025664D02*
X0210246Y0025664D01*
X0211332Y0025066D02*
X0204538Y0025066D01*
X0203790Y0023356D02*
X0202080Y0023356D01*
X0200499Y0022701D01*
X0199290Y0021492D01*
X0198635Y0019911D01*
X0198635Y0018201D01*
X0199290Y0016620D01*
X0200499Y0015411D01*
X0202080Y0014756D01*
X0203790Y0014756D01*
X0205371Y0015411D01*
X0206580Y0016620D01*
X0207235Y0018201D01*
X0207235Y0019911D01*
X0206580Y0021492D01*
X0205371Y0022701D01*
X0203790Y0023356D01*
X0203997Y0023270D02*
X0211873Y0023270D01*
X0212080Y0023356D02*
X0210499Y0022701D01*
X0209290Y0021492D01*
X0208635Y0019911D01*
X0208635Y0018201D01*
X0209290Y0016620D01*
X0210499Y0015411D01*
X0212080Y0014756D01*
X0213790Y0014756D01*
X0215371Y0015411D01*
X0216580Y0016620D01*
X0217235Y0018201D01*
X0217235Y0019911D01*
X0216580Y0021492D01*
X0215371Y0022701D01*
X0213790Y0023356D01*
X0212080Y0023356D01*
X0210470Y0022672D02*
X0205400Y0022672D01*
X0205999Y0022073D02*
X0209871Y0022073D01*
X0209283Y0021475D02*
X0206587Y0021475D01*
X0206835Y0020876D02*
X0209035Y0020876D01*
X0208787Y0020278D02*
X0207083Y0020278D01*
X0207235Y0019679D02*
X0208635Y0019679D01*
X0208635Y0019081D02*
X0207235Y0019081D01*
X0207235Y0018482D02*
X0208635Y0018482D01*
X0208766Y0017884D02*
X0207104Y0017884D01*
X0206856Y0017285D02*
X0209014Y0017285D01*
X0209262Y0016687D02*
X0206608Y0016687D01*
X0206048Y0016088D02*
X0209822Y0016088D01*
X0210420Y0015490D02*
X0205450Y0015490D01*
X0204117Y0014891D02*
X0211753Y0014891D01*
X0214117Y0014891D02*
X0220072Y0014891D01*
X0220072Y0015490D02*
X0215450Y0015490D01*
X0216048Y0016088D02*
X0220072Y0016088D01*
X0220072Y0016687D02*
X0216608Y0016687D01*
X0216856Y0017285D02*
X0220072Y0017285D01*
X0220072Y0017884D02*
X0217104Y0017884D01*
X0217235Y0018482D02*
X0220072Y0018482D01*
X0220072Y0019081D02*
X0217235Y0019081D01*
X0217235Y0019679D02*
X0220072Y0019679D01*
X0220072Y0020278D02*
X0217083Y0020278D01*
X0216835Y0020876D02*
X0220072Y0020876D01*
X0220072Y0021475D02*
X0216587Y0021475D01*
X0215999Y0022073D02*
X0220072Y0022073D01*
X0220072Y0022672D02*
X0215400Y0022672D01*
X0213997Y0023270D02*
X0220072Y0023270D01*
X0220072Y0023869D02*
X0170261Y0023869D01*
X0170261Y0023310D02*
X0170261Y0025290D01*
X0168862Y0026689D01*
X0166883Y0026689D01*
X0165483Y0025290D01*
X0165483Y0023310D01*
X0165877Y0022917D01*
X0165357Y0022701D01*
X0164147Y0021492D01*
X0163493Y0019911D01*
X0163493Y0018201D01*
X0164147Y0016620D01*
X0165357Y0015411D01*
X0166937Y0014756D01*
X0168648Y0014756D01*
X0170228Y0015411D01*
X0171438Y0016620D01*
X0172093Y0018201D01*
X0172093Y0019911D01*
X0171438Y0021492D01*
X0170228Y0022701D01*
X0169821Y0022870D01*
X0170261Y0023310D01*
X0170221Y0023270D02*
X0184464Y0023270D01*
X0184883Y0023689D02*
X0183483Y0022290D01*
X0183483Y0020310D01*
X0184883Y0018911D01*
X0186862Y0018911D01*
X0188261Y0020310D01*
X0188261Y0022290D01*
X0186862Y0023689D01*
X0184883Y0023689D01*
X0183865Y0022672D02*
X0170258Y0022672D01*
X0170856Y0022073D02*
X0183483Y0022073D01*
X0183483Y0021475D02*
X0171445Y0021475D01*
X0171693Y0020876D02*
X0183483Y0020876D01*
X0183516Y0020278D02*
X0171941Y0020278D01*
X0172093Y0019679D02*
X0184114Y0019679D01*
X0184713Y0019081D02*
X0172093Y0019081D01*
X0172093Y0018482D02*
X0198635Y0018482D01*
X0198635Y0019081D02*
X0187031Y0019081D01*
X0187630Y0019679D02*
X0198635Y0019679D01*
X0198787Y0020278D02*
X0188228Y0020278D01*
X0188261Y0020876D02*
X0199035Y0020876D01*
X0199283Y0021475D02*
X0188261Y0021475D01*
X0188261Y0022073D02*
X0199871Y0022073D01*
X0200470Y0022672D02*
X0187879Y0022672D01*
X0187280Y0023270D02*
X0201873Y0023270D01*
X0201332Y0025066D02*
X0170261Y0025066D01*
X0170261Y0024467D02*
X0220072Y0024467D01*
X0220072Y0025066D02*
X0214538Y0025066D01*
X0215625Y0025664D02*
X0220072Y0025664D01*
X0220072Y0026263D02*
X0216223Y0026263D01*
X0216680Y0026861D02*
X0220072Y0026861D01*
X0220072Y0027460D02*
X0216928Y0027460D01*
X0217176Y0028058D02*
X0220072Y0028058D01*
X0220072Y0028657D02*
X0217235Y0028657D01*
X0217235Y0029255D02*
X0220072Y0029255D01*
X0220072Y0029854D02*
X0217235Y0029854D01*
X0217011Y0030452D02*
X0220072Y0030452D01*
X0220072Y0031051D02*
X0216763Y0031051D01*
X0216423Y0031649D02*
X0220072Y0031649D01*
X0220072Y0032248D02*
X0215824Y0032248D01*
X0215020Y0032846D02*
X0220072Y0032846D01*
X0220072Y0033445D02*
X0147843Y0033445D01*
X0147426Y0034043D02*
X0220072Y0034043D01*
X0210910Y0035240D02*
X0204960Y0035240D01*
X0205799Y0035839D02*
X0210071Y0035839D01*
X0209472Y0036437D02*
X0206398Y0036437D01*
X0206753Y0037036D02*
X0209117Y0037036D01*
X0208870Y0037634D02*
X0207001Y0037634D01*
X0207235Y0038233D02*
X0208635Y0038233D01*
X0208635Y0038832D02*
X0207235Y0038832D01*
X0207235Y0039430D02*
X0208635Y0039430D01*
X0208684Y0040029D02*
X0207187Y0040029D01*
X0206939Y0040627D02*
X0208932Y0040627D01*
X0209180Y0041226D02*
X0206691Y0041226D01*
X0206248Y0041824D02*
X0209622Y0041824D01*
X0210221Y0042423D02*
X0205650Y0042423D01*
X0204599Y0043021D02*
X0211272Y0043021D01*
X0211933Y0044817D02*
X0203937Y0044817D01*
X0203790Y0044756D02*
X0205371Y0045411D01*
X0206580Y0046620D01*
X0207235Y0048201D01*
X0207235Y0049911D01*
X0206580Y0051492D01*
X0205371Y0052701D01*
X0203790Y0053356D01*
X0202080Y0053356D01*
X0200499Y0052701D01*
X0199290Y0051492D01*
X0198635Y0049911D01*
X0198635Y0048201D01*
X0199290Y0046620D01*
X0200499Y0045411D01*
X0202080Y0044756D01*
X0203790Y0044756D01*
X0205375Y0045415D02*
X0210495Y0045415D01*
X0210499Y0045411D02*
X0212080Y0044756D01*
X0213790Y0044756D01*
X0215371Y0045411D01*
X0216580Y0046620D01*
X0217235Y0048201D01*
X0217235Y0049911D01*
X0216580Y0051492D01*
X0215371Y0052701D01*
X0213790Y0053356D01*
X0212080Y0053356D01*
X0210499Y0052701D01*
X0209290Y0051492D01*
X0208635Y0049911D01*
X0208635Y0048201D01*
X0209290Y0046620D01*
X0210499Y0045411D01*
X0209896Y0046014D02*
X0205974Y0046014D01*
X0206572Y0046612D02*
X0209298Y0046612D01*
X0209045Y0047211D02*
X0206825Y0047211D01*
X0207073Y0047809D02*
X0208797Y0047809D01*
X0208635Y0048408D02*
X0207235Y0048408D01*
X0207235Y0049006D02*
X0208635Y0049006D01*
X0208635Y0049605D02*
X0207235Y0049605D01*
X0207114Y0050203D02*
X0208756Y0050203D01*
X0209004Y0050802D02*
X0206866Y0050802D01*
X0206618Y0051400D02*
X0209252Y0051400D01*
X0209797Y0051999D02*
X0206073Y0051999D01*
X0205475Y0052597D02*
X0210395Y0052597D01*
X0211693Y0053196D02*
X0204177Y0053196D01*
X0203790Y0054756D02*
X0205371Y0055411D01*
X0206580Y0056620D01*
X0207235Y0058201D01*
X0207235Y0059911D01*
X0206580Y0061492D01*
X0205371Y0062701D01*
X0203790Y0063356D01*
X0202080Y0063356D01*
X0200499Y0062701D01*
X0199290Y0061492D01*
X0198635Y0059911D01*
X0198635Y0058201D01*
X0199290Y0056620D01*
X0200499Y0055411D01*
X0202080Y0054756D01*
X0203790Y0054756D01*
X0204359Y0054991D02*
X0211511Y0054991D01*
X0212080Y0054756D02*
X0210499Y0055411D01*
X0209290Y0056620D01*
X0208635Y0058201D01*
X0208635Y0059911D01*
X0209290Y0061492D01*
X0210499Y0062701D01*
X0212080Y0063356D01*
X0213790Y0063356D01*
X0215371Y0062701D01*
X0216580Y0061492D01*
X0217235Y0059911D01*
X0217235Y0058201D01*
X0216580Y0056620D01*
X0215371Y0055411D01*
X0213790Y0054756D01*
X0212080Y0054756D01*
X0210320Y0055590D02*
X0205550Y0055590D01*
X0206149Y0056188D02*
X0209722Y0056188D01*
X0209221Y0056787D02*
X0206650Y0056787D01*
X0206897Y0057385D02*
X0208973Y0057385D01*
X0208725Y0057984D02*
X0207145Y0057984D01*
X0207235Y0058582D02*
X0208635Y0058582D01*
X0208635Y0059181D02*
X0207235Y0059181D01*
X0207235Y0059779D02*
X0208635Y0059779D01*
X0208828Y0060378D02*
X0207042Y0060378D01*
X0206794Y0060976D02*
X0209076Y0060976D01*
X0209373Y0061575D02*
X0206497Y0061575D01*
X0205899Y0062173D02*
X0209972Y0062173D01*
X0210670Y0062772D02*
X0205200Y0062772D01*
X0204781Y0065166D02*
X0211090Y0065166D01*
X0210499Y0065411D02*
X0212080Y0064756D01*
X0213790Y0064756D01*
X0215371Y0065411D01*
X0216580Y0066620D01*
X0217235Y0068201D01*
X0217235Y0069911D01*
X0216580Y0071492D01*
X0215371Y0072701D01*
X0213790Y0073356D01*
X0212080Y0073356D01*
X0210499Y0072701D01*
X0209290Y0071492D01*
X0208635Y0069911D01*
X0208635Y0068201D01*
X0209290Y0066620D01*
X0210499Y0065411D01*
X0210145Y0065765D02*
X0205725Y0065765D01*
X0205371Y0065411D02*
X0206580Y0066620D01*
X0207235Y0068201D01*
X0207235Y0069911D01*
X0206580Y0071492D01*
X0205371Y0072701D01*
X0203790Y0073356D01*
X0202080Y0073356D01*
X0200499Y0072701D01*
X0199290Y0071492D01*
X0198635Y0069911D01*
X0198635Y0068201D01*
X0199290Y0066620D01*
X0200499Y0065411D01*
X0202080Y0064756D01*
X0203790Y0064756D01*
X0205371Y0065411D01*
X0206323Y0066363D02*
X0209547Y0066363D01*
X0209148Y0066962D02*
X0206722Y0066962D01*
X0206970Y0067560D02*
X0208900Y0067560D01*
X0208652Y0068159D02*
X0207218Y0068159D01*
X0207235Y0068757D02*
X0208635Y0068757D01*
X0208635Y0069356D02*
X0207235Y0069356D01*
X0207217Y0069954D02*
X0208653Y0069954D01*
X0208901Y0070553D02*
X0206969Y0070553D01*
X0206722Y0071151D02*
X0209149Y0071151D01*
X0209548Y0071750D02*
X0206322Y0071750D01*
X0205724Y0072348D02*
X0210146Y0072348D01*
X0211092Y0072947D02*
X0204778Y0072947D01*
X0201092Y0072947D02*
X0159261Y0072947D01*
X0159261Y0073290D02*
X0158640Y0073911D01*
X0159862Y0073911D01*
X0161261Y0075310D01*
X0161261Y0077290D01*
X0159862Y0078689D01*
X0157883Y0078689D01*
X0156483Y0077290D01*
X0156483Y0075310D01*
X0157105Y0074689D01*
X0155883Y0074689D01*
X0154483Y0073290D01*
X0154483Y0071310D01*
X0155883Y0069911D01*
X0157862Y0069911D01*
X0159261Y0071310D01*
X0159261Y0073290D01*
X0159005Y0073545D02*
X0220072Y0073545D01*
X0220072Y0072947D02*
X0214778Y0072947D01*
X0215724Y0072348D02*
X0220072Y0072348D01*
X0220072Y0071750D02*
X0216322Y0071750D01*
X0216722Y0071151D02*
X0220072Y0071151D01*
X0220072Y0070553D02*
X0216969Y0070553D01*
X0217217Y0069954D02*
X0220072Y0069954D01*
X0220072Y0069356D02*
X0217235Y0069356D01*
X0217235Y0068757D02*
X0220072Y0068757D01*
X0220072Y0068159D02*
X0217218Y0068159D01*
X0216970Y0067560D02*
X0220072Y0067560D01*
X0220072Y0066962D02*
X0216722Y0066962D01*
X0216323Y0066363D02*
X0220072Y0066363D01*
X0220072Y0065765D02*
X0215725Y0065765D01*
X0214781Y0065166D02*
X0220072Y0065166D01*
X0220072Y0064568D02*
X0181518Y0064568D01*
X0182117Y0065166D02*
X0201090Y0065166D01*
X0200145Y0065765D02*
X0182261Y0065765D01*
X0182261Y0065310D02*
X0180862Y0063911D01*
X0178883Y0063911D01*
X0177483Y0065310D01*
X0177483Y0067290D01*
X0178883Y0068689D01*
X0180862Y0068689D01*
X0182261Y0067290D01*
X0182261Y0065310D01*
X0182261Y0066363D02*
X0199547Y0066363D01*
X0199148Y0066962D02*
X0182261Y0066962D01*
X0181991Y0067560D02*
X0198900Y0067560D01*
X0198652Y0068159D02*
X0181392Y0068159D01*
X0178352Y0068159D02*
X0098261Y0068159D01*
X0098261Y0068290D02*
X0096862Y0069689D01*
X0094883Y0069689D01*
X0093483Y0068290D01*
X0093483Y0066310D01*
X0094883Y0064911D01*
X0096862Y0064911D01*
X0098261Y0066310D01*
X0098261Y0068290D01*
X0097794Y0068757D02*
X0198635Y0068757D01*
X0198635Y0069356D02*
X0097195Y0069356D01*
X0098261Y0067560D02*
X0177754Y0067560D01*
X0177483Y0066962D02*
X0098261Y0066962D01*
X0098261Y0066363D02*
X0177483Y0066363D01*
X0177483Y0065765D02*
X0097715Y0065765D01*
X0097117Y0065166D02*
X0177628Y0065166D01*
X0178226Y0064568D02*
X0048672Y0064568D01*
X0048672Y0065166D02*
X0094628Y0065166D01*
X0094029Y0065765D02*
X0048672Y0065765D01*
X0048672Y0066363D02*
X0093483Y0066363D01*
X0093483Y0066962D02*
X0090912Y0066962D01*
X0090862Y0066911D02*
X0092261Y0068310D01*
X0092261Y0070290D01*
X0090862Y0071689D01*
X0088883Y0071689D01*
X0087483Y0070290D01*
X0087483Y0068310D01*
X0088883Y0066911D01*
X0090862Y0066911D01*
X0091511Y0067560D02*
X0093483Y0067560D01*
X0093483Y0068159D02*
X0092109Y0068159D01*
X0092261Y0068757D02*
X0093951Y0068757D01*
X0094549Y0069356D02*
X0092261Y0069356D01*
X0092261Y0069954D02*
X0155839Y0069954D01*
X0155241Y0070553D02*
X0091998Y0070553D01*
X0091399Y0071151D02*
X0154642Y0071151D01*
X0154483Y0071750D02*
X0080673Y0071750D01*
X0080692Y0071871D02*
X0080692Y0071906D01*
X0076739Y0071906D01*
X0076739Y0072505D01*
X0080692Y0072505D01*
X0080692Y0072540D01*
X0080587Y0073201D01*
X0080380Y0073838D01*
X0080076Y0074434D01*
X0079683Y0074976D01*
X0079210Y0075449D01*
X0078668Y0075843D01*
X0078080Y0076143D01*
X0078668Y0076442D01*
X0079210Y0076836D01*
X0079683Y0077309D01*
X0080076Y0077851D01*
X0080380Y0078447D01*
X0080587Y0079084D01*
X0080692Y0079745D01*
X0080692Y0079780D01*
X0076739Y0079780D01*
X0076739Y0080380D01*
X0076139Y0080380D01*
X0076139Y0084332D01*
X0076139Y0087653D01*
X0076739Y0087653D01*
X0076739Y0080380D01*
X0080692Y0080380D01*
X0080692Y0080414D01*
X0080587Y0081075D01*
X0080380Y0081712D01*
X0080076Y0082308D01*
X0079683Y0082850D01*
X0079210Y0083323D01*
X0078668Y0083717D01*
X0078080Y0084017D01*
X0078668Y0084316D01*
X0079210Y0084710D01*
X0079683Y0085183D01*
X0080076Y0085725D01*
X0080380Y0086321D01*
X0080587Y0086958D01*
X0080692Y0087619D01*
X0080692Y0087654D01*
X0076739Y0087654D01*
X0076739Y0088254D01*
X0080692Y0088254D01*
X0080692Y0088288D01*
X0080587Y0088949D01*
X0080380Y0089586D01*
X0080076Y0090182D01*
X0079683Y0090724D01*
X0079210Y0091197D01*
X0078668Y0091591D01*
X0078072Y0091895D01*
X0078064Y0091897D01*
X0078848Y0092222D01*
X0080044Y0093419D01*
X0080692Y0094982D01*
X0080692Y0096673D01*
X0080044Y0098237D01*
X0078848Y0099433D01*
X0078047Y0099765D01*
X0078848Y0100096D01*
X0080044Y0101293D01*
X0080692Y0102856D01*
X0080692Y0104548D01*
X0080044Y0106111D01*
X0078848Y0107307D01*
X0078047Y0107639D01*
X0078848Y0107970D01*
X0080044Y0109167D01*
X0080692Y0110730D01*
X0080692Y0112422D01*
X0080044Y0113985D01*
X0078848Y0115181D01*
X0078047Y0115513D01*
X0078848Y0115844D01*
X0080044Y0117041D01*
X0080692Y0118604D01*
X0080692Y0120296D01*
X0080044Y0121859D01*
X0078848Y0123055D01*
X0078047Y0123387D01*
X0078848Y0123718D01*
X0080044Y0124915D01*
X0080692Y0126478D01*
X0080692Y0128170D01*
X0080044Y0129733D01*
X0078848Y0130929D01*
X0078047Y0131261D01*
X0078848Y0131592D01*
X0080044Y0132789D01*
X0080692Y0134352D01*
X0080692Y0136044D01*
X0080044Y0137607D01*
X0078848Y0138803D01*
X0078064Y0139128D01*
X0078072Y0139130D01*
X0078668Y0139434D01*
X0079210Y0139828D01*
X0079683Y0140301D01*
X0080076Y0140843D01*
X0080380Y0141439D01*
X0080587Y0142076D01*
X0080692Y0142737D01*
X0080692Y0142772D01*
X0076739Y0142772D01*
X0076739Y0143372D01*
X0080692Y0143372D01*
X0080692Y0143406D01*
X0080587Y0144068D01*
X0080380Y0144704D01*
X0080076Y0145301D01*
X0079683Y0145842D01*
X0079210Y0146315D01*
X0078668Y0146709D01*
X0078072Y0147013D01*
X0078064Y0147015D01*
X0078848Y0147340D01*
X0080044Y0148537D01*
X0080692Y0150100D01*
X0080692Y0151792D01*
X0080044Y0153355D01*
X0078848Y0154551D01*
X0078064Y0154876D01*
X0078072Y0154879D01*
X0078668Y0155182D01*
X0079210Y0155576D01*
X0079683Y0156049D01*
X0080076Y0156591D01*
X0080380Y0157187D01*
X0080587Y0157824D01*
X0080692Y0158485D01*
X0080692Y0158520D01*
X0076739Y0158520D01*
X0076739Y0159120D01*
X0080692Y0159120D01*
X0080692Y0159154D01*
X0080587Y0159816D01*
X0080380Y0160452D01*
X0080076Y0161049D01*
X0079683Y0161590D01*
X0079210Y0162063D01*
X0078668Y0162457D01*
X0078072Y0162761D01*
X0078064Y0162763D01*
X0078848Y0163088D01*
X0080044Y0164285D01*
X0080692Y0165848D01*
X0080692Y0167540D01*
X0080044Y0169103D01*
X0078848Y0170299D01*
X0078064Y0170624D01*
X0078072Y0170627D01*
X0078668Y0170930D01*
X0079210Y0171324D01*
X0079683Y0171797D01*
X0080076Y0172339D01*
X0080380Y0172935D01*
X0080587Y0173572D01*
X0080692Y0174233D01*
X0080692Y0174268D01*
X0076739Y0174268D01*
X0076739Y0174868D01*
X0080692Y0174868D01*
X0080692Y0174902D01*
X0080587Y0175564D01*
X0080380Y0176200D01*
X0080076Y0176797D01*
X0079683Y0177338D01*
X0079210Y0177812D01*
X0078668Y0178205D01*
X0078072Y0178509D01*
X0078064Y0178511D01*
X0078848Y0178836D01*
X0080044Y0180033D01*
X0080692Y0181596D01*
X0080692Y0183288D01*
X0080044Y0184851D01*
X0078848Y0186047D01*
X0077285Y0186694D01*
X0075593Y0186694D01*
X0074030Y0186047D01*
X0072834Y0184851D01*
X0072502Y0184050D01*
X0072170Y0184851D01*
X0070974Y0186047D01*
X0069411Y0186694D01*
X0067719Y0186694D01*
X0066156Y0186047D01*
X0064960Y0184851D01*
X0064312Y0183288D01*
X0064312Y0181596D01*
X0064960Y0180033D01*
X0066156Y0178836D01*
X0066957Y0178505D01*
X0066156Y0178173D01*
X0064960Y0176977D01*
X0064312Y0175414D01*
X0064312Y0173722D01*
X0064960Y0172159D01*
X0066156Y0170962D01*
X0066957Y0170631D01*
X0066156Y0170299D01*
X0064960Y0169103D01*
X0064312Y0167540D01*
X0064312Y0165848D01*
X0064960Y0164285D01*
X0066156Y0163088D01*
X0066957Y0162757D01*
X0066156Y0162425D01*
X0064960Y0161229D01*
X0064312Y0159666D01*
X0064312Y0157974D01*
X0064960Y0156411D01*
X0066156Y0155214D01*
X0066957Y0154883D01*
X0066156Y0154551D01*
X0064960Y0153355D01*
X0064312Y0151792D01*
X0064312Y0150100D01*
X0064960Y0148537D01*
X0066156Y0147340D01*
X0066957Y0147009D01*
X0066156Y0146677D01*
X0064960Y0145481D01*
X0064312Y0143918D01*
X0064312Y0142226D01*
X0064960Y0140663D01*
X0066156Y0139466D01*
X0066941Y0139141D01*
X0066933Y0139139D01*
X0066336Y0138835D01*
X0065795Y0138441D01*
X0065321Y0137968D01*
X0064928Y0137427D01*
X0064624Y0136830D01*
X0064417Y0136193D01*
X0064312Y0135532D01*
X0064312Y0135498D01*
X0068265Y0135498D01*
X0068265Y0134898D01*
X0064312Y0134898D01*
X0064312Y0134863D01*
X0064417Y0134202D01*
X0064624Y0133565D01*
X0064928Y0132969D01*
X0065321Y0132427D01*
X0065795Y0131954D01*
X0066336Y0131560D01*
X0066933Y0131256D01*
X0066941Y0131254D01*
X0066156Y0130929D01*
X0064960Y0129733D01*
X0064312Y0128170D01*
X0064312Y0126478D01*
X0064960Y0124915D01*
X0066156Y0123718D01*
X0066941Y0123393D01*
X0066933Y0123391D01*
X0066336Y0123087D01*
X0065795Y0122693D01*
X0065321Y0122220D01*
X0064928Y0121679D01*
X0064624Y0121082D01*
X0064417Y0120445D01*
X0064312Y0119784D01*
X0064312Y0119750D01*
X0068265Y0119750D01*
X0068265Y0119150D01*
X0064312Y0119150D01*
X0064312Y0119115D01*
X0064417Y0118454D01*
X0064624Y0117817D01*
X0064928Y0117221D01*
X0065321Y0116679D01*
X0065795Y0116206D01*
X0066336Y0115812D01*
X0066924Y0115513D01*
X0066336Y0115213D01*
X0065795Y0114819D01*
X0065321Y0114346D01*
X0064928Y0113805D01*
X0064624Y0113208D01*
X0064417Y0112571D01*
X0064312Y0111910D01*
X0064312Y0111876D01*
X0068265Y0111876D01*
X0068265Y0115828D01*
X0068265Y0119150D01*
X0068865Y0119150D01*
X0068865Y0111876D01*
X0068265Y0111876D01*
X0068265Y0111276D01*
X0064312Y0111276D01*
X0064312Y0111241D01*
X0064417Y0110580D01*
X0064624Y0109943D01*
X0064928Y0109347D01*
X0065321Y0108805D01*
X0065795Y0108332D01*
X0066336Y0107938D01*
X0066924Y0107639D01*
X0066336Y0107339D01*
X0065795Y0106945D01*
X0065321Y0106472D01*
X0064928Y0105930D01*
X0064624Y0105334D01*
X0064417Y0104697D01*
X0064312Y0104036D01*
X0064312Y0104002D01*
X0068265Y0104002D01*
X0068265Y0107954D01*
X0068265Y0111276D01*
X0068865Y0111276D01*
X0068865Y0104002D01*
X0068265Y0104002D01*
X0068265Y0103402D01*
X0064312Y0103402D01*
X0064312Y0103367D01*
X0064417Y0102706D01*
X0064624Y0102069D01*
X0064928Y0101473D01*
X0065321Y0100931D01*
X0065795Y0100458D01*
X0066336Y0100064D01*
X0066924Y0099765D01*
X0066336Y0099465D01*
X0065795Y0099071D01*
X0065321Y0098598D01*
X0064928Y0098056D01*
X0064624Y0097460D01*
X0064417Y0096823D01*
X0064312Y0096162D01*
X0064312Y0096128D01*
X0068265Y0096128D01*
X0068265Y0099449D01*
X0068265Y0103402D01*
X0068865Y0103402D01*
X0068865Y0096128D01*
X0068265Y0096128D01*
X0068265Y0095528D01*
X0064312Y0095528D01*
X0064312Y0095493D01*
X0064417Y0094832D01*
X0064624Y0094195D01*
X0064928Y0093599D01*
X0065321Y0093057D01*
X0065795Y0092584D01*
X0066336Y0092190D01*
X0066933Y0091886D01*
X0066941Y0091884D01*
X0066156Y0091559D01*
X0064960Y0090363D01*
X0064312Y0088799D01*
X0064312Y0087108D01*
X0064960Y0085545D01*
X0066156Y0084348D01*
X0066957Y0084017D01*
X0066156Y0083685D01*
X0064960Y0082489D01*
X0064312Y0080925D01*
X0064312Y0079234D01*
X0064960Y0077671D01*
X0066156Y0076474D01*
X0066957Y0076143D01*
X0066156Y0075811D01*
X0064960Y0074614D01*
X0064312Y0073051D01*
X0064312Y0071360D01*
X0064960Y0069797D01*
X0066156Y0068600D01*
X0067719Y0067953D01*
X0069411Y0067953D01*
X0070974Y0068600D01*
X0072170Y0069797D01*
X0072495Y0070581D01*
X0072498Y0070573D01*
X0072802Y0069977D01*
X0073195Y0069435D01*
X0073669Y0068962D01*
X0074210Y0068568D01*
X0074807Y0068264D01*
X0075443Y0068057D01*
X0076104Y0067953D01*
X0076139Y0067953D01*
X0076139Y0071905D01*
X0076739Y0071905D01*
X0076739Y0067953D01*
X0076774Y0067953D01*
X0077435Y0068057D01*
X0078072Y0068264D01*
X0078668Y0068568D01*
X0079210Y0068962D01*
X0079683Y0069435D01*
X0080076Y0069977D01*
X0080380Y0070573D01*
X0080587Y0071210D01*
X0080692Y0071871D01*
X0080568Y0071151D02*
X0088345Y0071151D01*
X0087746Y0070553D02*
X0080370Y0070553D01*
X0080060Y0069954D02*
X0087483Y0069954D01*
X0087483Y0069356D02*
X0079603Y0069356D01*
X0078928Y0068757D02*
X0087483Y0068757D01*
X0087635Y0068159D02*
X0077746Y0068159D01*
X0076739Y0068159D02*
X0076139Y0068159D01*
X0076139Y0068757D02*
X0076739Y0068757D01*
X0076739Y0069356D02*
X0076139Y0069356D01*
X0076139Y0069954D02*
X0076739Y0069954D01*
X0076739Y0070553D02*
X0076139Y0070553D01*
X0076139Y0071151D02*
X0076739Y0071151D01*
X0076739Y0071750D02*
X0076139Y0071750D01*
X0076139Y0072506D02*
X0076139Y0076458D01*
X0076139Y0079779D01*
X0076739Y0079779D01*
X0076739Y0072506D01*
X0076139Y0072506D01*
X0076139Y0072947D02*
X0076739Y0072947D01*
X0076739Y0073545D02*
X0076139Y0073545D01*
X0076139Y0074144D02*
X0076739Y0074144D01*
X0076739Y0074742D02*
X0076139Y0074742D01*
X0076139Y0075341D02*
X0076739Y0075341D01*
X0076739Y0075939D02*
X0076139Y0075939D01*
X0076139Y0076538D02*
X0076739Y0076538D01*
X0076739Y0077136D02*
X0076139Y0077136D01*
X0076139Y0077735D02*
X0076739Y0077735D01*
X0076739Y0078333D02*
X0076139Y0078333D01*
X0076139Y0078932D02*
X0076739Y0078932D01*
X0076739Y0079530D02*
X0076139Y0079530D01*
X0076739Y0080129D02*
X0114483Y0080129D01*
X0114483Y0080727D02*
X0080642Y0080727D01*
X0080506Y0081326D02*
X0114519Y0081326D01*
X0114483Y0081290D02*
X0114483Y0079310D01*
X0115883Y0077911D01*
X0117862Y0077911D01*
X0119261Y0079310D01*
X0119261Y0081290D01*
X0117862Y0082689D01*
X0115883Y0082689D01*
X0114483Y0081290D01*
X0115118Y0081924D02*
X0080272Y0081924D01*
X0079921Y0082523D02*
X0115716Y0082523D01*
X0118028Y0082523D02*
X0143444Y0082523D01*
X0143444Y0083121D02*
X0079411Y0083121D01*
X0078662Y0083720D02*
X0143590Y0083720D01*
X0143444Y0083573D02*
X0143444Y0081594D01*
X0144843Y0080195D01*
X0146822Y0080195D01*
X0148222Y0081594D01*
X0148222Y0083573D01*
X0146822Y0084973D01*
X0144843Y0084973D01*
X0143444Y0083573D01*
X0144189Y0084318D02*
X0078671Y0084318D01*
X0079417Y0084917D02*
X0144787Y0084917D01*
X0146878Y0084917D02*
X0156483Y0084917D01*
X0156483Y0085290D02*
X0156483Y0083310D01*
X0157883Y0081911D01*
X0159862Y0081911D01*
X0161261Y0083310D01*
X0161261Y0085290D01*
X0159862Y0086689D01*
X0157883Y0086689D01*
X0156483Y0085290D01*
X0156709Y0085515D02*
X0079924Y0085515D01*
X0080275Y0086114D02*
X0157308Y0086114D01*
X0156483Y0084318D02*
X0147477Y0084318D01*
X0148075Y0083720D02*
X0156483Y0083720D01*
X0156672Y0083121D02*
X0148222Y0083121D01*
X0148222Y0082523D02*
X0157271Y0082523D01*
X0157869Y0081924D02*
X0148222Y0081924D01*
X0147953Y0081326D02*
X0220072Y0081326D01*
X0220072Y0081924D02*
X0184875Y0081924D01*
X0184862Y0081911D02*
X0186261Y0083310D01*
X0186261Y0085290D01*
X0184862Y0086689D01*
X0182883Y0086689D01*
X0182165Y0085972D01*
X0182165Y0087385D01*
X0180766Y0088785D01*
X0178787Y0088785D01*
X0177387Y0087385D01*
X0177387Y0085972D01*
X0176822Y0086538D01*
X0174843Y0086538D01*
X0173443Y0085138D01*
X0173443Y0083159D01*
X0174843Y0081760D01*
X0176822Y0081760D01*
X0178221Y0083159D01*
X0178221Y0084572D01*
X0178787Y0084007D01*
X0180766Y0084007D01*
X0181483Y0084724D01*
X0181483Y0083310D01*
X0182883Y0081911D01*
X0184862Y0081911D01*
X0185473Y0082523D02*
X0220072Y0082523D01*
X0220072Y0083121D02*
X0186072Y0083121D01*
X0186261Y0083720D02*
X0220072Y0083720D01*
X0220072Y0084318D02*
X0186261Y0084318D01*
X0186261Y0084917D02*
X0220072Y0084917D01*
X0220072Y0085515D02*
X0186035Y0085515D01*
X0185437Y0086114D02*
X0220072Y0086114D01*
X0220072Y0086712D02*
X0182165Y0086712D01*
X0182165Y0086114D02*
X0182308Y0086114D01*
X0182165Y0087311D02*
X0220072Y0087311D01*
X0220072Y0087909D02*
X0181641Y0087909D01*
X0181043Y0088508D02*
X0220072Y0088508D01*
X0220072Y0089106D02*
X0130261Y0089106D01*
X0130261Y0088508D02*
X0178510Y0088508D01*
X0177912Y0087909D02*
X0129860Y0087909D01*
X0130261Y0088310D02*
X0128862Y0086911D01*
X0126883Y0086911D01*
X0125483Y0088310D01*
X0125483Y0090290D01*
X0126883Y0091689D01*
X0128862Y0091689D01*
X0130261Y0090290D01*
X0130261Y0088310D01*
X0130261Y0089705D02*
X0220072Y0089705D01*
X0220072Y0090303D02*
X0130247Y0090303D01*
X0129649Y0090902D02*
X0220072Y0090902D01*
X0220072Y0091501D02*
X0160451Y0091501D01*
X0159862Y0090911D02*
X0161261Y0092310D01*
X0161261Y0094290D01*
X0159862Y0095689D01*
X0157883Y0095689D01*
X0156483Y0094290D01*
X0156483Y0092310D01*
X0157883Y0090911D01*
X0159862Y0090911D01*
X0161050Y0092099D02*
X0220072Y0092099D01*
X0220072Y0092698D02*
X0161261Y0092698D01*
X0161261Y0093296D02*
X0220072Y0093296D01*
X0220072Y0093895D02*
X0161261Y0093895D01*
X0161058Y0094493D02*
X0220072Y0094493D01*
X0220072Y0095092D02*
X0160459Y0095092D01*
X0157285Y0095092D02*
X0080692Y0095092D01*
X0080692Y0095690D02*
X0220072Y0095690D01*
X0220072Y0096289D02*
X0080692Y0096289D01*
X0080603Y0096887D02*
X0220072Y0096887D01*
X0220072Y0097486D02*
X0089436Y0097486D01*
X0088862Y0096911D02*
X0090261Y0098310D01*
X0090261Y0100290D01*
X0088862Y0101689D01*
X0086883Y0101689D01*
X0085483Y0100290D01*
X0085483Y0098310D01*
X0086883Y0096911D01*
X0088862Y0096911D01*
X0090035Y0098084D02*
X0220072Y0098084D01*
X0220072Y0098683D02*
X0090261Y0098683D01*
X0090261Y0099281D02*
X0220072Y0099281D01*
X0220072Y0099880D02*
X0090261Y0099880D01*
X0090072Y0100478D02*
X0220072Y0100478D01*
X0220072Y0101077D02*
X0089474Y0101077D01*
X0088875Y0101675D02*
X0220072Y0101675D01*
X0220072Y0102274D02*
X0080451Y0102274D01*
X0080692Y0102872D02*
X0220072Y0102872D01*
X0220072Y0103471D02*
X0080692Y0103471D01*
X0080692Y0104069D02*
X0220072Y0104069D01*
X0220072Y0104668D02*
X0080642Y0104668D01*
X0080394Y0105266D02*
X0220072Y0105266D01*
X0220072Y0105865D02*
X0080146Y0105865D01*
X0079692Y0106463D02*
X0220072Y0106463D01*
X0220072Y0107062D02*
X0079093Y0107062D01*
X0078100Y0107660D02*
X0220072Y0107660D01*
X0220072Y0108259D02*
X0174909Y0108259D01*
X0174429Y0108060D02*
X0175458Y0108486D01*
X0176246Y0109274D01*
X0176672Y0110303D01*
X0176672Y0111417D01*
X0176246Y0112446D01*
X0175458Y0113234D01*
X0174429Y0113660D01*
X0173315Y0113660D01*
X0172286Y0113234D01*
X0171498Y0112446D01*
X0171072Y0111417D01*
X0171072Y0110303D01*
X0171498Y0109274D01*
X0172286Y0108486D01*
X0173315Y0108060D01*
X0174429Y0108060D01*
X0172835Y0108259D02*
X0079137Y0108259D01*
X0079735Y0108857D02*
X0171915Y0108857D01*
X0171423Y0109456D02*
X0107749Y0109456D01*
X0107204Y0108911D02*
X0108604Y0110310D01*
X0108604Y0112290D01*
X0107204Y0113689D01*
X0105225Y0113689D01*
X0103826Y0112290D01*
X0103826Y0110310D01*
X0105225Y0108911D01*
X0107204Y0108911D01*
X0108348Y0110054D02*
X0158739Y0110054D01*
X0158883Y0109911D02*
X0160862Y0109911D01*
X0162261Y0111310D01*
X0162261Y0113290D01*
X0160862Y0114689D01*
X0158883Y0114689D01*
X0157483Y0113290D01*
X0157483Y0111310D01*
X0158883Y0109911D01*
X0158141Y0110653D02*
X0108604Y0110653D01*
X0108604Y0111251D02*
X0157542Y0111251D01*
X0157483Y0111850D02*
X0108604Y0111850D01*
X0108445Y0112448D02*
X0157483Y0112448D01*
X0157483Y0113047D02*
X0107846Y0113047D01*
X0107248Y0113645D02*
X0157839Y0113645D01*
X0158438Y0114244D02*
X0079785Y0114244D01*
X0080185Y0113645D02*
X0105182Y0113645D01*
X0104583Y0113047D02*
X0080433Y0113047D01*
X0080681Y0112448D02*
X0103985Y0112448D01*
X0103826Y0111850D02*
X0080692Y0111850D01*
X0080692Y0111251D02*
X0103826Y0111251D01*
X0103826Y0110653D02*
X0080660Y0110653D01*
X0080412Y0110054D02*
X0104082Y0110054D01*
X0104680Y0109456D02*
X0080164Y0109456D01*
X0079186Y0114842D02*
X0206572Y0114842D01*
X0206572Y0114445D02*
X0206572Y0116155D01*
X0207227Y0117736D01*
X0208436Y0118945D01*
X0210017Y0119600D01*
X0211727Y0119600D01*
X0213308Y0118945D01*
X0214517Y0117736D01*
X0215172Y0116155D01*
X0215172Y0114445D01*
X0214517Y0112864D01*
X0213308Y0111655D01*
X0211727Y0111000D01*
X0210017Y0111000D01*
X0208436Y0111655D01*
X0207227Y0112864D01*
X0206572Y0114445D01*
X0206655Y0114244D02*
X0161307Y0114244D01*
X0161905Y0113645D02*
X0173280Y0113645D01*
X0174465Y0113645D02*
X0206903Y0113645D01*
X0207151Y0113047D02*
X0175645Y0113047D01*
X0176244Y0112448D02*
X0207643Y0112448D01*
X0208241Y0111850D02*
X0176493Y0111850D01*
X0176672Y0111251D02*
X0209410Y0111251D01*
X0212334Y0111251D02*
X0220072Y0111251D01*
X0220072Y0110653D02*
X0176672Y0110653D01*
X0176569Y0110054D02*
X0220072Y0110054D01*
X0220072Y0109456D02*
X0176321Y0109456D01*
X0175829Y0108857D02*
X0220072Y0108857D01*
X0220072Y0111850D02*
X0213503Y0111850D01*
X0214102Y0112448D02*
X0220072Y0112448D01*
X0220072Y0113047D02*
X0214593Y0113047D01*
X0214841Y0113645D02*
X0220072Y0113645D01*
X0220072Y0114244D02*
X0215089Y0114244D01*
X0215172Y0114842D02*
X0220072Y0114842D01*
X0220072Y0115441D02*
X0215172Y0115441D01*
X0215172Y0116039D02*
X0220072Y0116039D01*
X0220072Y0116638D02*
X0214972Y0116638D01*
X0214724Y0117237D02*
X0220072Y0117237D01*
X0220072Y0117835D02*
X0214418Y0117835D01*
X0213820Y0118434D02*
X0220072Y0118434D01*
X0220072Y0119032D02*
X0213099Y0119032D01*
X0212618Y0120828D02*
X0220072Y0120828D01*
X0220072Y0121426D02*
X0213786Y0121426D01*
X0213591Y0121231D02*
X0214941Y0122581D01*
X0215672Y0124345D01*
X0215672Y0126255D01*
X0214941Y0128019D01*
X0213591Y0129369D01*
X0211827Y0130100D01*
X0209917Y0130100D01*
X0208153Y0129369D01*
X0206803Y0128019D01*
X0206072Y0126255D01*
X0206072Y0124345D01*
X0206803Y0122581D01*
X0208153Y0121231D01*
X0209917Y0120500D01*
X0211827Y0120500D01*
X0213591Y0121231D01*
X0214385Y0122025D02*
X0220072Y0122025D01*
X0220072Y0122623D02*
X0214959Y0122623D01*
X0215207Y0123222D02*
X0220072Y0123222D01*
X0220072Y0123820D02*
X0215455Y0123820D01*
X0215672Y0124419D02*
X0220072Y0124419D01*
X0220072Y0125017D02*
X0215672Y0125017D01*
X0215672Y0125616D02*
X0220072Y0125616D01*
X0220072Y0126214D02*
X0215672Y0126214D01*
X0215441Y0126813D02*
X0220072Y0126813D01*
X0220072Y0127411D02*
X0215193Y0127411D01*
X0214945Y0128010D02*
X0220072Y0128010D01*
X0220072Y0128608D02*
X0214352Y0128608D01*
X0213754Y0129207D02*
X0220072Y0129207D01*
X0220072Y0129805D02*
X0212538Y0129805D01*
X0209206Y0129805D02*
X0150756Y0129805D01*
X0151261Y0130310D02*
X0149862Y0128911D01*
X0147883Y0128911D01*
X0146483Y0130310D01*
X0146483Y0132290D01*
X0147883Y0133689D01*
X0149862Y0133689D01*
X0151261Y0132290D01*
X0151261Y0130310D01*
X0151261Y0130404D02*
X0220072Y0130404D01*
X0220072Y0131002D02*
X0151261Y0131002D01*
X0151261Y0131601D02*
X0220072Y0131601D01*
X0220072Y0132199D02*
X0151261Y0132199D01*
X0150753Y0132798D02*
X0220072Y0132798D01*
X0220072Y0133396D02*
X0150154Y0133396D01*
X0147590Y0133396D02*
X0144154Y0133396D01*
X0144261Y0133290D02*
X0142862Y0134689D01*
X0140883Y0134689D01*
X0139483Y0133290D01*
X0139483Y0131310D01*
X0140883Y0129911D01*
X0142862Y0129911D01*
X0144261Y0131310D01*
X0144261Y0133290D01*
X0144261Y0132798D02*
X0146991Y0132798D01*
X0146483Y0132199D02*
X0144261Y0132199D01*
X0144261Y0131601D02*
X0146483Y0131601D01*
X0146483Y0131002D02*
X0143953Y0131002D01*
X0143354Y0130404D02*
X0146483Y0130404D01*
X0146988Y0129805D02*
X0109745Y0129805D01*
X0110261Y0129290D02*
X0108862Y0130689D01*
X0106883Y0130689D01*
X0105483Y0129290D01*
X0105483Y0127310D01*
X0106883Y0125911D01*
X0108862Y0125911D01*
X0110261Y0127310D01*
X0110261Y0129290D01*
X0110261Y0129207D02*
X0147587Y0129207D01*
X0150157Y0129207D02*
X0207991Y0129207D01*
X0207392Y0128608D02*
X0110261Y0128608D01*
X0110261Y0128010D02*
X0206799Y0128010D01*
X0206551Y0127411D02*
X0110261Y0127411D01*
X0109763Y0126813D02*
X0206303Y0126813D01*
X0206072Y0126214D02*
X0109165Y0126214D01*
X0106579Y0126214D02*
X0080583Y0126214D01*
X0080692Y0126813D02*
X0105981Y0126813D01*
X0105483Y0127411D02*
X0080692Y0127411D01*
X0080692Y0128010D02*
X0105483Y0128010D01*
X0105483Y0128608D02*
X0080510Y0128608D01*
X0080262Y0129207D02*
X0105483Y0129207D01*
X0105999Y0129805D02*
X0079972Y0129805D01*
X0079373Y0130404D02*
X0106597Y0130404D01*
X0109147Y0130404D02*
X0140390Y0130404D01*
X0139791Y0131002D02*
X0078671Y0131002D01*
X0078856Y0131601D02*
X0139483Y0131601D01*
X0139483Y0132199D02*
X0116150Y0132199D01*
X0115862Y0131911D02*
X0117261Y0133310D01*
X0117261Y0135290D01*
X0115862Y0136689D01*
X0113883Y0136689D01*
X0112483Y0135290D01*
X0112483Y0133310D01*
X0113883Y0131911D01*
X0115862Y0131911D01*
X0116748Y0132798D02*
X0139483Y0132798D01*
X0139590Y0133396D02*
X0117261Y0133396D01*
X0117261Y0133995D02*
X0140188Y0133995D01*
X0140787Y0134593D02*
X0117261Y0134593D01*
X0117261Y0135192D02*
X0220072Y0135192D01*
X0220072Y0135790D02*
X0116760Y0135790D01*
X0116162Y0136389D02*
X0220072Y0136389D01*
X0220072Y0136987D02*
X0080301Y0136987D01*
X0080549Y0136389D02*
X0113582Y0136389D01*
X0112984Y0135790D02*
X0080692Y0135790D01*
X0080692Y0135192D02*
X0112483Y0135192D01*
X0112483Y0134593D02*
X0080692Y0134593D01*
X0080544Y0133995D02*
X0112483Y0133995D01*
X0112483Y0133396D02*
X0080296Y0133396D01*
X0080048Y0132798D02*
X0112996Y0132798D01*
X0113594Y0132199D02*
X0079455Y0132199D01*
X0080053Y0137586D02*
X0220072Y0137586D01*
X0220072Y0138184D02*
X0079467Y0138184D01*
X0078868Y0138783D02*
X0220072Y0138783D01*
X0220072Y0139381D02*
X0078564Y0139381D01*
X0079362Y0139980D02*
X0220072Y0139980D01*
X0220072Y0140578D02*
X0079884Y0140578D01*
X0080247Y0141177D02*
X0220072Y0141177D01*
X0220072Y0141775D02*
X0080489Y0141775D01*
X0080634Y0142374D02*
X0220072Y0142374D01*
X0220072Y0142972D02*
X0076739Y0142972D01*
X0080666Y0143571D02*
X0220072Y0143571D01*
X0220072Y0144170D02*
X0080554Y0144170D01*
X0080348Y0144768D02*
X0220072Y0144768D01*
X0220072Y0145367D02*
X0080028Y0145367D01*
X0079560Y0145965D02*
X0138829Y0145965D01*
X0138883Y0145911D02*
X0140862Y0145911D01*
X0142261Y0147310D01*
X0142261Y0149290D01*
X0140862Y0150689D01*
X0138883Y0150689D01*
X0137483Y0149290D01*
X0137483Y0147310D01*
X0138883Y0145911D01*
X0138230Y0146564D02*
X0078868Y0146564D01*
X0078418Y0147162D02*
X0137632Y0147162D01*
X0137483Y0147761D02*
X0079268Y0147761D01*
X0079867Y0148359D02*
X0137483Y0148359D01*
X0137483Y0148958D02*
X0110908Y0148958D01*
X0110862Y0148911D02*
X0112261Y0150310D01*
X0112261Y0152290D01*
X0110862Y0153689D01*
X0108883Y0153689D01*
X0107483Y0152290D01*
X0107483Y0150310D01*
X0108883Y0148911D01*
X0110862Y0148911D01*
X0111507Y0149556D02*
X0137750Y0149556D01*
X0138348Y0150155D02*
X0112105Y0150155D01*
X0112261Y0150753D02*
X0220072Y0150753D01*
X0220072Y0150155D02*
X0141396Y0150155D01*
X0141995Y0149556D02*
X0220072Y0149556D01*
X0220072Y0148958D02*
X0142261Y0148958D01*
X0142261Y0148359D02*
X0220072Y0148359D01*
X0220072Y0147761D02*
X0142261Y0147761D01*
X0142113Y0147162D02*
X0220072Y0147162D01*
X0220072Y0146564D02*
X0141514Y0146564D01*
X0140916Y0145965D02*
X0220072Y0145965D01*
X0220072Y0151352D02*
X0112261Y0151352D01*
X0112261Y0151950D02*
X0220072Y0151950D01*
X0220072Y0152549D02*
X0112002Y0152549D01*
X0111403Y0153147D02*
X0220072Y0153147D01*
X0220072Y0153746D02*
X0079653Y0153746D01*
X0080130Y0153147D02*
X0108341Y0153147D01*
X0107742Y0152549D02*
X0080378Y0152549D01*
X0080626Y0151950D02*
X0107483Y0151950D01*
X0107483Y0151352D02*
X0080692Y0151352D01*
X0080692Y0150753D02*
X0107483Y0150753D01*
X0107639Y0150155D02*
X0080692Y0150155D01*
X0080467Y0149556D02*
X0108237Y0149556D01*
X0108836Y0148958D02*
X0080219Y0148958D01*
X0079055Y0154344D02*
X0220072Y0154344D01*
X0220072Y0154943D02*
X0110893Y0154943D01*
X0110862Y0154911D02*
X0112261Y0156310D01*
X0112261Y0158290D01*
X0110862Y0159689D01*
X0108883Y0159689D01*
X0107483Y0158290D01*
X0107483Y0156310D01*
X0108883Y0154911D01*
X0110862Y0154911D01*
X0111492Y0155541D02*
X0220072Y0155541D01*
X0220072Y0156140D02*
X0112090Y0156140D01*
X0112261Y0156738D02*
X0220072Y0156738D01*
X0220072Y0157337D02*
X0112261Y0157337D01*
X0112261Y0157935D02*
X0220072Y0157935D01*
X0220072Y0158534D02*
X0112017Y0158534D01*
X0111418Y0159132D02*
X0220072Y0159132D01*
X0220072Y0159731D02*
X0080600Y0159731D01*
X0080692Y0159132D02*
X0108326Y0159132D01*
X0107727Y0158534D02*
X0076739Y0158534D01*
X0079749Y0156140D02*
X0107654Y0156140D01*
X0107483Y0156738D02*
X0080151Y0156738D01*
X0080429Y0157337D02*
X0107483Y0157337D01*
X0107483Y0157935D02*
X0080605Y0157935D01*
X0080420Y0160329D02*
X0220072Y0160329D01*
X0220072Y0160928D02*
X0080138Y0160928D01*
X0079729Y0161526D02*
X0220072Y0161526D01*
X0220072Y0162125D02*
X0079125Y0162125D01*
X0078145Y0162723D02*
X0220072Y0162723D01*
X0220072Y0163322D02*
X0079082Y0163322D01*
X0079680Y0163920D02*
X0220072Y0163920D01*
X0220072Y0164519D02*
X0080141Y0164519D01*
X0080389Y0165117D02*
X0220072Y0165117D01*
X0220072Y0165716D02*
X0080637Y0165716D01*
X0080692Y0166314D02*
X0220072Y0166314D01*
X0220072Y0166913D02*
X0080692Y0166913D01*
X0080692Y0167511D02*
X0220072Y0167511D01*
X0220072Y0168110D02*
X0080456Y0168110D01*
X0080208Y0168708D02*
X0220072Y0168708D01*
X0220072Y0169307D02*
X0079840Y0169307D01*
X0079242Y0169905D02*
X0220072Y0169905D01*
X0220072Y0170504D02*
X0078353Y0170504D01*
X0078905Y0171103D02*
X0220072Y0171103D01*
X0220072Y0171701D02*
X0079587Y0171701D01*
X0080048Y0172300D02*
X0220072Y0172300D01*
X0220072Y0172898D02*
X0080361Y0172898D01*
X0080563Y0173497D02*
X0220072Y0173497D01*
X0220072Y0174095D02*
X0080670Y0174095D01*
X0080630Y0175292D02*
X0100500Y0175292D01*
X0100893Y0174899D02*
X0102473Y0174244D01*
X0104184Y0174244D01*
X0105765Y0174899D01*
X0106974Y0176108D01*
X0107629Y0177689D01*
X0107629Y0179399D01*
X0106974Y0180980D01*
X0105765Y0182189D01*
X0104184Y0182844D01*
X0102473Y0182844D01*
X0100893Y0182189D01*
X0099683Y0180980D01*
X0099029Y0179399D01*
X0099029Y0177689D01*
X0099683Y0176108D01*
X0100893Y0174899D01*
X0101388Y0174694D02*
X0076739Y0174694D01*
X0080233Y0176489D02*
X0099526Y0176489D01*
X0099278Y0177088D02*
X0079865Y0177088D01*
X0079335Y0177686D02*
X0099030Y0177686D01*
X0099029Y0178285D02*
X0078512Y0178285D01*
X0078895Y0178883D02*
X0099029Y0178883D01*
X0099063Y0179482D02*
X0079493Y0179482D01*
X0080064Y0180080D02*
X0099311Y0180080D01*
X0099559Y0180679D02*
X0080312Y0180679D01*
X0080560Y0181277D02*
X0099981Y0181277D01*
X0100579Y0181876D02*
X0080692Y0181876D01*
X0080692Y0182474D02*
X0101581Y0182474D01*
X0102411Y0184270D02*
X0080285Y0184270D01*
X0080533Y0183671D02*
X0220072Y0183671D01*
X0220072Y0183073D02*
X0080692Y0183073D01*
X0080027Y0184868D02*
X0100967Y0184868D01*
X0100893Y0184899D02*
X0102473Y0184244D01*
X0104184Y0184244D01*
X0105765Y0184899D01*
X0106974Y0186108D01*
X0107629Y0187689D01*
X0107629Y0189399D01*
X0106974Y0190980D01*
X0105765Y0192189D01*
X0104184Y0192844D01*
X0102473Y0192844D01*
X0100893Y0192189D01*
X0099683Y0190980D01*
X0099029Y0189399D01*
X0099029Y0187689D01*
X0099683Y0186108D01*
X0100893Y0184899D01*
X0100325Y0185467D02*
X0079428Y0185467D01*
X0078804Y0186065D02*
X0099726Y0186065D01*
X0099453Y0186664D02*
X0077359Y0186664D01*
X0075519Y0186664D02*
X0069485Y0186664D01*
X0070930Y0186065D02*
X0074074Y0186065D01*
X0073450Y0185467D02*
X0071554Y0185467D01*
X0072153Y0184868D02*
X0072851Y0184868D01*
X0072593Y0184270D02*
X0072411Y0184270D01*
X0067645Y0186664D02*
X0061113Y0186664D01*
X0061113Y0186221D02*
X0060389Y0184474D01*
X0059053Y0183137D01*
X0057306Y0182413D01*
X0055415Y0182413D01*
X0053668Y0183137D01*
X0052331Y0184474D01*
X0051608Y0186221D01*
X0051608Y0188112D01*
X0052331Y0189858D01*
X0053668Y0191195D01*
X0055415Y0191919D01*
X0057306Y0191919D01*
X0059053Y0191195D01*
X0060389Y0189858D01*
X0061113Y0188112D01*
X0061113Y0186221D01*
X0061049Y0186065D02*
X0066200Y0186065D01*
X0065576Y0185467D02*
X0060801Y0185467D01*
X0060553Y0184868D02*
X0064977Y0184868D01*
X0064719Y0184270D02*
X0060185Y0184270D01*
X0059587Y0183671D02*
X0064471Y0183671D01*
X0064312Y0183073D02*
X0058898Y0183073D01*
X0057453Y0182474D02*
X0064312Y0182474D01*
X0064312Y0181876D02*
X0048672Y0181876D01*
X0048672Y0182474D02*
X0055268Y0182474D01*
X0053823Y0183073D02*
X0048672Y0183073D01*
X0048672Y0183671D02*
X0053134Y0183671D01*
X0052535Y0184270D02*
X0048672Y0184270D01*
X0048672Y0184868D02*
X0052168Y0184868D01*
X0051920Y0185467D02*
X0048672Y0185467D01*
X0048672Y0186065D02*
X0051672Y0186065D01*
X0051608Y0186664D02*
X0048672Y0186664D01*
X0048672Y0187262D02*
X0051608Y0187262D01*
X0051608Y0187861D02*
X0048672Y0187861D01*
X0048672Y0188459D02*
X0051752Y0188459D01*
X0052000Y0189058D02*
X0048672Y0189058D01*
X0048672Y0189656D02*
X0052247Y0189656D01*
X0052728Y0190255D02*
X0048672Y0190255D01*
X0048672Y0190853D02*
X0053326Y0190853D01*
X0054288Y0191452D02*
X0048672Y0191452D01*
X0048672Y0192050D02*
X0100754Y0192050D01*
X0100155Y0191452D02*
X0058433Y0191452D01*
X0059394Y0190853D02*
X0099631Y0190853D01*
X0099383Y0190255D02*
X0059993Y0190255D01*
X0060473Y0189656D02*
X0099135Y0189656D01*
X0099029Y0189058D02*
X0060721Y0189058D01*
X0060969Y0188459D02*
X0099029Y0188459D01*
X0099029Y0187861D02*
X0061113Y0187861D01*
X0061113Y0187262D02*
X0099205Y0187262D01*
X0104246Y0184270D02*
X0112411Y0184270D01*
X0112473Y0184244D02*
X0114184Y0184244D01*
X0115765Y0184899D01*
X0116974Y0186108D01*
X0117629Y0187689D01*
X0117629Y0189399D01*
X0116974Y0190980D01*
X0115765Y0192189D01*
X0114184Y0192844D01*
X0112473Y0192844D01*
X0110893Y0192189D01*
X0109683Y0190980D01*
X0109029Y0189399D01*
X0109029Y0187689D01*
X0109683Y0186108D01*
X0110893Y0184899D01*
X0112473Y0184244D01*
X0112473Y0182844D02*
X0110893Y0182189D01*
X0109683Y0180980D01*
X0109029Y0179399D01*
X0109029Y0177689D01*
X0109683Y0176108D01*
X0110893Y0174899D01*
X0112473Y0174244D01*
X0114184Y0174244D01*
X0115765Y0174899D01*
X0116974Y0176108D01*
X0117629Y0177689D01*
X0117629Y0179399D01*
X0116974Y0180980D01*
X0115765Y0182189D01*
X0114184Y0182844D01*
X0112473Y0182844D01*
X0111581Y0182474D02*
X0105077Y0182474D01*
X0106078Y0181876D02*
X0110579Y0181876D01*
X0109981Y0181277D02*
X0106677Y0181277D01*
X0107099Y0180679D02*
X0109559Y0180679D01*
X0109311Y0180080D02*
X0107347Y0180080D01*
X0107595Y0179482D02*
X0109063Y0179482D01*
X0109029Y0178883D02*
X0107629Y0178883D01*
X0107629Y0178285D02*
X0109029Y0178285D01*
X0109030Y0177686D02*
X0107628Y0177686D01*
X0107380Y0177088D02*
X0109278Y0177088D01*
X0109526Y0176489D02*
X0107132Y0176489D01*
X0106756Y0175891D02*
X0109901Y0175891D01*
X0110500Y0175292D02*
X0106158Y0175292D01*
X0105269Y0174694D02*
X0111388Y0174694D01*
X0115269Y0174694D02*
X0121388Y0174694D01*
X0120893Y0174899D02*
X0122473Y0174244D01*
X0124184Y0174244D01*
X0125765Y0174899D01*
X0126974Y0176108D01*
X0127629Y0177689D01*
X0127629Y0179399D01*
X0126974Y0180980D01*
X0125765Y0182189D01*
X0124184Y0182844D01*
X0122473Y0182844D01*
X0120893Y0182189D01*
X0119683Y0180980D01*
X0119029Y0179399D01*
X0119029Y0177689D01*
X0119683Y0176108D01*
X0120893Y0174899D01*
X0120500Y0175292D02*
X0116158Y0175292D01*
X0116756Y0175891D02*
X0119901Y0175891D01*
X0119526Y0176489D02*
X0117132Y0176489D01*
X0117380Y0177088D02*
X0119278Y0177088D01*
X0119030Y0177686D02*
X0117628Y0177686D01*
X0117629Y0178285D02*
X0119029Y0178285D01*
X0119029Y0178883D02*
X0117629Y0178883D01*
X0117595Y0179482D02*
X0119063Y0179482D01*
X0119311Y0180080D02*
X0117347Y0180080D01*
X0117099Y0180679D02*
X0119559Y0180679D01*
X0119981Y0181277D02*
X0116677Y0181277D01*
X0116078Y0181876D02*
X0120579Y0181876D01*
X0121581Y0182474D02*
X0115077Y0182474D01*
X0114246Y0184270D02*
X0122411Y0184270D01*
X0122473Y0184244D02*
X0124184Y0184244D01*
X0125765Y0184899D01*
X0126974Y0186108D01*
X0127629Y0187689D01*
X0127629Y0189399D01*
X0126974Y0190980D01*
X0125765Y0192189D01*
X0124184Y0192844D01*
X0122473Y0192844D01*
X0120893Y0192189D01*
X0119683Y0190980D01*
X0119029Y0189399D01*
X0119029Y0187689D01*
X0119683Y0186108D01*
X0120893Y0184899D01*
X0122473Y0184244D01*
X0120967Y0184868D02*
X0115691Y0184868D01*
X0116333Y0185467D02*
X0120325Y0185467D01*
X0119726Y0186065D02*
X0116931Y0186065D01*
X0117204Y0186664D02*
X0119453Y0186664D01*
X0119205Y0187262D02*
X0117452Y0187262D01*
X0117629Y0187861D02*
X0119029Y0187861D01*
X0119029Y0188459D02*
X0117629Y0188459D01*
X0117629Y0189058D02*
X0119029Y0189058D01*
X0119135Y0189656D02*
X0117522Y0189656D01*
X0117274Y0190255D02*
X0119383Y0190255D01*
X0119631Y0190853D02*
X0117027Y0190853D01*
X0116502Y0191452D02*
X0120155Y0191452D01*
X0120754Y0192050D02*
X0115904Y0192050D01*
X0114655Y0192649D02*
X0122002Y0192649D01*
X0124655Y0192649D02*
X0132002Y0192649D01*
X0132473Y0192844D02*
X0130893Y0192189D01*
X0129683Y0190980D01*
X0129029Y0189399D01*
X0129029Y0187689D01*
X0129683Y0186108D01*
X0130893Y0184899D01*
X0132473Y0184244D01*
X0134184Y0184244D01*
X0135765Y0184899D01*
X0136974Y0186108D01*
X0137629Y0187689D01*
X0137629Y0189399D01*
X0136974Y0190980D01*
X0135765Y0192189D01*
X0134184Y0192844D01*
X0132473Y0192844D01*
X0130754Y0192050D02*
X0125904Y0192050D01*
X0126502Y0191452D02*
X0130155Y0191452D01*
X0129631Y0190853D02*
X0127027Y0190853D01*
X0127274Y0190255D02*
X0129383Y0190255D01*
X0129135Y0189656D02*
X0127522Y0189656D01*
X0127629Y0189058D02*
X0129029Y0189058D01*
X0129029Y0188459D02*
X0127629Y0188459D01*
X0127629Y0187861D02*
X0129029Y0187861D01*
X0129205Y0187262D02*
X0127452Y0187262D01*
X0127204Y0186664D02*
X0129453Y0186664D01*
X0129726Y0186065D02*
X0126931Y0186065D01*
X0126333Y0185467D02*
X0130325Y0185467D01*
X0130967Y0184868D02*
X0125691Y0184868D01*
X0124246Y0184270D02*
X0132411Y0184270D01*
X0132473Y0182844D02*
X0130893Y0182189D01*
X0129683Y0180980D01*
X0129029Y0179399D01*
X0129029Y0177689D01*
X0129683Y0176108D01*
X0130893Y0174899D01*
X0132473Y0174244D01*
X0134184Y0174244D01*
X0135765Y0174899D01*
X0136974Y0176108D01*
X0137629Y0177689D01*
X0137629Y0179399D01*
X0136974Y0180980D01*
X0135765Y0182189D01*
X0134184Y0182844D01*
X0132473Y0182844D01*
X0131581Y0182474D02*
X0125077Y0182474D01*
X0126078Y0181876D02*
X0130579Y0181876D01*
X0129981Y0181277D02*
X0126677Y0181277D01*
X0127099Y0180679D02*
X0129559Y0180679D01*
X0129311Y0180080D02*
X0127347Y0180080D01*
X0127595Y0179482D02*
X0129063Y0179482D01*
X0129029Y0178883D02*
X0127629Y0178883D01*
X0127629Y0178285D02*
X0129029Y0178285D01*
X0129030Y0177686D02*
X0127628Y0177686D01*
X0127380Y0177088D02*
X0129278Y0177088D01*
X0129526Y0176489D02*
X0127132Y0176489D01*
X0126756Y0175891D02*
X0129901Y0175891D01*
X0130500Y0175292D02*
X0126158Y0175292D01*
X0125269Y0174694D02*
X0131388Y0174694D01*
X0135269Y0174694D02*
X0141388Y0174694D01*
X0140893Y0174899D02*
X0142473Y0174244D01*
X0144184Y0174244D01*
X0145765Y0174899D01*
X0146974Y0176108D01*
X0147629Y0177689D01*
X0147629Y0179399D01*
X0146974Y0180980D01*
X0145765Y0182189D01*
X0144184Y0182844D01*
X0142473Y0182844D01*
X0140893Y0182189D01*
X0139683Y0180980D01*
X0139029Y0179399D01*
X0139029Y0177689D01*
X0139683Y0176108D01*
X0140893Y0174899D01*
X0140500Y0175292D02*
X0136158Y0175292D01*
X0136756Y0175891D02*
X0139901Y0175891D01*
X0139526Y0176489D02*
X0137132Y0176489D01*
X0137380Y0177088D02*
X0139278Y0177088D01*
X0139030Y0177686D02*
X0137628Y0177686D01*
X0137629Y0178285D02*
X0139029Y0178285D01*
X0139029Y0178883D02*
X0137629Y0178883D01*
X0137595Y0179482D02*
X0139063Y0179482D01*
X0139311Y0180080D02*
X0137347Y0180080D01*
X0137099Y0180679D02*
X0139559Y0180679D01*
X0139981Y0181277D02*
X0136677Y0181277D01*
X0136078Y0181876D02*
X0140579Y0181876D01*
X0141581Y0182474D02*
X0135077Y0182474D01*
X0134246Y0184270D02*
X0142411Y0184270D01*
X0142473Y0184244D02*
X0144184Y0184244D01*
X0145765Y0184899D01*
X0146974Y0186108D01*
X0147629Y0187689D01*
X0147629Y0189399D01*
X0146974Y0190980D01*
X0145765Y0192189D01*
X0144184Y0192844D01*
X0142473Y0192844D01*
X0140893Y0192189D01*
X0139683Y0190980D01*
X0139029Y0189399D01*
X0139029Y0187689D01*
X0139683Y0186108D01*
X0140893Y0184899D01*
X0142473Y0184244D01*
X0140967Y0184868D02*
X0135691Y0184868D01*
X0136333Y0185467D02*
X0140325Y0185467D01*
X0139726Y0186065D02*
X0136931Y0186065D01*
X0137204Y0186664D02*
X0139453Y0186664D01*
X0139205Y0187262D02*
X0137452Y0187262D01*
X0137629Y0187861D02*
X0139029Y0187861D01*
X0139029Y0188459D02*
X0137629Y0188459D01*
X0137629Y0189058D02*
X0139029Y0189058D01*
X0139135Y0189656D02*
X0137522Y0189656D01*
X0137274Y0190255D02*
X0139383Y0190255D01*
X0139631Y0190853D02*
X0137027Y0190853D01*
X0136502Y0191452D02*
X0140155Y0191452D01*
X0140754Y0192050D02*
X0135904Y0192050D01*
X0134655Y0192649D02*
X0142002Y0192649D01*
X0144655Y0192649D02*
X0152002Y0192649D01*
X0152473Y0192844D02*
X0150893Y0192189D01*
X0149683Y0190980D01*
X0149029Y0189399D01*
X0149029Y0187689D01*
X0149683Y0186108D01*
X0150893Y0184899D01*
X0152473Y0184244D01*
X0154184Y0184244D01*
X0155765Y0184899D01*
X0156974Y0186108D01*
X0157629Y0187689D01*
X0157629Y0189399D01*
X0156974Y0190980D01*
X0155765Y0192189D01*
X0154184Y0192844D01*
X0152473Y0192844D01*
X0150754Y0192050D02*
X0145904Y0192050D01*
X0146502Y0191452D02*
X0150155Y0191452D01*
X0149631Y0190853D02*
X0147027Y0190853D01*
X0147274Y0190255D02*
X0149383Y0190255D01*
X0149135Y0189656D02*
X0147522Y0189656D01*
X0147629Y0189058D02*
X0149029Y0189058D01*
X0149029Y0188459D02*
X0147629Y0188459D01*
X0147629Y0187861D02*
X0149029Y0187861D01*
X0149205Y0187262D02*
X0147452Y0187262D01*
X0147204Y0186664D02*
X0149453Y0186664D01*
X0149726Y0186065D02*
X0146931Y0186065D01*
X0146333Y0185467D02*
X0150325Y0185467D01*
X0150967Y0184868D02*
X0145691Y0184868D01*
X0144246Y0184270D02*
X0152411Y0184270D01*
X0152473Y0182844D02*
X0150893Y0182189D01*
X0149683Y0180980D01*
X0149029Y0179399D01*
X0149029Y0177689D01*
X0149683Y0176108D01*
X0150893Y0174899D01*
X0152473Y0174244D01*
X0154184Y0174244D01*
X0155765Y0174899D01*
X0156974Y0176108D01*
X0157629Y0177689D01*
X0157629Y0179399D01*
X0156974Y0180980D01*
X0155765Y0182189D01*
X0154184Y0182844D01*
X0152473Y0182844D01*
X0151581Y0182474D02*
X0145077Y0182474D01*
X0146078Y0181876D02*
X0150579Y0181876D01*
X0149981Y0181277D02*
X0146677Y0181277D01*
X0147099Y0180679D02*
X0149559Y0180679D01*
X0149311Y0180080D02*
X0147347Y0180080D01*
X0147595Y0179482D02*
X0149063Y0179482D01*
X0149029Y0178883D02*
X0147629Y0178883D01*
X0147629Y0178285D02*
X0149029Y0178285D01*
X0149030Y0177686D02*
X0147628Y0177686D01*
X0147380Y0177088D02*
X0149278Y0177088D01*
X0149526Y0176489D02*
X0147132Y0176489D01*
X0146756Y0175891D02*
X0149901Y0175891D01*
X0150500Y0175292D02*
X0146158Y0175292D01*
X0145269Y0174694D02*
X0151388Y0174694D01*
X0155269Y0174694D02*
X0161414Y0174694D01*
X0161678Y0174559D02*
X0162322Y0174350D01*
X0162990Y0174244D01*
X0163029Y0174244D01*
X0163029Y0178244D01*
X0163629Y0178244D01*
X0163629Y0178844D01*
X0167629Y0178844D01*
X0167629Y0178883D01*
X0169029Y0178883D01*
X0169029Y0178844D01*
X0173029Y0178844D01*
X0173029Y0182844D01*
X0172990Y0182844D01*
X0172322Y0182738D01*
X0171678Y0182529D01*
X0171075Y0182222D01*
X0170528Y0181824D01*
X0170049Y0181345D01*
X0169651Y0180798D01*
X0169344Y0180195D01*
X0169135Y0179551D01*
X0169029Y0178883D01*
X0169124Y0179482D02*
X0167534Y0179482D01*
X0167523Y0179551D02*
X0167314Y0180195D01*
X0167006Y0180798D01*
X0166609Y0181345D01*
X0166130Y0181824D01*
X0165582Y0182222D01*
X0164979Y0182529D01*
X0164336Y0182738D01*
X0163667Y0182844D01*
X0163629Y0182844D01*
X0163629Y0178844D01*
X0163029Y0178844D01*
X0163029Y0182844D01*
X0162990Y0182844D01*
X0162322Y0182738D01*
X0161678Y0182529D01*
X0161075Y0182222D01*
X0160528Y0181824D01*
X0160049Y0181345D01*
X0159651Y0180798D01*
X0159344Y0180195D01*
X0159135Y0179551D01*
X0159029Y0178883D01*
X0157629Y0178883D01*
X0157629Y0178285D02*
X0163029Y0178285D01*
X0163029Y0178244D02*
X0159029Y0178244D01*
X0159029Y0178206D01*
X0159135Y0177537D01*
X0159344Y0176893D01*
X0159651Y0176290D01*
X0160049Y0175743D01*
X0160528Y0175264D01*
X0161075Y0174866D01*
X0161678Y0174559D01*
X0163029Y0174694D02*
X0163629Y0174694D01*
X0163629Y0174244D02*
X0163667Y0174244D01*
X0164336Y0174350D01*
X0164979Y0174559D01*
X0165582Y0174866D01*
X0166130Y0175264D01*
X0166609Y0175743D01*
X0167006Y0176290D01*
X0167314Y0176893D01*
X0167523Y0177537D01*
X0167629Y0178206D01*
X0167629Y0178244D01*
X0163629Y0178244D01*
X0163629Y0174244D01*
X0163629Y0175292D02*
X0163029Y0175292D01*
X0163029Y0175891D02*
X0163629Y0175891D01*
X0163629Y0176489D02*
X0163029Y0176489D01*
X0163029Y0177088D02*
X0163629Y0177088D01*
X0163629Y0177686D02*
X0163029Y0177686D01*
X0163029Y0178244D02*
X0163029Y0178844D01*
X0159029Y0178844D01*
X0159029Y0178883D01*
X0159124Y0179482D02*
X0157595Y0179482D01*
X0157347Y0180080D02*
X0159307Y0180080D01*
X0159590Y0180679D02*
X0157099Y0180679D01*
X0156677Y0181277D02*
X0159999Y0181277D01*
X0160599Y0181876D02*
X0156078Y0181876D01*
X0155077Y0182474D02*
X0161571Y0182474D01*
X0163029Y0182474D02*
X0163629Y0182474D01*
X0163629Y0181876D02*
X0163029Y0181876D01*
X0163029Y0181277D02*
X0163629Y0181277D01*
X0163629Y0180679D02*
X0163029Y0180679D01*
X0163029Y0180080D02*
X0163629Y0180080D01*
X0163629Y0179482D02*
X0163029Y0179482D01*
X0163029Y0178883D02*
X0163629Y0178883D01*
X0163629Y0178285D02*
X0173029Y0178285D01*
X0173029Y0178244D02*
X0169029Y0178244D01*
X0169029Y0178206D01*
X0169135Y0177537D01*
X0169344Y0176893D01*
X0169651Y0176290D01*
X0170049Y0175743D01*
X0170528Y0175264D01*
X0171075Y0174866D01*
X0171678Y0174559D01*
X0172322Y0174350D01*
X0172990Y0174244D01*
X0173029Y0174244D01*
X0173029Y0178244D01*
X0173629Y0178244D01*
X0173629Y0178844D01*
X0177629Y0178844D01*
X0177629Y0178883D01*
X0179029Y0178883D01*
X0179029Y0178844D01*
X0183029Y0178844D01*
X0183029Y0182844D01*
X0182990Y0182844D01*
X0182322Y0182738D01*
X0181678Y0182529D01*
X0181075Y0182222D01*
X0180528Y0181824D01*
X0180049Y0181345D01*
X0179651Y0180798D01*
X0179344Y0180195D01*
X0179135Y0179551D01*
X0179029Y0178883D01*
X0179124Y0179482D02*
X0177534Y0179482D01*
X0177523Y0179551D02*
X0177314Y0180195D01*
X0177006Y0180798D01*
X0176609Y0181345D01*
X0176130Y0181824D01*
X0175582Y0182222D01*
X0174979Y0182529D01*
X0174336Y0182738D01*
X0173667Y0182844D01*
X0173629Y0182844D01*
X0173629Y0178844D01*
X0173029Y0178844D01*
X0173029Y0178244D01*
X0173029Y0177686D02*
X0173629Y0177686D01*
X0173629Y0178244D02*
X0173629Y0174244D01*
X0173667Y0174244D01*
X0174336Y0174350D01*
X0174979Y0174559D01*
X0175582Y0174866D01*
X0176130Y0175264D01*
X0176609Y0175743D01*
X0177006Y0176290D01*
X0177314Y0176893D01*
X0177523Y0177537D01*
X0177629Y0178206D01*
X0177629Y0178244D01*
X0173629Y0178244D01*
X0173629Y0178285D02*
X0183029Y0178285D01*
X0183029Y0178244D02*
X0179029Y0178244D01*
X0179029Y0178206D01*
X0179135Y0177537D01*
X0179344Y0176893D01*
X0179651Y0176290D01*
X0180049Y0175743D01*
X0180528Y0175264D01*
X0181075Y0174866D01*
X0181678Y0174559D01*
X0182322Y0174350D01*
X0182990Y0174244D01*
X0183029Y0174244D01*
X0183029Y0178244D01*
X0183629Y0178244D01*
X0183629Y0178844D01*
X0187629Y0178844D01*
X0187629Y0178883D01*
X0189029Y0178883D01*
X0189029Y0179399D02*
X0189029Y0177689D01*
X0189683Y0176108D01*
X0190893Y0174899D01*
X0192473Y0174244D01*
X0194184Y0174244D01*
X0195765Y0174899D01*
X0196974Y0176108D01*
X0197629Y0177689D01*
X0197629Y0179399D01*
X0196974Y0180980D01*
X0195765Y0182189D01*
X0194184Y0182844D01*
X0192473Y0182844D01*
X0190893Y0182189D01*
X0189683Y0180980D01*
X0189029Y0179399D01*
X0189063Y0179482D02*
X0187534Y0179482D01*
X0187523Y0179551D02*
X0187314Y0180195D01*
X0187006Y0180798D01*
X0186609Y0181345D01*
X0186130Y0181824D01*
X0185582Y0182222D01*
X0184979Y0182529D01*
X0184336Y0182738D01*
X0183667Y0182844D01*
X0183629Y0182844D01*
X0183629Y0178844D01*
X0183029Y0178844D01*
X0183029Y0178244D01*
X0183029Y0177686D02*
X0183629Y0177686D01*
X0183629Y0178244D02*
X0183629Y0174244D01*
X0183667Y0174244D01*
X0184336Y0174350D01*
X0184979Y0174559D01*
X0185582Y0174866D01*
X0186130Y0175264D01*
X0186609Y0175743D01*
X0187006Y0176290D01*
X0187314Y0176893D01*
X0187523Y0177537D01*
X0187629Y0178206D01*
X0187629Y0178244D01*
X0183629Y0178244D01*
X0183629Y0178285D02*
X0189029Y0178285D01*
X0189030Y0177686D02*
X0187546Y0177686D01*
X0187377Y0177088D02*
X0189278Y0177088D01*
X0189526Y0176489D02*
X0187108Y0176489D01*
X0186716Y0175891D02*
X0189901Y0175891D01*
X0190500Y0175292D02*
X0186158Y0175292D01*
X0185243Y0174694D02*
X0191388Y0174694D01*
X0195269Y0174694D02*
X0201388Y0174694D01*
X0200893Y0174899D02*
X0202473Y0174244D01*
X0204184Y0174244D01*
X0205765Y0174899D01*
X0206974Y0176108D01*
X0207629Y0177689D01*
X0207629Y0179399D01*
X0206974Y0180980D01*
X0205765Y0182189D01*
X0204184Y0182844D01*
X0202473Y0182844D01*
X0200893Y0182189D01*
X0199683Y0180980D01*
X0199029Y0179399D01*
X0199029Y0177689D01*
X0199683Y0176108D01*
X0200893Y0174899D01*
X0200500Y0175292D02*
X0196158Y0175292D01*
X0196756Y0175891D02*
X0199901Y0175891D01*
X0199526Y0176489D02*
X0197132Y0176489D01*
X0197380Y0177088D02*
X0199278Y0177088D01*
X0199030Y0177686D02*
X0197628Y0177686D01*
X0197629Y0178285D02*
X0199029Y0178285D01*
X0199029Y0178883D02*
X0197629Y0178883D01*
X0197595Y0179482D02*
X0199063Y0179482D01*
X0199311Y0180080D02*
X0197347Y0180080D01*
X0197099Y0180679D02*
X0199559Y0180679D01*
X0199981Y0181277D02*
X0196677Y0181277D01*
X0196078Y0181876D02*
X0200579Y0181876D01*
X0201581Y0182474D02*
X0195077Y0182474D01*
X0194246Y0184270D02*
X0202411Y0184270D01*
X0202473Y0184244D02*
X0200893Y0184899D01*
X0199683Y0186108D01*
X0199029Y0187689D01*
X0199029Y0189399D01*
X0199683Y0190980D01*
X0200893Y0192189D01*
X0202473Y0192844D01*
X0204184Y0192844D01*
X0205765Y0192189D01*
X0206974Y0190980D01*
X0207629Y0189399D01*
X0207629Y0187689D01*
X0206974Y0186108D01*
X0205765Y0184899D01*
X0204184Y0184244D01*
X0202473Y0184244D01*
X0200967Y0184868D02*
X0195691Y0184868D01*
X0195765Y0184899D02*
X0196974Y0186108D01*
X0197629Y0187689D01*
X0197629Y0189399D01*
X0196974Y0190980D01*
X0195765Y0192189D01*
X0194184Y0192844D01*
X0192473Y0192844D01*
X0190893Y0192189D01*
X0189683Y0190980D01*
X0189029Y0189399D01*
X0189029Y0187689D01*
X0189683Y0186108D01*
X0190893Y0184899D01*
X0192473Y0184244D01*
X0194184Y0184244D01*
X0195765Y0184899D01*
X0196333Y0185467D02*
X0200325Y0185467D01*
X0199726Y0186065D02*
X0196931Y0186065D01*
X0197204Y0186664D02*
X0199453Y0186664D01*
X0199205Y0187262D02*
X0197452Y0187262D01*
X0197629Y0187861D02*
X0199029Y0187861D01*
X0199029Y0188459D02*
X0197629Y0188459D01*
X0197629Y0189058D02*
X0199029Y0189058D01*
X0199135Y0189656D02*
X0197522Y0189656D01*
X0197274Y0190255D02*
X0199383Y0190255D01*
X0199631Y0190853D02*
X0197027Y0190853D01*
X0196502Y0191452D02*
X0200155Y0191452D01*
X0200754Y0192050D02*
X0195904Y0192050D01*
X0194655Y0192649D02*
X0202002Y0192649D01*
X0204655Y0192649D02*
X0212002Y0192649D01*
X0212473Y0192844D02*
X0210893Y0192189D01*
X0209683Y0190980D01*
X0209029Y0189399D01*
X0209029Y0187689D01*
X0209683Y0186108D01*
X0210893Y0184899D01*
X0212473Y0184244D01*
X0214184Y0184244D01*
X0215765Y0184899D01*
X0216974Y0186108D01*
X0217629Y0187689D01*
X0217629Y0189399D01*
X0216974Y0190980D01*
X0215765Y0192189D01*
X0214184Y0192844D01*
X0212473Y0192844D01*
X0210754Y0192050D02*
X0205904Y0192050D01*
X0206502Y0191452D02*
X0210155Y0191452D01*
X0209631Y0190853D02*
X0207027Y0190853D01*
X0207274Y0190255D02*
X0209383Y0190255D01*
X0209135Y0189656D02*
X0207522Y0189656D01*
X0207629Y0189058D02*
X0209029Y0189058D01*
X0209029Y0188459D02*
X0207629Y0188459D01*
X0207629Y0187861D02*
X0209029Y0187861D01*
X0209205Y0187262D02*
X0207452Y0187262D01*
X0207204Y0186664D02*
X0209453Y0186664D01*
X0209726Y0186065D02*
X0206931Y0186065D01*
X0206333Y0185467D02*
X0210325Y0185467D01*
X0210967Y0184868D02*
X0205691Y0184868D01*
X0204246Y0184270D02*
X0212411Y0184270D01*
X0212473Y0182844D02*
X0210893Y0182189D01*
X0209683Y0180980D01*
X0209029Y0179399D01*
X0209029Y0177689D01*
X0209683Y0176108D01*
X0210893Y0174899D01*
X0212473Y0174244D01*
X0214184Y0174244D01*
X0215765Y0174899D01*
X0216974Y0176108D01*
X0217629Y0177689D01*
X0217629Y0179399D01*
X0216974Y0180980D01*
X0215765Y0182189D01*
X0214184Y0182844D01*
X0212473Y0182844D01*
X0211581Y0182474D02*
X0205077Y0182474D01*
X0206078Y0181876D02*
X0210579Y0181876D01*
X0209981Y0181277D02*
X0206677Y0181277D01*
X0207099Y0180679D02*
X0209559Y0180679D01*
X0209311Y0180080D02*
X0207347Y0180080D01*
X0207595Y0179482D02*
X0209063Y0179482D01*
X0209029Y0178883D02*
X0207629Y0178883D01*
X0207629Y0178285D02*
X0209029Y0178285D01*
X0209030Y0177686D02*
X0207628Y0177686D01*
X0207380Y0177088D02*
X0209278Y0177088D01*
X0209526Y0176489D02*
X0207132Y0176489D01*
X0206756Y0175891D02*
X0209901Y0175891D01*
X0210500Y0175292D02*
X0206158Y0175292D01*
X0205269Y0174694D02*
X0211388Y0174694D01*
X0215269Y0174694D02*
X0220072Y0174694D01*
X0220072Y0175292D02*
X0216158Y0175292D01*
X0216756Y0175891D02*
X0220072Y0175891D01*
X0220072Y0176489D02*
X0217132Y0176489D01*
X0217380Y0177088D02*
X0220072Y0177088D01*
X0220072Y0177686D02*
X0217628Y0177686D01*
X0217629Y0178285D02*
X0220072Y0178285D01*
X0220072Y0178883D02*
X0217629Y0178883D01*
X0217595Y0179482D02*
X0220072Y0179482D01*
X0220072Y0180080D02*
X0217347Y0180080D01*
X0217099Y0180679D02*
X0220072Y0180679D01*
X0220072Y0181277D02*
X0216677Y0181277D01*
X0216078Y0181876D02*
X0220072Y0181876D01*
X0220072Y0182474D02*
X0215077Y0182474D01*
X0214246Y0184270D02*
X0220072Y0184270D01*
X0220072Y0184868D02*
X0215691Y0184868D01*
X0216333Y0185467D02*
X0220072Y0185467D01*
X0220072Y0186065D02*
X0216931Y0186065D01*
X0217204Y0186664D02*
X0220072Y0186664D01*
X0220072Y0187262D02*
X0217452Y0187262D01*
X0217629Y0187861D02*
X0220072Y0187861D01*
X0220072Y0188459D02*
X0217629Y0188459D01*
X0217629Y0189058D02*
X0220072Y0189058D01*
X0220072Y0189656D02*
X0217522Y0189656D01*
X0217274Y0190255D02*
X0220072Y0190255D01*
X0220072Y0190853D02*
X0217027Y0190853D01*
X0216502Y0191452D02*
X0220072Y0191452D01*
X0220072Y0192050D02*
X0215904Y0192050D01*
X0214655Y0192649D02*
X0220072Y0192649D01*
X0220072Y0193247D02*
X0048672Y0193247D01*
X0048672Y0192649D02*
X0102002Y0192649D01*
X0104655Y0192649D02*
X0112002Y0192649D01*
X0110754Y0192050D02*
X0105904Y0192050D01*
X0106502Y0191452D02*
X0110155Y0191452D01*
X0109631Y0190853D02*
X0107027Y0190853D01*
X0107274Y0190255D02*
X0109383Y0190255D01*
X0109135Y0189656D02*
X0107522Y0189656D01*
X0107629Y0189058D02*
X0109029Y0189058D01*
X0109029Y0188459D02*
X0107629Y0188459D01*
X0107629Y0187861D02*
X0109029Y0187861D01*
X0109205Y0187262D02*
X0107452Y0187262D01*
X0107204Y0186664D02*
X0109453Y0186664D01*
X0109726Y0186065D02*
X0106931Y0186065D01*
X0106333Y0185467D02*
X0110325Y0185467D01*
X0110967Y0184868D02*
X0105691Y0184868D01*
X0099901Y0175891D02*
X0080481Y0175891D01*
X0066426Y0178285D02*
X0048672Y0178285D01*
X0048672Y0178883D02*
X0066109Y0178883D01*
X0065511Y0179482D02*
X0048672Y0179482D01*
X0048672Y0180080D02*
X0064940Y0180080D01*
X0064692Y0180679D02*
X0048672Y0180679D01*
X0048672Y0181277D02*
X0064444Y0181277D01*
X0065669Y0177686D02*
X0048672Y0177686D01*
X0048672Y0177088D02*
X0065071Y0177088D01*
X0064758Y0176489D02*
X0048672Y0176489D01*
X0048672Y0175891D02*
X0049486Y0175891D01*
X0048729Y0175292D02*
X0048672Y0175292D01*
X0052259Y0175891D02*
X0064510Y0175891D01*
X0064312Y0175292D02*
X0053015Y0175292D01*
X0053460Y0174694D02*
X0064312Y0174694D01*
X0064312Y0174095D02*
X0053708Y0174095D01*
X0053796Y0173497D02*
X0064406Y0173497D01*
X0064653Y0172898D02*
X0053796Y0172898D01*
X0053623Y0172300D02*
X0064901Y0172300D01*
X0065417Y0171701D02*
X0053375Y0171701D01*
X0052810Y0171103D02*
X0066016Y0171103D01*
X0066651Y0170504D02*
X0051763Y0170504D01*
X0049981Y0170504D02*
X0048672Y0170504D01*
X0048672Y0169905D02*
X0065763Y0169905D01*
X0065164Y0169307D02*
X0048672Y0169307D01*
X0048672Y0168708D02*
X0064796Y0168708D01*
X0064549Y0168110D02*
X0048672Y0168110D01*
X0048672Y0167511D02*
X0064312Y0167511D01*
X0064312Y0166913D02*
X0048672Y0166913D01*
X0048672Y0166314D02*
X0064312Y0166314D01*
X0064367Y0165716D02*
X0048672Y0165716D01*
X0048672Y0165117D02*
X0064615Y0165117D01*
X0064863Y0164519D02*
X0048672Y0164519D01*
X0048672Y0163920D02*
X0065324Y0163920D01*
X0065923Y0163322D02*
X0048672Y0163322D01*
X0048672Y0162723D02*
X0066876Y0162723D01*
X0065856Y0162125D02*
X0048672Y0162125D01*
X0048672Y0161526D02*
X0065257Y0161526D01*
X0064835Y0160928D02*
X0048672Y0160928D01*
X0048672Y0160329D02*
X0064587Y0160329D01*
X0064339Y0159731D02*
X0048672Y0159731D01*
X0048672Y0159132D02*
X0064312Y0159132D01*
X0064312Y0158534D02*
X0048672Y0158534D01*
X0048672Y0157935D02*
X0064328Y0157935D01*
X0064576Y0157337D02*
X0048672Y0157337D01*
X0048672Y0156738D02*
X0064824Y0156738D01*
X0065231Y0156140D02*
X0048672Y0156140D01*
X0048672Y0155541D02*
X0065829Y0155541D01*
X0066812Y0154943D02*
X0048672Y0154943D01*
X0048672Y0154344D02*
X0065949Y0154344D01*
X0065351Y0153746D02*
X0048672Y0153746D01*
X0048672Y0153147D02*
X0064874Y0153147D01*
X0064626Y0152549D02*
X0048672Y0152549D01*
X0048672Y0151950D02*
X0064378Y0151950D01*
X0064312Y0151352D02*
X0048672Y0151352D01*
X0048672Y0150753D02*
X0064312Y0150753D01*
X0064312Y0150155D02*
X0048672Y0150155D01*
X0048672Y0149556D02*
X0064537Y0149556D01*
X0064785Y0148958D02*
X0048672Y0148958D01*
X0048672Y0148359D02*
X0065137Y0148359D01*
X0065736Y0147761D02*
X0048672Y0147761D01*
X0048672Y0147162D02*
X0066586Y0147162D01*
X0066043Y0146564D02*
X0048672Y0146564D01*
X0048672Y0145965D02*
X0065444Y0145965D01*
X0064912Y0145367D02*
X0048672Y0145367D01*
X0048672Y0144768D02*
X0064665Y0144768D01*
X0064417Y0144170D02*
X0048672Y0144170D01*
X0048672Y0143571D02*
X0064312Y0143571D01*
X0064312Y0142972D02*
X0048672Y0142972D01*
X0048672Y0142374D02*
X0064312Y0142374D01*
X0064499Y0141775D02*
X0048672Y0141775D01*
X0048672Y0141177D02*
X0064747Y0141177D01*
X0065044Y0140578D02*
X0048672Y0140578D01*
X0048672Y0139980D02*
X0065642Y0139980D01*
X0066361Y0139381D02*
X0048672Y0139381D01*
X0048672Y0138783D02*
X0066265Y0138783D01*
X0065537Y0138184D02*
X0048672Y0138184D01*
X0048672Y0137586D02*
X0065043Y0137586D01*
X0064704Y0136987D02*
X0048672Y0136987D01*
X0048672Y0136389D02*
X0064480Y0136389D01*
X0064353Y0135790D02*
X0048672Y0135790D01*
X0048672Y0135192D02*
X0068265Y0135192D01*
X0064355Y0134593D02*
X0048672Y0134593D01*
X0048672Y0133995D02*
X0064484Y0133995D01*
X0064710Y0133396D02*
X0048672Y0133396D01*
X0048672Y0132798D02*
X0065052Y0132798D01*
X0065549Y0132199D02*
X0048672Y0132199D01*
X0048672Y0131601D02*
X0066280Y0131601D01*
X0066333Y0131002D02*
X0048672Y0131002D01*
X0048672Y0130404D02*
X0065631Y0130404D01*
X0065032Y0129805D02*
X0048672Y0129805D01*
X0048672Y0129207D02*
X0064742Y0129207D01*
X0064494Y0128608D02*
X0048672Y0128608D01*
X0048672Y0128010D02*
X0064312Y0128010D01*
X0064312Y0127411D02*
X0048672Y0127411D01*
X0048672Y0126813D02*
X0064312Y0126813D01*
X0064421Y0126214D02*
X0048672Y0126214D01*
X0048672Y0125616D02*
X0064669Y0125616D01*
X0064917Y0125017D02*
X0048672Y0125017D01*
X0048672Y0124419D02*
X0065456Y0124419D01*
X0066054Y0123820D02*
X0048672Y0123820D01*
X0048672Y0123222D02*
X0066601Y0123222D01*
X0065724Y0122623D02*
X0048672Y0122623D01*
X0048672Y0122025D02*
X0065179Y0122025D01*
X0064799Y0121426D02*
X0048672Y0121426D01*
X0048672Y0120828D02*
X0064541Y0120828D01*
X0064383Y0120229D02*
X0048672Y0120229D01*
X0048672Y0119631D02*
X0068265Y0119631D01*
X0068265Y0119032D02*
X0068865Y0119032D01*
X0068865Y0118434D02*
X0068265Y0118434D01*
X0068265Y0117835D02*
X0068865Y0117835D01*
X0068865Y0117237D02*
X0068265Y0117237D01*
X0068265Y0116638D02*
X0068865Y0116638D01*
X0068865Y0116039D02*
X0068265Y0116039D01*
X0068265Y0115441D02*
X0068865Y0115441D01*
X0068865Y0114842D02*
X0068265Y0114842D01*
X0068265Y0114244D02*
X0068865Y0114244D01*
X0068865Y0113645D02*
X0068265Y0113645D01*
X0068265Y0113047D02*
X0068865Y0113047D01*
X0068865Y0112448D02*
X0068265Y0112448D01*
X0068265Y0111850D02*
X0048672Y0111850D01*
X0048672Y0112448D02*
X0064398Y0112448D01*
X0064571Y0113047D02*
X0048672Y0113047D01*
X0048672Y0113645D02*
X0064847Y0113645D01*
X0065247Y0114244D02*
X0048672Y0114244D01*
X0048672Y0114842D02*
X0065826Y0114842D01*
X0066784Y0115441D02*
X0048672Y0115441D01*
X0048672Y0116039D02*
X0066023Y0116039D01*
X0065362Y0116638D02*
X0048672Y0116638D01*
X0048672Y0117237D02*
X0064920Y0117237D01*
X0064618Y0117835D02*
X0048672Y0117835D01*
X0048672Y0118434D02*
X0064424Y0118434D01*
X0064325Y0119032D02*
X0048672Y0119032D01*
X0048672Y0111251D02*
X0064312Y0111251D01*
X0064405Y0110653D02*
X0048672Y0110653D01*
X0048672Y0110054D02*
X0064588Y0110054D01*
X0064872Y0109456D02*
X0048672Y0109456D01*
X0048672Y0108857D02*
X0065283Y0108857D01*
X0065895Y0108259D02*
X0048672Y0108259D01*
X0048672Y0107660D02*
X0066882Y0107660D01*
X0065955Y0107062D02*
X0048672Y0107062D01*
X0048672Y0106463D02*
X0065315Y0106463D01*
X0064894Y0105865D02*
X0048672Y0105865D01*
X0048672Y0105266D02*
X0064602Y0105266D01*
X0064412Y0104668D02*
X0048672Y0104668D01*
X0048672Y0104069D02*
X0064317Y0104069D01*
X0064391Y0102872D02*
X0048672Y0102872D01*
X0048672Y0102274D02*
X0064557Y0102274D01*
X0064825Y0101675D02*
X0048672Y0101675D01*
X0048672Y0101077D02*
X0065215Y0101077D01*
X0065774Y0100478D02*
X0048672Y0100478D01*
X0048672Y0099880D02*
X0066698Y0099880D01*
X0066083Y0099281D02*
X0048672Y0099281D01*
X0048672Y0098683D02*
X0065406Y0098683D01*
X0064948Y0098084D02*
X0048672Y0098084D01*
X0048672Y0097486D02*
X0064637Y0097486D01*
X0064438Y0096887D02*
X0048672Y0096887D01*
X0048672Y0096289D02*
X0064332Y0096289D01*
X0064376Y0095092D02*
X0048672Y0095092D01*
X0048672Y0095690D02*
X0068265Y0095690D01*
X0068265Y0096289D02*
X0068865Y0096289D01*
X0068865Y0096887D02*
X0068265Y0096887D01*
X0068265Y0097486D02*
X0068865Y0097486D01*
X0068865Y0098084D02*
X0068265Y0098084D01*
X0068265Y0098683D02*
X0068865Y0098683D01*
X0068865Y0099281D02*
X0068265Y0099281D01*
X0068265Y0099880D02*
X0068865Y0099880D01*
X0068865Y0100478D02*
X0068265Y0100478D01*
X0068265Y0101077D02*
X0068865Y0101077D01*
X0068865Y0101675D02*
X0068265Y0101675D01*
X0068265Y0102274D02*
X0068865Y0102274D01*
X0068865Y0102872D02*
X0068265Y0102872D01*
X0068265Y0103471D02*
X0048672Y0103471D01*
X0048672Y0094493D02*
X0064527Y0094493D01*
X0064777Y0093895D02*
X0048672Y0093895D01*
X0048672Y0093296D02*
X0065148Y0093296D01*
X0065681Y0092698D02*
X0048672Y0092698D01*
X0048672Y0092099D02*
X0066515Y0092099D01*
X0066098Y0091501D02*
X0048672Y0091501D01*
X0048672Y0090902D02*
X0049513Y0090902D01*
X0048740Y0090303D02*
X0048672Y0090303D01*
X0052231Y0090902D02*
X0065499Y0090902D01*
X0064935Y0090303D02*
X0053004Y0090303D01*
X0053455Y0089705D02*
X0064687Y0089705D01*
X0064439Y0089106D02*
X0053703Y0089106D01*
X0053796Y0088508D02*
X0064312Y0088508D01*
X0064312Y0087909D02*
X0053796Y0087909D01*
X0053627Y0087311D02*
X0064312Y0087311D01*
X0064476Y0086712D02*
X0053379Y0086712D01*
X0052821Y0086114D02*
X0064724Y0086114D01*
X0064989Y0085515D02*
X0051790Y0085515D01*
X0049954Y0085515D02*
X0048672Y0085515D01*
X0048672Y0084917D02*
X0065587Y0084917D01*
X0066228Y0084318D02*
X0048672Y0084318D01*
X0048672Y0083720D02*
X0066241Y0083720D01*
X0065593Y0083121D02*
X0048672Y0083121D01*
X0048672Y0082523D02*
X0064994Y0082523D01*
X0064726Y0081924D02*
X0048672Y0081924D01*
X0048672Y0081326D02*
X0064478Y0081326D01*
X0064312Y0080727D02*
X0048672Y0080727D01*
X0048672Y0080129D02*
X0064312Y0080129D01*
X0064312Y0079530D02*
X0048672Y0079530D01*
X0048672Y0078932D02*
X0056585Y0078932D01*
X0056216Y0078779D02*
X0055393Y0077956D01*
X0054948Y0076882D01*
X0054948Y0075718D01*
X0055393Y0074644D01*
X0056216Y0073821D01*
X0057290Y0073376D01*
X0058454Y0073376D01*
X0059528Y0073821D01*
X0060351Y0074644D01*
X0060796Y0075718D01*
X0060796Y0076882D01*
X0060351Y0077956D01*
X0059528Y0078779D01*
X0058454Y0079224D01*
X0057290Y0079224D01*
X0056216Y0078779D01*
X0055770Y0078333D02*
X0048672Y0078333D01*
X0048672Y0077735D02*
X0055301Y0077735D01*
X0055054Y0077136D02*
X0048672Y0077136D01*
X0048672Y0076538D02*
X0054948Y0076538D01*
X0054948Y0075939D02*
X0048672Y0075939D01*
X0048672Y0075341D02*
X0055105Y0075341D01*
X0055352Y0074742D02*
X0048672Y0074742D01*
X0048672Y0074144D02*
X0055893Y0074144D01*
X0056882Y0073545D02*
X0048672Y0073545D01*
X0048672Y0072947D02*
X0064312Y0072947D01*
X0064312Y0072348D02*
X0048672Y0072348D01*
X0048672Y0071750D02*
X0064312Y0071750D01*
X0064399Y0071151D02*
X0048672Y0071151D01*
X0048672Y0070553D02*
X0064647Y0070553D01*
X0064894Y0069954D02*
X0048672Y0069954D01*
X0048672Y0069356D02*
X0065401Y0069356D01*
X0065999Y0068757D02*
X0048672Y0068757D01*
X0048672Y0068159D02*
X0067222Y0068159D01*
X0069908Y0068159D02*
X0075132Y0068159D01*
X0073950Y0068757D02*
X0071131Y0068757D01*
X0071729Y0069356D02*
X0073275Y0069356D01*
X0072818Y0069954D02*
X0072236Y0069954D01*
X0072484Y0070553D02*
X0072508Y0070553D01*
X0076739Y0072348D02*
X0154483Y0072348D01*
X0154483Y0072947D02*
X0126680Y0072947D01*
X0126551Y0072817D02*
X0127950Y0074216D01*
X0127950Y0076196D01*
X0126551Y0077595D01*
X0124572Y0077595D01*
X0123172Y0076196D01*
X0123172Y0074216D01*
X0124572Y0072817D01*
X0126551Y0072817D01*
X0127279Y0073545D02*
X0154739Y0073545D01*
X0155337Y0074144D02*
X0127877Y0074144D01*
X0127950Y0074742D02*
X0157051Y0074742D01*
X0156483Y0075341D02*
X0145291Y0075341D01*
X0144862Y0074911D02*
X0146261Y0076310D01*
X0146261Y0078290D01*
X0144862Y0079689D01*
X0142883Y0079689D01*
X0141483Y0078290D01*
X0141483Y0076310D01*
X0142883Y0074911D01*
X0144862Y0074911D01*
X0145890Y0075939D02*
X0156483Y0075939D01*
X0156483Y0076538D02*
X0146261Y0076538D01*
X0146261Y0077136D02*
X0156483Y0077136D01*
X0156928Y0077735D02*
X0146261Y0077735D01*
X0146217Y0078333D02*
X0157527Y0078333D01*
X0160217Y0078333D02*
X0220072Y0078333D01*
X0220072Y0077735D02*
X0160816Y0077735D01*
X0161261Y0077136D02*
X0220072Y0077136D01*
X0220072Y0076538D02*
X0161261Y0076538D01*
X0161261Y0075939D02*
X0220072Y0075939D01*
X0220072Y0075341D02*
X0161261Y0075341D01*
X0160693Y0074742D02*
X0220072Y0074742D01*
X0220072Y0074144D02*
X0160094Y0074144D01*
X0159261Y0072348D02*
X0200146Y0072348D01*
X0199548Y0071750D02*
X0159261Y0071750D01*
X0159102Y0071151D02*
X0199149Y0071151D01*
X0198901Y0070553D02*
X0158503Y0070553D01*
X0157905Y0069954D02*
X0198653Y0069954D01*
X0200670Y0062772D02*
X0048672Y0062772D01*
X0048672Y0063370D02*
X0220072Y0063370D01*
X0220072Y0062772D02*
X0215200Y0062772D01*
X0215899Y0062173D02*
X0220072Y0062173D01*
X0220072Y0061575D02*
X0216497Y0061575D01*
X0216794Y0060976D02*
X0220072Y0060976D01*
X0220072Y0060378D02*
X0217042Y0060378D01*
X0217235Y0059779D02*
X0220072Y0059779D01*
X0220072Y0059181D02*
X0217235Y0059181D01*
X0217235Y0058582D02*
X0220072Y0058582D01*
X0220072Y0057984D02*
X0217145Y0057984D01*
X0216897Y0057385D02*
X0220072Y0057385D01*
X0220072Y0056787D02*
X0216650Y0056787D01*
X0216149Y0056188D02*
X0220072Y0056188D01*
X0220072Y0055590D02*
X0215550Y0055590D01*
X0214359Y0054991D02*
X0220072Y0054991D01*
X0220072Y0054393D02*
X0173072Y0054393D01*
X0173072Y0054911D02*
X0174862Y0054911D01*
X0176261Y0056310D01*
X0176261Y0058290D01*
X0174862Y0059689D01*
X0172883Y0059689D01*
X0171483Y0058290D01*
X0171483Y0056687D01*
X0169694Y0056687D01*
X0168294Y0055287D01*
X0168294Y0053308D01*
X0169694Y0051909D01*
X0171673Y0051909D01*
X0173072Y0053308D01*
X0173072Y0054911D01*
X0173072Y0053794D02*
X0220072Y0053794D01*
X0220072Y0053196D02*
X0214177Y0053196D01*
X0215475Y0052597D02*
X0220072Y0052597D01*
X0220072Y0051999D02*
X0216073Y0051999D01*
X0216618Y0051400D02*
X0220072Y0051400D01*
X0220072Y0050802D02*
X0216866Y0050802D01*
X0217114Y0050203D02*
X0220072Y0050203D01*
X0220072Y0049605D02*
X0217235Y0049605D01*
X0217235Y0049006D02*
X0220072Y0049006D01*
X0220072Y0048408D02*
X0217235Y0048408D01*
X0217073Y0047809D02*
X0220072Y0047809D01*
X0220072Y0047211D02*
X0216825Y0047211D01*
X0216572Y0046612D02*
X0220072Y0046612D01*
X0220072Y0046014D02*
X0215974Y0046014D01*
X0215375Y0045415D02*
X0220072Y0045415D01*
X0220072Y0044817D02*
X0213937Y0044817D01*
X0220072Y0044218D02*
X0176007Y0044218D01*
X0175862Y0044072D02*
X0177261Y0045472D01*
X0177261Y0047451D01*
X0175862Y0048850D01*
X0173883Y0048850D01*
X0172483Y0047451D01*
X0172483Y0045472D01*
X0173883Y0044072D01*
X0175862Y0044072D01*
X0176606Y0044817D02*
X0201933Y0044817D01*
X0200495Y0045415D02*
X0177204Y0045415D01*
X0177261Y0046014D02*
X0199896Y0046014D01*
X0199298Y0046612D02*
X0177261Y0046612D01*
X0177261Y0047211D02*
X0199045Y0047211D01*
X0198797Y0047809D02*
X0176903Y0047809D01*
X0176304Y0048408D02*
X0198635Y0048408D01*
X0198635Y0049006D02*
X0168957Y0049006D01*
X0169261Y0049310D02*
X0167862Y0047911D01*
X0165883Y0047911D01*
X0164483Y0049310D01*
X0164483Y0051290D01*
X0165883Y0052689D01*
X0167862Y0052689D01*
X0169261Y0051290D01*
X0169261Y0049310D01*
X0169261Y0049605D02*
X0198635Y0049605D01*
X0198756Y0050203D02*
X0169261Y0050203D01*
X0169261Y0050802D02*
X0199004Y0050802D01*
X0199252Y0051400D02*
X0169150Y0051400D01*
X0169603Y0051999D02*
X0168552Y0051999D01*
X0169005Y0052597D02*
X0167953Y0052597D01*
X0168406Y0053196D02*
X0100379Y0053196D01*
X0099780Y0053794D02*
X0124539Y0053794D01*
X0124883Y0053450D02*
X0126862Y0053450D01*
X0128261Y0054850D01*
X0128261Y0056829D01*
X0126862Y0058228D01*
X0124883Y0058228D01*
X0123483Y0056829D01*
X0123483Y0054850D01*
X0124883Y0053450D01*
X0123940Y0054393D02*
X0048672Y0054393D01*
X0048672Y0054991D02*
X0123483Y0054991D01*
X0123483Y0055590D02*
X0048672Y0055590D01*
X0048672Y0056188D02*
X0123483Y0056188D01*
X0123483Y0056787D02*
X0048672Y0056787D01*
X0048672Y0057385D02*
X0076408Y0057385D01*
X0076883Y0056911D02*
X0078862Y0056911D01*
X0080261Y0058310D01*
X0080261Y0060290D01*
X0078862Y0061689D01*
X0076883Y0061689D01*
X0075483Y0060290D01*
X0075483Y0058310D01*
X0076883Y0056911D01*
X0075810Y0057984D02*
X0048672Y0057984D01*
X0048672Y0058582D02*
X0075483Y0058582D01*
X0075483Y0059181D02*
X0048672Y0059181D01*
X0048672Y0059779D02*
X0075483Y0059779D01*
X0075572Y0060378D02*
X0048672Y0060378D01*
X0048672Y0060976D02*
X0076170Y0060976D01*
X0076769Y0061575D02*
X0048672Y0061575D01*
X0048672Y0062173D02*
X0199972Y0062173D01*
X0199373Y0061575D02*
X0078976Y0061575D01*
X0079574Y0060976D02*
X0199076Y0060976D01*
X0198828Y0060378D02*
X0080173Y0060378D01*
X0080261Y0059779D02*
X0198635Y0059779D01*
X0198635Y0059181D02*
X0175370Y0059181D01*
X0175968Y0058582D02*
X0198635Y0058582D01*
X0198725Y0057984D02*
X0176261Y0057984D01*
X0176261Y0057385D02*
X0198973Y0057385D01*
X0199221Y0056787D02*
X0176261Y0056787D01*
X0176139Y0056188D02*
X0199722Y0056188D01*
X0200320Y0055590D02*
X0175540Y0055590D01*
X0174942Y0054991D02*
X0201511Y0054991D01*
X0201693Y0053196D02*
X0172960Y0053196D01*
X0172361Y0052597D02*
X0200395Y0052597D01*
X0199797Y0051999D02*
X0171763Y0051999D01*
X0168294Y0053794D02*
X0127206Y0053794D01*
X0127804Y0054393D02*
X0168294Y0054393D01*
X0168294Y0054991D02*
X0128261Y0054991D01*
X0128261Y0055590D02*
X0168597Y0055590D01*
X0169195Y0056188D02*
X0128261Y0056188D01*
X0128261Y0056787D02*
X0171483Y0056787D01*
X0171483Y0057385D02*
X0127705Y0057385D01*
X0127106Y0057984D02*
X0171483Y0057984D01*
X0171776Y0058582D02*
X0080261Y0058582D01*
X0080261Y0059181D02*
X0172374Y0059181D01*
X0178825Y0063969D02*
X0048672Y0063969D01*
X0048672Y0066962D02*
X0088832Y0066962D01*
X0088234Y0067560D02*
X0048672Y0067560D01*
X0058862Y0073545D02*
X0064517Y0073545D01*
X0064765Y0074144D02*
X0059851Y0074144D01*
X0060392Y0074742D02*
X0065087Y0074742D01*
X0065686Y0075341D02*
X0060640Y0075341D01*
X0060796Y0075939D02*
X0066466Y0075939D01*
X0066093Y0076538D02*
X0060796Y0076538D01*
X0060691Y0077136D02*
X0065494Y0077136D01*
X0064933Y0077735D02*
X0060443Y0077735D01*
X0059974Y0078333D02*
X0064685Y0078333D01*
X0064437Y0078932D02*
X0059159Y0078932D01*
X0048923Y0086114D02*
X0048672Y0086114D01*
X0068265Y0104069D02*
X0068865Y0104069D01*
X0068865Y0104668D02*
X0068265Y0104668D01*
X0068265Y0105266D02*
X0068865Y0105266D01*
X0068865Y0105865D02*
X0068265Y0105865D01*
X0068265Y0106463D02*
X0068865Y0106463D01*
X0068865Y0107062D02*
X0068265Y0107062D01*
X0068265Y0107660D02*
X0068865Y0107660D01*
X0068865Y0108259D02*
X0068265Y0108259D01*
X0068265Y0108857D02*
X0068865Y0108857D01*
X0068865Y0109456D02*
X0068265Y0109456D01*
X0068265Y0110054D02*
X0068865Y0110054D01*
X0068865Y0110653D02*
X0068265Y0110653D01*
X0068265Y0111251D02*
X0068865Y0111251D01*
X0078220Y0115441D02*
X0206572Y0115441D01*
X0206572Y0116039D02*
X0079043Y0116039D01*
X0079642Y0116638D02*
X0206772Y0116638D01*
X0207020Y0117237D02*
X0080125Y0117237D01*
X0080373Y0117835D02*
X0207326Y0117835D01*
X0207925Y0118434D02*
X0080621Y0118434D01*
X0080692Y0119032D02*
X0105762Y0119032D01*
X0105883Y0118911D02*
X0107862Y0118911D01*
X0109261Y0120310D01*
X0109261Y0122290D01*
X0107862Y0123689D01*
X0105883Y0123689D01*
X0104483Y0122290D01*
X0104483Y0120310D01*
X0105883Y0118911D01*
X0105163Y0119631D02*
X0080692Y0119631D01*
X0080692Y0120229D02*
X0104565Y0120229D01*
X0104483Y0120828D02*
X0080471Y0120828D01*
X0080223Y0121426D02*
X0104483Y0121426D01*
X0104483Y0122025D02*
X0079878Y0122025D01*
X0079280Y0122623D02*
X0104817Y0122623D01*
X0105415Y0123222D02*
X0078446Y0123222D01*
X0078950Y0123820D02*
X0120014Y0123820D01*
X0119483Y0123290D02*
X0120883Y0124689D01*
X0122862Y0124689D01*
X0124261Y0123290D01*
X0124261Y0121310D01*
X0122862Y0119911D01*
X0120883Y0119911D01*
X0119483Y0121310D01*
X0119483Y0123290D01*
X0119483Y0123222D02*
X0108329Y0123222D01*
X0108928Y0122623D02*
X0119483Y0122623D01*
X0119483Y0122025D02*
X0109261Y0122025D01*
X0109261Y0121426D02*
X0119483Y0121426D01*
X0119966Y0120828D02*
X0109261Y0120828D01*
X0109180Y0120229D02*
X0120565Y0120229D01*
X0123180Y0120229D02*
X0148565Y0120229D01*
X0148483Y0120310D02*
X0149883Y0118911D01*
X0151862Y0118911D01*
X0153261Y0120310D01*
X0153261Y0122290D01*
X0151862Y0123689D01*
X0149883Y0123689D01*
X0148483Y0122290D01*
X0148483Y0120310D01*
X0148483Y0120828D02*
X0123778Y0120828D01*
X0124261Y0121426D02*
X0148483Y0121426D01*
X0148483Y0122025D02*
X0124261Y0122025D01*
X0124261Y0122623D02*
X0148817Y0122623D01*
X0149415Y0123222D02*
X0124261Y0123222D01*
X0123730Y0123820D02*
X0206290Y0123820D01*
X0206072Y0124419D02*
X0123132Y0124419D01*
X0120612Y0124419D02*
X0079548Y0124419D01*
X0080087Y0125017D02*
X0206072Y0125017D01*
X0206072Y0125616D02*
X0080335Y0125616D01*
X0080203Y0101675D02*
X0086869Y0101675D01*
X0086270Y0101077D02*
X0079828Y0101077D01*
X0079230Y0100478D02*
X0085672Y0100478D01*
X0085483Y0099880D02*
X0078325Y0099880D01*
X0079000Y0099281D02*
X0085483Y0099281D01*
X0085483Y0098683D02*
X0079598Y0098683D01*
X0080107Y0098084D02*
X0085709Y0098084D01*
X0086308Y0097486D02*
X0080355Y0097486D01*
X0080489Y0094493D02*
X0156687Y0094493D01*
X0156483Y0093895D02*
X0080241Y0093895D01*
X0079922Y0093296D02*
X0156483Y0093296D01*
X0156483Y0092698D02*
X0079323Y0092698D01*
X0078551Y0092099D02*
X0156695Y0092099D01*
X0157293Y0091501D02*
X0129050Y0091501D01*
X0126694Y0091501D02*
X0078792Y0091501D01*
X0079505Y0090902D02*
X0126096Y0090902D01*
X0125497Y0090303D02*
X0079988Y0090303D01*
X0080320Y0089705D02*
X0125483Y0089705D01*
X0125483Y0089106D02*
X0080536Y0089106D01*
X0080657Y0088508D02*
X0125483Y0088508D01*
X0125884Y0087909D02*
X0076739Y0087909D01*
X0076739Y0087311D02*
X0076139Y0087311D01*
X0076139Y0086712D02*
X0076739Y0086712D01*
X0076739Y0086114D02*
X0076139Y0086114D01*
X0076139Y0085515D02*
X0076739Y0085515D01*
X0076739Y0084917D02*
X0076139Y0084917D01*
X0076139Y0084318D02*
X0076739Y0084318D01*
X0076739Y0083720D02*
X0076139Y0083720D01*
X0076139Y0083121D02*
X0076739Y0083121D01*
X0076739Y0082523D02*
X0076139Y0082523D01*
X0076139Y0081924D02*
X0076739Y0081924D01*
X0076739Y0081326D02*
X0076139Y0081326D01*
X0076139Y0080727D02*
X0076739Y0080727D01*
X0080658Y0079530D02*
X0114483Y0079530D01*
X0114862Y0078932D02*
X0080538Y0078932D01*
X0080322Y0078333D02*
X0115460Y0078333D01*
X0114414Y0077136D02*
X0124113Y0077136D01*
X0123514Y0076538D02*
X0115013Y0076538D01*
X0115261Y0076290D02*
X0113862Y0077689D01*
X0111883Y0077689D01*
X0110483Y0076290D01*
X0110483Y0074310D01*
X0111883Y0072911D01*
X0113862Y0072911D01*
X0115261Y0074310D01*
X0115261Y0076290D01*
X0115261Y0075939D02*
X0123172Y0075939D01*
X0123172Y0075341D02*
X0115261Y0075341D01*
X0115261Y0074742D02*
X0123172Y0074742D01*
X0123245Y0074144D02*
X0115094Y0074144D01*
X0114496Y0073545D02*
X0123843Y0073545D01*
X0124442Y0072947D02*
X0113897Y0072947D01*
X0111847Y0072947D02*
X0080627Y0072947D01*
X0080475Y0073545D02*
X0111248Y0073545D01*
X0110650Y0074144D02*
X0080224Y0074144D01*
X0079853Y0074742D02*
X0110483Y0074742D01*
X0110483Y0075341D02*
X0079318Y0075341D01*
X0078479Y0075939D02*
X0110483Y0075939D01*
X0110731Y0076538D02*
X0078799Y0076538D01*
X0079510Y0077136D02*
X0111330Y0077136D01*
X0118284Y0078333D02*
X0130664Y0078333D01*
X0130664Y0078388D02*
X0130664Y0076409D01*
X0132064Y0075009D01*
X0134043Y0075009D01*
X0135442Y0076409D01*
X0135442Y0078388D01*
X0134043Y0079787D01*
X0132064Y0079787D01*
X0130664Y0078388D01*
X0130664Y0077735D02*
X0079992Y0077735D01*
X0080507Y0086712D02*
X0177387Y0086712D01*
X0177387Y0086114D02*
X0177245Y0086114D01*
X0177387Y0087311D02*
X0129262Y0087311D01*
X0126483Y0087311D02*
X0080643Y0087311D01*
X0079935Y0057984D02*
X0124638Y0057984D01*
X0124040Y0057385D02*
X0079336Y0057385D01*
X0082151Y0051048D02*
X0081743Y0050775D01*
X0081397Y0050429D01*
X0081124Y0050022D01*
X0080937Y0049569D01*
X0080841Y0049088D01*
X0080841Y0048937D01*
X0083235Y0048937D01*
X0083235Y0048750D01*
X0080841Y0048750D01*
X0080841Y0048598D01*
X0080937Y0048118D01*
X0081124Y0047665D01*
X0081397Y0047258D01*
X0081743Y0046911D01*
X0082151Y0046639D01*
X0082603Y0046451D01*
X0083084Y0046356D01*
X0083235Y0046356D01*
X0083235Y0048750D01*
X0083423Y0048750D01*
X0083423Y0048937D01*
X0085816Y0048937D01*
X0085816Y0049088D01*
X0085721Y0049569D01*
X0085533Y0050022D01*
X0085261Y0050429D01*
X0084914Y0050775D01*
X0084507Y0051048D01*
X0084054Y0051235D01*
X0083574Y0051331D01*
X0083423Y0051331D01*
X0083423Y0048937D01*
X0083235Y0048937D01*
X0083235Y0051331D01*
X0083084Y0051331D01*
X0082603Y0051235D01*
X0082151Y0051048D01*
X0081783Y0050802D02*
X0048672Y0050802D01*
X0048672Y0051400D02*
X0096220Y0051400D01*
X0096220Y0050802D02*
X0091962Y0050802D01*
X0092001Y0050775D02*
X0091594Y0051048D01*
X0091141Y0051235D01*
X0090660Y0051331D01*
X0090509Y0051331D01*
X0090509Y0048937D01*
X0090322Y0048937D01*
X0090322Y0051331D01*
X0090170Y0051331D01*
X0089690Y0051235D01*
X0089237Y0051048D01*
X0088830Y0050775D01*
X0088483Y0050429D01*
X0088211Y0050022D01*
X0088024Y0049569D01*
X0087928Y0049088D01*
X0087928Y0048937D01*
X0090322Y0048937D01*
X0090322Y0048750D01*
X0087928Y0048750D01*
X0087928Y0048598D01*
X0088024Y0048118D01*
X0088211Y0047665D01*
X0088483Y0047258D01*
X0088830Y0046911D01*
X0089237Y0046639D01*
X0089690Y0046451D01*
X0090170Y0046356D01*
X0090322Y0046356D01*
X0090322Y0048750D01*
X0090509Y0048750D01*
X0090509Y0048937D01*
X0092903Y0048937D01*
X0092903Y0049088D01*
X0092807Y0049569D01*
X0092620Y0050022D01*
X0092348Y0050429D01*
X0092001Y0050775D01*
X0092498Y0050203D02*
X0096614Y0050203D01*
X0096220Y0050598D02*
X0097619Y0049198D01*
X0098483Y0049198D01*
X0097483Y0048199D01*
X0097483Y0046220D01*
X0098883Y0044820D01*
X0100862Y0044820D01*
X0102261Y0046220D01*
X0102261Y0048199D01*
X0100862Y0049598D01*
X0099998Y0049598D01*
X0100998Y0050598D01*
X0100998Y0052577D01*
X0099598Y0053976D01*
X0097619Y0053976D01*
X0096220Y0052577D01*
X0096220Y0050598D01*
X0096220Y0051999D02*
X0048672Y0051999D01*
X0048672Y0052597D02*
X0096240Y0052597D01*
X0096839Y0053196D02*
X0048672Y0053196D01*
X0048672Y0053794D02*
X0097437Y0053794D01*
X0100977Y0052597D02*
X0165791Y0052597D01*
X0165192Y0051999D02*
X0100998Y0051999D01*
X0100998Y0051400D02*
X0164594Y0051400D01*
X0164483Y0050802D02*
X0100998Y0050802D01*
X0100603Y0050203D02*
X0124240Y0050203D01*
X0124290Y0050224D02*
X0123216Y0049779D01*
X0122393Y0048956D01*
X0121948Y0047882D01*
X0121948Y0046718D01*
X0122393Y0045644D01*
X0123216Y0044821D01*
X0124290Y0044376D01*
X0124915Y0044376D01*
X0124915Y0043752D01*
X0125360Y0042677D01*
X0126182Y0041854D01*
X0127257Y0041409D01*
X0128420Y0041409D01*
X0129495Y0041854D01*
X0130318Y0042677D01*
X0130763Y0043752D01*
X0130763Y0044915D01*
X0130318Y0045990D01*
X0129495Y0046812D01*
X0128420Y0047257D01*
X0127796Y0047257D01*
X0127796Y0047882D01*
X0127351Y0048956D01*
X0126528Y0049779D01*
X0125454Y0050224D01*
X0124290Y0050224D01*
X0125504Y0050203D02*
X0164483Y0050203D01*
X0164483Y0049605D02*
X0126703Y0049605D01*
X0127301Y0049006D02*
X0164787Y0049006D01*
X0165386Y0048408D02*
X0152521Y0048408D01*
X0152240Y0048689D02*
X0153639Y0047290D01*
X0153639Y0045310D01*
X0152240Y0043911D01*
X0150261Y0043911D01*
X0148861Y0045310D01*
X0148861Y0047290D01*
X0150261Y0048689D01*
X0152240Y0048689D01*
X0153119Y0047809D02*
X0172841Y0047809D01*
X0172483Y0047211D02*
X0153639Y0047211D01*
X0153639Y0046612D02*
X0172483Y0046612D01*
X0172483Y0046014D02*
X0153639Y0046014D01*
X0153639Y0045415D02*
X0172540Y0045415D01*
X0173138Y0044817D02*
X0153145Y0044817D01*
X0152547Y0044218D02*
X0173737Y0044218D01*
X0173440Y0048408D02*
X0168358Y0048408D01*
X0177672Y0041290D02*
X0177672Y0039310D01*
X0179072Y0037911D01*
X0181051Y0037911D01*
X0182450Y0039310D01*
X0182450Y0041290D01*
X0181051Y0042689D01*
X0179072Y0042689D01*
X0177672Y0041290D01*
X0177672Y0041226D02*
X0155123Y0041226D01*
X0155123Y0041824D02*
X0178207Y0041824D01*
X0178805Y0042423D02*
X0154990Y0042423D01*
X0155123Y0040627D02*
X0177672Y0040627D01*
X0177672Y0040029D02*
X0154841Y0040029D01*
X0154243Y0039430D02*
X0177672Y0039430D01*
X0178151Y0038832D02*
X0048672Y0038832D01*
X0048672Y0039430D02*
X0082446Y0039430D01*
X0082603Y0039365D02*
X0083084Y0039269D01*
X0083235Y0039269D01*
X0083235Y0041663D01*
X0080841Y0041663D01*
X0080841Y0041512D01*
X0080937Y0041031D01*
X0081124Y0040578D01*
X0081397Y0040171D01*
X0081743Y0039825D01*
X0082151Y0039552D01*
X0082603Y0039365D01*
X0083235Y0039430D02*
X0083423Y0039430D01*
X0083423Y0039269D02*
X0083574Y0039269D01*
X0084054Y0039365D01*
X0084507Y0039552D01*
X0084914Y0039825D01*
X0085261Y0040171D01*
X0085533Y0040578D01*
X0085721Y0041031D01*
X0085816Y0041512D01*
X0085816Y0041663D01*
X0083423Y0041663D01*
X0083423Y0041850D01*
X0085816Y0041850D01*
X0085816Y0042002D01*
X0085721Y0042482D01*
X0085533Y0042935D01*
X0085261Y0043342D01*
X0084914Y0043689D01*
X0084507Y0043961D01*
X0084054Y0044148D01*
X0083574Y0044244D01*
X0083423Y0044244D01*
X0083423Y0041850D01*
X0083235Y0041850D01*
X0083235Y0041663D01*
X0083423Y0041663D01*
X0083423Y0039269D01*
X0083423Y0040029D02*
X0083235Y0040029D01*
X0083235Y0040627D02*
X0083423Y0040627D01*
X0083423Y0041226D02*
X0083235Y0041226D01*
X0083235Y0041824D02*
X0048672Y0041824D01*
X0048672Y0041226D02*
X0080898Y0041226D01*
X0080841Y0041850D02*
X0083235Y0041850D01*
X0083235Y0044244D01*
X0083084Y0044244D01*
X0082603Y0044148D01*
X0082151Y0043961D01*
X0081743Y0043689D01*
X0081397Y0043342D01*
X0081124Y0042935D01*
X0080937Y0042482D01*
X0080841Y0042002D01*
X0080841Y0041850D01*
X0080925Y0042423D02*
X0048672Y0042423D01*
X0048672Y0043021D02*
X0081182Y0043021D01*
X0081674Y0043620D02*
X0048672Y0043620D01*
X0048672Y0044218D02*
X0082953Y0044218D01*
X0083235Y0044218D02*
X0083423Y0044218D01*
X0083704Y0044218D02*
X0084628Y0044218D01*
X0084668Y0044122D02*
X0084940Y0043714D01*
X0085286Y0043368D01*
X0085694Y0043096D01*
X0086147Y0042908D01*
X0086627Y0042813D01*
X0086778Y0042813D01*
X0086778Y0045206D01*
X0084385Y0045206D01*
X0084385Y0045055D01*
X0084480Y0044574D01*
X0084668Y0044122D01*
X0084984Y0043620D02*
X0085035Y0043620D01*
X0085476Y0043021D02*
X0085874Y0043021D01*
X0085732Y0042423D02*
X0088012Y0042423D01*
X0088024Y0042482D02*
X0087928Y0042002D01*
X0087928Y0041850D01*
X0090322Y0041850D01*
X0090322Y0041663D01*
X0090509Y0041663D01*
X0090509Y0039269D01*
X0090660Y0039269D01*
X0091141Y0039365D01*
X0091594Y0039552D01*
X0092001Y0039825D01*
X0092348Y0040171D01*
X0092620Y0040578D01*
X0092807Y0041031D01*
X0092903Y0041512D01*
X0092903Y0041663D01*
X0090509Y0041663D01*
X0090509Y0041850D01*
X0092903Y0041850D01*
X0092903Y0042002D01*
X0092807Y0042482D01*
X0092620Y0042935D01*
X0092348Y0043342D01*
X0092001Y0043689D01*
X0091594Y0043961D01*
X0091141Y0044148D01*
X0090660Y0044244D01*
X0090509Y0044244D01*
X0090509Y0041850D01*
X0090322Y0041850D01*
X0090322Y0044244D01*
X0090170Y0044244D01*
X0089690Y0044148D01*
X0089237Y0043961D01*
X0088830Y0043689D01*
X0088483Y0043342D01*
X0088211Y0042935D01*
X0088024Y0042482D01*
X0087870Y0043021D02*
X0088269Y0043021D01*
X0088050Y0043096D02*
X0088458Y0043368D01*
X0088804Y0043714D01*
X0089076Y0044122D01*
X0089264Y0044574D01*
X0089359Y0045055D01*
X0089359Y0045206D01*
X0086966Y0045206D01*
X0086966Y0042813D01*
X0087117Y0042813D01*
X0087598Y0042908D01*
X0088050Y0043096D01*
X0088709Y0043620D02*
X0088761Y0043620D01*
X0089116Y0044218D02*
X0090040Y0044218D01*
X0090322Y0044218D02*
X0090509Y0044218D01*
X0090791Y0044218D02*
X0124915Y0044218D01*
X0124969Y0043620D02*
X0092070Y0043620D01*
X0092562Y0043021D02*
X0125217Y0043021D01*
X0125614Y0042423D02*
X0092819Y0042423D01*
X0092846Y0041226D02*
X0150345Y0041226D01*
X0150345Y0041824D02*
X0129422Y0041824D01*
X0130063Y0042423D02*
X0150478Y0042423D01*
X0151077Y0043021D02*
X0145972Y0043021D01*
X0145862Y0042911D02*
X0147261Y0044310D01*
X0147261Y0046290D01*
X0145862Y0047689D01*
X0143883Y0047689D01*
X0142483Y0046290D01*
X0142483Y0044310D01*
X0143883Y0042911D01*
X0145862Y0042911D01*
X0146570Y0043620D02*
X0151675Y0043620D01*
X0149953Y0044218D02*
X0147169Y0044218D01*
X0147261Y0044817D02*
X0149355Y0044817D01*
X0148861Y0045415D02*
X0147261Y0045415D01*
X0147261Y0046014D02*
X0148861Y0046014D01*
X0148861Y0046612D02*
X0146938Y0046612D01*
X0146340Y0047211D02*
X0148861Y0047211D01*
X0149381Y0047809D02*
X0127796Y0047809D01*
X0127578Y0048408D02*
X0149979Y0048408D01*
X0143404Y0047211D02*
X0128533Y0047211D01*
X0129695Y0046612D02*
X0142806Y0046612D01*
X0142483Y0046014D02*
X0130294Y0046014D01*
X0130556Y0045415D02*
X0142483Y0045415D01*
X0142483Y0044817D02*
X0130763Y0044817D01*
X0130763Y0044218D02*
X0142575Y0044218D01*
X0143174Y0043620D02*
X0130708Y0043620D01*
X0130460Y0043021D02*
X0143772Y0043021D01*
X0150345Y0040627D02*
X0092640Y0040627D01*
X0092205Y0040029D02*
X0150627Y0040029D01*
X0151226Y0039430D02*
X0091298Y0039430D01*
X0090509Y0039430D02*
X0090322Y0039430D01*
X0090322Y0039269D02*
X0090322Y0041663D01*
X0087928Y0041663D01*
X0087928Y0041512D01*
X0088024Y0041031D01*
X0088211Y0040578D01*
X0088483Y0040171D01*
X0088830Y0039825D01*
X0089237Y0039552D01*
X0089690Y0039365D01*
X0090170Y0039269D01*
X0090322Y0039269D01*
X0090322Y0040029D02*
X0090509Y0040029D01*
X0090509Y0040627D02*
X0090322Y0040627D01*
X0090322Y0041226D02*
X0090509Y0041226D01*
X0090509Y0041824D02*
X0126256Y0041824D01*
X0123227Y0044817D02*
X0089312Y0044817D01*
X0089359Y0045394D02*
X0089359Y0045545D01*
X0089264Y0046026D01*
X0089076Y0046478D01*
X0088804Y0046886D01*
X0088458Y0047232D01*
X0088050Y0047504D01*
X0087598Y0047692D01*
X0087117Y0047787D01*
X0086966Y0047787D01*
X0086966Y0045394D01*
X0086778Y0045394D01*
X0086778Y0045206D01*
X0086966Y0045206D01*
X0086966Y0045394D01*
X0089359Y0045394D01*
X0089359Y0045415D02*
X0098288Y0045415D01*
X0097689Y0046014D02*
X0089266Y0046014D01*
X0089302Y0046612D02*
X0088987Y0046612D01*
X0088530Y0047211D02*
X0088479Y0047211D01*
X0088151Y0047809D02*
X0085593Y0047809D01*
X0085533Y0047665D02*
X0085721Y0048118D01*
X0085816Y0048598D01*
X0085816Y0048750D01*
X0083423Y0048750D01*
X0083423Y0046356D01*
X0083574Y0046356D01*
X0084054Y0046451D01*
X0084507Y0046639D01*
X0084914Y0046911D01*
X0085261Y0047258D01*
X0085533Y0047665D01*
X0085694Y0047504D02*
X0085286Y0047232D01*
X0084940Y0046886D01*
X0084668Y0046478D01*
X0084480Y0046026D01*
X0084385Y0045545D01*
X0084385Y0045394D01*
X0086778Y0045394D01*
X0086778Y0047787D01*
X0086627Y0047787D01*
X0086147Y0047692D01*
X0085694Y0047504D01*
X0085265Y0047211D02*
X0085214Y0047211D01*
X0084757Y0046612D02*
X0084442Y0046612D01*
X0084478Y0046014D02*
X0048672Y0046014D01*
X0048672Y0046612D02*
X0082215Y0046612D01*
X0081444Y0047211D02*
X0048672Y0047211D01*
X0048672Y0047809D02*
X0081065Y0047809D01*
X0080879Y0048408D02*
X0048672Y0048408D01*
X0048672Y0049006D02*
X0080841Y0049006D01*
X0080952Y0049605D02*
X0048672Y0049605D01*
X0048672Y0050203D02*
X0081246Y0050203D01*
X0083235Y0050203D02*
X0083423Y0050203D01*
X0083423Y0049605D02*
X0083235Y0049605D01*
X0083235Y0049006D02*
X0083423Y0049006D01*
X0083423Y0048408D02*
X0083235Y0048408D01*
X0083235Y0047809D02*
X0083423Y0047809D01*
X0083423Y0047211D02*
X0083235Y0047211D01*
X0083235Y0046612D02*
X0083423Y0046612D01*
X0084385Y0045415D02*
X0048672Y0045415D01*
X0048672Y0044817D02*
X0084432Y0044817D01*
X0083423Y0043620D02*
X0083235Y0043620D01*
X0083235Y0043021D02*
X0083423Y0043021D01*
X0083423Y0042423D02*
X0083235Y0042423D01*
X0083423Y0041824D02*
X0090322Y0041824D01*
X0090322Y0042423D02*
X0090509Y0042423D01*
X0090509Y0043021D02*
X0090322Y0043021D01*
X0090322Y0043620D02*
X0090509Y0043620D01*
X0090509Y0046356D02*
X0090660Y0046356D01*
X0091141Y0046451D01*
X0091594Y0046639D01*
X0092001Y0046911D01*
X0092348Y0047258D01*
X0092620Y0047665D01*
X0092807Y0048118D01*
X0092903Y0048598D01*
X0092903Y0048750D01*
X0090509Y0048750D01*
X0090509Y0046356D01*
X0090509Y0046612D02*
X0090322Y0046612D01*
X0090322Y0047211D02*
X0090509Y0047211D01*
X0090509Y0047809D02*
X0090322Y0047809D01*
X0090322Y0048408D02*
X0090509Y0048408D01*
X0090509Y0049006D02*
X0090322Y0049006D01*
X0090322Y0049605D02*
X0090509Y0049605D01*
X0090509Y0050203D02*
X0090322Y0050203D01*
X0090322Y0050802D02*
X0090509Y0050802D01*
X0088869Y0050802D02*
X0084875Y0050802D01*
X0085412Y0050203D02*
X0088333Y0050203D01*
X0088038Y0049605D02*
X0085706Y0049605D01*
X0085816Y0049006D02*
X0087928Y0049006D01*
X0087966Y0048408D02*
X0085778Y0048408D01*
X0086778Y0047211D02*
X0086966Y0047211D01*
X0086966Y0046612D02*
X0086778Y0046612D01*
X0086778Y0046014D02*
X0086966Y0046014D01*
X0086966Y0045415D02*
X0086778Y0045415D01*
X0086778Y0044817D02*
X0086966Y0044817D01*
X0086966Y0044218D02*
X0086778Y0044218D01*
X0086778Y0043620D02*
X0086966Y0043620D01*
X0086966Y0043021D02*
X0086778Y0043021D01*
X0085759Y0041226D02*
X0087985Y0041226D01*
X0088191Y0040627D02*
X0085553Y0040627D01*
X0085118Y0040029D02*
X0088626Y0040029D01*
X0089533Y0039430D02*
X0084212Y0039430D01*
X0081539Y0040029D02*
X0048672Y0040029D01*
X0048672Y0040627D02*
X0081104Y0040627D01*
X0083235Y0050802D02*
X0083423Y0050802D01*
X0091529Y0046612D02*
X0097483Y0046612D01*
X0097483Y0047211D02*
X0092301Y0047211D01*
X0092679Y0047809D02*
X0097483Y0047809D01*
X0097692Y0048408D02*
X0092865Y0048408D01*
X0092903Y0049006D02*
X0098290Y0049006D01*
X0097213Y0049605D02*
X0092792Y0049605D01*
X0100005Y0049605D02*
X0123042Y0049605D01*
X0122443Y0049006D02*
X0101454Y0049006D01*
X0102052Y0048408D02*
X0122166Y0048408D01*
X0121948Y0047809D02*
X0102261Y0047809D01*
X0102261Y0047211D02*
X0121948Y0047211D01*
X0121992Y0046612D02*
X0102261Y0046612D01*
X0102055Y0046014D02*
X0122240Y0046014D01*
X0122622Y0045415D02*
X0101456Y0045415D01*
X0104658Y0031649D02*
X0048672Y0031649D01*
X0048672Y0031051D02*
X0104059Y0031051D01*
X0103483Y0030452D02*
X0048672Y0030452D01*
X0048672Y0029854D02*
X0103483Y0029854D01*
X0103483Y0029255D02*
X0048672Y0029255D01*
X0048672Y0028657D02*
X0103483Y0028657D01*
X0103920Y0028058D02*
X0048672Y0028058D01*
X0048672Y0027460D02*
X0104519Y0027460D01*
X0115687Y0024199D02*
X0115687Y0024199D01*
X0121054Y0029255D02*
X0121151Y0029255D01*
X0122155Y0031051D02*
X0122532Y0031051D01*
X0125858Y0031051D02*
X0137886Y0031051D01*
X0137207Y0030452D02*
X0126537Y0030452D01*
X0126991Y0029854D02*
X0136753Y0029854D01*
X0136505Y0029255D02*
X0127239Y0029255D01*
X0127373Y0028657D02*
X0136371Y0028657D01*
X0136371Y0028058D02*
X0127373Y0028058D01*
X0127287Y0027460D02*
X0136457Y0027460D01*
X0136705Y0026861D02*
X0127039Y0026861D01*
X0126652Y0026263D02*
X0137092Y0026263D01*
X0137691Y0025664D02*
X0126054Y0025664D01*
X0117091Y0016792D02*
X0117091Y0016792D01*
X0089415Y0026861D02*
X0087329Y0026861D01*
X0088044Y0026263D02*
X0088700Y0026263D01*
X0084415Y0026861D02*
X0048672Y0026861D01*
X0048672Y0026263D02*
X0083700Y0026263D01*
X0083272Y0025664D02*
X0048672Y0025664D01*
X0048672Y0025066D02*
X0083024Y0025066D01*
X0082948Y0024467D02*
X0048672Y0024467D01*
X0048672Y0023869D02*
X0082948Y0023869D01*
X0083134Y0023270D02*
X0048672Y0023270D01*
X0048672Y0022672D02*
X0083382Y0022672D01*
X0083964Y0022073D02*
X0048672Y0022073D01*
X0048672Y0021475D02*
X0085052Y0021475D01*
X0048672Y0038233D02*
X0178750Y0038233D01*
X0181373Y0038233D02*
X0190561Y0038233D01*
X0189962Y0038832D02*
X0181971Y0038832D01*
X0182450Y0039430D02*
X0189364Y0039430D01*
X0189310Y0040029D02*
X0182450Y0040029D01*
X0182450Y0040627D02*
X0189310Y0040627D01*
X0189310Y0041226D02*
X0182450Y0041226D01*
X0181916Y0041824D02*
X0189672Y0041824D01*
X0190270Y0042423D02*
X0181317Y0042423D01*
X0192838Y0038233D02*
X0194863Y0038233D01*
X0194265Y0038832D02*
X0193436Y0038832D01*
X0193727Y0041824D02*
X0193863Y0041824D01*
X0194461Y0042423D02*
X0193128Y0042423D01*
X0199647Y0026263D02*
X0169288Y0026263D01*
X0169886Y0025664D02*
X0200246Y0025664D01*
X0198766Y0017884D02*
X0171961Y0017884D01*
X0171713Y0017285D02*
X0199014Y0017285D01*
X0199262Y0016687D02*
X0171465Y0016687D01*
X0170906Y0016088D02*
X0199822Y0016088D01*
X0200420Y0015490D02*
X0170307Y0015490D01*
X0168974Y0014891D02*
X0201753Y0014891D01*
X0166611Y0014891D02*
X0158974Y0014891D01*
X0160307Y0015490D02*
X0165278Y0015490D01*
X0164679Y0016088D02*
X0160906Y0016088D01*
X0161465Y0016687D02*
X0164120Y0016687D01*
X0163872Y0017285D02*
X0161713Y0017285D01*
X0161961Y0017884D02*
X0163624Y0017884D01*
X0163493Y0018482D02*
X0162093Y0018482D01*
X0162093Y0019081D02*
X0163493Y0019081D01*
X0163493Y0019679D02*
X0162093Y0019679D01*
X0161941Y0020278D02*
X0163644Y0020278D01*
X0163892Y0020876D02*
X0161693Y0020876D01*
X0161445Y0021475D02*
X0164140Y0021475D01*
X0164024Y0022073D02*
X0164729Y0022073D01*
X0164622Y0022672D02*
X0165327Y0022672D01*
X0165221Y0023270D02*
X0165523Y0023270D01*
X0165483Y0023869D02*
X0165261Y0023869D01*
X0165261Y0024467D02*
X0165483Y0024467D01*
X0165483Y0025066D02*
X0165261Y0025066D01*
X0164886Y0025664D02*
X0165858Y0025664D01*
X0166456Y0026263D02*
X0164288Y0026263D01*
X0161122Y0022672D02*
X0160258Y0022672D01*
X0160856Y0022073D02*
X0161720Y0022073D01*
X0180920Y0063969D02*
X0220072Y0063969D01*
X0220072Y0078932D02*
X0145619Y0078932D01*
X0145020Y0079530D02*
X0220072Y0079530D01*
X0220072Y0080129D02*
X0119261Y0080129D01*
X0119261Y0080727D02*
X0144311Y0080727D01*
X0143712Y0081326D02*
X0119225Y0081326D01*
X0118626Y0081924D02*
X0143444Y0081924D01*
X0142724Y0079530D02*
X0134300Y0079530D01*
X0134899Y0078932D02*
X0142125Y0078932D01*
X0141527Y0078333D02*
X0135442Y0078333D01*
X0135442Y0077735D02*
X0141483Y0077735D01*
X0141483Y0077136D02*
X0135442Y0077136D01*
X0135442Y0076538D02*
X0141483Y0076538D01*
X0141854Y0075939D02*
X0134973Y0075939D01*
X0134374Y0075341D02*
X0142453Y0075341D01*
X0147355Y0080727D02*
X0220072Y0080727D01*
X0182869Y0081924D02*
X0176987Y0081924D01*
X0177585Y0082523D02*
X0182271Y0082523D01*
X0181672Y0083121D02*
X0178184Y0083121D01*
X0178221Y0083720D02*
X0181483Y0083720D01*
X0181483Y0084318D02*
X0181078Y0084318D01*
X0178475Y0084318D02*
X0178221Y0084318D01*
X0174419Y0086114D02*
X0160437Y0086114D01*
X0161035Y0085515D02*
X0173821Y0085515D01*
X0173443Y0084917D02*
X0161261Y0084917D01*
X0161261Y0084318D02*
X0173443Y0084318D01*
X0173443Y0083720D02*
X0161261Y0083720D01*
X0161072Y0083121D02*
X0173481Y0083121D01*
X0174079Y0082523D02*
X0160473Y0082523D01*
X0159875Y0081924D02*
X0174678Y0081924D01*
X0171175Y0110054D02*
X0161005Y0110054D01*
X0161604Y0110653D02*
X0171072Y0110653D01*
X0171072Y0111251D02*
X0162202Y0111251D01*
X0162261Y0111850D02*
X0171251Y0111850D01*
X0171501Y0112448D02*
X0162261Y0112448D01*
X0162261Y0113047D02*
X0172099Y0113047D01*
X0153180Y0120229D02*
X0220072Y0120229D01*
X0220072Y0119631D02*
X0152581Y0119631D01*
X0151983Y0119032D02*
X0208646Y0119032D01*
X0209126Y0120828D02*
X0153261Y0120828D01*
X0153261Y0121426D02*
X0207958Y0121426D01*
X0207359Y0122025D02*
X0153261Y0122025D01*
X0152928Y0122623D02*
X0206785Y0122623D01*
X0206538Y0123222D02*
X0152329Y0123222D01*
X0149163Y0119631D02*
X0108581Y0119631D01*
X0107983Y0119032D02*
X0149762Y0119032D01*
X0143556Y0133995D02*
X0220072Y0133995D01*
X0220072Y0134593D02*
X0142957Y0134593D01*
X0108851Y0154943D02*
X0078198Y0154943D01*
X0079162Y0155541D02*
X0108252Y0155541D01*
X0154246Y0184270D02*
X0162828Y0184270D01*
X0162990Y0184244D02*
X0163029Y0184244D01*
X0163029Y0188244D01*
X0163629Y0188244D01*
X0163629Y0188844D01*
X0167629Y0188844D01*
X0167629Y0188883D01*
X0167523Y0189551D01*
X0167314Y0190195D01*
X0167006Y0190798D01*
X0166609Y0191345D01*
X0166130Y0191824D01*
X0165582Y0192222D01*
X0164979Y0192529D01*
X0164336Y0192738D01*
X0163667Y0192844D01*
X0163629Y0192844D01*
X0163629Y0188844D01*
X0163029Y0188844D01*
X0163029Y0192844D01*
X0162990Y0192844D01*
X0162322Y0192738D01*
X0161678Y0192529D01*
X0161075Y0192222D01*
X0160528Y0191824D01*
X0160049Y0191345D01*
X0159651Y0190798D01*
X0159344Y0190195D01*
X0159135Y0189551D01*
X0159029Y0188883D01*
X0159029Y0188844D01*
X0163029Y0188844D01*
X0163029Y0188244D01*
X0159029Y0188244D01*
X0159029Y0188206D01*
X0159135Y0187537D01*
X0159344Y0186893D01*
X0159651Y0186290D01*
X0160049Y0185743D01*
X0160528Y0185264D01*
X0161075Y0184866D01*
X0161678Y0184559D01*
X0162322Y0184350D01*
X0162990Y0184244D01*
X0163029Y0184270D02*
X0163629Y0184270D01*
X0163629Y0184244D02*
X0163667Y0184244D01*
X0164336Y0184350D01*
X0164979Y0184559D01*
X0165582Y0184866D01*
X0166130Y0185264D01*
X0166609Y0185743D01*
X0167006Y0186290D01*
X0167314Y0186893D01*
X0167523Y0187537D01*
X0167629Y0188206D01*
X0167629Y0188244D01*
X0163629Y0188244D01*
X0163629Y0184244D01*
X0163829Y0184270D02*
X0172828Y0184270D01*
X0172990Y0184244D02*
X0173029Y0184244D01*
X0173029Y0188244D01*
X0173629Y0188244D01*
X0173629Y0188844D01*
X0177629Y0188844D01*
X0177629Y0188883D01*
X0177523Y0189551D01*
X0177314Y0190195D01*
X0177006Y0190798D01*
X0176609Y0191345D01*
X0176130Y0191824D01*
X0175582Y0192222D01*
X0174979Y0192529D01*
X0174336Y0192738D01*
X0173667Y0192844D01*
X0173629Y0192844D01*
X0173629Y0188844D01*
X0173029Y0188844D01*
X0173029Y0192844D01*
X0172990Y0192844D01*
X0172322Y0192738D01*
X0171678Y0192529D01*
X0171075Y0192222D01*
X0170528Y0191824D01*
X0170049Y0191345D01*
X0169651Y0190798D01*
X0169344Y0190195D01*
X0169135Y0189551D01*
X0169029Y0188883D01*
X0169029Y0188844D01*
X0173029Y0188844D01*
X0173029Y0188244D01*
X0169029Y0188244D01*
X0169029Y0188206D01*
X0169135Y0187537D01*
X0169344Y0186893D01*
X0169651Y0186290D01*
X0170049Y0185743D01*
X0170528Y0185264D01*
X0171075Y0184866D01*
X0171678Y0184559D01*
X0172322Y0184350D01*
X0172990Y0184244D01*
X0173029Y0184270D02*
X0173629Y0184270D01*
X0173629Y0184244D02*
X0173667Y0184244D01*
X0174336Y0184350D01*
X0174979Y0184559D01*
X0175582Y0184866D01*
X0176130Y0185264D01*
X0176609Y0185743D01*
X0177006Y0186290D01*
X0177314Y0186893D01*
X0177523Y0187537D01*
X0177629Y0188206D01*
X0177629Y0188244D01*
X0173629Y0188244D01*
X0173629Y0184244D01*
X0173829Y0184270D02*
X0182828Y0184270D01*
X0182990Y0184244D02*
X0183029Y0184244D01*
X0183029Y0188244D01*
X0183629Y0188244D01*
X0183629Y0188844D01*
X0187629Y0188844D01*
X0187629Y0188883D01*
X0187523Y0189551D01*
X0187314Y0190195D01*
X0187006Y0190798D01*
X0186609Y0191345D01*
X0186130Y0191824D01*
X0185582Y0192222D01*
X0184979Y0192529D01*
X0184336Y0192738D01*
X0183667Y0192844D01*
X0183629Y0192844D01*
X0183629Y0188844D01*
X0183029Y0188844D01*
X0183029Y0192844D01*
X0182990Y0192844D01*
X0182322Y0192738D01*
X0181678Y0192529D01*
X0181075Y0192222D01*
X0180528Y0191824D01*
X0180049Y0191345D01*
X0179651Y0190798D01*
X0179344Y0190195D01*
X0179135Y0189551D01*
X0179029Y0188883D01*
X0179029Y0188844D01*
X0183029Y0188844D01*
X0183029Y0188244D01*
X0179029Y0188244D01*
X0179029Y0188206D01*
X0179135Y0187537D01*
X0179344Y0186893D01*
X0179651Y0186290D01*
X0180049Y0185743D01*
X0180528Y0185264D01*
X0181075Y0184866D01*
X0181678Y0184559D01*
X0182322Y0184350D01*
X0182990Y0184244D01*
X0183029Y0184270D02*
X0183629Y0184270D01*
X0183629Y0184244D02*
X0183667Y0184244D01*
X0184336Y0184350D01*
X0184979Y0184559D01*
X0185582Y0184866D01*
X0186130Y0185264D01*
X0186609Y0185743D01*
X0187006Y0186290D01*
X0187314Y0186893D01*
X0187523Y0187537D01*
X0187629Y0188206D01*
X0187629Y0188244D01*
X0183629Y0188244D01*
X0183629Y0184244D01*
X0183829Y0184270D02*
X0192411Y0184270D01*
X0190967Y0184868D02*
X0185585Y0184868D01*
X0186333Y0185467D02*
X0190325Y0185467D01*
X0189726Y0186065D02*
X0186843Y0186065D01*
X0187197Y0186664D02*
X0189453Y0186664D01*
X0189205Y0187262D02*
X0187434Y0187262D01*
X0187574Y0187861D02*
X0189029Y0187861D01*
X0189029Y0188459D02*
X0183629Y0188459D01*
X0183629Y0187861D02*
X0183029Y0187861D01*
X0183029Y0188459D02*
X0173629Y0188459D01*
X0173629Y0187861D02*
X0173029Y0187861D01*
X0173029Y0188459D02*
X0163629Y0188459D01*
X0163629Y0187861D02*
X0163029Y0187861D01*
X0163029Y0188459D02*
X0157629Y0188459D01*
X0157629Y0187861D02*
X0159083Y0187861D01*
X0159224Y0187262D02*
X0157452Y0187262D01*
X0157204Y0186664D02*
X0159461Y0186664D01*
X0159815Y0186065D02*
X0156931Y0186065D01*
X0156333Y0185467D02*
X0160325Y0185467D01*
X0161073Y0184868D02*
X0155691Y0184868D01*
X0157629Y0189058D02*
X0159057Y0189058D01*
X0159169Y0189656D02*
X0157522Y0189656D01*
X0157274Y0190255D02*
X0159374Y0190255D01*
X0159692Y0190853D02*
X0157027Y0190853D01*
X0156502Y0191452D02*
X0160155Y0191452D01*
X0160839Y0192050D02*
X0155904Y0192050D01*
X0154655Y0192649D02*
X0162047Y0192649D01*
X0163029Y0192649D02*
X0163629Y0192649D01*
X0163629Y0192050D02*
X0163029Y0192050D01*
X0163029Y0191452D02*
X0163629Y0191452D01*
X0163629Y0190853D02*
X0163029Y0190853D01*
X0163029Y0190255D02*
X0163629Y0190255D01*
X0163629Y0189656D02*
X0163029Y0189656D01*
X0163029Y0189058D02*
X0163629Y0189058D01*
X0163629Y0187262D02*
X0163029Y0187262D01*
X0163029Y0186664D02*
X0163629Y0186664D01*
X0163629Y0186065D02*
X0163029Y0186065D01*
X0163029Y0185467D02*
X0163629Y0185467D01*
X0163629Y0184868D02*
X0163029Y0184868D01*
X0165585Y0184868D02*
X0171073Y0184868D01*
X0170325Y0185467D02*
X0166333Y0185467D01*
X0166843Y0186065D02*
X0169815Y0186065D01*
X0169461Y0186664D02*
X0167197Y0186664D01*
X0167434Y0187262D02*
X0169224Y0187262D01*
X0169083Y0187861D02*
X0167574Y0187861D01*
X0167601Y0189058D02*
X0169057Y0189058D01*
X0169169Y0189656D02*
X0167489Y0189656D01*
X0167283Y0190255D02*
X0169374Y0190255D01*
X0169692Y0190853D02*
X0166966Y0190853D01*
X0166502Y0191452D02*
X0170155Y0191452D01*
X0170839Y0192050D02*
X0165818Y0192050D01*
X0164610Y0192649D02*
X0172047Y0192649D01*
X0173029Y0192649D02*
X0173629Y0192649D01*
X0173629Y0192050D02*
X0173029Y0192050D01*
X0173029Y0191452D02*
X0173629Y0191452D01*
X0173629Y0190853D02*
X0173029Y0190853D01*
X0173029Y0190255D02*
X0173629Y0190255D01*
X0173629Y0189656D02*
X0173029Y0189656D01*
X0173029Y0189058D02*
X0173629Y0189058D01*
X0173629Y0187262D02*
X0173029Y0187262D01*
X0173029Y0186664D02*
X0173629Y0186664D01*
X0173629Y0186065D02*
X0173029Y0186065D01*
X0173029Y0185467D02*
X0173629Y0185467D01*
X0173629Y0184868D02*
X0173029Y0184868D01*
X0173029Y0182474D02*
X0173629Y0182474D01*
X0173629Y0181876D02*
X0173029Y0181876D01*
X0173029Y0181277D02*
X0173629Y0181277D01*
X0173629Y0180679D02*
X0173029Y0180679D01*
X0173029Y0180080D02*
X0173629Y0180080D01*
X0173629Y0179482D02*
X0173029Y0179482D01*
X0173029Y0178883D02*
X0173629Y0178883D01*
X0173629Y0177088D02*
X0173029Y0177088D01*
X0173029Y0176489D02*
X0173629Y0176489D01*
X0173629Y0175891D02*
X0173029Y0175891D01*
X0173029Y0175292D02*
X0173629Y0175292D01*
X0173629Y0174694D02*
X0173029Y0174694D01*
X0171414Y0174694D02*
X0165243Y0174694D01*
X0166158Y0175292D02*
X0170500Y0175292D01*
X0169942Y0175891D02*
X0166716Y0175891D01*
X0167108Y0176489D02*
X0169550Y0176489D01*
X0169281Y0177088D02*
X0167377Y0177088D01*
X0167546Y0177686D02*
X0169111Y0177686D01*
X0167629Y0178883D02*
X0167523Y0179551D01*
X0167351Y0180080D02*
X0169307Y0180080D01*
X0169590Y0180679D02*
X0167067Y0180679D01*
X0166658Y0181277D02*
X0169999Y0181277D01*
X0170599Y0181876D02*
X0166059Y0181876D01*
X0165087Y0182474D02*
X0171571Y0182474D01*
X0175087Y0182474D02*
X0181571Y0182474D01*
X0180599Y0181876D02*
X0176059Y0181876D01*
X0176658Y0181277D02*
X0179999Y0181277D01*
X0179590Y0180679D02*
X0177067Y0180679D01*
X0177351Y0180080D02*
X0179307Y0180080D01*
X0177523Y0179551D02*
X0177629Y0178883D01*
X0177546Y0177686D02*
X0179111Y0177686D01*
X0179281Y0177088D02*
X0177377Y0177088D01*
X0177108Y0176489D02*
X0179550Y0176489D01*
X0179942Y0175891D02*
X0176716Y0175891D01*
X0176158Y0175292D02*
X0180500Y0175292D01*
X0181414Y0174694D02*
X0175243Y0174694D01*
X0183029Y0174694D02*
X0183629Y0174694D01*
X0183629Y0175292D02*
X0183029Y0175292D01*
X0183029Y0175891D02*
X0183629Y0175891D01*
X0183629Y0176489D02*
X0183029Y0176489D01*
X0183029Y0177088D02*
X0183629Y0177088D01*
X0183629Y0178883D02*
X0183029Y0178883D01*
X0183029Y0179482D02*
X0183629Y0179482D01*
X0183629Y0180080D02*
X0183029Y0180080D01*
X0183029Y0180679D02*
X0183629Y0180679D01*
X0183629Y0181277D02*
X0183029Y0181277D01*
X0183029Y0181876D02*
X0183629Y0181876D01*
X0183629Y0182474D02*
X0183029Y0182474D01*
X0185087Y0182474D02*
X0191581Y0182474D01*
X0190579Y0181876D02*
X0186059Y0181876D01*
X0186658Y0181277D02*
X0189981Y0181277D01*
X0189559Y0180679D02*
X0187067Y0180679D01*
X0187351Y0180080D02*
X0189311Y0180080D01*
X0187523Y0179551D02*
X0187629Y0178883D01*
X0183629Y0184868D02*
X0183029Y0184868D01*
X0183029Y0185467D02*
X0183629Y0185467D01*
X0183629Y0186065D02*
X0183029Y0186065D01*
X0183029Y0186664D02*
X0183629Y0186664D01*
X0183629Y0187262D02*
X0183029Y0187262D01*
X0183029Y0189058D02*
X0183629Y0189058D01*
X0183629Y0189656D02*
X0183029Y0189656D01*
X0183029Y0190255D02*
X0183629Y0190255D01*
X0183629Y0190853D02*
X0183029Y0190853D01*
X0183029Y0191452D02*
X0183629Y0191452D01*
X0183629Y0192050D02*
X0183029Y0192050D01*
X0183029Y0192649D02*
X0183629Y0192649D01*
X0184610Y0192649D02*
X0192002Y0192649D01*
X0190754Y0192050D02*
X0185818Y0192050D01*
X0186502Y0191452D02*
X0190155Y0191452D01*
X0189631Y0190853D02*
X0186966Y0190853D01*
X0187283Y0190255D02*
X0189383Y0190255D01*
X0189135Y0189656D02*
X0187489Y0189656D01*
X0187601Y0189058D02*
X0189029Y0189058D01*
X0182047Y0192649D02*
X0174610Y0192649D01*
X0175818Y0192050D02*
X0180839Y0192050D01*
X0180155Y0191452D02*
X0176502Y0191452D01*
X0176966Y0190853D02*
X0179692Y0190853D01*
X0179374Y0190255D02*
X0177283Y0190255D01*
X0177489Y0189656D02*
X0179169Y0189656D01*
X0179057Y0189058D02*
X0177601Y0189058D01*
X0177574Y0187861D02*
X0179083Y0187861D01*
X0179224Y0187262D02*
X0177434Y0187262D01*
X0177197Y0186664D02*
X0179461Y0186664D01*
X0179815Y0186065D02*
X0176843Y0186065D01*
X0176333Y0185467D02*
X0180325Y0185467D01*
X0181073Y0184868D02*
X0175585Y0184868D01*
X0160500Y0175292D02*
X0156158Y0175292D01*
X0156756Y0175891D02*
X0159942Y0175891D01*
X0159550Y0176489D02*
X0157132Y0176489D01*
X0157380Y0177088D02*
X0159281Y0177088D01*
X0159111Y0177686D02*
X0157628Y0177686D01*
X0220072Y0193846D02*
X0048672Y0193846D01*
X0048672Y0194444D02*
X0220072Y0194444D01*
X0131807Y0079530D02*
X0119261Y0079530D01*
X0118882Y0078932D02*
X0131208Y0078932D01*
X0130664Y0077136D02*
X0127009Y0077136D01*
X0127608Y0076538D02*
X0130664Y0076538D01*
X0131134Y0075939D02*
X0127950Y0075939D01*
X0127950Y0075341D02*
X0131733Y0075341D01*
X0048934Y0171103D02*
X0048672Y0171103D01*
D18*
X0173872Y0110860D03*
M02*
