G75*
%MOIN*%
%OFA0B0*%
%FSLAX25Y25*%
%IPPOS*%
%LPD*%
%AMOC8*
5,1,8,0,0,1.08239X$1,22.5*
%
%ADD10C,0.06000*%
%ADD11C,0.02375*%
%ADD12C,0.05906*%
%ADD13C,0.03543*%
%ADD14C,0.04134*%
%ADD15C,0.03248*%
%ADD16C,0.02178*%
%ADD17C,0.02000*%
%ADD18C,0.03000*%
%ADD19C,0.04000*%
%ADD20C,0.01600*%
D10*
X0157793Y0019056D03*
X0167793Y0019056D03*
X0202935Y0019056D03*
X0212935Y0019056D03*
X0212935Y0029056D03*
X0202935Y0029056D03*
X0202935Y0039056D03*
X0212935Y0039056D03*
X0212935Y0049056D03*
X0212935Y0059056D03*
X0202935Y0059056D03*
X0202935Y0049056D03*
X0202935Y0069056D03*
X0212935Y0069056D03*
X0210872Y0115300D03*
X0210872Y0125300D03*
X0213329Y0178544D03*
X0203329Y0178544D03*
X0193329Y0178544D03*
X0193329Y0188544D03*
X0203329Y0188544D03*
X0213329Y0188544D03*
X0183329Y0188544D03*
X0173329Y0188544D03*
X0163329Y0188544D03*
X0153329Y0188544D03*
X0143329Y0188544D03*
X0143329Y0178544D03*
X0153329Y0178544D03*
X0163329Y0178544D03*
X0173329Y0178544D03*
X0183329Y0178544D03*
X0133329Y0178544D03*
X0123329Y0178544D03*
X0113329Y0178544D03*
X0103329Y0178544D03*
X0103329Y0188544D03*
X0113329Y0188544D03*
X0123329Y0188544D03*
X0133329Y0188544D03*
D11*
X0090415Y0048843D03*
X0086872Y0045300D03*
X0083329Y0041757D03*
X0083329Y0048843D03*
X0090415Y0041757D03*
D12*
X0076439Y0072206D03*
X0076439Y0080080D03*
X0076439Y0087954D03*
X0076439Y0095828D03*
X0076439Y0103702D03*
X0076439Y0111576D03*
X0076439Y0119450D03*
X0076439Y0127324D03*
X0076439Y0135198D03*
X0076439Y0143072D03*
X0076439Y0150946D03*
X0076439Y0158820D03*
X0076439Y0166694D03*
X0076439Y0174568D03*
X0076439Y0182442D03*
X0068565Y0182442D03*
X0068565Y0174568D03*
X0068565Y0166694D03*
X0068565Y0158820D03*
X0068565Y0150946D03*
X0068565Y0143072D03*
X0068565Y0135198D03*
X0068565Y0127324D03*
X0068565Y0119450D03*
X0068565Y0111576D03*
X0068565Y0103702D03*
X0068565Y0095828D03*
X0068565Y0087954D03*
X0068565Y0080080D03*
X0068565Y0072206D03*
D13*
X0117699Y0020820D03*
X0146045Y0020820D03*
D14*
X0144864Y0031843D03*
X0118880Y0031843D03*
D15*
X0127839Y0044333D03*
X0124872Y0047300D03*
X0090872Y0024300D03*
X0085872Y0024300D03*
X0057872Y0076300D03*
X0050872Y0088300D03*
X0050872Y0173300D03*
X0178872Y0162300D03*
X0181872Y0159300D03*
X0202872Y0091300D03*
D16*
X0050872Y0014300D03*
X0053872Y0048300D03*
X0077872Y0059300D03*
X0089872Y0069300D03*
X0095872Y0067300D03*
X0106872Y0067300D03*
X0112872Y0075300D03*
X0116872Y0080300D03*
X0125561Y0075206D03*
X0133053Y0077398D03*
X0143872Y0077300D03*
X0145833Y0082584D03*
X0156872Y0072300D03*
X0158872Y0076300D03*
X0158872Y0084300D03*
X0158872Y0093300D03*
X0143872Y0098300D03*
X0135872Y0106300D03*
X0143872Y0114300D03*
X0150872Y0121300D03*
X0148872Y0131300D03*
X0141872Y0132300D03*
X0139872Y0148300D03*
X0138872Y0155300D03*
X0160872Y0135300D03*
X0159872Y0112300D03*
X0179872Y0094300D03*
X0179776Y0086396D03*
X0175832Y0084149D03*
X0180872Y0077300D03*
X0183872Y0084300D03*
X0179872Y0066300D03*
X0173872Y0057300D03*
X0170683Y0054298D03*
X0166872Y0050300D03*
X0174872Y0046461D03*
X0180061Y0040300D03*
X0177872Y0033300D03*
X0167872Y0024300D03*
X0162872Y0024300D03*
X0156872Y0028300D03*
X0152734Y0041300D03*
X0151250Y0046300D03*
X0144872Y0045300D03*
X0125872Y0055839D03*
X0099872Y0047209D03*
X0098609Y0051587D03*
X0105872Y0029485D03*
X0089872Y0014300D03*
X0130872Y0026300D03*
X0173872Y0014300D03*
X0185872Y0021300D03*
X0191699Y0040473D03*
X0195946Y0040529D03*
X0203872Y0101300D03*
X0195872Y0125300D03*
X0127872Y0114300D03*
X0121872Y0122300D03*
X0118872Y0126300D03*
X0114872Y0134300D03*
X0107872Y0128300D03*
X0106872Y0121300D03*
X0106215Y0111300D03*
X0117872Y0101300D03*
X0127872Y0098300D03*
X0127872Y0089300D03*
X0088872Y0090300D03*
X0087872Y0099300D03*
X0092872Y0138300D03*
X0109872Y0151300D03*
X0109872Y0157300D03*
X0110872Y0163300D03*
D17*
X0139872Y0148300D02*
X0121561Y0129989D01*
X0117344Y0129989D01*
X0115183Y0127828D01*
X0115183Y0123611D01*
X0106561Y0114989D01*
X0104687Y0114989D01*
X0092561Y0102863D01*
X0092561Y0088772D01*
X0089872Y0086083D01*
X0089872Y0069300D01*
X0112872Y0075300D02*
X0112872Y0113300D01*
X0121872Y0122300D01*
X0123872Y0089300D02*
X0121872Y0087300D01*
X0121872Y0068300D01*
X0112872Y0059300D01*
X0123872Y0089300D02*
X0127872Y0089300D01*
X0166872Y0103860D02*
X0173872Y0110860D01*
X0166872Y0103860D02*
X0166872Y0050300D01*
D18*
X0173872Y0110860D03*
D19*
X0176503Y0115300D02*
X0175943Y0115860D01*
X0171801Y0115860D01*
X0154183Y0098242D01*
X0154183Y0080980D01*
X0145814Y0072611D01*
X0141930Y0072611D01*
X0137142Y0077398D01*
X0133053Y0077398D01*
X0133053Y0042360D01*
X0129944Y0039251D01*
X0105823Y0039251D01*
X0090872Y0024300D01*
X0070872Y0051300D02*
X0059872Y0051300D01*
X0050872Y0060300D01*
X0050872Y0088300D01*
X0057872Y0076300D02*
X0057872Y0070300D01*
X0061935Y0066237D01*
X0078911Y0066237D01*
X0081285Y0068611D01*
X0084183Y0068611D01*
X0084183Y0092242D01*
X0087872Y0095931D01*
X0087872Y0099300D01*
X0077872Y0059300D02*
X0077872Y0058300D01*
X0070872Y0051300D01*
X0077872Y0059300D02*
X0112872Y0059300D01*
X0124872Y0047300D01*
X0127839Y0044333D01*
X0176503Y0115300D02*
X0210872Y0115300D01*
D20*
X0179776Y0086396D02*
X0179776Y0081138D01*
X0176383Y0077745D01*
X0176383Y0064855D01*
X0179776Y0061462D01*
X0179776Y0044950D01*
X0174383Y0039556D01*
X0174383Y0030811D01*
X0167872Y0024300D01*
X0170683Y0054298D02*
X0170683Y0055555D01*
X0170383Y0055855D01*
X0170383Y0075422D01*
X0175832Y0080871D01*
X0175832Y0084149D01*
X0125872Y0074895D02*
X0125872Y0055839D01*
X0125872Y0074895D02*
X0125561Y0075206D01*
M02*
