G75*
%MOIN*%
%OFA0B0*%
%FSLAX25Y25*%
%IPPOS*%
%LPD*%
%AMOC8*
5,1,8,0,0,1.08239X$1,22.5*
%
%ADD10C,0.00800*%
%ADD11C,0.00300*%
%ADD12R,0.02657X0.09646*%
%ADD13C,0.00600*%
%ADD14C,0.00500*%
D10*
X0059837Y0030182D02*
X0067947Y0030182D01*
X0067947Y0040418D02*
X0059837Y0040418D01*
X0104723Y0094804D02*
X0111022Y0094804D01*
X0103738Y0099725D02*
X0103738Y0102875D01*
X0104723Y0107796D02*
X0111022Y0107796D01*
X0107935Y0136576D02*
X0102030Y0136576D01*
X0102030Y0146024D01*
X0107935Y0146024D01*
X0106360Y0148788D02*
X0117384Y0148788D01*
X0117384Y0159812D01*
X0106360Y0159812D01*
X0106360Y0148788D01*
X0115809Y0146024D02*
X0120140Y0146024D01*
X0121715Y0144450D01*
X0121715Y0138150D01*
X0120140Y0136576D01*
X0115809Y0136576D01*
X0116203Y0157450D02*
X0113841Y0157450D01*
X0113843Y0157517D01*
X0113849Y0157585D01*
X0113858Y0157651D01*
X0113872Y0157717D01*
X0113889Y0157783D01*
X0113910Y0157847D01*
X0113934Y0157910D01*
X0113962Y0157971D01*
X0113994Y0158031D01*
X0114028Y0158088D01*
X0114067Y0158144D01*
X0114108Y0158198D01*
X0114152Y0158249D01*
X0114199Y0158297D01*
X0114249Y0158343D01*
X0114301Y0158385D01*
X0114355Y0158425D01*
X0114412Y0158461D01*
X0114471Y0158495D01*
X0114531Y0158524D01*
X0114594Y0158551D01*
X0114657Y0158573D01*
X0114722Y0158592D01*
X0114787Y0158607D01*
X0114854Y0158619D01*
X0114921Y0158627D01*
X0114988Y0158631D01*
X0115056Y0158631D01*
X0115123Y0158627D01*
X0115190Y0158619D01*
X0115257Y0158607D01*
X0115322Y0158592D01*
X0115387Y0158573D01*
X0115450Y0158551D01*
X0115513Y0158524D01*
X0115573Y0158495D01*
X0115632Y0158461D01*
X0115689Y0158425D01*
X0115743Y0158385D01*
X0115795Y0158343D01*
X0115845Y0158297D01*
X0115892Y0158249D01*
X0115936Y0158198D01*
X0115977Y0158144D01*
X0116016Y0158088D01*
X0116050Y0158031D01*
X0116082Y0157971D01*
X0116110Y0157910D01*
X0116134Y0157847D01*
X0116155Y0157783D01*
X0116172Y0157717D01*
X0116186Y0157651D01*
X0116195Y0157585D01*
X0116201Y0157517D01*
X0116203Y0157450D01*
X0115809Y0163576D02*
X0120140Y0163576D01*
X0121715Y0165150D01*
X0121715Y0171450D01*
X0120140Y0173024D01*
X0115809Y0173024D01*
X0107935Y0173024D02*
X0102030Y0173024D01*
X0102030Y0163576D01*
X0107935Y0163576D01*
X0155116Y0098812D02*
X0158266Y0098812D01*
X0155116Y0098812D02*
X0155116Y0096450D01*
X0155116Y0090150D02*
X0155116Y0087788D01*
X0158266Y0087788D01*
X0158266Y0081812D02*
X0155116Y0081812D01*
X0155116Y0079450D01*
X0155116Y0073150D02*
X0155116Y0070788D01*
X0158266Y0070788D01*
X0177360Y0023056D02*
X0177360Y0019906D01*
X0177360Y0023056D02*
X0179723Y0023056D01*
X0186022Y0023056D02*
X0188384Y0023056D01*
X0188384Y0019906D01*
D11*
X0184039Y0028450D02*
X0184683Y0029094D01*
X0184361Y0029256D02*
X0184361Y0030544D01*
X0184363Y0030599D01*
X0184369Y0030654D01*
X0184378Y0030708D01*
X0184391Y0030761D01*
X0184408Y0030814D01*
X0184428Y0030865D01*
X0184451Y0030915D01*
X0184478Y0030963D01*
X0184509Y0031009D01*
X0184542Y0031053D01*
X0184578Y0031094D01*
X0184617Y0031133D01*
X0184658Y0031169D01*
X0184702Y0031202D01*
X0184748Y0031233D01*
X0184796Y0031260D01*
X0184846Y0031283D01*
X0184897Y0031303D01*
X0184950Y0031320D01*
X0185003Y0031333D01*
X0185057Y0031342D01*
X0185112Y0031348D01*
X0185167Y0031350D01*
X0185222Y0031348D01*
X0185277Y0031342D01*
X0185331Y0031333D01*
X0185384Y0031320D01*
X0185437Y0031303D01*
X0185488Y0031283D01*
X0185538Y0031260D01*
X0185586Y0031233D01*
X0185632Y0031202D01*
X0185676Y0031169D01*
X0185717Y0031133D01*
X0185756Y0031094D01*
X0185792Y0031053D01*
X0185825Y0031009D01*
X0185856Y0030963D01*
X0185883Y0030915D01*
X0185906Y0030865D01*
X0185926Y0030814D01*
X0185943Y0030761D01*
X0185956Y0030708D01*
X0185965Y0030654D01*
X0185971Y0030599D01*
X0185973Y0030544D01*
X0185972Y0030544D02*
X0185972Y0029256D01*
X0185973Y0029256D02*
X0185971Y0029201D01*
X0185965Y0029146D01*
X0185956Y0029092D01*
X0185943Y0029039D01*
X0185926Y0028986D01*
X0185906Y0028935D01*
X0185883Y0028885D01*
X0185856Y0028837D01*
X0185825Y0028791D01*
X0185792Y0028747D01*
X0185756Y0028706D01*
X0185717Y0028667D01*
X0185676Y0028631D01*
X0185632Y0028598D01*
X0185586Y0028567D01*
X0185538Y0028540D01*
X0185488Y0028517D01*
X0185437Y0028497D01*
X0185384Y0028480D01*
X0185331Y0028467D01*
X0185277Y0028458D01*
X0185222Y0028452D01*
X0185167Y0028450D01*
X0185112Y0028452D01*
X0185057Y0028458D01*
X0185003Y0028467D01*
X0184950Y0028480D01*
X0184897Y0028497D01*
X0184846Y0028517D01*
X0184796Y0028540D01*
X0184748Y0028567D01*
X0184702Y0028598D01*
X0184658Y0028631D01*
X0184617Y0028667D01*
X0184578Y0028706D01*
X0184542Y0028747D01*
X0184509Y0028791D01*
X0184478Y0028837D01*
X0184451Y0028885D01*
X0184428Y0028935D01*
X0184408Y0028986D01*
X0184391Y0029039D01*
X0184378Y0029092D01*
X0184369Y0029146D01*
X0184363Y0029201D01*
X0184361Y0029256D01*
X0183179Y0028450D02*
X0181809Y0030061D01*
X0182293Y0031350D02*
X0182352Y0031348D01*
X0182410Y0031343D01*
X0182468Y0031333D01*
X0182525Y0031321D01*
X0182581Y0031304D01*
X0182636Y0031285D01*
X0182690Y0031261D01*
X0182742Y0031235D01*
X0182792Y0031205D01*
X0182841Y0031172D01*
X0182887Y0031136D01*
X0182931Y0031097D01*
X0182972Y0031056D01*
X0183011Y0031012D01*
X0183047Y0030966D01*
X0183079Y0030917D01*
X0183109Y0030867D01*
X0183136Y0030815D01*
X0183159Y0030761D01*
X0183179Y0030706D01*
X0181809Y0030061D02*
X0181772Y0030098D01*
X0181738Y0030138D01*
X0181706Y0030180D01*
X0181678Y0030225D01*
X0181652Y0030271D01*
X0181630Y0030318D01*
X0181611Y0030367D01*
X0181595Y0030417D01*
X0181583Y0030468D01*
X0181574Y0030520D01*
X0181569Y0030572D01*
X0181567Y0030625D01*
X0181568Y0030625D02*
X0181570Y0030677D01*
X0181575Y0030728D01*
X0181585Y0030779D01*
X0181597Y0030829D01*
X0181614Y0030878D01*
X0181634Y0030926D01*
X0181657Y0030972D01*
X0181683Y0031017D01*
X0181713Y0031059D01*
X0181745Y0031100D01*
X0181780Y0031138D01*
X0181818Y0031173D01*
X0181859Y0031205D01*
X0181901Y0031235D01*
X0181946Y0031261D01*
X0181992Y0031284D01*
X0182040Y0031304D01*
X0182089Y0031321D01*
X0182139Y0031333D01*
X0182190Y0031343D01*
X0182241Y0031348D01*
X0182293Y0031350D01*
X0181568Y0028450D02*
X0183179Y0028450D01*
X0195322Y0030179D02*
X0198222Y0030179D01*
X0198222Y0030985D01*
X0198223Y0030985D02*
X0198221Y0031040D01*
X0198215Y0031095D01*
X0198206Y0031149D01*
X0198193Y0031202D01*
X0198176Y0031255D01*
X0198156Y0031306D01*
X0198133Y0031356D01*
X0198106Y0031404D01*
X0198075Y0031450D01*
X0198042Y0031494D01*
X0198006Y0031535D01*
X0197967Y0031574D01*
X0197926Y0031610D01*
X0197882Y0031643D01*
X0197836Y0031674D01*
X0197788Y0031701D01*
X0197738Y0031724D01*
X0197687Y0031744D01*
X0197634Y0031761D01*
X0197581Y0031774D01*
X0197527Y0031783D01*
X0197472Y0031789D01*
X0197417Y0031791D01*
X0197362Y0031789D01*
X0197307Y0031783D01*
X0197253Y0031774D01*
X0197200Y0031761D01*
X0197147Y0031744D01*
X0197096Y0031724D01*
X0197046Y0031701D01*
X0196998Y0031674D01*
X0196952Y0031643D01*
X0196908Y0031610D01*
X0196867Y0031574D01*
X0196828Y0031535D01*
X0196792Y0031494D01*
X0196759Y0031450D01*
X0196728Y0031404D01*
X0196701Y0031356D01*
X0196678Y0031306D01*
X0196658Y0031255D01*
X0196641Y0031202D01*
X0196628Y0031149D01*
X0196619Y0031095D01*
X0196613Y0031040D01*
X0196611Y0030985D01*
X0196611Y0030179D01*
X0196611Y0031146D02*
X0195322Y0031790D01*
X0195322Y0033361D02*
X0195324Y0033431D01*
X0195330Y0033500D01*
X0195339Y0033570D01*
X0195352Y0033638D01*
X0195369Y0033706D01*
X0195389Y0033773D01*
X0195414Y0033838D01*
X0195441Y0033902D01*
X0195472Y0033965D01*
X0195507Y0034026D01*
X0195544Y0034084D01*
X0195585Y0034141D01*
X0195629Y0034195D01*
X0195675Y0034247D01*
X0195725Y0034297D01*
X0195777Y0034343D01*
X0195831Y0034387D01*
X0195888Y0034428D01*
X0195946Y0034465D01*
X0196007Y0034500D01*
X0196070Y0034531D01*
X0196134Y0034558D01*
X0196199Y0034583D01*
X0196266Y0034603D01*
X0196334Y0034620D01*
X0196402Y0034633D01*
X0196472Y0034642D01*
X0196541Y0034648D01*
X0196611Y0034650D01*
X0197417Y0034650D01*
X0197472Y0034648D01*
X0197527Y0034642D01*
X0197581Y0034633D01*
X0197634Y0034620D01*
X0197687Y0034603D01*
X0197738Y0034583D01*
X0197788Y0034560D01*
X0197836Y0034533D01*
X0197882Y0034502D01*
X0197926Y0034469D01*
X0197967Y0034433D01*
X0198006Y0034394D01*
X0198042Y0034353D01*
X0198075Y0034309D01*
X0198106Y0034263D01*
X0198133Y0034215D01*
X0198156Y0034165D01*
X0198176Y0034114D01*
X0198193Y0034061D01*
X0198206Y0034008D01*
X0198215Y0033954D01*
X0198221Y0033899D01*
X0198223Y0033844D01*
X0198221Y0033789D01*
X0198215Y0033734D01*
X0198206Y0033680D01*
X0198193Y0033627D01*
X0198176Y0033574D01*
X0198156Y0033523D01*
X0198133Y0033473D01*
X0198106Y0033425D01*
X0198075Y0033379D01*
X0198042Y0033335D01*
X0198006Y0033294D01*
X0197967Y0033255D01*
X0197926Y0033219D01*
X0197882Y0033186D01*
X0197836Y0033155D01*
X0197788Y0033128D01*
X0197738Y0033105D01*
X0197687Y0033085D01*
X0197634Y0033068D01*
X0197581Y0033055D01*
X0197527Y0033046D01*
X0197472Y0033040D01*
X0197417Y0033038D01*
X0197417Y0033039D02*
X0197255Y0033039D01*
X0197207Y0033041D01*
X0197159Y0033046D01*
X0197112Y0033055D01*
X0197065Y0033068D01*
X0197020Y0033084D01*
X0196976Y0033103D01*
X0196933Y0033125D01*
X0196892Y0033151D01*
X0196853Y0033179D01*
X0196817Y0033211D01*
X0196783Y0033245D01*
X0196752Y0033281D01*
X0196723Y0033320D01*
X0196697Y0033361D01*
X0196675Y0033404D01*
X0196656Y0033448D01*
X0196640Y0033493D01*
X0196627Y0033540D01*
X0196618Y0033587D01*
X0196613Y0033635D01*
X0196611Y0033683D01*
X0196611Y0034650D01*
X0193873Y0050750D02*
X0193873Y0053650D01*
X0193068Y0053650D01*
X0193013Y0053648D01*
X0192958Y0053642D01*
X0192904Y0053633D01*
X0192851Y0053620D01*
X0192798Y0053603D01*
X0192747Y0053583D01*
X0192697Y0053560D01*
X0192649Y0053533D01*
X0192603Y0053502D01*
X0192559Y0053469D01*
X0192518Y0053433D01*
X0192479Y0053394D01*
X0192443Y0053353D01*
X0192410Y0053309D01*
X0192379Y0053263D01*
X0192352Y0053215D01*
X0192329Y0053165D01*
X0192309Y0053114D01*
X0192292Y0053061D01*
X0192279Y0053008D01*
X0192270Y0052954D01*
X0192264Y0052899D01*
X0192262Y0052844D01*
X0192264Y0052789D01*
X0192270Y0052734D01*
X0192279Y0052680D01*
X0192292Y0052627D01*
X0192309Y0052574D01*
X0192329Y0052523D01*
X0192352Y0052473D01*
X0192379Y0052425D01*
X0192410Y0052379D01*
X0192443Y0052335D01*
X0192479Y0052294D01*
X0192518Y0052255D01*
X0192559Y0052219D01*
X0192603Y0052186D01*
X0192649Y0052155D01*
X0192697Y0052128D01*
X0192747Y0052105D01*
X0192798Y0052085D01*
X0192851Y0052068D01*
X0192904Y0052055D01*
X0192958Y0052046D01*
X0193013Y0052040D01*
X0193068Y0052038D01*
X0193068Y0052039D02*
X0193873Y0052039D01*
X0192906Y0052039D02*
X0192262Y0050750D01*
X0191013Y0050750D02*
X0189402Y0050750D01*
X0190208Y0050750D02*
X0190208Y0053650D01*
X0191013Y0053006D01*
X0186522Y0052200D02*
X0186524Y0052110D01*
X0186529Y0052019D01*
X0186537Y0051930D01*
X0186549Y0051840D01*
X0186565Y0051751D01*
X0186583Y0051663D01*
X0186605Y0051575D01*
X0186630Y0051488D01*
X0186659Y0051403D01*
X0186691Y0051318D01*
X0186726Y0051235D01*
X0186764Y0051153D01*
X0187328Y0050750D02*
X0187374Y0050752D01*
X0187420Y0050757D01*
X0187465Y0050766D01*
X0187510Y0050778D01*
X0187553Y0050794D01*
X0187595Y0050813D01*
X0187636Y0050836D01*
X0187674Y0050861D01*
X0187711Y0050889D01*
X0187745Y0050920D01*
X0187777Y0050954D01*
X0187806Y0050990D01*
X0187832Y0051028D01*
X0187855Y0051068D01*
X0187875Y0051110D01*
X0187892Y0051153D01*
X0187972Y0051394D02*
X0186683Y0053006D01*
X0186764Y0053247D02*
X0186781Y0053290D01*
X0186801Y0053332D01*
X0186824Y0053372D01*
X0186850Y0053410D01*
X0186879Y0053446D01*
X0186911Y0053480D01*
X0186945Y0053511D01*
X0186982Y0053539D01*
X0187020Y0053564D01*
X0187061Y0053587D01*
X0187103Y0053606D01*
X0187146Y0053622D01*
X0187191Y0053634D01*
X0187236Y0053643D01*
X0187282Y0053648D01*
X0187328Y0053650D01*
X0187374Y0053648D01*
X0187420Y0053643D01*
X0187465Y0053634D01*
X0187510Y0053622D01*
X0187553Y0053606D01*
X0187595Y0053587D01*
X0187636Y0053564D01*
X0187674Y0053539D01*
X0187711Y0053511D01*
X0187745Y0053480D01*
X0187777Y0053446D01*
X0187806Y0053410D01*
X0187832Y0053372D01*
X0187855Y0053332D01*
X0187875Y0053290D01*
X0187892Y0053247D01*
X0186764Y0053247D02*
X0186726Y0053165D01*
X0186691Y0053082D01*
X0186659Y0052997D01*
X0186630Y0052912D01*
X0186605Y0052825D01*
X0186583Y0052737D01*
X0186565Y0052649D01*
X0186549Y0052560D01*
X0186537Y0052470D01*
X0186529Y0052381D01*
X0186524Y0052290D01*
X0186522Y0052200D01*
X0188133Y0052200D02*
X0188131Y0052290D01*
X0188126Y0052381D01*
X0188118Y0052470D01*
X0188106Y0052560D01*
X0188090Y0052649D01*
X0188072Y0052737D01*
X0188050Y0052825D01*
X0188025Y0052912D01*
X0187996Y0052997D01*
X0187964Y0053082D01*
X0187929Y0053165D01*
X0187891Y0053247D01*
X0186764Y0051153D02*
X0186781Y0051110D01*
X0186801Y0051068D01*
X0186824Y0051028D01*
X0186850Y0050990D01*
X0186879Y0050954D01*
X0186911Y0050920D01*
X0186945Y0050889D01*
X0186982Y0050861D01*
X0187020Y0050836D01*
X0187061Y0050813D01*
X0187103Y0050794D01*
X0187146Y0050778D01*
X0187191Y0050766D01*
X0187236Y0050757D01*
X0187282Y0050752D01*
X0187328Y0050750D01*
X0187891Y0051153D02*
X0187929Y0051235D01*
X0187964Y0051318D01*
X0187996Y0051403D01*
X0188025Y0051488D01*
X0188050Y0051575D01*
X0188072Y0051663D01*
X0188090Y0051751D01*
X0188106Y0051840D01*
X0188118Y0051930D01*
X0188126Y0052019D01*
X0188131Y0052110D01*
X0188133Y0052200D01*
X0177422Y0072950D02*
X0174522Y0072950D01*
X0175811Y0072950D02*
X0175811Y0073756D01*
X0175811Y0073917D02*
X0174522Y0074561D01*
X0174522Y0075810D02*
X0174522Y0077421D01*
X0174522Y0076615D02*
X0177422Y0076615D01*
X0176778Y0075810D01*
X0177423Y0073756D02*
X0177421Y0073811D01*
X0177415Y0073866D01*
X0177406Y0073920D01*
X0177393Y0073973D01*
X0177376Y0074026D01*
X0177356Y0074077D01*
X0177333Y0074127D01*
X0177306Y0074175D01*
X0177275Y0074221D01*
X0177242Y0074265D01*
X0177206Y0074306D01*
X0177167Y0074345D01*
X0177126Y0074381D01*
X0177082Y0074414D01*
X0177036Y0074445D01*
X0176988Y0074472D01*
X0176938Y0074495D01*
X0176887Y0074515D01*
X0176834Y0074532D01*
X0176781Y0074545D01*
X0176727Y0074554D01*
X0176672Y0074560D01*
X0176617Y0074562D01*
X0176562Y0074560D01*
X0176507Y0074554D01*
X0176453Y0074545D01*
X0176400Y0074532D01*
X0176347Y0074515D01*
X0176296Y0074495D01*
X0176246Y0074472D01*
X0176198Y0074445D01*
X0176152Y0074414D01*
X0176108Y0074381D01*
X0176067Y0074345D01*
X0176028Y0074306D01*
X0175992Y0074265D01*
X0175959Y0074221D01*
X0175928Y0074175D01*
X0175901Y0074127D01*
X0175878Y0074077D01*
X0175858Y0074026D01*
X0175841Y0073973D01*
X0175828Y0073920D01*
X0175819Y0073866D01*
X0175813Y0073811D01*
X0175811Y0073756D01*
X0177422Y0073756D02*
X0177422Y0072950D01*
X0175167Y0078690D02*
X0175167Y0080301D01*
X0175811Y0079818D02*
X0174522Y0079818D01*
X0175167Y0078690D02*
X0177422Y0079334D01*
X0177422Y0089950D02*
X0174522Y0089950D01*
X0175811Y0089950D02*
X0175811Y0090756D01*
X0175811Y0090917D02*
X0174522Y0091561D01*
X0174522Y0092810D02*
X0174522Y0094421D01*
X0174522Y0093615D02*
X0177422Y0093615D01*
X0176778Y0092810D01*
X0177423Y0090756D02*
X0177421Y0090811D01*
X0177415Y0090866D01*
X0177406Y0090920D01*
X0177393Y0090973D01*
X0177376Y0091026D01*
X0177356Y0091077D01*
X0177333Y0091127D01*
X0177306Y0091175D01*
X0177275Y0091221D01*
X0177242Y0091265D01*
X0177206Y0091306D01*
X0177167Y0091345D01*
X0177126Y0091381D01*
X0177082Y0091414D01*
X0177036Y0091445D01*
X0176988Y0091472D01*
X0176938Y0091495D01*
X0176887Y0091515D01*
X0176834Y0091532D01*
X0176781Y0091545D01*
X0176727Y0091554D01*
X0176672Y0091560D01*
X0176617Y0091562D01*
X0176562Y0091560D01*
X0176507Y0091554D01*
X0176453Y0091545D01*
X0176400Y0091532D01*
X0176347Y0091515D01*
X0176296Y0091495D01*
X0176246Y0091472D01*
X0176198Y0091445D01*
X0176152Y0091414D01*
X0176108Y0091381D01*
X0176067Y0091345D01*
X0176028Y0091306D01*
X0175992Y0091265D01*
X0175959Y0091221D01*
X0175928Y0091175D01*
X0175901Y0091127D01*
X0175878Y0091077D01*
X0175858Y0091026D01*
X0175841Y0090973D01*
X0175828Y0090920D01*
X0175819Y0090866D01*
X0175813Y0090811D01*
X0175811Y0090756D01*
X0177422Y0090756D02*
X0177422Y0089950D01*
X0176133Y0095690D02*
X0175328Y0095690D01*
X0176133Y0095690D02*
X0176133Y0096657D01*
X0176133Y0095690D02*
X0176203Y0095692D01*
X0176272Y0095698D01*
X0176342Y0095707D01*
X0176410Y0095720D01*
X0176478Y0095737D01*
X0176545Y0095757D01*
X0176610Y0095782D01*
X0176674Y0095809D01*
X0176737Y0095840D01*
X0176798Y0095875D01*
X0176856Y0095912D01*
X0176913Y0095953D01*
X0176967Y0095997D01*
X0177019Y0096043D01*
X0177069Y0096093D01*
X0177115Y0096145D01*
X0177159Y0096199D01*
X0177200Y0096256D01*
X0177237Y0096314D01*
X0177272Y0096375D01*
X0177303Y0096438D01*
X0177330Y0096502D01*
X0177355Y0096567D01*
X0177375Y0096634D01*
X0177392Y0096702D01*
X0177405Y0096770D01*
X0177414Y0096840D01*
X0177420Y0096909D01*
X0177422Y0096979D01*
X0175489Y0097301D02*
X0175328Y0097301D01*
X0175489Y0097301D02*
X0175537Y0097299D01*
X0175585Y0097294D01*
X0175632Y0097285D01*
X0175679Y0097272D01*
X0175724Y0097256D01*
X0175768Y0097237D01*
X0175811Y0097215D01*
X0175852Y0097189D01*
X0175891Y0097160D01*
X0175927Y0097129D01*
X0175961Y0097095D01*
X0175992Y0097059D01*
X0176021Y0097020D01*
X0176047Y0096979D01*
X0176069Y0096936D01*
X0176088Y0096892D01*
X0176104Y0096847D01*
X0176117Y0096800D01*
X0176126Y0096753D01*
X0176131Y0096705D01*
X0176133Y0096657D01*
X0175328Y0097301D02*
X0175273Y0097299D01*
X0175218Y0097293D01*
X0175164Y0097284D01*
X0175111Y0097271D01*
X0175058Y0097254D01*
X0175007Y0097234D01*
X0174957Y0097211D01*
X0174909Y0097184D01*
X0174863Y0097153D01*
X0174819Y0097120D01*
X0174778Y0097084D01*
X0174739Y0097045D01*
X0174703Y0097004D01*
X0174670Y0096960D01*
X0174639Y0096914D01*
X0174612Y0096866D01*
X0174589Y0096816D01*
X0174569Y0096765D01*
X0174552Y0096712D01*
X0174539Y0096659D01*
X0174530Y0096605D01*
X0174524Y0096550D01*
X0174522Y0096495D01*
X0174524Y0096440D01*
X0174530Y0096385D01*
X0174539Y0096331D01*
X0174552Y0096278D01*
X0174569Y0096225D01*
X0174589Y0096174D01*
X0174612Y0096124D01*
X0174639Y0096076D01*
X0174670Y0096030D01*
X0174703Y0095986D01*
X0174739Y0095945D01*
X0174778Y0095906D01*
X0174819Y0095870D01*
X0174863Y0095837D01*
X0174909Y0095806D01*
X0174957Y0095779D01*
X0175007Y0095756D01*
X0175058Y0095736D01*
X0175111Y0095719D01*
X0175164Y0095706D01*
X0175218Y0095697D01*
X0175273Y0095691D01*
X0175328Y0095689D01*
X0150722Y0078433D02*
X0148467Y0077789D01*
X0148467Y0079400D01*
X0149111Y0078917D02*
X0147822Y0078917D01*
X0147822Y0076929D02*
X0148467Y0076284D01*
X0148628Y0076607D02*
X0149917Y0076607D01*
X0149972Y0076605D01*
X0150027Y0076599D01*
X0150081Y0076590D01*
X0150134Y0076577D01*
X0150187Y0076560D01*
X0150238Y0076540D01*
X0150288Y0076517D01*
X0150336Y0076490D01*
X0150382Y0076459D01*
X0150426Y0076426D01*
X0150467Y0076390D01*
X0150506Y0076351D01*
X0150542Y0076310D01*
X0150575Y0076266D01*
X0150606Y0076220D01*
X0150633Y0076172D01*
X0150656Y0076122D01*
X0150676Y0076071D01*
X0150693Y0076018D01*
X0150706Y0075965D01*
X0150715Y0075911D01*
X0150721Y0075856D01*
X0150723Y0075801D01*
X0150721Y0075746D01*
X0150715Y0075691D01*
X0150706Y0075637D01*
X0150693Y0075584D01*
X0150676Y0075531D01*
X0150656Y0075480D01*
X0150633Y0075430D01*
X0150606Y0075382D01*
X0150575Y0075336D01*
X0150542Y0075292D01*
X0150506Y0075251D01*
X0150467Y0075212D01*
X0150426Y0075176D01*
X0150382Y0075143D01*
X0150336Y0075112D01*
X0150288Y0075085D01*
X0150238Y0075062D01*
X0150187Y0075042D01*
X0150134Y0075025D01*
X0150081Y0075012D01*
X0150027Y0075003D01*
X0149972Y0074997D01*
X0149917Y0074995D01*
X0148628Y0074995D01*
X0148573Y0074997D01*
X0148518Y0075003D01*
X0148464Y0075012D01*
X0148411Y0075025D01*
X0148358Y0075042D01*
X0148307Y0075062D01*
X0148257Y0075085D01*
X0148209Y0075112D01*
X0148163Y0075143D01*
X0148119Y0075176D01*
X0148078Y0075212D01*
X0148039Y0075251D01*
X0148003Y0075292D01*
X0147970Y0075336D01*
X0147939Y0075382D01*
X0147912Y0075430D01*
X0147889Y0075480D01*
X0147869Y0075531D01*
X0147852Y0075584D01*
X0147839Y0075637D01*
X0147830Y0075691D01*
X0147824Y0075746D01*
X0147822Y0075801D01*
X0147824Y0075856D01*
X0147830Y0075911D01*
X0147839Y0075965D01*
X0147852Y0076018D01*
X0147869Y0076071D01*
X0147889Y0076122D01*
X0147912Y0076172D01*
X0147939Y0076220D01*
X0147970Y0076266D01*
X0148003Y0076310D01*
X0148039Y0076351D01*
X0148078Y0076390D01*
X0148119Y0076426D01*
X0148163Y0076459D01*
X0148209Y0076490D01*
X0148257Y0076517D01*
X0148307Y0076540D01*
X0148358Y0076560D01*
X0148411Y0076577D01*
X0148464Y0076590D01*
X0148518Y0076599D01*
X0148573Y0076605D01*
X0148628Y0076607D01*
X0149167Y0071301D02*
X0149489Y0071301D01*
X0149537Y0071299D01*
X0149585Y0071294D01*
X0149632Y0071285D01*
X0149679Y0071272D01*
X0149724Y0071256D01*
X0149768Y0071237D01*
X0149811Y0071215D01*
X0149852Y0071189D01*
X0149891Y0071160D01*
X0149927Y0071129D01*
X0149961Y0071095D01*
X0149992Y0071059D01*
X0150021Y0071020D01*
X0150047Y0070979D01*
X0150069Y0070936D01*
X0150088Y0070892D01*
X0150104Y0070847D01*
X0150117Y0070800D01*
X0150126Y0070753D01*
X0150131Y0070705D01*
X0150133Y0070657D01*
X0150133Y0069690D01*
X0151422Y0069690D01*
X0151422Y0071301D01*
X0149167Y0071301D02*
X0149116Y0071299D01*
X0149066Y0071293D01*
X0149017Y0071283D01*
X0148968Y0071269D01*
X0148921Y0071252D01*
X0148875Y0071231D01*
X0148831Y0071206D01*
X0148788Y0071178D01*
X0148749Y0071147D01*
X0148712Y0071112D01*
X0148677Y0071075D01*
X0148646Y0071036D01*
X0148618Y0070993D01*
X0148593Y0070949D01*
X0148572Y0070903D01*
X0148555Y0070856D01*
X0148541Y0070807D01*
X0148531Y0070758D01*
X0148525Y0070708D01*
X0148523Y0070657D01*
X0148522Y0070657D02*
X0148522Y0069690D01*
X0148522Y0068421D02*
X0148522Y0066810D01*
X0148522Y0067615D02*
X0151422Y0067615D01*
X0150778Y0066810D01*
X0151423Y0064756D02*
X0151421Y0064811D01*
X0151415Y0064866D01*
X0151406Y0064920D01*
X0151393Y0064973D01*
X0151376Y0065026D01*
X0151356Y0065077D01*
X0151333Y0065127D01*
X0151306Y0065175D01*
X0151275Y0065221D01*
X0151242Y0065265D01*
X0151206Y0065306D01*
X0151167Y0065345D01*
X0151126Y0065381D01*
X0151082Y0065414D01*
X0151036Y0065445D01*
X0150988Y0065472D01*
X0150938Y0065495D01*
X0150887Y0065515D01*
X0150834Y0065532D01*
X0150781Y0065545D01*
X0150727Y0065554D01*
X0150672Y0065560D01*
X0150617Y0065562D01*
X0150562Y0065560D01*
X0150507Y0065554D01*
X0150453Y0065545D01*
X0150400Y0065532D01*
X0150347Y0065515D01*
X0150296Y0065495D01*
X0150246Y0065472D01*
X0150198Y0065445D01*
X0150152Y0065414D01*
X0150108Y0065381D01*
X0150067Y0065345D01*
X0150028Y0065306D01*
X0149992Y0065265D01*
X0149959Y0065221D01*
X0149928Y0065175D01*
X0149901Y0065127D01*
X0149878Y0065077D01*
X0149858Y0065026D01*
X0149841Y0064973D01*
X0149828Y0064920D01*
X0149819Y0064866D01*
X0149813Y0064811D01*
X0149811Y0064756D01*
X0149811Y0063950D01*
X0149811Y0064917D02*
X0148522Y0065561D01*
X0148522Y0063950D02*
X0151422Y0063950D01*
X0151422Y0064756D01*
X0121698Y0056809D02*
X0118798Y0056809D01*
X0118798Y0057614D02*
X0118798Y0056003D01*
X0118798Y0055143D02*
X0119442Y0054499D01*
X0119603Y0054821D02*
X0120892Y0054821D01*
X0120947Y0054819D01*
X0121002Y0054813D01*
X0121056Y0054804D01*
X0121109Y0054791D01*
X0121162Y0054774D01*
X0121213Y0054754D01*
X0121263Y0054731D01*
X0121311Y0054704D01*
X0121357Y0054673D01*
X0121401Y0054640D01*
X0121442Y0054604D01*
X0121481Y0054565D01*
X0121517Y0054524D01*
X0121550Y0054480D01*
X0121581Y0054434D01*
X0121608Y0054386D01*
X0121631Y0054336D01*
X0121651Y0054285D01*
X0121668Y0054232D01*
X0121681Y0054179D01*
X0121690Y0054125D01*
X0121696Y0054070D01*
X0121698Y0054015D01*
X0121696Y0053960D01*
X0121690Y0053905D01*
X0121681Y0053851D01*
X0121668Y0053798D01*
X0121651Y0053745D01*
X0121631Y0053694D01*
X0121608Y0053644D01*
X0121581Y0053596D01*
X0121550Y0053550D01*
X0121517Y0053506D01*
X0121481Y0053465D01*
X0121442Y0053426D01*
X0121401Y0053390D01*
X0121357Y0053357D01*
X0121311Y0053326D01*
X0121263Y0053299D01*
X0121213Y0053276D01*
X0121162Y0053256D01*
X0121109Y0053239D01*
X0121056Y0053226D01*
X0121002Y0053217D01*
X0120947Y0053211D01*
X0120892Y0053209D01*
X0120892Y0053210D02*
X0119603Y0053210D01*
X0119603Y0053209D02*
X0119548Y0053211D01*
X0119493Y0053217D01*
X0119439Y0053226D01*
X0119386Y0053239D01*
X0119333Y0053256D01*
X0119282Y0053276D01*
X0119232Y0053299D01*
X0119184Y0053326D01*
X0119138Y0053357D01*
X0119094Y0053390D01*
X0119053Y0053426D01*
X0119014Y0053465D01*
X0118978Y0053506D01*
X0118945Y0053550D01*
X0118914Y0053596D01*
X0118887Y0053644D01*
X0118864Y0053694D01*
X0118844Y0053745D01*
X0118827Y0053798D01*
X0118814Y0053851D01*
X0118805Y0053905D01*
X0118799Y0053960D01*
X0118797Y0054015D01*
X0118799Y0054070D01*
X0118805Y0054125D01*
X0118814Y0054179D01*
X0118827Y0054232D01*
X0118844Y0054285D01*
X0118864Y0054336D01*
X0118887Y0054386D01*
X0118914Y0054434D01*
X0118945Y0054480D01*
X0118978Y0054524D01*
X0119014Y0054565D01*
X0119053Y0054604D01*
X0119094Y0054640D01*
X0119138Y0054673D01*
X0119184Y0054704D01*
X0119232Y0054731D01*
X0119282Y0054754D01*
X0119333Y0054774D01*
X0119386Y0054791D01*
X0119439Y0054804D01*
X0119493Y0054813D01*
X0119548Y0054819D01*
X0119603Y0054821D01*
X0121053Y0056003D02*
X0121698Y0056809D01*
X0113993Y0042650D02*
X0113188Y0042650D01*
X0113993Y0042650D02*
X0113993Y0039750D01*
X0113993Y0041039D02*
X0113188Y0041039D01*
X0113026Y0041039D02*
X0112382Y0039750D01*
X0111133Y0039750D02*
X0110328Y0039750D01*
X0110273Y0039752D01*
X0110218Y0039758D01*
X0110164Y0039767D01*
X0110111Y0039780D01*
X0110058Y0039797D01*
X0110007Y0039817D01*
X0109957Y0039840D01*
X0109909Y0039867D01*
X0109863Y0039898D01*
X0109819Y0039931D01*
X0109778Y0039967D01*
X0109739Y0040006D01*
X0109703Y0040047D01*
X0109670Y0040091D01*
X0109639Y0040137D01*
X0109612Y0040185D01*
X0109589Y0040235D01*
X0109569Y0040286D01*
X0109552Y0040339D01*
X0109539Y0040392D01*
X0109530Y0040446D01*
X0109524Y0040501D01*
X0109522Y0040556D01*
X0109524Y0040611D01*
X0109530Y0040666D01*
X0109539Y0040720D01*
X0109552Y0040773D01*
X0109569Y0040826D01*
X0109589Y0040877D01*
X0109612Y0040927D01*
X0109639Y0040975D01*
X0109670Y0041021D01*
X0109703Y0041065D01*
X0109739Y0041106D01*
X0109778Y0041145D01*
X0109819Y0041181D01*
X0109863Y0041214D01*
X0109909Y0041245D01*
X0109957Y0041272D01*
X0110007Y0041295D01*
X0110058Y0041315D01*
X0110111Y0041332D01*
X0110164Y0041345D01*
X0110218Y0041354D01*
X0110273Y0041360D01*
X0110328Y0041362D01*
X0110167Y0041361D02*
X0110811Y0041361D01*
X0110167Y0041362D02*
X0110118Y0041364D01*
X0110069Y0041370D01*
X0110020Y0041379D01*
X0109973Y0041392D01*
X0109926Y0041409D01*
X0109881Y0041429D01*
X0109838Y0041452D01*
X0109796Y0041479D01*
X0109757Y0041509D01*
X0109720Y0041542D01*
X0109686Y0041578D01*
X0109655Y0041616D01*
X0109626Y0041656D01*
X0109601Y0041698D01*
X0109579Y0041743D01*
X0109561Y0041788D01*
X0109546Y0041835D01*
X0109535Y0041883D01*
X0109527Y0041932D01*
X0109523Y0041981D01*
X0109523Y0042031D01*
X0109527Y0042080D01*
X0109535Y0042129D01*
X0109546Y0042177D01*
X0109561Y0042224D01*
X0109579Y0042269D01*
X0109601Y0042314D01*
X0109626Y0042356D01*
X0109655Y0042396D01*
X0109686Y0042434D01*
X0109720Y0042470D01*
X0109757Y0042503D01*
X0109796Y0042533D01*
X0109838Y0042560D01*
X0109881Y0042583D01*
X0109926Y0042603D01*
X0109973Y0042620D01*
X0110020Y0042633D01*
X0110069Y0042642D01*
X0110118Y0042648D01*
X0110167Y0042650D01*
X0111133Y0042650D01*
X0113188Y0042650D02*
X0113133Y0042648D01*
X0113078Y0042642D01*
X0113024Y0042633D01*
X0112971Y0042620D01*
X0112918Y0042603D01*
X0112867Y0042583D01*
X0112817Y0042560D01*
X0112769Y0042533D01*
X0112723Y0042502D01*
X0112679Y0042469D01*
X0112638Y0042433D01*
X0112599Y0042394D01*
X0112563Y0042353D01*
X0112530Y0042309D01*
X0112499Y0042263D01*
X0112472Y0042215D01*
X0112449Y0042165D01*
X0112429Y0042114D01*
X0112412Y0042061D01*
X0112399Y0042008D01*
X0112390Y0041954D01*
X0112384Y0041899D01*
X0112382Y0041844D01*
X0112384Y0041789D01*
X0112390Y0041734D01*
X0112399Y0041680D01*
X0112412Y0041627D01*
X0112429Y0041574D01*
X0112449Y0041523D01*
X0112472Y0041473D01*
X0112499Y0041425D01*
X0112530Y0041379D01*
X0112563Y0041335D01*
X0112599Y0041294D01*
X0112638Y0041255D01*
X0112679Y0041219D01*
X0112723Y0041186D01*
X0112769Y0041155D01*
X0112817Y0041128D01*
X0112867Y0041105D01*
X0112918Y0041085D01*
X0112971Y0041068D01*
X0113024Y0041055D01*
X0113078Y0041046D01*
X0113133Y0041040D01*
X0113188Y0041038D01*
X0099993Y0035650D02*
X0099993Y0032750D01*
X0099993Y0034039D02*
X0099188Y0034039D01*
X0099026Y0034039D02*
X0098382Y0032750D01*
X0097134Y0033556D02*
X0097132Y0033501D01*
X0097126Y0033446D01*
X0097117Y0033392D01*
X0097104Y0033339D01*
X0097087Y0033286D01*
X0097067Y0033235D01*
X0097044Y0033185D01*
X0097017Y0033137D01*
X0096986Y0033091D01*
X0096953Y0033047D01*
X0096917Y0033006D01*
X0096878Y0032967D01*
X0096837Y0032931D01*
X0096793Y0032898D01*
X0096747Y0032867D01*
X0096699Y0032840D01*
X0096649Y0032817D01*
X0096598Y0032797D01*
X0096545Y0032780D01*
X0096492Y0032767D01*
X0096438Y0032758D01*
X0096383Y0032752D01*
X0096328Y0032750D01*
X0096273Y0032752D01*
X0096218Y0032758D01*
X0096164Y0032767D01*
X0096111Y0032780D01*
X0096058Y0032797D01*
X0096007Y0032817D01*
X0095957Y0032840D01*
X0095909Y0032867D01*
X0095863Y0032898D01*
X0095819Y0032931D01*
X0095778Y0032967D01*
X0095739Y0033006D01*
X0095703Y0033047D01*
X0095670Y0033091D01*
X0095639Y0033137D01*
X0095612Y0033185D01*
X0095589Y0033235D01*
X0095569Y0033286D01*
X0095552Y0033339D01*
X0095539Y0033392D01*
X0095530Y0033446D01*
X0095524Y0033501D01*
X0095522Y0033556D01*
X0095524Y0033611D01*
X0095530Y0033666D01*
X0095539Y0033720D01*
X0095552Y0033773D01*
X0095569Y0033826D01*
X0095589Y0033877D01*
X0095612Y0033927D01*
X0095639Y0033975D01*
X0095670Y0034021D01*
X0095703Y0034065D01*
X0095739Y0034106D01*
X0095778Y0034145D01*
X0095819Y0034181D01*
X0095863Y0034214D01*
X0095909Y0034245D01*
X0095957Y0034272D01*
X0096007Y0034295D01*
X0096058Y0034315D01*
X0096111Y0034332D01*
X0096164Y0034345D01*
X0096218Y0034354D01*
X0096273Y0034360D01*
X0096328Y0034362D01*
X0096383Y0034360D01*
X0096438Y0034354D01*
X0096492Y0034345D01*
X0096545Y0034332D01*
X0096598Y0034315D01*
X0096649Y0034295D01*
X0096699Y0034272D01*
X0096747Y0034245D01*
X0096793Y0034214D01*
X0096837Y0034181D01*
X0096878Y0034145D01*
X0096917Y0034106D01*
X0096953Y0034065D01*
X0096986Y0034021D01*
X0097017Y0033975D01*
X0097044Y0033927D01*
X0097067Y0033877D01*
X0097087Y0033826D01*
X0097104Y0033773D01*
X0097117Y0033720D01*
X0097126Y0033666D01*
X0097132Y0033611D01*
X0097134Y0033556D01*
X0096972Y0035006D02*
X0096970Y0034957D01*
X0096964Y0034908D01*
X0096955Y0034859D01*
X0096942Y0034812D01*
X0096925Y0034765D01*
X0096905Y0034720D01*
X0096882Y0034677D01*
X0096855Y0034635D01*
X0096825Y0034596D01*
X0096792Y0034559D01*
X0096756Y0034525D01*
X0096718Y0034494D01*
X0096678Y0034465D01*
X0096636Y0034440D01*
X0096591Y0034418D01*
X0096546Y0034400D01*
X0096499Y0034385D01*
X0096451Y0034374D01*
X0096402Y0034366D01*
X0096353Y0034362D01*
X0096303Y0034362D01*
X0096254Y0034366D01*
X0096205Y0034374D01*
X0096157Y0034385D01*
X0096110Y0034400D01*
X0096065Y0034418D01*
X0096020Y0034440D01*
X0095978Y0034465D01*
X0095938Y0034494D01*
X0095900Y0034525D01*
X0095864Y0034559D01*
X0095831Y0034596D01*
X0095801Y0034635D01*
X0095774Y0034677D01*
X0095751Y0034720D01*
X0095731Y0034765D01*
X0095714Y0034812D01*
X0095701Y0034859D01*
X0095692Y0034908D01*
X0095686Y0034957D01*
X0095684Y0035006D01*
X0095686Y0035055D01*
X0095692Y0035104D01*
X0095701Y0035153D01*
X0095714Y0035200D01*
X0095731Y0035247D01*
X0095751Y0035292D01*
X0095774Y0035335D01*
X0095801Y0035377D01*
X0095831Y0035416D01*
X0095864Y0035453D01*
X0095900Y0035487D01*
X0095938Y0035518D01*
X0095978Y0035547D01*
X0096020Y0035572D01*
X0096065Y0035594D01*
X0096110Y0035612D01*
X0096157Y0035627D01*
X0096205Y0035638D01*
X0096254Y0035646D01*
X0096303Y0035650D01*
X0096353Y0035650D01*
X0096402Y0035646D01*
X0096451Y0035638D01*
X0096499Y0035627D01*
X0096546Y0035612D01*
X0096591Y0035594D01*
X0096636Y0035572D01*
X0096678Y0035547D01*
X0096718Y0035518D01*
X0096756Y0035487D01*
X0096792Y0035453D01*
X0096825Y0035416D01*
X0096855Y0035377D01*
X0096882Y0035335D01*
X0096905Y0035292D01*
X0096925Y0035247D01*
X0096942Y0035200D01*
X0096955Y0035153D01*
X0096964Y0035104D01*
X0096970Y0035055D01*
X0096972Y0035006D01*
X0099188Y0035650D02*
X0099133Y0035648D01*
X0099078Y0035642D01*
X0099024Y0035633D01*
X0098971Y0035620D01*
X0098918Y0035603D01*
X0098867Y0035583D01*
X0098817Y0035560D01*
X0098769Y0035533D01*
X0098723Y0035502D01*
X0098679Y0035469D01*
X0098638Y0035433D01*
X0098599Y0035394D01*
X0098563Y0035353D01*
X0098530Y0035309D01*
X0098499Y0035263D01*
X0098472Y0035215D01*
X0098449Y0035165D01*
X0098429Y0035114D01*
X0098412Y0035061D01*
X0098399Y0035008D01*
X0098390Y0034954D01*
X0098384Y0034899D01*
X0098382Y0034844D01*
X0098384Y0034789D01*
X0098390Y0034734D01*
X0098399Y0034680D01*
X0098412Y0034627D01*
X0098429Y0034574D01*
X0098449Y0034523D01*
X0098472Y0034473D01*
X0098499Y0034425D01*
X0098530Y0034379D01*
X0098563Y0034335D01*
X0098599Y0034294D01*
X0098638Y0034255D01*
X0098679Y0034219D01*
X0098723Y0034186D01*
X0098769Y0034155D01*
X0098817Y0034128D01*
X0098867Y0034105D01*
X0098918Y0034085D01*
X0098971Y0034068D01*
X0099024Y0034055D01*
X0099078Y0034046D01*
X0099133Y0034040D01*
X0099188Y0034038D01*
X0099188Y0035650D02*
X0099993Y0035650D01*
X0079542Y0029006D02*
X0079542Y0027394D01*
X0079540Y0027346D01*
X0079535Y0027298D01*
X0079526Y0027251D01*
X0079513Y0027204D01*
X0079497Y0027159D01*
X0079478Y0027115D01*
X0079456Y0027072D01*
X0079430Y0027031D01*
X0079401Y0026992D01*
X0079370Y0026956D01*
X0079336Y0026922D01*
X0079300Y0026891D01*
X0079261Y0026862D01*
X0079220Y0026836D01*
X0079177Y0026814D01*
X0079133Y0026795D01*
X0079088Y0026779D01*
X0079041Y0026766D01*
X0078994Y0026757D01*
X0078946Y0026752D01*
X0078898Y0026750D01*
X0078253Y0026750D01*
X0077133Y0026750D02*
X0076328Y0026750D01*
X0076273Y0026752D01*
X0076218Y0026758D01*
X0076164Y0026767D01*
X0076111Y0026780D01*
X0076058Y0026797D01*
X0076007Y0026817D01*
X0075957Y0026840D01*
X0075909Y0026867D01*
X0075863Y0026898D01*
X0075819Y0026931D01*
X0075778Y0026967D01*
X0075739Y0027006D01*
X0075703Y0027047D01*
X0075670Y0027091D01*
X0075639Y0027137D01*
X0075612Y0027185D01*
X0075589Y0027235D01*
X0075569Y0027286D01*
X0075552Y0027339D01*
X0075539Y0027392D01*
X0075530Y0027446D01*
X0075524Y0027501D01*
X0075522Y0027556D01*
X0075524Y0027611D01*
X0075530Y0027666D01*
X0075539Y0027720D01*
X0075552Y0027773D01*
X0075569Y0027826D01*
X0075589Y0027877D01*
X0075612Y0027927D01*
X0075639Y0027975D01*
X0075670Y0028021D01*
X0075703Y0028065D01*
X0075739Y0028106D01*
X0075778Y0028145D01*
X0075819Y0028181D01*
X0075863Y0028214D01*
X0075909Y0028245D01*
X0075957Y0028272D01*
X0076007Y0028295D01*
X0076058Y0028315D01*
X0076111Y0028332D01*
X0076164Y0028345D01*
X0076218Y0028354D01*
X0076273Y0028360D01*
X0076328Y0028362D01*
X0076167Y0028361D02*
X0076811Y0028361D01*
X0076167Y0028362D02*
X0076118Y0028364D01*
X0076069Y0028370D01*
X0076020Y0028379D01*
X0075973Y0028392D01*
X0075926Y0028409D01*
X0075881Y0028429D01*
X0075838Y0028452D01*
X0075796Y0028479D01*
X0075757Y0028509D01*
X0075720Y0028542D01*
X0075686Y0028578D01*
X0075655Y0028616D01*
X0075626Y0028656D01*
X0075601Y0028698D01*
X0075579Y0028743D01*
X0075561Y0028788D01*
X0075546Y0028835D01*
X0075535Y0028883D01*
X0075527Y0028932D01*
X0075523Y0028981D01*
X0075523Y0029031D01*
X0075527Y0029080D01*
X0075535Y0029129D01*
X0075546Y0029177D01*
X0075561Y0029224D01*
X0075579Y0029269D01*
X0075601Y0029314D01*
X0075626Y0029356D01*
X0075655Y0029396D01*
X0075686Y0029434D01*
X0075720Y0029470D01*
X0075757Y0029503D01*
X0075796Y0029533D01*
X0075838Y0029560D01*
X0075881Y0029583D01*
X0075926Y0029603D01*
X0075973Y0029620D01*
X0076020Y0029633D01*
X0076069Y0029642D01*
X0076118Y0029648D01*
X0076167Y0029650D01*
X0077133Y0029650D01*
X0078253Y0029650D02*
X0078898Y0029650D01*
X0078946Y0029648D01*
X0078994Y0029643D01*
X0079041Y0029634D01*
X0079088Y0029621D01*
X0079133Y0029605D01*
X0079177Y0029586D01*
X0079220Y0029564D01*
X0079261Y0029538D01*
X0079300Y0029509D01*
X0079336Y0029478D01*
X0079370Y0029444D01*
X0079401Y0029408D01*
X0079430Y0029369D01*
X0079456Y0029328D01*
X0079478Y0029285D01*
X0079497Y0029241D01*
X0079513Y0029196D01*
X0079526Y0029149D01*
X0079535Y0029102D01*
X0079540Y0029054D01*
X0079542Y0029006D01*
X0079578Y0021850D02*
X0078933Y0021850D01*
X0079578Y0021850D02*
X0079626Y0021848D01*
X0079674Y0021843D01*
X0079721Y0021834D01*
X0079768Y0021821D01*
X0079813Y0021805D01*
X0079857Y0021786D01*
X0079900Y0021764D01*
X0079941Y0021738D01*
X0079980Y0021709D01*
X0080016Y0021678D01*
X0080050Y0021644D01*
X0080081Y0021608D01*
X0080110Y0021569D01*
X0080136Y0021528D01*
X0080158Y0021485D01*
X0080177Y0021441D01*
X0080193Y0021396D01*
X0080206Y0021349D01*
X0080215Y0021302D01*
X0080220Y0021254D01*
X0080222Y0021206D01*
X0080222Y0019594D01*
X0080220Y0019546D01*
X0080215Y0019498D01*
X0080206Y0019451D01*
X0080193Y0019404D01*
X0080177Y0019359D01*
X0080158Y0019315D01*
X0080136Y0019272D01*
X0080110Y0019231D01*
X0080081Y0019192D01*
X0080050Y0019156D01*
X0080016Y0019122D01*
X0079980Y0019091D01*
X0079941Y0019062D01*
X0079900Y0019036D01*
X0079857Y0019014D01*
X0079813Y0018995D01*
X0079768Y0018979D01*
X0079721Y0018966D01*
X0079674Y0018957D01*
X0079626Y0018952D01*
X0079578Y0018950D01*
X0078933Y0018950D01*
X0077813Y0019594D02*
X0076202Y0019594D01*
X0076685Y0020239D02*
X0076685Y0018950D01*
X0077813Y0019594D02*
X0077169Y0021850D01*
X0066722Y0041950D02*
X0065917Y0041950D01*
X0066722Y0041950D02*
X0066722Y0044850D01*
X0065917Y0044850D01*
X0065862Y0044848D01*
X0065807Y0044842D01*
X0065753Y0044833D01*
X0065700Y0044820D01*
X0065647Y0044803D01*
X0065596Y0044783D01*
X0065546Y0044760D01*
X0065498Y0044733D01*
X0065452Y0044702D01*
X0065408Y0044669D01*
X0065367Y0044633D01*
X0065328Y0044594D01*
X0065292Y0044553D01*
X0065259Y0044509D01*
X0065228Y0044463D01*
X0065201Y0044415D01*
X0065178Y0044365D01*
X0065158Y0044314D01*
X0065141Y0044261D01*
X0065128Y0044208D01*
X0065119Y0044154D01*
X0065113Y0044099D01*
X0065111Y0044044D01*
X0065111Y0042756D01*
X0065113Y0042701D01*
X0065119Y0042646D01*
X0065128Y0042592D01*
X0065141Y0042539D01*
X0065158Y0042486D01*
X0065178Y0042435D01*
X0065201Y0042385D01*
X0065228Y0042337D01*
X0065259Y0042291D01*
X0065292Y0042247D01*
X0065328Y0042206D01*
X0065367Y0042167D01*
X0065408Y0042131D01*
X0065452Y0042098D01*
X0065498Y0042067D01*
X0065546Y0042040D01*
X0065596Y0042017D01*
X0065647Y0041997D01*
X0065700Y0041980D01*
X0065753Y0041967D01*
X0065807Y0041958D01*
X0065862Y0041952D01*
X0065917Y0041950D01*
X0063746Y0041950D02*
X0062135Y0041950D01*
X0062941Y0041950D02*
X0062941Y0044850D01*
X0063746Y0044206D01*
X0089234Y0064950D02*
X0089234Y0066239D01*
X0088751Y0065594D02*
X0090362Y0065594D01*
X0089718Y0067850D01*
X0092417Y0067850D02*
X0093222Y0067850D01*
X0093222Y0064950D01*
X0093222Y0066239D02*
X0092417Y0066239D01*
X0092255Y0066239D02*
X0091611Y0064950D01*
X0092417Y0066238D02*
X0092362Y0066240D01*
X0092307Y0066246D01*
X0092253Y0066255D01*
X0092200Y0066268D01*
X0092147Y0066285D01*
X0092096Y0066305D01*
X0092046Y0066328D01*
X0091998Y0066355D01*
X0091952Y0066386D01*
X0091908Y0066419D01*
X0091867Y0066455D01*
X0091828Y0066494D01*
X0091792Y0066535D01*
X0091759Y0066579D01*
X0091728Y0066625D01*
X0091701Y0066673D01*
X0091678Y0066723D01*
X0091658Y0066774D01*
X0091641Y0066827D01*
X0091628Y0066880D01*
X0091619Y0066934D01*
X0091613Y0066989D01*
X0091611Y0067044D01*
X0091613Y0067099D01*
X0091619Y0067154D01*
X0091628Y0067208D01*
X0091641Y0067261D01*
X0091658Y0067314D01*
X0091678Y0067365D01*
X0091701Y0067415D01*
X0091728Y0067463D01*
X0091759Y0067509D01*
X0091792Y0067553D01*
X0091828Y0067594D01*
X0091867Y0067633D01*
X0091908Y0067669D01*
X0091952Y0067702D01*
X0091998Y0067733D01*
X0092046Y0067760D01*
X0092096Y0067783D01*
X0092147Y0067803D01*
X0092200Y0067820D01*
X0092253Y0067833D01*
X0092307Y0067842D01*
X0092362Y0067848D01*
X0092417Y0067850D01*
X0102167Y0085950D02*
X0103778Y0085950D01*
X0103826Y0085952D01*
X0103874Y0085957D01*
X0103921Y0085966D01*
X0103968Y0085979D01*
X0104013Y0085995D01*
X0104057Y0086014D01*
X0104100Y0086036D01*
X0104141Y0086062D01*
X0104180Y0086091D01*
X0104216Y0086122D01*
X0104250Y0086156D01*
X0104281Y0086192D01*
X0104310Y0086231D01*
X0104336Y0086272D01*
X0104358Y0086315D01*
X0104377Y0086359D01*
X0104393Y0086404D01*
X0104406Y0086451D01*
X0104415Y0086498D01*
X0104420Y0086546D01*
X0104422Y0086594D01*
X0104422Y0087239D01*
X0103133Y0089728D02*
X0103170Y0089765D01*
X0103210Y0089799D01*
X0103252Y0089831D01*
X0103297Y0089859D01*
X0103343Y0089885D01*
X0103390Y0089907D01*
X0103439Y0089926D01*
X0103489Y0089942D01*
X0103540Y0089954D01*
X0103592Y0089963D01*
X0103644Y0089968D01*
X0103697Y0089970D01*
X0103133Y0089729D02*
X0101522Y0088359D01*
X0101522Y0089970D01*
X0103778Y0088359D02*
X0103833Y0088379D01*
X0103887Y0088402D01*
X0103939Y0088429D01*
X0103989Y0088459D01*
X0104038Y0088491D01*
X0104084Y0088527D01*
X0104128Y0088566D01*
X0104169Y0088607D01*
X0104208Y0088651D01*
X0104244Y0088697D01*
X0104277Y0088746D01*
X0104307Y0088796D01*
X0104333Y0088848D01*
X0104357Y0088902D01*
X0104376Y0088957D01*
X0104393Y0089013D01*
X0104405Y0089070D01*
X0104415Y0089128D01*
X0104420Y0089186D01*
X0104422Y0089245D01*
X0104420Y0089297D01*
X0104415Y0089348D01*
X0104405Y0089399D01*
X0104393Y0089449D01*
X0104376Y0089498D01*
X0104356Y0089546D01*
X0104333Y0089592D01*
X0104307Y0089637D01*
X0104277Y0089679D01*
X0104245Y0089720D01*
X0104210Y0089758D01*
X0104172Y0089793D01*
X0104131Y0089825D01*
X0104089Y0089855D01*
X0104044Y0089881D01*
X0103998Y0089904D01*
X0103950Y0089924D01*
X0103901Y0089941D01*
X0103851Y0089953D01*
X0103800Y0089963D01*
X0103749Y0089968D01*
X0103697Y0089970D01*
X0101522Y0087239D02*
X0101522Y0086594D01*
X0101523Y0086594D02*
X0101525Y0086546D01*
X0101530Y0086498D01*
X0101539Y0086451D01*
X0101552Y0086404D01*
X0101568Y0086359D01*
X0101587Y0086315D01*
X0101609Y0086272D01*
X0101635Y0086231D01*
X0101664Y0086192D01*
X0101695Y0086156D01*
X0101729Y0086122D01*
X0101765Y0086091D01*
X0101804Y0086062D01*
X0101845Y0086036D01*
X0101888Y0086014D01*
X0101932Y0085995D01*
X0101977Y0085979D01*
X0102024Y0085966D01*
X0102071Y0085957D01*
X0102119Y0085952D01*
X0102167Y0085950D01*
X0114751Y0091950D02*
X0116362Y0091950D01*
X0115557Y0091950D02*
X0115557Y0094850D01*
X0116362Y0094206D01*
X0118417Y0094850D02*
X0118362Y0094848D01*
X0118307Y0094842D01*
X0118253Y0094833D01*
X0118200Y0094820D01*
X0118147Y0094803D01*
X0118096Y0094783D01*
X0118046Y0094760D01*
X0117998Y0094733D01*
X0117952Y0094702D01*
X0117908Y0094669D01*
X0117867Y0094633D01*
X0117828Y0094594D01*
X0117792Y0094553D01*
X0117759Y0094509D01*
X0117728Y0094463D01*
X0117701Y0094415D01*
X0117678Y0094365D01*
X0117658Y0094314D01*
X0117641Y0094261D01*
X0117628Y0094208D01*
X0117619Y0094154D01*
X0117613Y0094099D01*
X0117611Y0094044D01*
X0117613Y0093989D01*
X0117619Y0093934D01*
X0117628Y0093880D01*
X0117641Y0093827D01*
X0117658Y0093774D01*
X0117678Y0093723D01*
X0117701Y0093673D01*
X0117728Y0093625D01*
X0117759Y0093579D01*
X0117792Y0093535D01*
X0117828Y0093494D01*
X0117867Y0093455D01*
X0117908Y0093419D01*
X0117952Y0093386D01*
X0117998Y0093355D01*
X0118046Y0093328D01*
X0118096Y0093305D01*
X0118147Y0093285D01*
X0118200Y0093268D01*
X0118253Y0093255D01*
X0118307Y0093246D01*
X0118362Y0093240D01*
X0118417Y0093238D01*
X0118417Y0093239D02*
X0119222Y0093239D01*
X0118255Y0093239D02*
X0117611Y0091950D01*
X0119222Y0091950D02*
X0119222Y0094850D01*
X0118417Y0094850D01*
X0132871Y0094850D02*
X0133677Y0091950D01*
X0135751Y0091950D02*
X0137362Y0091950D01*
X0136557Y0091950D02*
X0136557Y0094850D01*
X0137362Y0094206D01*
X0139417Y0094850D02*
X0139362Y0094848D01*
X0139307Y0094842D01*
X0139253Y0094833D01*
X0139200Y0094820D01*
X0139147Y0094803D01*
X0139096Y0094783D01*
X0139046Y0094760D01*
X0138998Y0094733D01*
X0138952Y0094702D01*
X0138908Y0094669D01*
X0138867Y0094633D01*
X0138828Y0094594D01*
X0138792Y0094553D01*
X0138759Y0094509D01*
X0138728Y0094463D01*
X0138701Y0094415D01*
X0138678Y0094365D01*
X0138658Y0094314D01*
X0138641Y0094261D01*
X0138628Y0094208D01*
X0138619Y0094154D01*
X0138613Y0094099D01*
X0138611Y0094044D01*
X0138613Y0093989D01*
X0138619Y0093934D01*
X0138628Y0093880D01*
X0138641Y0093827D01*
X0138658Y0093774D01*
X0138678Y0093723D01*
X0138701Y0093673D01*
X0138728Y0093625D01*
X0138759Y0093579D01*
X0138792Y0093535D01*
X0138828Y0093494D01*
X0138867Y0093455D01*
X0138908Y0093419D01*
X0138952Y0093386D01*
X0138998Y0093355D01*
X0139046Y0093328D01*
X0139096Y0093305D01*
X0139147Y0093285D01*
X0139200Y0093268D01*
X0139253Y0093255D01*
X0139307Y0093246D01*
X0139362Y0093240D01*
X0139417Y0093238D01*
X0139417Y0093239D02*
X0140222Y0093239D01*
X0139255Y0093239D02*
X0138611Y0091950D01*
X0140222Y0091950D02*
X0140222Y0094850D01*
X0139417Y0094850D01*
X0134482Y0094850D02*
X0132871Y0094850D01*
X0134482Y0094850D02*
X0134482Y0094528D01*
X0146822Y0094789D02*
X0146822Y0095756D01*
X0146823Y0095756D02*
X0146825Y0095807D01*
X0146831Y0095857D01*
X0146841Y0095906D01*
X0146855Y0095955D01*
X0146872Y0096002D01*
X0146893Y0096048D01*
X0146918Y0096092D01*
X0146946Y0096135D01*
X0146977Y0096174D01*
X0147012Y0096211D01*
X0147049Y0096246D01*
X0147088Y0096277D01*
X0147131Y0096305D01*
X0147175Y0096330D01*
X0147221Y0096351D01*
X0147268Y0096368D01*
X0147317Y0096382D01*
X0147366Y0096392D01*
X0147416Y0096398D01*
X0147467Y0096400D01*
X0147789Y0096400D01*
X0147837Y0096398D01*
X0147885Y0096393D01*
X0147932Y0096384D01*
X0147979Y0096371D01*
X0148024Y0096355D01*
X0148068Y0096336D01*
X0148111Y0096314D01*
X0148152Y0096288D01*
X0148191Y0096259D01*
X0148227Y0096228D01*
X0148261Y0096194D01*
X0148292Y0096158D01*
X0148321Y0096119D01*
X0148347Y0096078D01*
X0148369Y0096035D01*
X0148388Y0095991D01*
X0148404Y0095946D01*
X0148417Y0095899D01*
X0148426Y0095852D01*
X0148431Y0095804D01*
X0148433Y0095756D01*
X0148433Y0094789D01*
X0149722Y0094789D01*
X0149722Y0096400D01*
X0148917Y0093607D02*
X0147628Y0093607D01*
X0147467Y0093284D02*
X0146822Y0093929D01*
X0147628Y0093607D02*
X0147573Y0093605D01*
X0147518Y0093599D01*
X0147464Y0093590D01*
X0147411Y0093577D01*
X0147358Y0093560D01*
X0147307Y0093540D01*
X0147257Y0093517D01*
X0147209Y0093490D01*
X0147163Y0093459D01*
X0147119Y0093426D01*
X0147078Y0093390D01*
X0147039Y0093351D01*
X0147003Y0093310D01*
X0146970Y0093266D01*
X0146939Y0093220D01*
X0146912Y0093172D01*
X0146889Y0093122D01*
X0146869Y0093071D01*
X0146852Y0093018D01*
X0146839Y0092965D01*
X0146830Y0092911D01*
X0146824Y0092856D01*
X0146822Y0092801D01*
X0146824Y0092746D01*
X0146830Y0092691D01*
X0146839Y0092637D01*
X0146852Y0092584D01*
X0146869Y0092531D01*
X0146889Y0092480D01*
X0146912Y0092430D01*
X0146939Y0092382D01*
X0146970Y0092336D01*
X0147003Y0092292D01*
X0147039Y0092251D01*
X0147078Y0092212D01*
X0147119Y0092176D01*
X0147163Y0092143D01*
X0147209Y0092112D01*
X0147257Y0092085D01*
X0147307Y0092062D01*
X0147358Y0092042D01*
X0147411Y0092025D01*
X0147464Y0092012D01*
X0147518Y0092003D01*
X0147573Y0091997D01*
X0147628Y0091995D01*
X0148917Y0091995D01*
X0148972Y0091997D01*
X0149027Y0092003D01*
X0149081Y0092012D01*
X0149134Y0092025D01*
X0149187Y0092042D01*
X0149238Y0092062D01*
X0149288Y0092085D01*
X0149336Y0092112D01*
X0149382Y0092143D01*
X0149426Y0092176D01*
X0149467Y0092212D01*
X0149506Y0092251D01*
X0149542Y0092292D01*
X0149575Y0092336D01*
X0149606Y0092382D01*
X0149633Y0092430D01*
X0149656Y0092480D01*
X0149676Y0092531D01*
X0149693Y0092584D01*
X0149706Y0092637D01*
X0149715Y0092691D01*
X0149721Y0092746D01*
X0149723Y0092801D01*
X0149721Y0092856D01*
X0149715Y0092911D01*
X0149706Y0092965D01*
X0149693Y0093018D01*
X0149676Y0093071D01*
X0149656Y0093122D01*
X0149633Y0093172D01*
X0149606Y0093220D01*
X0149575Y0093266D01*
X0149542Y0093310D01*
X0149506Y0093351D01*
X0149467Y0093390D01*
X0149426Y0093426D01*
X0149382Y0093459D01*
X0149336Y0093490D01*
X0149288Y0093517D01*
X0149238Y0093540D01*
X0149187Y0093560D01*
X0149134Y0093577D01*
X0149081Y0093590D01*
X0149027Y0093599D01*
X0148972Y0093605D01*
X0148917Y0093607D01*
X0147422Y0118950D02*
X0144522Y0118950D01*
X0145811Y0118950D02*
X0145811Y0119756D01*
X0145811Y0119917D02*
X0144522Y0120561D01*
X0144522Y0121810D02*
X0144522Y0123421D01*
X0144522Y0122615D02*
X0147422Y0122615D01*
X0146778Y0121810D01*
X0147423Y0119756D02*
X0147421Y0119811D01*
X0147415Y0119866D01*
X0147406Y0119920D01*
X0147393Y0119973D01*
X0147376Y0120026D01*
X0147356Y0120077D01*
X0147333Y0120127D01*
X0147306Y0120175D01*
X0147275Y0120221D01*
X0147242Y0120265D01*
X0147206Y0120306D01*
X0147167Y0120345D01*
X0147126Y0120381D01*
X0147082Y0120414D01*
X0147036Y0120445D01*
X0146988Y0120472D01*
X0146938Y0120495D01*
X0146887Y0120515D01*
X0146834Y0120532D01*
X0146781Y0120545D01*
X0146727Y0120554D01*
X0146672Y0120560D01*
X0146617Y0120562D01*
X0146562Y0120560D01*
X0146507Y0120554D01*
X0146453Y0120545D01*
X0146400Y0120532D01*
X0146347Y0120515D01*
X0146296Y0120495D01*
X0146246Y0120472D01*
X0146198Y0120445D01*
X0146152Y0120414D01*
X0146108Y0120381D01*
X0146067Y0120345D01*
X0146028Y0120306D01*
X0145992Y0120265D01*
X0145959Y0120221D01*
X0145928Y0120175D01*
X0145901Y0120127D01*
X0145878Y0120077D01*
X0145858Y0120026D01*
X0145841Y0119973D01*
X0145828Y0119920D01*
X0145819Y0119866D01*
X0145813Y0119811D01*
X0145811Y0119756D01*
X0147422Y0119756D02*
X0147422Y0118950D01*
X0146778Y0124690D02*
X0147422Y0125495D01*
X0144522Y0125495D01*
X0144522Y0124690D02*
X0144522Y0126301D01*
X0128422Y0122615D02*
X0125522Y0122615D01*
X0125522Y0121810D02*
X0125522Y0123421D01*
X0125522Y0124690D02*
X0125522Y0126301D01*
X0125522Y0124690D02*
X0127133Y0126059D01*
X0128422Y0125576D02*
X0128420Y0125517D01*
X0128415Y0125459D01*
X0128405Y0125401D01*
X0128393Y0125344D01*
X0128376Y0125288D01*
X0128357Y0125233D01*
X0128333Y0125179D01*
X0128307Y0125127D01*
X0128277Y0125077D01*
X0128244Y0125028D01*
X0128208Y0124982D01*
X0128169Y0124938D01*
X0128128Y0124897D01*
X0128084Y0124858D01*
X0128038Y0124822D01*
X0127989Y0124790D01*
X0127939Y0124760D01*
X0127887Y0124733D01*
X0127833Y0124710D01*
X0127778Y0124690D01*
X0127133Y0126059D02*
X0127170Y0126096D01*
X0127210Y0126130D01*
X0127252Y0126162D01*
X0127297Y0126190D01*
X0127343Y0126216D01*
X0127390Y0126238D01*
X0127439Y0126257D01*
X0127489Y0126273D01*
X0127540Y0126285D01*
X0127592Y0126294D01*
X0127644Y0126299D01*
X0127697Y0126301D01*
X0127749Y0126299D01*
X0127800Y0126294D01*
X0127851Y0126284D01*
X0127901Y0126272D01*
X0127950Y0126255D01*
X0127998Y0126235D01*
X0128044Y0126212D01*
X0128089Y0126186D01*
X0128131Y0126156D01*
X0128172Y0126124D01*
X0128210Y0126089D01*
X0128245Y0126051D01*
X0128277Y0126010D01*
X0128307Y0125968D01*
X0128333Y0125923D01*
X0128356Y0125877D01*
X0128376Y0125829D01*
X0128393Y0125780D01*
X0128405Y0125730D01*
X0128415Y0125679D01*
X0128420Y0125628D01*
X0128422Y0125576D01*
X0128422Y0122615D02*
X0127778Y0121810D01*
X0128423Y0119756D02*
X0128421Y0119811D01*
X0128415Y0119866D01*
X0128406Y0119920D01*
X0128393Y0119973D01*
X0128376Y0120026D01*
X0128356Y0120077D01*
X0128333Y0120127D01*
X0128306Y0120175D01*
X0128275Y0120221D01*
X0128242Y0120265D01*
X0128206Y0120306D01*
X0128167Y0120345D01*
X0128126Y0120381D01*
X0128082Y0120414D01*
X0128036Y0120445D01*
X0127988Y0120472D01*
X0127938Y0120495D01*
X0127887Y0120515D01*
X0127834Y0120532D01*
X0127781Y0120545D01*
X0127727Y0120554D01*
X0127672Y0120560D01*
X0127617Y0120562D01*
X0127562Y0120560D01*
X0127507Y0120554D01*
X0127453Y0120545D01*
X0127400Y0120532D01*
X0127347Y0120515D01*
X0127296Y0120495D01*
X0127246Y0120472D01*
X0127198Y0120445D01*
X0127152Y0120414D01*
X0127108Y0120381D01*
X0127067Y0120345D01*
X0127028Y0120306D01*
X0126992Y0120265D01*
X0126959Y0120221D01*
X0126928Y0120175D01*
X0126901Y0120127D01*
X0126878Y0120077D01*
X0126858Y0120026D01*
X0126841Y0119973D01*
X0126828Y0119920D01*
X0126819Y0119866D01*
X0126813Y0119811D01*
X0126811Y0119756D01*
X0126811Y0118950D01*
X0126811Y0119917D02*
X0125522Y0120561D01*
X0125522Y0118950D02*
X0128422Y0118950D01*
X0128422Y0119756D01*
X0119422Y0117165D02*
X0116522Y0117165D01*
X0116522Y0117970D02*
X0116522Y0116359D01*
X0116522Y0115239D02*
X0116522Y0114594D01*
X0116523Y0114594D02*
X0116525Y0114546D01*
X0116530Y0114498D01*
X0116539Y0114451D01*
X0116552Y0114404D01*
X0116568Y0114359D01*
X0116587Y0114315D01*
X0116609Y0114272D01*
X0116635Y0114231D01*
X0116664Y0114192D01*
X0116695Y0114156D01*
X0116729Y0114122D01*
X0116765Y0114091D01*
X0116804Y0114062D01*
X0116845Y0114036D01*
X0116888Y0114014D01*
X0116932Y0113995D01*
X0116977Y0113979D01*
X0117024Y0113966D01*
X0117071Y0113957D01*
X0117119Y0113952D01*
X0117167Y0113950D01*
X0118778Y0113950D01*
X0118826Y0113952D01*
X0118874Y0113957D01*
X0118921Y0113966D01*
X0118968Y0113979D01*
X0119013Y0113995D01*
X0119057Y0114014D01*
X0119100Y0114036D01*
X0119141Y0114062D01*
X0119180Y0114091D01*
X0119216Y0114122D01*
X0119250Y0114156D01*
X0119281Y0114192D01*
X0119310Y0114231D01*
X0119336Y0114272D01*
X0119358Y0114315D01*
X0119377Y0114359D01*
X0119393Y0114404D01*
X0119406Y0114451D01*
X0119415Y0114498D01*
X0119420Y0114546D01*
X0119422Y0114594D01*
X0119422Y0115239D01*
X0118778Y0116359D02*
X0119422Y0117165D01*
X0106278Y0132813D02*
X0105633Y0132813D01*
X0106278Y0132813D02*
X0106326Y0132815D01*
X0106374Y0132820D01*
X0106421Y0132829D01*
X0106468Y0132842D01*
X0106513Y0132858D01*
X0106557Y0132877D01*
X0106600Y0132899D01*
X0106641Y0132925D01*
X0106680Y0132954D01*
X0106716Y0132985D01*
X0106750Y0133019D01*
X0106781Y0133055D01*
X0106810Y0133094D01*
X0106836Y0133135D01*
X0106858Y0133178D01*
X0106877Y0133222D01*
X0106893Y0133267D01*
X0106906Y0133314D01*
X0106915Y0133361D01*
X0106920Y0133409D01*
X0106922Y0133457D01*
X0106922Y0135069D01*
X0106920Y0135117D01*
X0106915Y0135165D01*
X0106906Y0135212D01*
X0106893Y0135259D01*
X0106877Y0135304D01*
X0106858Y0135348D01*
X0106836Y0135391D01*
X0106810Y0135432D01*
X0106781Y0135471D01*
X0106750Y0135507D01*
X0106716Y0135541D01*
X0106680Y0135572D01*
X0106641Y0135601D01*
X0106600Y0135627D01*
X0106557Y0135649D01*
X0106513Y0135668D01*
X0106468Y0135684D01*
X0106421Y0135697D01*
X0106374Y0135706D01*
X0106326Y0135711D01*
X0106278Y0135713D01*
X0105633Y0135713D01*
X0104513Y0135069D02*
X0103708Y0135713D01*
X0103708Y0132813D01*
X0104513Y0132813D02*
X0102902Y0132813D01*
X0100264Y0133216D02*
X0100226Y0133298D01*
X0100191Y0133381D01*
X0100159Y0133466D01*
X0100130Y0133551D01*
X0100105Y0133638D01*
X0100083Y0133726D01*
X0100065Y0133814D01*
X0100049Y0133903D01*
X0100037Y0133993D01*
X0100029Y0134082D01*
X0100024Y0134173D01*
X0100022Y0134263D01*
X0101633Y0134263D02*
X0101631Y0134353D01*
X0101626Y0134444D01*
X0101618Y0134533D01*
X0101606Y0134623D01*
X0101590Y0134712D01*
X0101572Y0134800D01*
X0101550Y0134888D01*
X0101525Y0134975D01*
X0101496Y0135060D01*
X0101464Y0135145D01*
X0101429Y0135228D01*
X0101391Y0135310D01*
X0101392Y0135310D02*
X0101375Y0135353D01*
X0101355Y0135395D01*
X0101332Y0135435D01*
X0101306Y0135473D01*
X0101277Y0135509D01*
X0101245Y0135543D01*
X0101211Y0135574D01*
X0101174Y0135602D01*
X0101136Y0135627D01*
X0101095Y0135650D01*
X0101053Y0135669D01*
X0101010Y0135685D01*
X0100965Y0135697D01*
X0100920Y0135706D01*
X0100874Y0135711D01*
X0100828Y0135713D01*
X0100782Y0135711D01*
X0100736Y0135706D01*
X0100691Y0135697D01*
X0100646Y0135685D01*
X0100603Y0135669D01*
X0100561Y0135650D01*
X0100520Y0135627D01*
X0100482Y0135602D01*
X0100445Y0135574D01*
X0100411Y0135543D01*
X0100379Y0135509D01*
X0100350Y0135473D01*
X0100324Y0135435D01*
X0100301Y0135395D01*
X0100281Y0135353D01*
X0100264Y0135310D01*
X0100183Y0135069D02*
X0101472Y0133457D01*
X0100828Y0132813D02*
X0100782Y0132815D01*
X0100736Y0132820D01*
X0100691Y0132829D01*
X0100646Y0132841D01*
X0100603Y0132857D01*
X0100561Y0132876D01*
X0100520Y0132899D01*
X0100482Y0132924D01*
X0100445Y0132952D01*
X0100411Y0132983D01*
X0100379Y0133017D01*
X0100350Y0133053D01*
X0100324Y0133091D01*
X0100301Y0133131D01*
X0100281Y0133173D01*
X0100264Y0133216D01*
X0100828Y0132813D02*
X0100874Y0132815D01*
X0100920Y0132820D01*
X0100965Y0132829D01*
X0101010Y0132841D01*
X0101053Y0132857D01*
X0101095Y0132876D01*
X0101136Y0132899D01*
X0101174Y0132924D01*
X0101211Y0132952D01*
X0101245Y0132983D01*
X0101277Y0133017D01*
X0101306Y0133053D01*
X0101332Y0133091D01*
X0101355Y0133131D01*
X0101375Y0133173D01*
X0101392Y0133216D01*
X0100022Y0134263D02*
X0100024Y0134353D01*
X0100029Y0134444D01*
X0100037Y0134533D01*
X0100049Y0134623D01*
X0100065Y0134712D01*
X0100083Y0134800D01*
X0100105Y0134888D01*
X0100130Y0134975D01*
X0100159Y0135060D01*
X0100191Y0135145D01*
X0100226Y0135228D01*
X0100264Y0135310D01*
X0101633Y0134263D02*
X0101631Y0134173D01*
X0101626Y0134082D01*
X0101618Y0133993D01*
X0101606Y0133903D01*
X0101590Y0133814D01*
X0101572Y0133726D01*
X0101550Y0133638D01*
X0101525Y0133551D01*
X0101496Y0133466D01*
X0101464Y0133381D01*
X0101429Y0133298D01*
X0101391Y0133216D01*
X0090778Y0151950D02*
X0089167Y0151950D01*
X0089119Y0151952D01*
X0089071Y0151957D01*
X0089024Y0151966D01*
X0088977Y0151979D01*
X0088932Y0151995D01*
X0088888Y0152014D01*
X0088845Y0152036D01*
X0088804Y0152062D01*
X0088765Y0152091D01*
X0088729Y0152122D01*
X0088695Y0152156D01*
X0088664Y0152192D01*
X0088635Y0152231D01*
X0088609Y0152272D01*
X0088587Y0152315D01*
X0088568Y0152359D01*
X0088552Y0152404D01*
X0088539Y0152451D01*
X0088530Y0152498D01*
X0088525Y0152546D01*
X0088523Y0152594D01*
X0088522Y0152594D02*
X0088522Y0153239D01*
X0088522Y0154681D02*
X0088524Y0154751D01*
X0088530Y0154820D01*
X0088539Y0154890D01*
X0088552Y0154958D01*
X0088569Y0155026D01*
X0088589Y0155093D01*
X0088614Y0155158D01*
X0088641Y0155222D01*
X0088672Y0155285D01*
X0088707Y0155346D01*
X0088744Y0155404D01*
X0088785Y0155461D01*
X0088829Y0155515D01*
X0088875Y0155567D01*
X0088925Y0155617D01*
X0088977Y0155663D01*
X0089031Y0155707D01*
X0089088Y0155748D01*
X0089146Y0155785D01*
X0089207Y0155820D01*
X0089270Y0155851D01*
X0089334Y0155878D01*
X0089399Y0155903D01*
X0089466Y0155923D01*
X0089534Y0155940D01*
X0089602Y0155953D01*
X0089672Y0155962D01*
X0089741Y0155968D01*
X0089811Y0155970D01*
X0090617Y0155970D01*
X0090617Y0155971D02*
X0090672Y0155969D01*
X0090727Y0155963D01*
X0090781Y0155954D01*
X0090834Y0155941D01*
X0090887Y0155924D01*
X0090938Y0155904D01*
X0090988Y0155881D01*
X0091036Y0155854D01*
X0091082Y0155823D01*
X0091126Y0155790D01*
X0091167Y0155754D01*
X0091206Y0155715D01*
X0091242Y0155674D01*
X0091275Y0155630D01*
X0091306Y0155584D01*
X0091333Y0155536D01*
X0091356Y0155486D01*
X0091376Y0155435D01*
X0091393Y0155382D01*
X0091406Y0155329D01*
X0091415Y0155275D01*
X0091421Y0155220D01*
X0091423Y0155165D01*
X0091421Y0155110D01*
X0091415Y0155055D01*
X0091406Y0155001D01*
X0091393Y0154948D01*
X0091376Y0154895D01*
X0091356Y0154844D01*
X0091333Y0154794D01*
X0091306Y0154746D01*
X0091275Y0154700D01*
X0091242Y0154656D01*
X0091206Y0154615D01*
X0091167Y0154576D01*
X0091126Y0154540D01*
X0091082Y0154507D01*
X0091036Y0154476D01*
X0090988Y0154449D01*
X0090938Y0154426D01*
X0090887Y0154406D01*
X0090834Y0154389D01*
X0090781Y0154376D01*
X0090727Y0154367D01*
X0090672Y0154361D01*
X0090617Y0154359D01*
X0090455Y0154359D01*
X0090455Y0154360D02*
X0090407Y0154362D01*
X0090359Y0154367D01*
X0090312Y0154376D01*
X0090265Y0154389D01*
X0090220Y0154405D01*
X0090176Y0154424D01*
X0090133Y0154446D01*
X0090092Y0154472D01*
X0090053Y0154500D01*
X0090017Y0154532D01*
X0089983Y0154566D01*
X0089952Y0154602D01*
X0089923Y0154641D01*
X0089897Y0154682D01*
X0089875Y0154725D01*
X0089856Y0154769D01*
X0089840Y0154814D01*
X0089827Y0154861D01*
X0089818Y0154908D01*
X0089813Y0154956D01*
X0089811Y0155004D01*
X0089811Y0155970D01*
X0091422Y0153239D02*
X0091422Y0152594D01*
X0091420Y0152546D01*
X0091415Y0152498D01*
X0091406Y0152451D01*
X0091393Y0152404D01*
X0091377Y0152359D01*
X0091358Y0152315D01*
X0091336Y0152272D01*
X0091310Y0152231D01*
X0091281Y0152192D01*
X0091250Y0152156D01*
X0091216Y0152122D01*
X0091180Y0152091D01*
X0091141Y0152062D01*
X0091100Y0152036D01*
X0091057Y0152014D01*
X0091013Y0151995D01*
X0090968Y0151979D01*
X0090921Y0151966D01*
X0090874Y0151957D01*
X0090826Y0151952D01*
X0090778Y0151950D01*
X0118828Y0159250D02*
X0119633Y0159250D01*
X0118828Y0159250D02*
X0118773Y0159252D01*
X0118718Y0159258D01*
X0118664Y0159267D01*
X0118611Y0159280D01*
X0118558Y0159297D01*
X0118507Y0159317D01*
X0118457Y0159340D01*
X0118409Y0159367D01*
X0118363Y0159398D01*
X0118319Y0159431D01*
X0118278Y0159467D01*
X0118239Y0159506D01*
X0118203Y0159547D01*
X0118170Y0159591D01*
X0118139Y0159637D01*
X0118112Y0159685D01*
X0118089Y0159735D01*
X0118069Y0159786D01*
X0118052Y0159839D01*
X0118039Y0159892D01*
X0118030Y0159946D01*
X0118024Y0160001D01*
X0118022Y0160056D01*
X0118024Y0160111D01*
X0118030Y0160166D01*
X0118039Y0160220D01*
X0118052Y0160273D01*
X0118069Y0160326D01*
X0118089Y0160377D01*
X0118112Y0160427D01*
X0118139Y0160475D01*
X0118170Y0160521D01*
X0118203Y0160565D01*
X0118239Y0160606D01*
X0118278Y0160645D01*
X0118319Y0160681D01*
X0118363Y0160714D01*
X0118409Y0160745D01*
X0118457Y0160772D01*
X0118507Y0160795D01*
X0118558Y0160815D01*
X0118611Y0160832D01*
X0118664Y0160845D01*
X0118718Y0160854D01*
X0118773Y0160860D01*
X0118828Y0160862D01*
X0118667Y0160861D02*
X0119311Y0160861D01*
X0118667Y0160862D02*
X0118618Y0160864D01*
X0118569Y0160870D01*
X0118520Y0160879D01*
X0118473Y0160892D01*
X0118426Y0160909D01*
X0118381Y0160929D01*
X0118338Y0160952D01*
X0118296Y0160979D01*
X0118257Y0161009D01*
X0118220Y0161042D01*
X0118186Y0161078D01*
X0118155Y0161116D01*
X0118126Y0161156D01*
X0118101Y0161198D01*
X0118079Y0161243D01*
X0118061Y0161288D01*
X0118046Y0161335D01*
X0118035Y0161383D01*
X0118027Y0161432D01*
X0118023Y0161481D01*
X0118023Y0161531D01*
X0118027Y0161580D01*
X0118035Y0161629D01*
X0118046Y0161677D01*
X0118061Y0161724D01*
X0118079Y0161769D01*
X0118101Y0161814D01*
X0118126Y0161856D01*
X0118155Y0161896D01*
X0118186Y0161934D01*
X0118220Y0161970D01*
X0118257Y0162003D01*
X0118296Y0162033D01*
X0118338Y0162060D01*
X0118381Y0162083D01*
X0118426Y0162103D01*
X0118473Y0162120D01*
X0118520Y0162133D01*
X0118569Y0162142D01*
X0118618Y0162148D01*
X0118667Y0162150D01*
X0119633Y0162150D01*
X0120998Y0162150D02*
X0120998Y0160056D01*
X0121000Y0160001D01*
X0121006Y0159946D01*
X0121015Y0159892D01*
X0121028Y0159839D01*
X0121045Y0159786D01*
X0121065Y0159735D01*
X0121088Y0159685D01*
X0121115Y0159637D01*
X0121146Y0159591D01*
X0121179Y0159547D01*
X0121215Y0159506D01*
X0121254Y0159467D01*
X0121295Y0159431D01*
X0121339Y0159398D01*
X0121385Y0159367D01*
X0121433Y0159340D01*
X0121483Y0159317D01*
X0121534Y0159297D01*
X0121587Y0159280D01*
X0121640Y0159267D01*
X0121694Y0159258D01*
X0121749Y0159252D01*
X0121804Y0159250D01*
X0121859Y0159252D01*
X0121914Y0159258D01*
X0121968Y0159267D01*
X0122021Y0159280D01*
X0122074Y0159297D01*
X0122125Y0159317D01*
X0122175Y0159340D01*
X0122223Y0159367D01*
X0122269Y0159398D01*
X0122313Y0159431D01*
X0122354Y0159467D01*
X0122393Y0159506D01*
X0122429Y0159547D01*
X0122462Y0159591D01*
X0122493Y0159637D01*
X0122520Y0159685D01*
X0122543Y0159735D01*
X0122563Y0159786D01*
X0122580Y0159839D01*
X0122593Y0159892D01*
X0122602Y0159946D01*
X0122608Y0160001D01*
X0122610Y0160056D01*
X0122609Y0160056D02*
X0122609Y0162150D01*
X0123507Y0169887D02*
X0122702Y0172787D01*
X0124313Y0172787D01*
X0124313Y0172465D01*
X0125433Y0172787D02*
X0126078Y0172787D01*
X0126126Y0172785D01*
X0126174Y0172780D01*
X0126221Y0172771D01*
X0126268Y0172758D01*
X0126313Y0172742D01*
X0126357Y0172723D01*
X0126400Y0172701D01*
X0126441Y0172675D01*
X0126480Y0172646D01*
X0126516Y0172615D01*
X0126550Y0172581D01*
X0126581Y0172545D01*
X0126610Y0172506D01*
X0126636Y0172465D01*
X0126658Y0172422D01*
X0126677Y0172378D01*
X0126693Y0172333D01*
X0126706Y0172286D01*
X0126715Y0172239D01*
X0126720Y0172191D01*
X0126722Y0172143D01*
X0126722Y0170531D01*
X0126720Y0170483D01*
X0126715Y0170435D01*
X0126706Y0170388D01*
X0126693Y0170341D01*
X0126677Y0170296D01*
X0126658Y0170252D01*
X0126636Y0170209D01*
X0126610Y0170168D01*
X0126581Y0170129D01*
X0126550Y0170093D01*
X0126516Y0170059D01*
X0126480Y0170028D01*
X0126441Y0169999D01*
X0126400Y0169973D01*
X0126357Y0169951D01*
X0126313Y0169932D01*
X0126268Y0169916D01*
X0126221Y0169903D01*
X0126174Y0169894D01*
X0126126Y0169889D01*
X0126078Y0169887D01*
X0125433Y0169887D01*
X0134328Y0162971D02*
X0134273Y0162969D01*
X0134218Y0162963D01*
X0134164Y0162954D01*
X0134111Y0162941D01*
X0134058Y0162924D01*
X0134007Y0162904D01*
X0133957Y0162881D01*
X0133909Y0162854D01*
X0133863Y0162823D01*
X0133819Y0162790D01*
X0133778Y0162754D01*
X0133739Y0162715D01*
X0133703Y0162674D01*
X0133670Y0162630D01*
X0133639Y0162584D01*
X0133612Y0162536D01*
X0133589Y0162486D01*
X0133569Y0162435D01*
X0133552Y0162382D01*
X0133539Y0162329D01*
X0133530Y0162275D01*
X0133524Y0162220D01*
X0133522Y0162165D01*
X0133524Y0162110D01*
X0133530Y0162055D01*
X0133539Y0162001D01*
X0133552Y0161948D01*
X0133569Y0161895D01*
X0133589Y0161844D01*
X0133612Y0161794D01*
X0133639Y0161746D01*
X0133670Y0161700D01*
X0133703Y0161656D01*
X0133739Y0161615D01*
X0133778Y0161576D01*
X0133819Y0161540D01*
X0133863Y0161507D01*
X0133909Y0161476D01*
X0133957Y0161449D01*
X0134007Y0161426D01*
X0134058Y0161406D01*
X0134111Y0161389D01*
X0134164Y0161376D01*
X0134218Y0161367D01*
X0134273Y0161361D01*
X0134328Y0161359D01*
X0134383Y0161361D01*
X0134438Y0161367D01*
X0134492Y0161376D01*
X0134545Y0161389D01*
X0134598Y0161406D01*
X0134649Y0161426D01*
X0134699Y0161449D01*
X0134747Y0161476D01*
X0134793Y0161507D01*
X0134837Y0161540D01*
X0134878Y0161576D01*
X0134917Y0161615D01*
X0134953Y0161656D01*
X0134986Y0161700D01*
X0135017Y0161746D01*
X0135044Y0161794D01*
X0135067Y0161844D01*
X0135087Y0161895D01*
X0135104Y0161948D01*
X0135117Y0162001D01*
X0135126Y0162055D01*
X0135132Y0162110D01*
X0135134Y0162165D01*
X0135132Y0162220D01*
X0135126Y0162275D01*
X0135117Y0162329D01*
X0135104Y0162382D01*
X0135087Y0162435D01*
X0135067Y0162486D01*
X0135044Y0162536D01*
X0135017Y0162584D01*
X0134986Y0162630D01*
X0134953Y0162674D01*
X0134917Y0162715D01*
X0134878Y0162754D01*
X0134837Y0162790D01*
X0134793Y0162823D01*
X0134747Y0162854D01*
X0134699Y0162881D01*
X0134649Y0162904D01*
X0134598Y0162924D01*
X0134545Y0162941D01*
X0134492Y0162954D01*
X0134438Y0162963D01*
X0134383Y0162969D01*
X0134328Y0162971D01*
X0135778Y0162809D02*
X0135729Y0162807D01*
X0135680Y0162801D01*
X0135631Y0162792D01*
X0135584Y0162779D01*
X0135537Y0162762D01*
X0135492Y0162742D01*
X0135449Y0162719D01*
X0135407Y0162692D01*
X0135368Y0162662D01*
X0135331Y0162629D01*
X0135297Y0162593D01*
X0135266Y0162555D01*
X0135237Y0162515D01*
X0135212Y0162473D01*
X0135190Y0162428D01*
X0135172Y0162383D01*
X0135157Y0162336D01*
X0135146Y0162288D01*
X0135138Y0162239D01*
X0135134Y0162190D01*
X0135134Y0162140D01*
X0135138Y0162091D01*
X0135146Y0162042D01*
X0135157Y0161994D01*
X0135172Y0161947D01*
X0135190Y0161902D01*
X0135212Y0161857D01*
X0135237Y0161815D01*
X0135266Y0161775D01*
X0135297Y0161737D01*
X0135331Y0161701D01*
X0135368Y0161668D01*
X0135407Y0161638D01*
X0135449Y0161611D01*
X0135492Y0161588D01*
X0135537Y0161568D01*
X0135584Y0161551D01*
X0135631Y0161538D01*
X0135680Y0161529D01*
X0135729Y0161523D01*
X0135778Y0161521D01*
X0135827Y0161523D01*
X0135876Y0161529D01*
X0135925Y0161538D01*
X0135972Y0161551D01*
X0136019Y0161568D01*
X0136064Y0161588D01*
X0136107Y0161611D01*
X0136149Y0161638D01*
X0136188Y0161668D01*
X0136225Y0161701D01*
X0136259Y0161737D01*
X0136290Y0161775D01*
X0136319Y0161815D01*
X0136344Y0161857D01*
X0136366Y0161902D01*
X0136384Y0161947D01*
X0136399Y0161994D01*
X0136410Y0162042D01*
X0136418Y0162091D01*
X0136422Y0162140D01*
X0136422Y0162190D01*
X0136418Y0162239D01*
X0136410Y0162288D01*
X0136399Y0162336D01*
X0136384Y0162383D01*
X0136366Y0162428D01*
X0136344Y0162473D01*
X0136319Y0162515D01*
X0136290Y0162555D01*
X0136259Y0162593D01*
X0136225Y0162629D01*
X0136188Y0162662D01*
X0136149Y0162692D01*
X0136107Y0162719D01*
X0136064Y0162742D01*
X0136019Y0162762D01*
X0135972Y0162779D01*
X0135925Y0162792D01*
X0135876Y0162801D01*
X0135827Y0162807D01*
X0135778Y0162809D01*
X0136422Y0160239D02*
X0136422Y0159594D01*
X0136420Y0159546D01*
X0136415Y0159498D01*
X0136406Y0159451D01*
X0136393Y0159404D01*
X0136377Y0159359D01*
X0136358Y0159315D01*
X0136336Y0159272D01*
X0136310Y0159231D01*
X0136281Y0159192D01*
X0136250Y0159156D01*
X0136216Y0159122D01*
X0136180Y0159091D01*
X0136141Y0159062D01*
X0136100Y0159036D01*
X0136057Y0159014D01*
X0136013Y0158995D01*
X0135968Y0158979D01*
X0135921Y0158966D01*
X0135874Y0158957D01*
X0135826Y0158952D01*
X0135778Y0158950D01*
X0134167Y0158950D01*
X0134119Y0158952D01*
X0134071Y0158957D01*
X0134024Y0158966D01*
X0133977Y0158979D01*
X0133932Y0158995D01*
X0133888Y0159014D01*
X0133845Y0159036D01*
X0133804Y0159062D01*
X0133765Y0159091D01*
X0133729Y0159122D01*
X0133695Y0159156D01*
X0133664Y0159192D01*
X0133635Y0159231D01*
X0133609Y0159272D01*
X0133587Y0159315D01*
X0133568Y0159359D01*
X0133552Y0159404D01*
X0133539Y0159451D01*
X0133530Y0159498D01*
X0133525Y0159546D01*
X0133523Y0159594D01*
X0133522Y0159594D02*
X0133522Y0160239D01*
X0133522Y0150850D02*
X0133522Y0149239D01*
X0133522Y0150045D02*
X0136422Y0150045D01*
X0135778Y0149239D01*
X0136422Y0147165D02*
X0133522Y0147165D01*
X0133522Y0147970D02*
X0133522Y0146359D01*
X0133522Y0145239D02*
X0133522Y0144594D01*
X0133523Y0144594D02*
X0133525Y0144546D01*
X0133530Y0144498D01*
X0133539Y0144451D01*
X0133552Y0144404D01*
X0133568Y0144359D01*
X0133587Y0144315D01*
X0133609Y0144272D01*
X0133635Y0144231D01*
X0133664Y0144192D01*
X0133695Y0144156D01*
X0133729Y0144122D01*
X0133765Y0144091D01*
X0133804Y0144062D01*
X0133845Y0144036D01*
X0133888Y0144014D01*
X0133932Y0143995D01*
X0133977Y0143979D01*
X0134024Y0143966D01*
X0134071Y0143957D01*
X0134119Y0143952D01*
X0134167Y0143950D01*
X0135778Y0143950D01*
X0135826Y0143952D01*
X0135874Y0143957D01*
X0135921Y0143966D01*
X0135968Y0143979D01*
X0136013Y0143995D01*
X0136057Y0144014D01*
X0136100Y0144036D01*
X0136141Y0144062D01*
X0136180Y0144091D01*
X0136216Y0144122D01*
X0136250Y0144156D01*
X0136281Y0144192D01*
X0136310Y0144231D01*
X0136336Y0144272D01*
X0136358Y0144315D01*
X0136377Y0144359D01*
X0136393Y0144404D01*
X0136406Y0144451D01*
X0136415Y0144498D01*
X0136420Y0144546D01*
X0136422Y0144594D01*
X0136422Y0145239D01*
X0135778Y0146359D02*
X0136422Y0147165D01*
D12*
X0066736Y0035300D03*
D13*
X0099960Y0108400D02*
X0101404Y0108400D01*
X0100682Y0108400D02*
X0100682Y0111000D01*
X0101404Y0110422D01*
X0102936Y0111000D02*
X0102936Y0109122D01*
X0102938Y0109069D01*
X0102944Y0109017D01*
X0102953Y0108965D01*
X0102967Y0108914D01*
X0102984Y0108864D01*
X0103004Y0108816D01*
X0103028Y0108769D01*
X0103056Y0108724D01*
X0103087Y0108681D01*
X0103120Y0108640D01*
X0103157Y0108602D01*
X0103196Y0108567D01*
X0103238Y0108535D01*
X0103282Y0108506D01*
X0103328Y0108480D01*
X0103376Y0108458D01*
X0103425Y0108439D01*
X0103475Y0108423D01*
X0103527Y0108412D01*
X0103579Y0108404D01*
X0103632Y0108400D01*
X0103684Y0108400D01*
X0103737Y0108404D01*
X0103789Y0108412D01*
X0103841Y0108423D01*
X0103891Y0108439D01*
X0103940Y0108458D01*
X0103988Y0108480D01*
X0104034Y0108506D01*
X0104078Y0108535D01*
X0104120Y0108567D01*
X0104159Y0108602D01*
X0104196Y0108640D01*
X0104229Y0108681D01*
X0104260Y0108724D01*
X0104288Y0108769D01*
X0104312Y0108816D01*
X0104332Y0108864D01*
X0104349Y0108914D01*
X0104363Y0108965D01*
X0104372Y0109017D01*
X0104378Y0109069D01*
X0104380Y0109122D01*
X0104380Y0111000D01*
X0093391Y0114419D02*
X0092235Y0114419D01*
X0093391Y0114419D02*
X0093391Y0117019D01*
X0091001Y0116441D02*
X0090278Y0117019D01*
X0090278Y0114419D01*
X0089556Y0114419D02*
X0091001Y0114419D01*
D14*
X0085967Y0113418D02*
X0085967Y0103182D01*
X0097778Y0103182D01*
X0097778Y0113418D01*
X0085967Y0113418D01*
X0113372Y0137300D02*
X0113372Y0145300D01*
X0113372Y0164300D02*
X0113372Y0172300D01*
M02*
