G75*
%MOIN*%
%OFA0B0*%
%FSLAX25Y25*%
%IPPOS*%
%LPD*%
%AMOC8*
5,1,8,0,0,1.08239X$1,22.5*
%
%ADD10R,0.03150X0.03543*%
%ADD11R,0.04331X0.03937*%
%ADD12R,0.03937X0.04331*%
%ADD13R,0.05512X0.03937*%
%ADD14R,0.07087X0.09449*%
%ADD15R,0.04724X0.02165*%
%ADD16R,0.03937X0.07874*%
%ADD17R,0.03937X0.00984*%
%ADD18R,0.05512X0.06299*%
%ADD19R,0.03543X0.03150*%
D10*
X0179132Y0016363D03*
X0186612Y0016363D03*
X0182872Y0024631D03*
D11*
X0191872Y0027954D03*
X0191872Y0034646D03*
X0170872Y0072954D03*
X0170872Y0079646D03*
X0170872Y0089954D03*
X0170872Y0096646D03*
X0144872Y0070646D03*
X0144872Y0063954D03*
X0140872Y0118954D03*
X0140872Y0125646D03*
X0131872Y0125646D03*
X0131872Y0118954D03*
X0072219Y0025300D03*
X0065526Y0025300D03*
X0065526Y0017300D03*
X0072219Y0017300D03*
D12*
X0094526Y0029300D03*
X0101219Y0029300D03*
X0108526Y0045300D03*
X0115219Y0045300D03*
X0094219Y0061300D03*
X0087526Y0061300D03*
X0097872Y0084954D03*
X0097872Y0091646D03*
X0113526Y0088300D03*
X0120219Y0088300D03*
X0133526Y0088300D03*
X0140219Y0088300D03*
X0112872Y0111954D03*
X0112872Y0118646D03*
X0129872Y0143954D03*
X0129872Y0150646D03*
X0129872Y0157954D03*
X0129872Y0164646D03*
X0094872Y0157646D03*
X0094872Y0150954D03*
X0186526Y0047300D03*
X0193219Y0047300D03*
D13*
X0113872Y0055560D03*
X0104423Y0059300D03*
X0104423Y0051820D03*
D14*
X0055900Y0035300D03*
X0071845Y0035300D03*
D15*
X0102754Y0097560D03*
X0102754Y0105040D03*
X0112991Y0105040D03*
X0112991Y0101300D03*
X0112991Y0097560D03*
D16*
X0094726Y0108300D03*
X0089018Y0108300D03*
D17*
X0103553Y0150363D03*
X0103553Y0152331D03*
X0103553Y0154300D03*
X0103553Y0156269D03*
X0103553Y0158237D03*
X0120191Y0158237D03*
X0120191Y0156269D03*
X0120191Y0154300D03*
X0120191Y0152331D03*
X0120191Y0150363D03*
D18*
X0117384Y0141300D03*
X0106360Y0141300D03*
X0106360Y0168300D03*
X0117384Y0168300D03*
D19*
X0161809Y0097040D03*
X0161809Y0089560D03*
X0153541Y0093300D03*
X0161809Y0080040D03*
X0161809Y0072560D03*
X0153541Y0076300D03*
M02*
